M48
; DRILL file {KiCad 9.0.2} date 2025-07-06T14:12:56-0600
; FORMAT={-:-/ absolute / inch / decimal}
; #@! TF.CreationDate,2025-07-06T14:12:56-06:00
; #@! TF.GenerationSoftware,Kicad,Pcbnew,9.0.2
; #@! TF.FileFunction,Plated,1,2,PTH
FMAT,2
INCH
; #@! TA.AperFunction,Plated,PTH,ViaDrill
T1C0.0118
; #@! TA.AperFunction,Plated,PTH,ComponentDrill
T2C0.0315
; #@! TA.AperFunction,Plated,PTH,ComponentDrill
T3C0.0350
; #@! TA.AperFunction,Plated,PTH,ComponentDrill
T4C0.0394
; #@! TA.AperFunction,Plated,PTH,ComponentDrill
T5C0.0512
; #@! TA.AperFunction,Plated,PTH,ComponentDrill
T6C0.0591
; #@! TA.AperFunction,Plated,PTH,ComponentDrill
T7C0.0827
%
G90
G05
T1
X3.1909Y-2.1402
X3.4693Y-1.2189
X3.4909Y-1.6424
X3.4953Y-1.4264
X3.6894Y-1.439
X3.872Y-1.4264
X4.4453Y-1.8453
T2
X1.9425Y-1.4551
X2.0409Y-1.4551
X2.1756Y-1.4551
X2.274Y-1.4551
X3.6449Y-1.3752
X3.6744Y-0.8551
X3.6744Y-1.2551
X3.7433Y-1.3752
X3.8539Y-0.8551
X3.8539Y-1.2551
T3
X1.9981Y-1.2699
X2.0981Y-1.2699
X2.1981Y-1.2699
T4
X1.2808Y-2.628
X1.4777Y-2.628
X2.9366Y-0.9118
X2.9366Y-1.1087
X3.4406Y-1.5134
X3.4425Y-2.1128
X3.5406Y-1.5134
X3.5425Y-2.1128
X3.6406Y-1.5134
X3.6425Y-2.1128
X3.7406Y-1.5134
X3.7425Y-2.1128
X3.8406Y-1.5134
X3.8425Y-2.1128
X3.9406Y-1.5134
X3.9425Y-2.1128
X4.0406Y-1.5134
X4.0425Y-2.1128
X4.1406Y-1.5134
X4.1425Y-2.1128
X4.2406Y-1.5134
X4.2425Y-2.1128
X4.3406Y-1.5134
X4.3425Y-2.1128
X4.4406Y-1.5134
X4.4425Y-2.1128
X4.5406Y-1.5134
X4.5425Y-2.1128
X4.6406Y-1.5134
X4.6425Y-2.1128
X4.7406Y-1.5134
X4.7425Y-2.1128
X4.8406Y-1.5134
X4.8425Y-2.1128
T5
X1.4421Y-1.1197
X1.639Y-1.1197
T6
X1.2732Y-1.4433
X1.2732Y-2.3331
T7
X0.9843Y-2.4016
X0.9843Y-2.5866
X0.9843Y-2.7717
X0.9853Y-1.0925
X0.9853Y-1.2775
X1.7717Y-2.4016
X1.7717Y-2.5866
X1.7717Y-2.7717
X2.5601Y-1.0925
X2.5601Y-1.2775
X2.5601Y-2.5885
X2.5601Y-2.7736
X3.3475Y-1.0925
X3.3475Y-1.2775
X3.3475Y-2.5885
X3.3475Y-2.7736
X4.1349Y-1.0925
X4.1349Y-1.2775
X4.1349Y-2.5885
X4.1349Y-2.7736
X4.9223Y-1.0925
X4.9223Y-1.2775
X4.9223Y-2.5885
X4.9223Y-2.7736
M30
