%TF.GenerationSoftware,KiCad,Pcbnew,9.0.2*%
%TF.CreationDate,2025-07-06T14:12:51-06:00*%
%TF.ProjectId,Switchbox3,53776974-6368-4626-9f78-332e6b696361,rev?*%
%TF.SameCoordinates,Original*%
%TF.FileFunction,Legend,Top*%
%TF.FilePolarity,Positive*%
%FSLAX46Y46*%
G04 Gerber Fmt 4.6, Leading zero omitted, Abs format (unit mm)*
G04 Created by KiCad (PCBNEW 9.0.2) date 2025-07-06 14:12:51*
%MOMM*%
%LPD*%
G01*
G04 APERTURE LIST*
%ADD10C,0.300000*%
%ADD11C,0.150000*%
%ADD12C,0.254000*%
%ADD13C,0.120000*%
%ADD14C,0.200000*%
%ADD15C,0.100000*%
G04 APERTURE END LIST*
D10*
X99823082Y-27113685D02*
X99894510Y-27042257D01*
X99894510Y-27042257D02*
X100037368Y-26970828D01*
X100037368Y-26970828D02*
X100394510Y-26970828D01*
X100394510Y-26970828D02*
X100537368Y-27042257D01*
X100537368Y-27042257D02*
X100608796Y-27113685D01*
X100608796Y-27113685D02*
X100680225Y-27256542D01*
X100680225Y-27256542D02*
X100680225Y-27399400D01*
X100680225Y-27399400D02*
X100608796Y-27613685D01*
X100608796Y-27613685D02*
X99751653Y-28470828D01*
X99751653Y-28470828D02*
X100680225Y-28470828D01*
X50114510Y-60240828D02*
X50114510Y-61455114D01*
X50114510Y-61455114D02*
X50185939Y-61597971D01*
X50185939Y-61597971D02*
X50257368Y-61669400D01*
X50257368Y-61669400D02*
X50400225Y-61740828D01*
X50400225Y-61740828D02*
X50685939Y-61740828D01*
X50685939Y-61740828D02*
X50828796Y-61669400D01*
X50828796Y-61669400D02*
X50900225Y-61597971D01*
X50900225Y-61597971D02*
X50971653Y-61455114D01*
X50971653Y-61455114D02*
X50971653Y-60240828D01*
X51685939Y-60740828D02*
X51685939Y-62240828D01*
X51685939Y-60812257D02*
X51828797Y-60740828D01*
X51828797Y-60740828D02*
X52114511Y-60740828D01*
X52114511Y-60740828D02*
X52257368Y-60812257D01*
X52257368Y-60812257D02*
X52328797Y-60883685D01*
X52328797Y-60883685D02*
X52400225Y-61026542D01*
X52400225Y-61026542D02*
X52400225Y-61455114D01*
X52400225Y-61455114D02*
X52328797Y-61597971D01*
X52328797Y-61597971D02*
X52257368Y-61669400D01*
X52257368Y-61669400D02*
X52114511Y-61740828D01*
X52114511Y-61740828D02*
X51828797Y-61740828D01*
X51828797Y-61740828D02*
X51685939Y-61669400D01*
X54901429Y-44008328D02*
X53758571Y-44436900D01*
X53758571Y-44436900D02*
X54901429Y-44865471D01*
X55615714Y-44436900D02*
X56758572Y-44436900D01*
X57472857Y-44436900D02*
X58615715Y-44436900D01*
X59330000Y-44222614D02*
X59830000Y-44222614D01*
X60044286Y-45008328D02*
X59330000Y-45008328D01*
X59330000Y-45008328D02*
X59330000Y-43508328D01*
X59330000Y-43508328D02*
X60044286Y-43508328D01*
X60472858Y-44008328D02*
X61044286Y-44008328D01*
X60687143Y-43508328D02*
X60687143Y-44794042D01*
X60687143Y-44794042D02*
X60758572Y-44936900D01*
X60758572Y-44936900D02*
X60901429Y-45008328D01*
X60901429Y-45008328D02*
X61044286Y-45008328D01*
X61544286Y-45008328D02*
X61544286Y-43508328D01*
X62187144Y-45008328D02*
X62187144Y-44222614D01*
X62187144Y-44222614D02*
X62115715Y-44079757D01*
X62115715Y-44079757D02*
X61972858Y-44008328D01*
X61972858Y-44008328D02*
X61758572Y-44008328D01*
X61758572Y-44008328D02*
X61615715Y-44079757D01*
X61615715Y-44079757D02*
X61544286Y-44151185D01*
X63472858Y-44936900D02*
X63330001Y-45008328D01*
X63330001Y-45008328D02*
X63044287Y-45008328D01*
X63044287Y-45008328D02*
X62901429Y-44936900D01*
X62901429Y-44936900D02*
X62830001Y-44794042D01*
X62830001Y-44794042D02*
X62830001Y-44222614D01*
X62830001Y-44222614D02*
X62901429Y-44079757D01*
X62901429Y-44079757D02*
X63044287Y-44008328D01*
X63044287Y-44008328D02*
X63330001Y-44008328D01*
X63330001Y-44008328D02*
X63472858Y-44079757D01*
X63472858Y-44079757D02*
X63544287Y-44222614D01*
X63544287Y-44222614D02*
X63544287Y-44365471D01*
X63544287Y-44365471D02*
X62830001Y-44508328D01*
X64187143Y-45008328D02*
X64187143Y-44008328D01*
X64187143Y-44294042D02*
X64258572Y-44151185D01*
X64258572Y-44151185D02*
X64330001Y-44079757D01*
X64330001Y-44079757D02*
X64472858Y-44008328D01*
X64472858Y-44008328D02*
X64615715Y-44008328D01*
X65115714Y-44008328D02*
X65115714Y-45008328D01*
X65115714Y-44151185D02*
X65187143Y-44079757D01*
X65187143Y-44079757D02*
X65330000Y-44008328D01*
X65330000Y-44008328D02*
X65544286Y-44008328D01*
X65544286Y-44008328D02*
X65687143Y-44079757D01*
X65687143Y-44079757D02*
X65758572Y-44222614D01*
X65758572Y-44222614D02*
X65758572Y-45008328D01*
X67044286Y-44936900D02*
X66901429Y-45008328D01*
X66901429Y-45008328D02*
X66615715Y-45008328D01*
X66615715Y-45008328D02*
X66472857Y-44936900D01*
X66472857Y-44936900D02*
X66401429Y-44794042D01*
X66401429Y-44794042D02*
X66401429Y-44222614D01*
X66401429Y-44222614D02*
X66472857Y-44079757D01*
X66472857Y-44079757D02*
X66615715Y-44008328D01*
X66615715Y-44008328D02*
X66901429Y-44008328D01*
X66901429Y-44008328D02*
X67044286Y-44079757D01*
X67044286Y-44079757D02*
X67115715Y-44222614D01*
X67115715Y-44222614D02*
X67115715Y-44365471D01*
X67115715Y-44365471D02*
X66401429Y-44508328D01*
X67544286Y-44008328D02*
X68115714Y-44008328D01*
X67758571Y-43508328D02*
X67758571Y-44794042D01*
X67758571Y-44794042D02*
X67830000Y-44936900D01*
X67830000Y-44936900D02*
X67972857Y-45008328D01*
X67972857Y-45008328D02*
X68115714Y-45008328D01*
X70615714Y-44865471D02*
X70544286Y-44936900D01*
X70544286Y-44936900D02*
X70330000Y-45008328D01*
X70330000Y-45008328D02*
X70187143Y-45008328D01*
X70187143Y-45008328D02*
X69972857Y-44936900D01*
X69972857Y-44936900D02*
X69830000Y-44794042D01*
X69830000Y-44794042D02*
X69758571Y-44651185D01*
X69758571Y-44651185D02*
X69687143Y-44365471D01*
X69687143Y-44365471D02*
X69687143Y-44151185D01*
X69687143Y-44151185D02*
X69758571Y-43865471D01*
X69758571Y-43865471D02*
X69830000Y-43722614D01*
X69830000Y-43722614D02*
X69972857Y-43579757D01*
X69972857Y-43579757D02*
X70187143Y-43508328D01*
X70187143Y-43508328D02*
X70330000Y-43508328D01*
X70330000Y-43508328D02*
X70544286Y-43579757D01*
X70544286Y-43579757D02*
X70615714Y-43651185D01*
X71901429Y-45008328D02*
X71901429Y-44222614D01*
X71901429Y-44222614D02*
X71830000Y-44079757D01*
X71830000Y-44079757D02*
X71687143Y-44008328D01*
X71687143Y-44008328D02*
X71401429Y-44008328D01*
X71401429Y-44008328D02*
X71258571Y-44079757D01*
X71901429Y-44936900D02*
X71758571Y-45008328D01*
X71758571Y-45008328D02*
X71401429Y-45008328D01*
X71401429Y-45008328D02*
X71258571Y-44936900D01*
X71258571Y-44936900D02*
X71187143Y-44794042D01*
X71187143Y-44794042D02*
X71187143Y-44651185D01*
X71187143Y-44651185D02*
X71258571Y-44508328D01*
X71258571Y-44508328D02*
X71401429Y-44436900D01*
X71401429Y-44436900D02*
X71758571Y-44436900D01*
X71758571Y-44436900D02*
X71901429Y-44365471D01*
X72615714Y-45008328D02*
X72615714Y-43508328D01*
X72615714Y-44079757D02*
X72758572Y-44008328D01*
X72758572Y-44008328D02*
X73044286Y-44008328D01*
X73044286Y-44008328D02*
X73187143Y-44079757D01*
X73187143Y-44079757D02*
X73258572Y-44151185D01*
X73258572Y-44151185D02*
X73330000Y-44294042D01*
X73330000Y-44294042D02*
X73330000Y-44722614D01*
X73330000Y-44722614D02*
X73258572Y-44865471D01*
X73258572Y-44865471D02*
X73187143Y-44936900D01*
X73187143Y-44936900D02*
X73044286Y-45008328D01*
X73044286Y-45008328D02*
X72758572Y-45008328D01*
X72758572Y-45008328D02*
X72615714Y-44936900D01*
X74187143Y-45008328D02*
X74044286Y-44936900D01*
X74044286Y-44936900D02*
X73972857Y-44794042D01*
X73972857Y-44794042D02*
X73972857Y-43508328D01*
X75330000Y-44936900D02*
X75187143Y-45008328D01*
X75187143Y-45008328D02*
X74901429Y-45008328D01*
X74901429Y-45008328D02*
X74758571Y-44936900D01*
X74758571Y-44936900D02*
X74687143Y-44794042D01*
X74687143Y-44794042D02*
X74687143Y-44222614D01*
X74687143Y-44222614D02*
X74758571Y-44079757D01*
X74758571Y-44079757D02*
X74901429Y-44008328D01*
X74901429Y-44008328D02*
X75187143Y-44008328D01*
X75187143Y-44008328D02*
X75330000Y-44079757D01*
X75330000Y-44079757D02*
X75401429Y-44222614D01*
X75401429Y-44222614D02*
X75401429Y-44365471D01*
X75401429Y-44365471D02*
X74687143Y-44508328D01*
X76044285Y-44436900D02*
X77187143Y-44436900D01*
X77901428Y-44436900D02*
X79044286Y-44436900D01*
X79758571Y-44008328D02*
X80901429Y-44436900D01*
X80901429Y-44436900D02*
X79758571Y-44865471D01*
X59718796Y-65653685D02*
X59575939Y-65582257D01*
X59575939Y-65582257D02*
X59504510Y-65510828D01*
X59504510Y-65510828D02*
X59433082Y-65367971D01*
X59433082Y-65367971D02*
X59433082Y-65296542D01*
X59433082Y-65296542D02*
X59504510Y-65153685D01*
X59504510Y-65153685D02*
X59575939Y-65082257D01*
X59575939Y-65082257D02*
X59718796Y-65010828D01*
X59718796Y-65010828D02*
X60004510Y-65010828D01*
X60004510Y-65010828D02*
X60147368Y-65082257D01*
X60147368Y-65082257D02*
X60218796Y-65153685D01*
X60218796Y-65153685D02*
X60290225Y-65296542D01*
X60290225Y-65296542D02*
X60290225Y-65367971D01*
X60290225Y-65367971D02*
X60218796Y-65510828D01*
X60218796Y-65510828D02*
X60147368Y-65582257D01*
X60147368Y-65582257D02*
X60004510Y-65653685D01*
X60004510Y-65653685D02*
X59718796Y-65653685D01*
X59718796Y-65653685D02*
X59575939Y-65725114D01*
X59575939Y-65725114D02*
X59504510Y-65796542D01*
X59504510Y-65796542D02*
X59433082Y-65939400D01*
X59433082Y-65939400D02*
X59433082Y-66225114D01*
X59433082Y-66225114D02*
X59504510Y-66367971D01*
X59504510Y-66367971D02*
X59575939Y-66439400D01*
X59575939Y-66439400D02*
X59718796Y-66510828D01*
X59718796Y-66510828D02*
X60004510Y-66510828D01*
X60004510Y-66510828D02*
X60147368Y-66439400D01*
X60147368Y-66439400D02*
X60218796Y-66367971D01*
X60218796Y-66367971D02*
X60290225Y-66225114D01*
X60290225Y-66225114D02*
X60290225Y-65939400D01*
X60290225Y-65939400D02*
X60218796Y-65796542D01*
X60218796Y-65796542D02*
X60147368Y-65725114D01*
X60147368Y-65725114D02*
X60004510Y-65653685D01*
X41140225Y-35642257D02*
X40997368Y-35570828D01*
X40997368Y-35570828D02*
X40783082Y-35570828D01*
X40783082Y-35570828D02*
X40568796Y-35642257D01*
X40568796Y-35642257D02*
X40425939Y-35785114D01*
X40425939Y-35785114D02*
X40354510Y-35927971D01*
X40354510Y-35927971D02*
X40283082Y-36213685D01*
X40283082Y-36213685D02*
X40283082Y-36427971D01*
X40283082Y-36427971D02*
X40354510Y-36713685D01*
X40354510Y-36713685D02*
X40425939Y-36856542D01*
X40425939Y-36856542D02*
X40568796Y-36999400D01*
X40568796Y-36999400D02*
X40783082Y-37070828D01*
X40783082Y-37070828D02*
X40925939Y-37070828D01*
X40925939Y-37070828D02*
X41140225Y-36999400D01*
X41140225Y-36999400D02*
X41211653Y-36927971D01*
X41211653Y-36927971D02*
X41211653Y-36427971D01*
X41211653Y-36427971D02*
X40925939Y-36427971D01*
X41854510Y-37070828D02*
X41854510Y-35570828D01*
X41854510Y-35570828D02*
X42711653Y-37070828D01*
X42711653Y-37070828D02*
X42711653Y-35570828D01*
X43425939Y-37070828D02*
X43425939Y-35570828D01*
X43425939Y-35570828D02*
X43783082Y-35570828D01*
X43783082Y-35570828D02*
X43997368Y-35642257D01*
X43997368Y-35642257D02*
X44140225Y-35785114D01*
X44140225Y-35785114D02*
X44211654Y-35927971D01*
X44211654Y-35927971D02*
X44283082Y-36213685D01*
X44283082Y-36213685D02*
X44283082Y-36427971D01*
X44283082Y-36427971D02*
X44211654Y-36713685D01*
X44211654Y-36713685D02*
X44140225Y-36856542D01*
X44140225Y-36856542D02*
X43997368Y-36999400D01*
X43997368Y-36999400D02*
X43783082Y-37070828D01*
X43783082Y-37070828D02*
X43425939Y-37070828D01*
X37472856Y-48232614D02*
X37687142Y-48304042D01*
X37687142Y-48304042D02*
X37758571Y-48375471D01*
X37758571Y-48375471D02*
X37829999Y-48518328D01*
X37829999Y-48518328D02*
X37829999Y-48732614D01*
X37829999Y-48732614D02*
X37758571Y-48875471D01*
X37758571Y-48875471D02*
X37687142Y-48946900D01*
X37687142Y-48946900D02*
X37544285Y-49018328D01*
X37544285Y-49018328D02*
X36972856Y-49018328D01*
X36972856Y-49018328D02*
X36972856Y-47518328D01*
X36972856Y-47518328D02*
X37472856Y-47518328D01*
X37472856Y-47518328D02*
X37615714Y-47589757D01*
X37615714Y-47589757D02*
X37687142Y-47661185D01*
X37687142Y-47661185D02*
X37758571Y-47804042D01*
X37758571Y-47804042D02*
X37758571Y-47946900D01*
X37758571Y-47946900D02*
X37687142Y-48089757D01*
X37687142Y-48089757D02*
X37615714Y-48161185D01*
X37615714Y-48161185D02*
X37472856Y-48232614D01*
X37472856Y-48232614D02*
X36972856Y-48232614D01*
X38687142Y-49018328D02*
X38544285Y-48946900D01*
X38544285Y-48946900D02*
X38472856Y-48875471D01*
X38472856Y-48875471D02*
X38401428Y-48732614D01*
X38401428Y-48732614D02*
X38401428Y-48304042D01*
X38401428Y-48304042D02*
X38472856Y-48161185D01*
X38472856Y-48161185D02*
X38544285Y-48089757D01*
X38544285Y-48089757D02*
X38687142Y-48018328D01*
X38687142Y-48018328D02*
X38901428Y-48018328D01*
X38901428Y-48018328D02*
X39044285Y-48089757D01*
X39044285Y-48089757D02*
X39115714Y-48161185D01*
X39115714Y-48161185D02*
X39187142Y-48304042D01*
X39187142Y-48304042D02*
X39187142Y-48732614D01*
X39187142Y-48732614D02*
X39115714Y-48875471D01*
X39115714Y-48875471D02*
X39044285Y-48946900D01*
X39044285Y-48946900D02*
X38901428Y-49018328D01*
X38901428Y-49018328D02*
X38687142Y-49018328D01*
X39615714Y-48018328D02*
X40187142Y-48018328D01*
X39829999Y-47518328D02*
X39829999Y-48804042D01*
X39829999Y-48804042D02*
X39901428Y-48946900D01*
X39901428Y-48946900D02*
X40044285Y-49018328D01*
X40044285Y-49018328D02*
X40187142Y-49018328D01*
X40472857Y-48018328D02*
X41044285Y-48018328D01*
X40687142Y-47518328D02*
X40687142Y-48804042D01*
X40687142Y-48804042D02*
X40758571Y-48946900D01*
X40758571Y-48946900D02*
X40901428Y-49018328D01*
X40901428Y-49018328D02*
X41044285Y-49018328D01*
X41758571Y-49018328D02*
X41615714Y-48946900D01*
X41615714Y-48946900D02*
X41544285Y-48875471D01*
X41544285Y-48875471D02*
X41472857Y-48732614D01*
X41472857Y-48732614D02*
X41472857Y-48304042D01*
X41472857Y-48304042D02*
X41544285Y-48161185D01*
X41544285Y-48161185D02*
X41615714Y-48089757D01*
X41615714Y-48089757D02*
X41758571Y-48018328D01*
X41758571Y-48018328D02*
X41972857Y-48018328D01*
X41972857Y-48018328D02*
X42115714Y-48089757D01*
X42115714Y-48089757D02*
X42187143Y-48161185D01*
X42187143Y-48161185D02*
X42258571Y-48304042D01*
X42258571Y-48304042D02*
X42258571Y-48732614D01*
X42258571Y-48732614D02*
X42187143Y-48875471D01*
X42187143Y-48875471D02*
X42115714Y-48946900D01*
X42115714Y-48946900D02*
X41972857Y-49018328D01*
X41972857Y-49018328D02*
X41758571Y-49018328D01*
X42901428Y-49018328D02*
X42901428Y-48018328D01*
X42901428Y-48161185D02*
X42972857Y-48089757D01*
X42972857Y-48089757D02*
X43115714Y-48018328D01*
X43115714Y-48018328D02*
X43330000Y-48018328D01*
X43330000Y-48018328D02*
X43472857Y-48089757D01*
X43472857Y-48089757D02*
X43544286Y-48232614D01*
X43544286Y-48232614D02*
X43544286Y-49018328D01*
X43544286Y-48232614D02*
X43615714Y-48089757D01*
X43615714Y-48089757D02*
X43758571Y-48018328D01*
X43758571Y-48018328D02*
X43972857Y-48018328D01*
X43972857Y-48018328D02*
X44115714Y-48089757D01*
X44115714Y-48089757D02*
X44187143Y-48232614D01*
X44187143Y-48232614D02*
X44187143Y-49018328D01*
X44171653Y-56750828D02*
X43671653Y-56036542D01*
X43314510Y-56750828D02*
X43314510Y-55250828D01*
X43314510Y-55250828D02*
X43885939Y-55250828D01*
X43885939Y-55250828D02*
X44028796Y-55322257D01*
X44028796Y-55322257D02*
X44100225Y-55393685D01*
X44100225Y-55393685D02*
X44171653Y-55536542D01*
X44171653Y-55536542D02*
X44171653Y-55750828D01*
X44171653Y-55750828D02*
X44100225Y-55893685D01*
X44100225Y-55893685D02*
X44028796Y-55965114D01*
X44028796Y-55965114D02*
X43885939Y-56036542D01*
X43885939Y-56036542D02*
X43314510Y-56036542D01*
X45457368Y-56750828D02*
X45457368Y-55965114D01*
X45457368Y-55965114D02*
X45385939Y-55822257D01*
X45385939Y-55822257D02*
X45243082Y-55750828D01*
X45243082Y-55750828D02*
X44957368Y-55750828D01*
X44957368Y-55750828D02*
X44814510Y-55822257D01*
X45457368Y-56679400D02*
X45314510Y-56750828D01*
X45314510Y-56750828D02*
X44957368Y-56750828D01*
X44957368Y-56750828D02*
X44814510Y-56679400D01*
X44814510Y-56679400D02*
X44743082Y-56536542D01*
X44743082Y-56536542D02*
X44743082Y-56393685D01*
X44743082Y-56393685D02*
X44814510Y-56250828D01*
X44814510Y-56250828D02*
X44957368Y-56179400D01*
X44957368Y-56179400D02*
X45314510Y-56179400D01*
X45314510Y-56179400D02*
X45457368Y-56107971D01*
X45957368Y-55750828D02*
X46528796Y-55750828D01*
X46171653Y-55250828D02*
X46171653Y-56536542D01*
X46171653Y-56536542D02*
X46243082Y-56679400D01*
X46243082Y-56679400D02*
X46385939Y-56750828D01*
X46385939Y-56750828D02*
X46528796Y-56750828D01*
X47600225Y-56679400D02*
X47457368Y-56750828D01*
X47457368Y-56750828D02*
X47171654Y-56750828D01*
X47171654Y-56750828D02*
X47028796Y-56679400D01*
X47028796Y-56679400D02*
X46957368Y-56536542D01*
X46957368Y-56536542D02*
X46957368Y-55965114D01*
X46957368Y-55965114D02*
X47028796Y-55822257D01*
X47028796Y-55822257D02*
X47171654Y-55750828D01*
X47171654Y-55750828D02*
X47457368Y-55750828D01*
X47457368Y-55750828D02*
X47600225Y-55822257D01*
X47600225Y-55822257D02*
X47671654Y-55965114D01*
X47671654Y-55965114D02*
X47671654Y-56107971D01*
X47671654Y-56107971D02*
X46957368Y-56250828D01*
X22034510Y-56610828D02*
X22034510Y-55110828D01*
X22034510Y-55110828D02*
X22534510Y-56182257D01*
X22534510Y-56182257D02*
X23034510Y-55110828D01*
X23034510Y-55110828D02*
X23034510Y-56610828D01*
X24391654Y-56610828D02*
X24391654Y-55825114D01*
X24391654Y-55825114D02*
X24320225Y-55682257D01*
X24320225Y-55682257D02*
X24177368Y-55610828D01*
X24177368Y-55610828D02*
X23891654Y-55610828D01*
X23891654Y-55610828D02*
X23748796Y-55682257D01*
X24391654Y-56539400D02*
X24248796Y-56610828D01*
X24248796Y-56610828D02*
X23891654Y-56610828D01*
X23891654Y-56610828D02*
X23748796Y-56539400D01*
X23748796Y-56539400D02*
X23677368Y-56396542D01*
X23677368Y-56396542D02*
X23677368Y-56253685D01*
X23677368Y-56253685D02*
X23748796Y-56110828D01*
X23748796Y-56110828D02*
X23891654Y-56039400D01*
X23891654Y-56039400D02*
X24248796Y-56039400D01*
X24248796Y-56039400D02*
X24391654Y-55967971D01*
X25034511Y-56539400D02*
X25177368Y-56610828D01*
X25177368Y-56610828D02*
X25463082Y-56610828D01*
X25463082Y-56610828D02*
X25605939Y-56539400D01*
X25605939Y-56539400D02*
X25677368Y-56396542D01*
X25677368Y-56396542D02*
X25677368Y-56325114D01*
X25677368Y-56325114D02*
X25605939Y-56182257D01*
X25605939Y-56182257D02*
X25463082Y-56110828D01*
X25463082Y-56110828D02*
X25248797Y-56110828D01*
X25248797Y-56110828D02*
X25105939Y-56039400D01*
X25105939Y-56039400D02*
X25034511Y-55896542D01*
X25034511Y-55896542D02*
X25034511Y-55825114D01*
X25034511Y-55825114D02*
X25105939Y-55682257D01*
X25105939Y-55682257D02*
X25248797Y-55610828D01*
X25248797Y-55610828D02*
X25463082Y-55610828D01*
X25463082Y-55610828D02*
X25605939Y-55682257D01*
X26105940Y-55610828D02*
X26677368Y-55610828D01*
X26320225Y-55110828D02*
X26320225Y-56396542D01*
X26320225Y-56396542D02*
X26391654Y-56539400D01*
X26391654Y-56539400D02*
X26534511Y-56610828D01*
X26534511Y-56610828D02*
X26677368Y-56610828D01*
X27748797Y-56539400D02*
X27605940Y-56610828D01*
X27605940Y-56610828D02*
X27320226Y-56610828D01*
X27320226Y-56610828D02*
X27177368Y-56539400D01*
X27177368Y-56539400D02*
X27105940Y-56396542D01*
X27105940Y-56396542D02*
X27105940Y-55825114D01*
X27105940Y-55825114D02*
X27177368Y-55682257D01*
X27177368Y-55682257D02*
X27320226Y-55610828D01*
X27320226Y-55610828D02*
X27605940Y-55610828D01*
X27605940Y-55610828D02*
X27748797Y-55682257D01*
X27748797Y-55682257D02*
X27820226Y-55825114D01*
X27820226Y-55825114D02*
X27820226Y-55967971D01*
X27820226Y-55967971D02*
X27105940Y-56110828D01*
X28463082Y-56610828D02*
X28463082Y-55610828D01*
X28463082Y-55896542D02*
X28534511Y-55753685D01*
X28534511Y-55753685D02*
X28605940Y-55682257D01*
X28605940Y-55682257D02*
X28748797Y-55610828D01*
X28748797Y-55610828D02*
X28891654Y-55610828D01*
X100127368Y-65080828D02*
X99841653Y-65080828D01*
X99841653Y-65080828D02*
X99698796Y-65152257D01*
X99698796Y-65152257D02*
X99627368Y-65223685D01*
X99627368Y-65223685D02*
X99484510Y-65437971D01*
X99484510Y-65437971D02*
X99413082Y-65723685D01*
X99413082Y-65723685D02*
X99413082Y-66295114D01*
X99413082Y-66295114D02*
X99484510Y-66437971D01*
X99484510Y-66437971D02*
X99555939Y-66509400D01*
X99555939Y-66509400D02*
X99698796Y-66580828D01*
X99698796Y-66580828D02*
X99984510Y-66580828D01*
X99984510Y-66580828D02*
X100127368Y-66509400D01*
X100127368Y-66509400D02*
X100198796Y-66437971D01*
X100198796Y-66437971D02*
X100270225Y-66295114D01*
X100270225Y-66295114D02*
X100270225Y-65937971D01*
X100270225Y-65937971D02*
X100198796Y-65795114D01*
X100198796Y-65795114D02*
X100127368Y-65723685D01*
X100127368Y-65723685D02*
X99984510Y-65652257D01*
X99984510Y-65652257D02*
X99698796Y-65652257D01*
X99698796Y-65652257D02*
X99555939Y-65723685D01*
X99555939Y-65723685D02*
X99484510Y-65795114D01*
X99484510Y-65795114D02*
X99413082Y-65937971D01*
X59867368Y-27640828D02*
X59867368Y-28640828D01*
X59510225Y-27069400D02*
X59153082Y-28140828D01*
X59153082Y-28140828D02*
X60081653Y-28140828D01*
X79741653Y-27160828D02*
X80670225Y-27160828D01*
X80670225Y-27160828D02*
X80170225Y-27732257D01*
X80170225Y-27732257D02*
X80384510Y-27732257D01*
X80384510Y-27732257D02*
X80527368Y-27803685D01*
X80527368Y-27803685D02*
X80598796Y-27875114D01*
X80598796Y-27875114D02*
X80670225Y-28017971D01*
X80670225Y-28017971D02*
X80670225Y-28375114D01*
X80670225Y-28375114D02*
X80598796Y-28517971D01*
X80598796Y-28517971D02*
X80527368Y-28589400D01*
X80527368Y-28589400D02*
X80384510Y-28660828D01*
X80384510Y-28660828D02*
X79955939Y-28660828D01*
X79955939Y-28660828D02*
X79813082Y-28589400D01*
X79813082Y-28589400D02*
X79741653Y-28517971D01*
X35040225Y-37160828D02*
X34183082Y-37160828D01*
X34611653Y-37160828D02*
X34611653Y-35660828D01*
X34611653Y-35660828D02*
X34468796Y-35875114D01*
X34468796Y-35875114D02*
X34325939Y-36017971D01*
X34325939Y-36017971D02*
X34183082Y-36089400D01*
X35611653Y-35803685D02*
X35683081Y-35732257D01*
X35683081Y-35732257D02*
X35825939Y-35660828D01*
X35825939Y-35660828D02*
X36183081Y-35660828D01*
X36183081Y-35660828D02*
X36325939Y-35732257D01*
X36325939Y-35732257D02*
X36397367Y-35803685D01*
X36397367Y-35803685D02*
X36468796Y-35946542D01*
X36468796Y-35946542D02*
X36468796Y-36089400D01*
X36468796Y-36089400D02*
X36397367Y-36303685D01*
X36397367Y-36303685D02*
X35540224Y-37160828D01*
X35540224Y-37160828D02*
X36468796Y-37160828D01*
X36897367Y-35660828D02*
X37397367Y-37160828D01*
X37397367Y-37160828D02*
X37897367Y-35660828D01*
X58578571Y-51189442D02*
X58792857Y-51260870D01*
X58792857Y-51260870D02*
X59149999Y-51260870D01*
X59149999Y-51260870D02*
X59292857Y-51189442D01*
X59292857Y-51189442D02*
X59364285Y-51118013D01*
X59364285Y-51118013D02*
X59435714Y-50975156D01*
X59435714Y-50975156D02*
X59435714Y-50832299D01*
X59435714Y-50832299D02*
X59364285Y-50689442D01*
X59364285Y-50689442D02*
X59292857Y-50618013D01*
X59292857Y-50618013D02*
X59149999Y-50546584D01*
X59149999Y-50546584D02*
X58864285Y-50475156D01*
X58864285Y-50475156D02*
X58721428Y-50403727D01*
X58721428Y-50403727D02*
X58649999Y-50332299D01*
X58649999Y-50332299D02*
X58578571Y-50189442D01*
X58578571Y-50189442D02*
X58578571Y-50046584D01*
X58578571Y-50046584D02*
X58649999Y-49903727D01*
X58649999Y-49903727D02*
X58721428Y-49832299D01*
X58721428Y-49832299D02*
X58864285Y-49760870D01*
X58864285Y-49760870D02*
X59221428Y-49760870D01*
X59221428Y-49760870D02*
X59435714Y-49832299D01*
X59935713Y-50260870D02*
X60221428Y-51260870D01*
X60221428Y-51260870D02*
X60507142Y-50546584D01*
X60507142Y-50546584D02*
X60792856Y-51260870D01*
X60792856Y-51260870D02*
X61078570Y-50260870D01*
X61649999Y-51260870D02*
X61649999Y-50260870D01*
X61649999Y-49760870D02*
X61578571Y-49832299D01*
X61578571Y-49832299D02*
X61649999Y-49903727D01*
X61649999Y-49903727D02*
X61721428Y-49832299D01*
X61721428Y-49832299D02*
X61649999Y-49760870D01*
X61649999Y-49760870D02*
X61649999Y-49903727D01*
X62150000Y-50260870D02*
X62721428Y-50260870D01*
X62364285Y-49760870D02*
X62364285Y-51046584D01*
X62364285Y-51046584D02*
X62435714Y-51189442D01*
X62435714Y-51189442D02*
X62578571Y-51260870D01*
X62578571Y-51260870D02*
X62721428Y-51260870D01*
X63864286Y-51189442D02*
X63721428Y-51260870D01*
X63721428Y-51260870D02*
X63435714Y-51260870D01*
X63435714Y-51260870D02*
X63292857Y-51189442D01*
X63292857Y-51189442D02*
X63221428Y-51118013D01*
X63221428Y-51118013D02*
X63150000Y-50975156D01*
X63150000Y-50975156D02*
X63150000Y-50546584D01*
X63150000Y-50546584D02*
X63221428Y-50403727D01*
X63221428Y-50403727D02*
X63292857Y-50332299D01*
X63292857Y-50332299D02*
X63435714Y-50260870D01*
X63435714Y-50260870D02*
X63721428Y-50260870D01*
X63721428Y-50260870D02*
X63864286Y-50332299D01*
X64507142Y-51260870D02*
X64507142Y-49760870D01*
X65150000Y-51260870D02*
X65150000Y-50475156D01*
X65150000Y-50475156D02*
X65078571Y-50332299D01*
X65078571Y-50332299D02*
X64935714Y-50260870D01*
X64935714Y-50260870D02*
X64721428Y-50260870D01*
X64721428Y-50260870D02*
X64578571Y-50332299D01*
X64578571Y-50332299D02*
X64507142Y-50403727D01*
X66364285Y-50475156D02*
X66578571Y-50546584D01*
X66578571Y-50546584D02*
X66650000Y-50618013D01*
X66650000Y-50618013D02*
X66721428Y-50760870D01*
X66721428Y-50760870D02*
X66721428Y-50975156D01*
X66721428Y-50975156D02*
X66650000Y-51118013D01*
X66650000Y-51118013D02*
X66578571Y-51189442D01*
X66578571Y-51189442D02*
X66435714Y-51260870D01*
X66435714Y-51260870D02*
X65864285Y-51260870D01*
X65864285Y-51260870D02*
X65864285Y-49760870D01*
X65864285Y-49760870D02*
X66364285Y-49760870D01*
X66364285Y-49760870D02*
X66507143Y-49832299D01*
X66507143Y-49832299D02*
X66578571Y-49903727D01*
X66578571Y-49903727D02*
X66650000Y-50046584D01*
X66650000Y-50046584D02*
X66650000Y-50189442D01*
X66650000Y-50189442D02*
X66578571Y-50332299D01*
X66578571Y-50332299D02*
X66507143Y-50403727D01*
X66507143Y-50403727D02*
X66364285Y-50475156D01*
X66364285Y-50475156D02*
X65864285Y-50475156D01*
X67578571Y-51260870D02*
X67435714Y-51189442D01*
X67435714Y-51189442D02*
X67364285Y-51118013D01*
X67364285Y-51118013D02*
X67292857Y-50975156D01*
X67292857Y-50975156D02*
X67292857Y-50546584D01*
X67292857Y-50546584D02*
X67364285Y-50403727D01*
X67364285Y-50403727D02*
X67435714Y-50332299D01*
X67435714Y-50332299D02*
X67578571Y-50260870D01*
X67578571Y-50260870D02*
X67792857Y-50260870D01*
X67792857Y-50260870D02*
X67935714Y-50332299D01*
X67935714Y-50332299D02*
X68007143Y-50403727D01*
X68007143Y-50403727D02*
X68078571Y-50546584D01*
X68078571Y-50546584D02*
X68078571Y-50975156D01*
X68078571Y-50975156D02*
X68007143Y-51118013D01*
X68007143Y-51118013D02*
X67935714Y-51189442D01*
X67935714Y-51189442D02*
X67792857Y-51260870D01*
X67792857Y-51260870D02*
X67578571Y-51260870D01*
X68578571Y-51260870D02*
X69364286Y-50260870D01*
X68578571Y-50260870D02*
X69364286Y-51260870D01*
X69792857Y-49760870D02*
X70721429Y-49760870D01*
X70721429Y-49760870D02*
X70221429Y-50332299D01*
X70221429Y-50332299D02*
X70435714Y-50332299D01*
X70435714Y-50332299D02*
X70578572Y-50403727D01*
X70578572Y-50403727D02*
X70650000Y-50475156D01*
X70650000Y-50475156D02*
X70721429Y-50618013D01*
X70721429Y-50618013D02*
X70721429Y-50975156D01*
X70721429Y-50975156D02*
X70650000Y-51118013D01*
X70650000Y-51118013D02*
X70578572Y-51189442D01*
X70578572Y-51189442D02*
X70435714Y-51260870D01*
X70435714Y-51260870D02*
X70007143Y-51260870D01*
X70007143Y-51260870D02*
X69864286Y-51189442D01*
X69864286Y-51189442D02*
X69792857Y-51118013D01*
X56864287Y-52318643D02*
X56935715Y-52247215D01*
X56935715Y-52247215D02*
X57078573Y-52175786D01*
X57078573Y-52175786D02*
X57435715Y-52175786D01*
X57435715Y-52175786D02*
X57578573Y-52247215D01*
X57578573Y-52247215D02*
X57650001Y-52318643D01*
X57650001Y-52318643D02*
X57721430Y-52461500D01*
X57721430Y-52461500D02*
X57721430Y-52604358D01*
X57721430Y-52604358D02*
X57650001Y-52818643D01*
X57650001Y-52818643D02*
X56792858Y-53675786D01*
X56792858Y-53675786D02*
X57721430Y-53675786D01*
X58221429Y-52175786D02*
X59221429Y-52175786D01*
X59221429Y-52175786D02*
X58578572Y-53675786D01*
X59792857Y-53104358D02*
X60935715Y-53104358D01*
X62078572Y-52175786D02*
X62078572Y-53247215D01*
X62078572Y-53247215D02*
X62007143Y-53461500D01*
X62007143Y-53461500D02*
X61864286Y-53604358D01*
X61864286Y-53604358D02*
X61650000Y-53675786D01*
X61650000Y-53675786D02*
X61507143Y-53675786D01*
X63435715Y-52675786D02*
X63435715Y-53675786D01*
X62792857Y-52675786D02*
X62792857Y-53461500D01*
X62792857Y-53461500D02*
X62864286Y-53604358D01*
X62864286Y-53604358D02*
X63007143Y-53675786D01*
X63007143Y-53675786D02*
X63221429Y-53675786D01*
X63221429Y-53675786D02*
X63364286Y-53604358D01*
X63364286Y-53604358D02*
X63435715Y-53532929D01*
X64150000Y-52675786D02*
X64150000Y-53675786D01*
X64150000Y-52818643D02*
X64221429Y-52747215D01*
X64221429Y-52747215D02*
X64364286Y-52675786D01*
X64364286Y-52675786D02*
X64578572Y-52675786D01*
X64578572Y-52675786D02*
X64721429Y-52747215D01*
X64721429Y-52747215D02*
X64792858Y-52890072D01*
X64792858Y-52890072D02*
X64792858Y-53675786D01*
X65507143Y-53104358D02*
X66650001Y-53104358D01*
X67292858Y-52318643D02*
X67364286Y-52247215D01*
X67364286Y-52247215D02*
X67507144Y-52175786D01*
X67507144Y-52175786D02*
X67864286Y-52175786D01*
X67864286Y-52175786D02*
X68007144Y-52247215D01*
X68007144Y-52247215D02*
X68078572Y-52318643D01*
X68078572Y-52318643D02*
X68150001Y-52461500D01*
X68150001Y-52461500D02*
X68150001Y-52604358D01*
X68150001Y-52604358D02*
X68078572Y-52818643D01*
X68078572Y-52818643D02*
X67221429Y-53675786D01*
X67221429Y-53675786D02*
X68150001Y-53675786D01*
X69078572Y-52175786D02*
X69221429Y-52175786D01*
X69221429Y-52175786D02*
X69364286Y-52247215D01*
X69364286Y-52247215D02*
X69435715Y-52318643D01*
X69435715Y-52318643D02*
X69507143Y-52461500D01*
X69507143Y-52461500D02*
X69578572Y-52747215D01*
X69578572Y-52747215D02*
X69578572Y-53104358D01*
X69578572Y-53104358D02*
X69507143Y-53390072D01*
X69507143Y-53390072D02*
X69435715Y-53532929D01*
X69435715Y-53532929D02*
X69364286Y-53604358D01*
X69364286Y-53604358D02*
X69221429Y-53675786D01*
X69221429Y-53675786D02*
X69078572Y-53675786D01*
X69078572Y-53675786D02*
X68935715Y-53604358D01*
X68935715Y-53604358D02*
X68864286Y-53532929D01*
X68864286Y-53532929D02*
X68792857Y-53390072D01*
X68792857Y-53390072D02*
X68721429Y-53104358D01*
X68721429Y-53104358D02*
X68721429Y-52747215D01*
X68721429Y-52747215D02*
X68792857Y-52461500D01*
X68792857Y-52461500D02*
X68864286Y-52318643D01*
X68864286Y-52318643D02*
X68935715Y-52247215D01*
X68935715Y-52247215D02*
X69078572Y-52175786D01*
X70150000Y-52318643D02*
X70221428Y-52247215D01*
X70221428Y-52247215D02*
X70364286Y-52175786D01*
X70364286Y-52175786D02*
X70721428Y-52175786D01*
X70721428Y-52175786D02*
X70864286Y-52247215D01*
X70864286Y-52247215D02*
X70935714Y-52318643D01*
X70935714Y-52318643D02*
X71007143Y-52461500D01*
X71007143Y-52461500D02*
X71007143Y-52604358D01*
X71007143Y-52604358D02*
X70935714Y-52818643D01*
X70935714Y-52818643D02*
X70078571Y-53675786D01*
X70078571Y-53675786D02*
X71007143Y-53675786D01*
X72364285Y-52175786D02*
X71649999Y-52175786D01*
X71649999Y-52175786D02*
X71578571Y-52890072D01*
X71578571Y-52890072D02*
X71649999Y-52818643D01*
X71649999Y-52818643D02*
X71792857Y-52747215D01*
X71792857Y-52747215D02*
X72149999Y-52747215D01*
X72149999Y-52747215D02*
X72292857Y-52818643D01*
X72292857Y-52818643D02*
X72364285Y-52890072D01*
X72364285Y-52890072D02*
X72435714Y-53032929D01*
X72435714Y-53032929D02*
X72435714Y-53390072D01*
X72435714Y-53390072D02*
X72364285Y-53532929D01*
X72364285Y-53532929D02*
X72292857Y-53604358D01*
X72292857Y-53604358D02*
X72149999Y-53675786D01*
X72149999Y-53675786D02*
X71792857Y-53675786D01*
X71792857Y-53675786D02*
X71649999Y-53604358D01*
X71649999Y-53604358D02*
X71578571Y-53532929D01*
X79491653Y-65220828D02*
X80491653Y-65220828D01*
X80491653Y-65220828D02*
X79848796Y-66720828D01*
X120128572Y-28458328D02*
X119271429Y-28458328D01*
X119700000Y-28458328D02*
X119700000Y-26958328D01*
X119700000Y-26958328D02*
X119557143Y-27172614D01*
X119557143Y-27172614D02*
X119414286Y-27315471D01*
X119414286Y-27315471D02*
X119271429Y-27386900D01*
X22983082Y-37282257D02*
X23697368Y-37282257D01*
X22840225Y-37710828D02*
X23340225Y-36210828D01*
X23340225Y-36210828D02*
X23840225Y-37710828D01*
X24983082Y-36710828D02*
X24983082Y-37710828D01*
X24340224Y-36710828D02*
X24340224Y-37496542D01*
X24340224Y-37496542D02*
X24411653Y-37639400D01*
X24411653Y-37639400D02*
X24554510Y-37710828D01*
X24554510Y-37710828D02*
X24768796Y-37710828D01*
X24768796Y-37710828D02*
X24911653Y-37639400D01*
X24911653Y-37639400D02*
X24983082Y-37567971D01*
X25483082Y-36710828D02*
X26054510Y-36710828D01*
X25697367Y-36210828D02*
X25697367Y-37496542D01*
X25697367Y-37496542D02*
X25768796Y-37639400D01*
X25768796Y-37639400D02*
X25911653Y-37710828D01*
X25911653Y-37710828D02*
X26054510Y-37710828D01*
X26768796Y-37710828D02*
X26625939Y-37639400D01*
X26625939Y-37639400D02*
X26554510Y-37567971D01*
X26554510Y-37567971D02*
X26483082Y-37425114D01*
X26483082Y-37425114D02*
X26483082Y-36996542D01*
X26483082Y-36996542D02*
X26554510Y-36853685D01*
X26554510Y-36853685D02*
X26625939Y-36782257D01*
X26625939Y-36782257D02*
X26768796Y-36710828D01*
X26768796Y-36710828D02*
X26983082Y-36710828D01*
X26983082Y-36710828D02*
X27125939Y-36782257D01*
X27125939Y-36782257D02*
X27197368Y-36853685D01*
X27197368Y-36853685D02*
X27268796Y-36996542D01*
X27268796Y-36996542D02*
X27268796Y-37425114D01*
X27268796Y-37425114D02*
X27197368Y-37567971D01*
X27197368Y-37567971D02*
X27125939Y-37639400D01*
X27125939Y-37639400D02*
X26983082Y-37710828D01*
X26983082Y-37710828D02*
X26768796Y-37710828D01*
X49994510Y-71180828D02*
X49994510Y-69680828D01*
X49994510Y-69680828D02*
X50351653Y-69680828D01*
X50351653Y-69680828D02*
X50565939Y-69752257D01*
X50565939Y-69752257D02*
X50708796Y-69895114D01*
X50708796Y-69895114D02*
X50780225Y-70037971D01*
X50780225Y-70037971D02*
X50851653Y-70323685D01*
X50851653Y-70323685D02*
X50851653Y-70537971D01*
X50851653Y-70537971D02*
X50780225Y-70823685D01*
X50780225Y-70823685D02*
X50708796Y-70966542D01*
X50708796Y-70966542D02*
X50565939Y-71109400D01*
X50565939Y-71109400D02*
X50351653Y-71180828D01*
X50351653Y-71180828D02*
X49994510Y-71180828D01*
X51708796Y-71180828D02*
X51565939Y-71109400D01*
X51565939Y-71109400D02*
X51494510Y-71037971D01*
X51494510Y-71037971D02*
X51423082Y-70895114D01*
X51423082Y-70895114D02*
X51423082Y-70466542D01*
X51423082Y-70466542D02*
X51494510Y-70323685D01*
X51494510Y-70323685D02*
X51565939Y-70252257D01*
X51565939Y-70252257D02*
X51708796Y-70180828D01*
X51708796Y-70180828D02*
X51923082Y-70180828D01*
X51923082Y-70180828D02*
X52065939Y-70252257D01*
X52065939Y-70252257D02*
X52137368Y-70323685D01*
X52137368Y-70323685D02*
X52208796Y-70466542D01*
X52208796Y-70466542D02*
X52208796Y-70895114D01*
X52208796Y-70895114D02*
X52137368Y-71037971D01*
X52137368Y-71037971D02*
X52065939Y-71109400D01*
X52065939Y-71109400D02*
X51923082Y-71180828D01*
X51923082Y-71180828D02*
X51708796Y-71180828D01*
X52708796Y-70180828D02*
X52994511Y-71180828D01*
X52994511Y-71180828D02*
X53280225Y-70466542D01*
X53280225Y-70466542D02*
X53565939Y-71180828D01*
X53565939Y-71180828D02*
X53851653Y-70180828D01*
X54423082Y-70180828D02*
X54423082Y-71180828D01*
X54423082Y-70323685D02*
X54494511Y-70252257D01*
X54494511Y-70252257D02*
X54637368Y-70180828D01*
X54637368Y-70180828D02*
X54851654Y-70180828D01*
X54851654Y-70180828D02*
X54994511Y-70252257D01*
X54994511Y-70252257D02*
X55065940Y-70395114D01*
X55065940Y-70395114D02*
X55065940Y-71180828D01*
X120118796Y-65010828D02*
X119404510Y-65010828D01*
X119404510Y-65010828D02*
X119333082Y-65725114D01*
X119333082Y-65725114D02*
X119404510Y-65653685D01*
X119404510Y-65653685D02*
X119547368Y-65582257D01*
X119547368Y-65582257D02*
X119904510Y-65582257D01*
X119904510Y-65582257D02*
X120047368Y-65653685D01*
X120047368Y-65653685D02*
X120118796Y-65725114D01*
X120118796Y-65725114D02*
X120190225Y-65867971D01*
X120190225Y-65867971D02*
X120190225Y-66225114D01*
X120190225Y-66225114D02*
X120118796Y-66367971D01*
X120118796Y-66367971D02*
X120047368Y-66439400D01*
X120047368Y-66439400D02*
X119904510Y-66510828D01*
X119904510Y-66510828D02*
X119547368Y-66510828D01*
X119547368Y-66510828D02*
X119404510Y-66439400D01*
X119404510Y-66439400D02*
X119333082Y-66367971D01*
D11*
X29406667Y-22327200D02*
X29549524Y-22374819D01*
X29549524Y-22374819D02*
X29787619Y-22374819D01*
X29787619Y-22374819D02*
X29882857Y-22327200D01*
X29882857Y-22327200D02*
X29930476Y-22279580D01*
X29930476Y-22279580D02*
X29978095Y-22184342D01*
X29978095Y-22184342D02*
X29978095Y-22089104D01*
X29978095Y-22089104D02*
X29930476Y-21993866D01*
X29930476Y-21993866D02*
X29882857Y-21946247D01*
X29882857Y-21946247D02*
X29787619Y-21898628D01*
X29787619Y-21898628D02*
X29597143Y-21851009D01*
X29597143Y-21851009D02*
X29501905Y-21803390D01*
X29501905Y-21803390D02*
X29454286Y-21755771D01*
X29454286Y-21755771D02*
X29406667Y-21660533D01*
X29406667Y-21660533D02*
X29406667Y-21565295D01*
X29406667Y-21565295D02*
X29454286Y-21470057D01*
X29454286Y-21470057D02*
X29501905Y-21422438D01*
X29501905Y-21422438D02*
X29597143Y-21374819D01*
X29597143Y-21374819D02*
X29835238Y-21374819D01*
X29835238Y-21374819D02*
X29978095Y-21422438D01*
X30311429Y-21374819D02*
X30549524Y-22374819D01*
X30549524Y-22374819D02*
X30740000Y-21660533D01*
X30740000Y-21660533D02*
X30930476Y-22374819D01*
X30930476Y-22374819D02*
X31168572Y-21374819D01*
X31454286Y-21374819D02*
X32073333Y-21374819D01*
X32073333Y-21374819D02*
X31740000Y-21755771D01*
X31740000Y-21755771D02*
X31882857Y-21755771D01*
X31882857Y-21755771D02*
X31978095Y-21803390D01*
X31978095Y-21803390D02*
X32025714Y-21851009D01*
X32025714Y-21851009D02*
X32073333Y-21946247D01*
X32073333Y-21946247D02*
X32073333Y-22184342D01*
X32073333Y-22184342D02*
X32025714Y-22279580D01*
X32025714Y-22279580D02*
X31978095Y-22327200D01*
X31978095Y-22327200D02*
X31882857Y-22374819D01*
X31882857Y-22374819D02*
X31597143Y-22374819D01*
X31597143Y-22374819D02*
X31501905Y-22327200D01*
X31501905Y-22327200D02*
X31454286Y-22279580D01*
X109336667Y-22127200D02*
X109479524Y-22174819D01*
X109479524Y-22174819D02*
X109717619Y-22174819D01*
X109717619Y-22174819D02*
X109812857Y-22127200D01*
X109812857Y-22127200D02*
X109860476Y-22079580D01*
X109860476Y-22079580D02*
X109908095Y-21984342D01*
X109908095Y-21984342D02*
X109908095Y-21889104D01*
X109908095Y-21889104D02*
X109860476Y-21793866D01*
X109860476Y-21793866D02*
X109812857Y-21746247D01*
X109812857Y-21746247D02*
X109717619Y-21698628D01*
X109717619Y-21698628D02*
X109527143Y-21651009D01*
X109527143Y-21651009D02*
X109431905Y-21603390D01*
X109431905Y-21603390D02*
X109384286Y-21555771D01*
X109384286Y-21555771D02*
X109336667Y-21460533D01*
X109336667Y-21460533D02*
X109336667Y-21365295D01*
X109336667Y-21365295D02*
X109384286Y-21270057D01*
X109384286Y-21270057D02*
X109431905Y-21222438D01*
X109431905Y-21222438D02*
X109527143Y-21174819D01*
X109527143Y-21174819D02*
X109765238Y-21174819D01*
X109765238Y-21174819D02*
X109908095Y-21222438D01*
X110241429Y-21174819D02*
X110479524Y-22174819D01*
X110479524Y-22174819D02*
X110670000Y-21460533D01*
X110670000Y-21460533D02*
X110860476Y-22174819D01*
X110860476Y-22174819D02*
X111098572Y-21174819D01*
X111908095Y-21508152D02*
X111908095Y-22174819D01*
X111670000Y-21127200D02*
X111431905Y-21841485D01*
X111431905Y-21841485D02*
X112050952Y-21841485D01*
X69116667Y-21097200D02*
X69259524Y-21144819D01*
X69259524Y-21144819D02*
X69497619Y-21144819D01*
X69497619Y-21144819D02*
X69592857Y-21097200D01*
X69592857Y-21097200D02*
X69640476Y-21049580D01*
X69640476Y-21049580D02*
X69688095Y-20954342D01*
X69688095Y-20954342D02*
X69688095Y-20859104D01*
X69688095Y-20859104D02*
X69640476Y-20763866D01*
X69640476Y-20763866D02*
X69592857Y-20716247D01*
X69592857Y-20716247D02*
X69497619Y-20668628D01*
X69497619Y-20668628D02*
X69307143Y-20621009D01*
X69307143Y-20621009D02*
X69211905Y-20573390D01*
X69211905Y-20573390D02*
X69164286Y-20525771D01*
X69164286Y-20525771D02*
X69116667Y-20430533D01*
X69116667Y-20430533D02*
X69116667Y-20335295D01*
X69116667Y-20335295D02*
X69164286Y-20240057D01*
X69164286Y-20240057D02*
X69211905Y-20192438D01*
X69211905Y-20192438D02*
X69307143Y-20144819D01*
X69307143Y-20144819D02*
X69545238Y-20144819D01*
X69545238Y-20144819D02*
X69688095Y-20192438D01*
X70021429Y-20144819D02*
X70259524Y-21144819D01*
X70259524Y-21144819D02*
X70450000Y-20430533D01*
X70450000Y-20430533D02*
X70640476Y-21144819D01*
X70640476Y-21144819D02*
X70878572Y-20144819D01*
X71688095Y-20144819D02*
X71497619Y-20144819D01*
X71497619Y-20144819D02*
X71402381Y-20192438D01*
X71402381Y-20192438D02*
X71354762Y-20240057D01*
X71354762Y-20240057D02*
X71259524Y-20382914D01*
X71259524Y-20382914D02*
X71211905Y-20573390D01*
X71211905Y-20573390D02*
X71211905Y-20954342D01*
X71211905Y-20954342D02*
X71259524Y-21049580D01*
X71259524Y-21049580D02*
X71307143Y-21097200D01*
X71307143Y-21097200D02*
X71402381Y-21144819D01*
X71402381Y-21144819D02*
X71592857Y-21144819D01*
X71592857Y-21144819D02*
X71688095Y-21097200D01*
X71688095Y-21097200D02*
X71735714Y-21049580D01*
X71735714Y-21049580D02*
X71783333Y-20954342D01*
X71783333Y-20954342D02*
X71783333Y-20716247D01*
X71783333Y-20716247D02*
X71735714Y-20621009D01*
X71735714Y-20621009D02*
X71688095Y-20573390D01*
X71688095Y-20573390D02*
X71592857Y-20525771D01*
X71592857Y-20525771D02*
X71402381Y-20525771D01*
X71402381Y-20525771D02*
X71307143Y-20573390D01*
X71307143Y-20573390D02*
X71259524Y-20621009D01*
X71259524Y-20621009D02*
X71211905Y-20716247D01*
X23590467Y-73675400D02*
X23733324Y-73723019D01*
X23733324Y-73723019D02*
X23971419Y-73723019D01*
X23971419Y-73723019D02*
X24066657Y-73675400D01*
X24066657Y-73675400D02*
X24114276Y-73627780D01*
X24114276Y-73627780D02*
X24161895Y-73532542D01*
X24161895Y-73532542D02*
X24161895Y-73437304D01*
X24161895Y-73437304D02*
X24114276Y-73342066D01*
X24114276Y-73342066D02*
X24066657Y-73294447D01*
X24066657Y-73294447D02*
X23971419Y-73246828D01*
X23971419Y-73246828D02*
X23780943Y-73199209D01*
X23780943Y-73199209D02*
X23685705Y-73151590D01*
X23685705Y-73151590D02*
X23638086Y-73103971D01*
X23638086Y-73103971D02*
X23590467Y-73008733D01*
X23590467Y-73008733D02*
X23590467Y-72913495D01*
X23590467Y-72913495D02*
X23638086Y-72818257D01*
X23638086Y-72818257D02*
X23685705Y-72770638D01*
X23685705Y-72770638D02*
X23780943Y-72723019D01*
X23780943Y-72723019D02*
X24019038Y-72723019D01*
X24019038Y-72723019D02*
X24161895Y-72770638D01*
X24495229Y-72723019D02*
X24733324Y-73723019D01*
X24733324Y-73723019D02*
X24923800Y-73008733D01*
X24923800Y-73008733D02*
X25114276Y-73723019D01*
X25114276Y-73723019D02*
X25352372Y-72723019D01*
X26257133Y-73723019D02*
X25685705Y-73723019D01*
X25971419Y-73723019D02*
X25971419Y-72723019D01*
X25971419Y-72723019D02*
X25876181Y-72865876D01*
X25876181Y-72865876D02*
X25780943Y-72961114D01*
X25780943Y-72961114D02*
X25685705Y-73008733D01*
X84124819Y-53998333D02*
X84839104Y-53998333D01*
X84839104Y-53998333D02*
X84981961Y-54045952D01*
X84981961Y-54045952D02*
X85077200Y-54141190D01*
X85077200Y-54141190D02*
X85124819Y-54284047D01*
X85124819Y-54284047D02*
X85124819Y-54379285D01*
X84220057Y-53569761D02*
X84172438Y-53522142D01*
X84172438Y-53522142D02*
X84124819Y-53426904D01*
X84124819Y-53426904D02*
X84124819Y-53188809D01*
X84124819Y-53188809D02*
X84172438Y-53093571D01*
X84172438Y-53093571D02*
X84220057Y-53045952D01*
X84220057Y-53045952D02*
X84315295Y-52998333D01*
X84315295Y-52998333D02*
X84410533Y-52998333D01*
X84410533Y-52998333D02*
X84553390Y-53045952D01*
X84553390Y-53045952D02*
X85124819Y-53617380D01*
X85124819Y-53617380D02*
X85124819Y-52998333D01*
X117916667Y-60257200D02*
X118059524Y-60304819D01*
X118059524Y-60304819D02*
X118297619Y-60304819D01*
X118297619Y-60304819D02*
X118392857Y-60257200D01*
X118392857Y-60257200D02*
X118440476Y-60209580D01*
X118440476Y-60209580D02*
X118488095Y-60114342D01*
X118488095Y-60114342D02*
X118488095Y-60019104D01*
X118488095Y-60019104D02*
X118440476Y-59923866D01*
X118440476Y-59923866D02*
X118392857Y-59876247D01*
X118392857Y-59876247D02*
X118297619Y-59828628D01*
X118297619Y-59828628D02*
X118107143Y-59781009D01*
X118107143Y-59781009D02*
X118011905Y-59733390D01*
X118011905Y-59733390D02*
X117964286Y-59685771D01*
X117964286Y-59685771D02*
X117916667Y-59590533D01*
X117916667Y-59590533D02*
X117916667Y-59495295D01*
X117916667Y-59495295D02*
X117964286Y-59400057D01*
X117964286Y-59400057D02*
X118011905Y-59352438D01*
X118011905Y-59352438D02*
X118107143Y-59304819D01*
X118107143Y-59304819D02*
X118345238Y-59304819D01*
X118345238Y-59304819D02*
X118488095Y-59352438D01*
X118821429Y-59304819D02*
X119059524Y-60304819D01*
X119059524Y-60304819D02*
X119250000Y-59590533D01*
X119250000Y-59590533D02*
X119440476Y-60304819D01*
X119440476Y-60304819D02*
X119678572Y-59304819D01*
X119964286Y-59304819D02*
X120630952Y-59304819D01*
X120630952Y-59304819D02*
X120202381Y-60304819D01*
X43590467Y-73675400D02*
X43733324Y-73723019D01*
X43733324Y-73723019D02*
X43971419Y-73723019D01*
X43971419Y-73723019D02*
X44066657Y-73675400D01*
X44066657Y-73675400D02*
X44114276Y-73627780D01*
X44114276Y-73627780D02*
X44161895Y-73532542D01*
X44161895Y-73532542D02*
X44161895Y-73437304D01*
X44161895Y-73437304D02*
X44114276Y-73342066D01*
X44114276Y-73342066D02*
X44066657Y-73294447D01*
X44066657Y-73294447D02*
X43971419Y-73246828D01*
X43971419Y-73246828D02*
X43780943Y-73199209D01*
X43780943Y-73199209D02*
X43685705Y-73151590D01*
X43685705Y-73151590D02*
X43638086Y-73103971D01*
X43638086Y-73103971D02*
X43590467Y-73008733D01*
X43590467Y-73008733D02*
X43590467Y-72913495D01*
X43590467Y-72913495D02*
X43638086Y-72818257D01*
X43638086Y-72818257D02*
X43685705Y-72770638D01*
X43685705Y-72770638D02*
X43780943Y-72723019D01*
X43780943Y-72723019D02*
X44019038Y-72723019D01*
X44019038Y-72723019D02*
X44161895Y-72770638D01*
X44495229Y-72723019D02*
X44733324Y-73723019D01*
X44733324Y-73723019D02*
X44923800Y-73008733D01*
X44923800Y-73008733D02*
X45114276Y-73723019D01*
X45114276Y-73723019D02*
X45352372Y-72723019D01*
X45685705Y-72818257D02*
X45733324Y-72770638D01*
X45733324Y-72770638D02*
X45828562Y-72723019D01*
X45828562Y-72723019D02*
X46066657Y-72723019D01*
X46066657Y-72723019D02*
X46161895Y-72770638D01*
X46161895Y-72770638D02*
X46209514Y-72818257D01*
X46209514Y-72818257D02*
X46257133Y-72913495D01*
X46257133Y-72913495D02*
X46257133Y-73008733D01*
X46257133Y-73008733D02*
X46209514Y-73151590D01*
X46209514Y-73151590D02*
X45638086Y-73723019D01*
X45638086Y-73723019D02*
X46257133Y-73723019D01*
X38796666Y-22774819D02*
X38796666Y-23489104D01*
X38796666Y-23489104D02*
X38749047Y-23631961D01*
X38749047Y-23631961D02*
X38653809Y-23727200D01*
X38653809Y-23727200D02*
X38510952Y-23774819D01*
X38510952Y-23774819D02*
X38415714Y-23774819D01*
X39796666Y-23774819D02*
X39225238Y-23774819D01*
X39510952Y-23774819D02*
X39510952Y-22774819D01*
X39510952Y-22774819D02*
X39415714Y-22917676D01*
X39415714Y-22917676D02*
X39320476Y-23012914D01*
X39320476Y-23012914D02*
X39225238Y-23060533D01*
X96074819Y-21916666D02*
X95598628Y-22249999D01*
X96074819Y-22488094D02*
X95074819Y-22488094D01*
X95074819Y-22488094D02*
X95074819Y-22107142D01*
X95074819Y-22107142D02*
X95122438Y-22011904D01*
X95122438Y-22011904D02*
X95170057Y-21964285D01*
X95170057Y-21964285D02*
X95265295Y-21916666D01*
X95265295Y-21916666D02*
X95408152Y-21916666D01*
X95408152Y-21916666D02*
X95503390Y-21964285D01*
X95503390Y-21964285D02*
X95551009Y-22011904D01*
X95551009Y-22011904D02*
X95598628Y-22107142D01*
X95598628Y-22107142D02*
X95598628Y-22488094D01*
X95170057Y-21535713D02*
X95122438Y-21488094D01*
X95122438Y-21488094D02*
X95074819Y-21392856D01*
X95074819Y-21392856D02*
X95074819Y-21154761D01*
X95074819Y-21154761D02*
X95122438Y-21059523D01*
X95122438Y-21059523D02*
X95170057Y-21011904D01*
X95170057Y-21011904D02*
X95265295Y-20964285D01*
X95265295Y-20964285D02*
X95360533Y-20964285D01*
X95360533Y-20964285D02*
X95503390Y-21011904D01*
X95503390Y-21011904D02*
X96074819Y-21583332D01*
X96074819Y-21583332D02*
X96074819Y-20964285D01*
X95974819Y-27490476D02*
X95974819Y-28061904D01*
X95974819Y-27776190D02*
X94974819Y-27776190D01*
X94974819Y-27776190D02*
X95117676Y-27871428D01*
X95117676Y-27871428D02*
X95212914Y-27966666D01*
X95212914Y-27966666D02*
X95260533Y-28061904D01*
X94974819Y-26871428D02*
X94974819Y-26776190D01*
X94974819Y-26776190D02*
X95022438Y-26680952D01*
X95022438Y-26680952D02*
X95070057Y-26633333D01*
X95070057Y-26633333D02*
X95165295Y-26585714D01*
X95165295Y-26585714D02*
X95355771Y-26538095D01*
X95355771Y-26538095D02*
X95593866Y-26538095D01*
X95593866Y-26538095D02*
X95784342Y-26585714D01*
X95784342Y-26585714D02*
X95879580Y-26633333D01*
X95879580Y-26633333D02*
X95927200Y-26680952D01*
X95927200Y-26680952D02*
X95974819Y-26776190D01*
X95974819Y-26776190D02*
X95974819Y-26871428D01*
X95974819Y-26871428D02*
X95927200Y-26966666D01*
X95927200Y-26966666D02*
X95879580Y-27014285D01*
X95879580Y-27014285D02*
X95784342Y-27061904D01*
X95784342Y-27061904D02*
X95593866Y-27109523D01*
X95593866Y-27109523D02*
X95355771Y-27109523D01*
X95355771Y-27109523D02*
X95165295Y-27061904D01*
X95165295Y-27061904D02*
X95070057Y-27014285D01*
X95070057Y-27014285D02*
X95022438Y-26966666D01*
X95022438Y-26966666D02*
X94974819Y-26871428D01*
X95974819Y-26109523D02*
X94974819Y-26109523D01*
X95974819Y-25538095D02*
X95403390Y-25966666D01*
X94974819Y-25538095D02*
X95546247Y-26109523D01*
X97616667Y-60327200D02*
X97759524Y-60374819D01*
X97759524Y-60374819D02*
X97997619Y-60374819D01*
X97997619Y-60374819D02*
X98092857Y-60327200D01*
X98092857Y-60327200D02*
X98140476Y-60279580D01*
X98140476Y-60279580D02*
X98188095Y-60184342D01*
X98188095Y-60184342D02*
X98188095Y-60089104D01*
X98188095Y-60089104D02*
X98140476Y-59993866D01*
X98140476Y-59993866D02*
X98092857Y-59946247D01*
X98092857Y-59946247D02*
X97997619Y-59898628D01*
X97997619Y-59898628D02*
X97807143Y-59851009D01*
X97807143Y-59851009D02*
X97711905Y-59803390D01*
X97711905Y-59803390D02*
X97664286Y-59755771D01*
X97664286Y-59755771D02*
X97616667Y-59660533D01*
X97616667Y-59660533D02*
X97616667Y-59565295D01*
X97616667Y-59565295D02*
X97664286Y-59470057D01*
X97664286Y-59470057D02*
X97711905Y-59422438D01*
X97711905Y-59422438D02*
X97807143Y-59374819D01*
X97807143Y-59374819D02*
X98045238Y-59374819D01*
X98045238Y-59374819D02*
X98188095Y-59422438D01*
X98521429Y-59374819D02*
X98759524Y-60374819D01*
X98759524Y-60374819D02*
X98950000Y-59660533D01*
X98950000Y-59660533D02*
X99140476Y-60374819D01*
X99140476Y-60374819D02*
X99378572Y-59374819D01*
X99902381Y-59803390D02*
X99807143Y-59755771D01*
X99807143Y-59755771D02*
X99759524Y-59708152D01*
X99759524Y-59708152D02*
X99711905Y-59612914D01*
X99711905Y-59612914D02*
X99711905Y-59565295D01*
X99711905Y-59565295D02*
X99759524Y-59470057D01*
X99759524Y-59470057D02*
X99807143Y-59422438D01*
X99807143Y-59422438D02*
X99902381Y-59374819D01*
X99902381Y-59374819D02*
X100092857Y-59374819D01*
X100092857Y-59374819D02*
X100188095Y-59422438D01*
X100188095Y-59422438D02*
X100235714Y-59470057D01*
X100235714Y-59470057D02*
X100283333Y-59565295D01*
X100283333Y-59565295D02*
X100283333Y-59612914D01*
X100283333Y-59612914D02*
X100235714Y-59708152D01*
X100235714Y-59708152D02*
X100188095Y-59755771D01*
X100188095Y-59755771D02*
X100092857Y-59803390D01*
X100092857Y-59803390D02*
X99902381Y-59803390D01*
X99902381Y-59803390D02*
X99807143Y-59851009D01*
X99807143Y-59851009D02*
X99759524Y-59898628D01*
X99759524Y-59898628D02*
X99711905Y-59993866D01*
X99711905Y-59993866D02*
X99711905Y-60184342D01*
X99711905Y-60184342D02*
X99759524Y-60279580D01*
X99759524Y-60279580D02*
X99807143Y-60327200D01*
X99807143Y-60327200D02*
X99902381Y-60374819D01*
X99902381Y-60374819D02*
X100092857Y-60374819D01*
X100092857Y-60374819D02*
X100188095Y-60327200D01*
X100188095Y-60327200D02*
X100235714Y-60279580D01*
X100235714Y-60279580D02*
X100283333Y-60184342D01*
X100283333Y-60184342D02*
X100283333Y-59993866D01*
X100283333Y-59993866D02*
X100235714Y-59898628D01*
X100235714Y-59898628D02*
X100188095Y-59851009D01*
X100188095Y-59851009D02*
X100092857Y-59803390D01*
X89913333Y-35009580D02*
X89865714Y-35057200D01*
X89865714Y-35057200D02*
X89722857Y-35104819D01*
X89722857Y-35104819D02*
X89627619Y-35104819D01*
X89627619Y-35104819D02*
X89484762Y-35057200D01*
X89484762Y-35057200D02*
X89389524Y-34961961D01*
X89389524Y-34961961D02*
X89341905Y-34866723D01*
X89341905Y-34866723D02*
X89294286Y-34676247D01*
X89294286Y-34676247D02*
X89294286Y-34533390D01*
X89294286Y-34533390D02*
X89341905Y-34342914D01*
X89341905Y-34342914D02*
X89389524Y-34247676D01*
X89389524Y-34247676D02*
X89484762Y-34152438D01*
X89484762Y-34152438D02*
X89627619Y-34104819D01*
X89627619Y-34104819D02*
X89722857Y-34104819D01*
X89722857Y-34104819D02*
X89865714Y-34152438D01*
X89865714Y-34152438D02*
X89913333Y-34200057D01*
X90818095Y-34104819D02*
X90341905Y-34104819D01*
X90341905Y-34104819D02*
X90294286Y-34581009D01*
X90294286Y-34581009D02*
X90341905Y-34533390D01*
X90341905Y-34533390D02*
X90437143Y-34485771D01*
X90437143Y-34485771D02*
X90675238Y-34485771D01*
X90675238Y-34485771D02*
X90770476Y-34533390D01*
X90770476Y-34533390D02*
X90818095Y-34581009D01*
X90818095Y-34581009D02*
X90865714Y-34676247D01*
X90865714Y-34676247D02*
X90865714Y-34914342D01*
X90865714Y-34914342D02*
X90818095Y-35009580D01*
X90818095Y-35009580D02*
X90770476Y-35057200D01*
X90770476Y-35057200D02*
X90675238Y-35104819D01*
X90675238Y-35104819D02*
X90437143Y-35104819D01*
X90437143Y-35104819D02*
X90341905Y-35057200D01*
X90341905Y-35057200D02*
X90294286Y-35009580D01*
X97060000Y-34394819D02*
X97155238Y-34394819D01*
X97155238Y-34394819D02*
X97250476Y-34442438D01*
X97250476Y-34442438D02*
X97298095Y-34490057D01*
X97298095Y-34490057D02*
X97345714Y-34585295D01*
X97345714Y-34585295D02*
X97393333Y-34775771D01*
X97393333Y-34775771D02*
X97393333Y-35013866D01*
X97393333Y-35013866D02*
X97345714Y-35204342D01*
X97345714Y-35204342D02*
X97298095Y-35299580D01*
X97298095Y-35299580D02*
X97250476Y-35347200D01*
X97250476Y-35347200D02*
X97155238Y-35394819D01*
X97155238Y-35394819D02*
X97060000Y-35394819D01*
X97060000Y-35394819D02*
X96964762Y-35347200D01*
X96964762Y-35347200D02*
X96917143Y-35299580D01*
X96917143Y-35299580D02*
X96869524Y-35204342D01*
X96869524Y-35204342D02*
X96821905Y-35013866D01*
X96821905Y-35013866D02*
X96821905Y-34775771D01*
X96821905Y-34775771D02*
X96869524Y-34585295D01*
X96869524Y-34585295D02*
X96917143Y-34490057D01*
X96917143Y-34490057D02*
X96964762Y-34442438D01*
X96964762Y-34442438D02*
X97060000Y-34394819D01*
X97821905Y-35299580D02*
X97869524Y-35347200D01*
X97869524Y-35347200D02*
X97821905Y-35394819D01*
X97821905Y-35394819D02*
X97774286Y-35347200D01*
X97774286Y-35347200D02*
X97821905Y-35299580D01*
X97821905Y-35299580D02*
X97821905Y-35394819D01*
X98821904Y-35394819D02*
X98250476Y-35394819D01*
X98536190Y-35394819D02*
X98536190Y-34394819D01*
X98536190Y-34394819D02*
X98440952Y-34537676D01*
X98440952Y-34537676D02*
X98345714Y-34632914D01*
X98345714Y-34632914D02*
X98250476Y-34680533D01*
X99679047Y-34728152D02*
X99679047Y-35394819D01*
X99250476Y-34728152D02*
X99250476Y-35251961D01*
X99250476Y-35251961D02*
X99298095Y-35347200D01*
X99298095Y-35347200D02*
X99393333Y-35394819D01*
X99393333Y-35394819D02*
X99536190Y-35394819D01*
X99536190Y-35394819D02*
X99631428Y-35347200D01*
X99631428Y-35347200D02*
X99679047Y-35299580D01*
X100012381Y-34728152D02*
X100393333Y-34728152D01*
X100155238Y-35394819D02*
X100155238Y-34537676D01*
X100155238Y-34537676D02*
X100202857Y-34442438D01*
X100202857Y-34442438D02*
X100298095Y-34394819D01*
X100298095Y-34394819D02*
X100393333Y-34394819D01*
X91564819Y-21886666D02*
X91088628Y-22219999D01*
X91564819Y-22458094D02*
X90564819Y-22458094D01*
X90564819Y-22458094D02*
X90564819Y-22077142D01*
X90564819Y-22077142D02*
X90612438Y-21981904D01*
X90612438Y-21981904D02*
X90660057Y-21934285D01*
X90660057Y-21934285D02*
X90755295Y-21886666D01*
X90755295Y-21886666D02*
X90898152Y-21886666D01*
X90898152Y-21886666D02*
X90993390Y-21934285D01*
X90993390Y-21934285D02*
X91041009Y-21981904D01*
X91041009Y-21981904D02*
X91088628Y-22077142D01*
X91088628Y-22077142D02*
X91088628Y-22458094D01*
X91564819Y-20934285D02*
X91564819Y-21505713D01*
X91564819Y-21219999D02*
X90564819Y-21219999D01*
X90564819Y-21219999D02*
X90707676Y-21315237D01*
X90707676Y-21315237D02*
X90802914Y-21410475D01*
X90802914Y-21410475D02*
X90850533Y-21505713D01*
X91414819Y-27490476D02*
X91414819Y-28061904D01*
X91414819Y-27776190D02*
X90414819Y-27776190D01*
X90414819Y-27776190D02*
X90557676Y-27871428D01*
X90557676Y-27871428D02*
X90652914Y-27966666D01*
X90652914Y-27966666D02*
X90700533Y-28061904D01*
X90414819Y-26871428D02*
X90414819Y-26776190D01*
X90414819Y-26776190D02*
X90462438Y-26680952D01*
X90462438Y-26680952D02*
X90510057Y-26633333D01*
X90510057Y-26633333D02*
X90605295Y-26585714D01*
X90605295Y-26585714D02*
X90795771Y-26538095D01*
X90795771Y-26538095D02*
X91033866Y-26538095D01*
X91033866Y-26538095D02*
X91224342Y-26585714D01*
X91224342Y-26585714D02*
X91319580Y-26633333D01*
X91319580Y-26633333D02*
X91367200Y-26680952D01*
X91367200Y-26680952D02*
X91414819Y-26776190D01*
X91414819Y-26776190D02*
X91414819Y-26871428D01*
X91414819Y-26871428D02*
X91367200Y-26966666D01*
X91367200Y-26966666D02*
X91319580Y-27014285D01*
X91319580Y-27014285D02*
X91224342Y-27061904D01*
X91224342Y-27061904D02*
X91033866Y-27109523D01*
X91033866Y-27109523D02*
X90795771Y-27109523D01*
X90795771Y-27109523D02*
X90605295Y-27061904D01*
X90605295Y-27061904D02*
X90510057Y-27014285D01*
X90510057Y-27014285D02*
X90462438Y-26966666D01*
X90462438Y-26966666D02*
X90414819Y-26871428D01*
X91414819Y-26109523D02*
X90414819Y-26109523D01*
X91414819Y-25538095D02*
X90843390Y-25966666D01*
X90414819Y-25538095D02*
X90986247Y-26109523D01*
X84074819Y-38773333D02*
X84789104Y-38773333D01*
X84789104Y-38773333D02*
X84931961Y-38820952D01*
X84931961Y-38820952D02*
X85027200Y-38916190D01*
X85027200Y-38916190D02*
X85074819Y-39059047D01*
X85074819Y-39059047D02*
X85074819Y-39154285D01*
X84074819Y-38392380D02*
X84074819Y-37773333D01*
X84074819Y-37773333D02*
X84455771Y-38106666D01*
X84455771Y-38106666D02*
X84455771Y-37963809D01*
X84455771Y-37963809D02*
X84503390Y-37868571D01*
X84503390Y-37868571D02*
X84551009Y-37820952D01*
X84551009Y-37820952D02*
X84646247Y-37773333D01*
X84646247Y-37773333D02*
X84884342Y-37773333D01*
X84884342Y-37773333D02*
X84979580Y-37820952D01*
X84979580Y-37820952D02*
X85027200Y-37868571D01*
X85027200Y-37868571D02*
X85074819Y-37963809D01*
X85074819Y-37963809D02*
X85074819Y-38249523D01*
X85074819Y-38249523D02*
X85027200Y-38344761D01*
X85027200Y-38344761D02*
X84979580Y-38392380D01*
D12*
X26414318Y-48945181D02*
X25144318Y-48945181D01*
X25144318Y-48945181D02*
X25144318Y-48642800D01*
X25144318Y-48642800D02*
X25204794Y-48461371D01*
X25204794Y-48461371D02*
X25325746Y-48340419D01*
X25325746Y-48340419D02*
X25446699Y-48279942D01*
X25446699Y-48279942D02*
X25688603Y-48219466D01*
X25688603Y-48219466D02*
X25870032Y-48219466D01*
X25870032Y-48219466D02*
X26111937Y-48279942D01*
X26111937Y-48279942D02*
X26232889Y-48340419D01*
X26232889Y-48340419D02*
X26353842Y-48461371D01*
X26353842Y-48461371D02*
X26414318Y-48642800D01*
X26414318Y-48642800D02*
X26414318Y-48945181D01*
X26414318Y-47009942D02*
X26414318Y-47735657D01*
X26414318Y-47372800D02*
X25144318Y-47372800D01*
X25144318Y-47372800D02*
X25325746Y-47493752D01*
X25325746Y-47493752D02*
X25446699Y-47614704D01*
X25446699Y-47614704D02*
X25507175Y-47735657D01*
X28414318Y-50981428D02*
X28414318Y-51707143D01*
X28414318Y-51344286D02*
X27144318Y-51344286D01*
X27144318Y-51344286D02*
X27325746Y-51465238D01*
X27325746Y-51465238D02*
X27446699Y-51586190D01*
X27446699Y-51586190D02*
X27507175Y-51707143D01*
X28414318Y-50437143D02*
X27144318Y-50437143D01*
X27144318Y-50437143D02*
X28414318Y-49711428D01*
X28414318Y-49711428D02*
X27144318Y-49711428D01*
X27144318Y-48501905D02*
X27144318Y-49106667D01*
X27144318Y-49106667D02*
X27749080Y-49167143D01*
X27749080Y-49167143D02*
X27688603Y-49106667D01*
X27688603Y-49106667D02*
X27628127Y-48985714D01*
X27628127Y-48985714D02*
X27628127Y-48683333D01*
X27628127Y-48683333D02*
X27688603Y-48562381D01*
X27688603Y-48562381D02*
X27749080Y-48501905D01*
X27749080Y-48501905D02*
X27870032Y-48441428D01*
X27870032Y-48441428D02*
X28172413Y-48441428D01*
X28172413Y-48441428D02*
X28293365Y-48501905D01*
X28293365Y-48501905D02*
X28353842Y-48562381D01*
X28353842Y-48562381D02*
X28414318Y-48683333D01*
X28414318Y-48683333D02*
X28414318Y-48985714D01*
X28414318Y-48985714D02*
X28353842Y-49106667D01*
X28353842Y-49106667D02*
X28293365Y-49167143D01*
X27567651Y-47352857D02*
X28414318Y-47352857D01*
X27083842Y-47655238D02*
X27990984Y-47957619D01*
X27990984Y-47957619D02*
X27990984Y-47171428D01*
X27144318Y-46445714D02*
X27144318Y-46324761D01*
X27144318Y-46324761D02*
X27204794Y-46203809D01*
X27204794Y-46203809D02*
X27265270Y-46143333D01*
X27265270Y-46143333D02*
X27386222Y-46082857D01*
X27386222Y-46082857D02*
X27628127Y-46022380D01*
X27628127Y-46022380D02*
X27930508Y-46022380D01*
X27930508Y-46022380D02*
X28172413Y-46082857D01*
X28172413Y-46082857D02*
X28293365Y-46143333D01*
X28293365Y-46143333D02*
X28353842Y-46203809D01*
X28353842Y-46203809D02*
X28414318Y-46324761D01*
X28414318Y-46324761D02*
X28414318Y-46445714D01*
X28414318Y-46445714D02*
X28353842Y-46566666D01*
X28353842Y-46566666D02*
X28293365Y-46627142D01*
X28293365Y-46627142D02*
X28172413Y-46687619D01*
X28172413Y-46687619D02*
X27930508Y-46748095D01*
X27930508Y-46748095D02*
X27628127Y-46748095D01*
X27628127Y-46748095D02*
X27386222Y-46687619D01*
X27386222Y-46687619D02*
X27265270Y-46627142D01*
X27265270Y-46627142D02*
X27204794Y-46566666D01*
X27204794Y-46566666D02*
X27144318Y-46445714D01*
X27688603Y-45296666D02*
X27628127Y-45417618D01*
X27628127Y-45417618D02*
X27567651Y-45478095D01*
X27567651Y-45478095D02*
X27446699Y-45538571D01*
X27446699Y-45538571D02*
X27386222Y-45538571D01*
X27386222Y-45538571D02*
X27265270Y-45478095D01*
X27265270Y-45478095D02*
X27204794Y-45417618D01*
X27204794Y-45417618D02*
X27144318Y-45296666D01*
X27144318Y-45296666D02*
X27144318Y-45054761D01*
X27144318Y-45054761D02*
X27204794Y-44933809D01*
X27204794Y-44933809D02*
X27265270Y-44873333D01*
X27265270Y-44873333D02*
X27386222Y-44812856D01*
X27386222Y-44812856D02*
X27446699Y-44812856D01*
X27446699Y-44812856D02*
X27567651Y-44873333D01*
X27567651Y-44873333D02*
X27628127Y-44933809D01*
X27628127Y-44933809D02*
X27688603Y-45054761D01*
X27688603Y-45054761D02*
X27688603Y-45296666D01*
X27688603Y-45296666D02*
X27749080Y-45417618D01*
X27749080Y-45417618D02*
X27809556Y-45478095D01*
X27809556Y-45478095D02*
X27930508Y-45538571D01*
X27930508Y-45538571D02*
X28172413Y-45538571D01*
X28172413Y-45538571D02*
X28293365Y-45478095D01*
X28293365Y-45478095D02*
X28353842Y-45417618D01*
X28353842Y-45417618D02*
X28414318Y-45296666D01*
X28414318Y-45296666D02*
X28414318Y-45054761D01*
X28414318Y-45054761D02*
X28353842Y-44933809D01*
X28353842Y-44933809D02*
X28293365Y-44873333D01*
X28293365Y-44873333D02*
X28172413Y-44812856D01*
X28172413Y-44812856D02*
X27930508Y-44812856D01*
X27930508Y-44812856D02*
X27809556Y-44873333D01*
X27809556Y-44873333D02*
X27749080Y-44933809D01*
X27749080Y-44933809D02*
X27688603Y-45054761D01*
D11*
X50423333Y-34819580D02*
X50375714Y-34867200D01*
X50375714Y-34867200D02*
X50232857Y-34914819D01*
X50232857Y-34914819D02*
X50137619Y-34914819D01*
X50137619Y-34914819D02*
X49994762Y-34867200D01*
X49994762Y-34867200D02*
X49899524Y-34771961D01*
X49899524Y-34771961D02*
X49851905Y-34676723D01*
X49851905Y-34676723D02*
X49804286Y-34486247D01*
X49804286Y-34486247D02*
X49804286Y-34343390D01*
X49804286Y-34343390D02*
X49851905Y-34152914D01*
X49851905Y-34152914D02*
X49899524Y-34057676D01*
X49899524Y-34057676D02*
X49994762Y-33962438D01*
X49994762Y-33962438D02*
X50137619Y-33914819D01*
X50137619Y-33914819D02*
X50232857Y-33914819D01*
X50232857Y-33914819D02*
X50375714Y-33962438D01*
X50375714Y-33962438D02*
X50423333Y-34010057D01*
X50804286Y-34010057D02*
X50851905Y-33962438D01*
X50851905Y-33962438D02*
X50947143Y-33914819D01*
X50947143Y-33914819D02*
X51185238Y-33914819D01*
X51185238Y-33914819D02*
X51280476Y-33962438D01*
X51280476Y-33962438D02*
X51328095Y-34010057D01*
X51328095Y-34010057D02*
X51375714Y-34105295D01*
X51375714Y-34105295D02*
X51375714Y-34200533D01*
X51375714Y-34200533D02*
X51328095Y-34343390D01*
X51328095Y-34343390D02*
X50756667Y-34914819D01*
X50756667Y-34914819D02*
X51375714Y-34914819D01*
X48709048Y-39010057D02*
X48756667Y-38962438D01*
X48756667Y-38962438D02*
X48851905Y-38914819D01*
X48851905Y-38914819D02*
X49090000Y-38914819D01*
X49090000Y-38914819D02*
X49185238Y-38962438D01*
X49185238Y-38962438D02*
X49232857Y-39010057D01*
X49232857Y-39010057D02*
X49280476Y-39105295D01*
X49280476Y-39105295D02*
X49280476Y-39200533D01*
X49280476Y-39200533D02*
X49232857Y-39343390D01*
X49232857Y-39343390D02*
X48661429Y-39914819D01*
X48661429Y-39914819D02*
X49280476Y-39914819D01*
X49709048Y-39819580D02*
X49756667Y-39867200D01*
X49756667Y-39867200D02*
X49709048Y-39914819D01*
X49709048Y-39914819D02*
X49661429Y-39867200D01*
X49661429Y-39867200D02*
X49709048Y-39819580D01*
X49709048Y-39819580D02*
X49709048Y-39914819D01*
X50137619Y-39010057D02*
X50185238Y-38962438D01*
X50185238Y-38962438D02*
X50280476Y-38914819D01*
X50280476Y-38914819D02*
X50518571Y-38914819D01*
X50518571Y-38914819D02*
X50613809Y-38962438D01*
X50613809Y-38962438D02*
X50661428Y-39010057D01*
X50661428Y-39010057D02*
X50709047Y-39105295D01*
X50709047Y-39105295D02*
X50709047Y-39200533D01*
X50709047Y-39200533D02*
X50661428Y-39343390D01*
X50661428Y-39343390D02*
X50090000Y-39914819D01*
X50090000Y-39914819D02*
X50709047Y-39914819D01*
X51566190Y-39248152D02*
X51566190Y-39914819D01*
X51137619Y-39248152D02*
X51137619Y-39771961D01*
X51137619Y-39771961D02*
X51185238Y-39867200D01*
X51185238Y-39867200D02*
X51280476Y-39914819D01*
X51280476Y-39914819D02*
X51423333Y-39914819D01*
X51423333Y-39914819D02*
X51518571Y-39867200D01*
X51518571Y-39867200D02*
X51566190Y-39819580D01*
X52375714Y-39391009D02*
X52042381Y-39391009D01*
X52042381Y-39914819D02*
X52042381Y-38914819D01*
X52042381Y-38914819D02*
X52518571Y-38914819D01*
X68699580Y-25826666D02*
X68747200Y-25874285D01*
X68747200Y-25874285D02*
X68794819Y-26017142D01*
X68794819Y-26017142D02*
X68794819Y-26112380D01*
X68794819Y-26112380D02*
X68747200Y-26255237D01*
X68747200Y-26255237D02*
X68651961Y-26350475D01*
X68651961Y-26350475D02*
X68556723Y-26398094D01*
X68556723Y-26398094D02*
X68366247Y-26445713D01*
X68366247Y-26445713D02*
X68223390Y-26445713D01*
X68223390Y-26445713D02*
X68032914Y-26398094D01*
X68032914Y-26398094D02*
X67937676Y-26350475D01*
X67937676Y-26350475D02*
X67842438Y-26255237D01*
X67842438Y-26255237D02*
X67794819Y-26112380D01*
X67794819Y-26112380D02*
X67794819Y-26017142D01*
X67794819Y-26017142D02*
X67842438Y-25874285D01*
X67842438Y-25874285D02*
X67890057Y-25826666D01*
X68128152Y-24969523D02*
X68794819Y-24969523D01*
X67747200Y-25207618D02*
X68461485Y-25445713D01*
X68461485Y-25445713D02*
X68461485Y-24826666D01*
X72786190Y-32344819D02*
X72214762Y-32344819D01*
X72500476Y-32344819D02*
X72500476Y-31344819D01*
X72500476Y-31344819D02*
X72405238Y-31487676D01*
X72405238Y-31487676D02*
X72310000Y-31582914D01*
X72310000Y-31582914D02*
X72214762Y-31630533D01*
X73405238Y-31344819D02*
X73500476Y-31344819D01*
X73500476Y-31344819D02*
X73595714Y-31392438D01*
X73595714Y-31392438D02*
X73643333Y-31440057D01*
X73643333Y-31440057D02*
X73690952Y-31535295D01*
X73690952Y-31535295D02*
X73738571Y-31725771D01*
X73738571Y-31725771D02*
X73738571Y-31963866D01*
X73738571Y-31963866D02*
X73690952Y-32154342D01*
X73690952Y-32154342D02*
X73643333Y-32249580D01*
X73643333Y-32249580D02*
X73595714Y-32297200D01*
X73595714Y-32297200D02*
X73500476Y-32344819D01*
X73500476Y-32344819D02*
X73405238Y-32344819D01*
X73405238Y-32344819D02*
X73310000Y-32297200D01*
X73310000Y-32297200D02*
X73262381Y-32249580D01*
X73262381Y-32249580D02*
X73214762Y-32154342D01*
X73214762Y-32154342D02*
X73167143Y-31963866D01*
X73167143Y-31963866D02*
X73167143Y-31725771D01*
X73167143Y-31725771D02*
X73214762Y-31535295D01*
X73214762Y-31535295D02*
X73262381Y-31440057D01*
X73262381Y-31440057D02*
X73310000Y-31392438D01*
X73310000Y-31392438D02*
X73405238Y-31344819D01*
X74357619Y-31344819D02*
X74452857Y-31344819D01*
X74452857Y-31344819D02*
X74548095Y-31392438D01*
X74548095Y-31392438D02*
X74595714Y-31440057D01*
X74595714Y-31440057D02*
X74643333Y-31535295D01*
X74643333Y-31535295D02*
X74690952Y-31725771D01*
X74690952Y-31725771D02*
X74690952Y-31963866D01*
X74690952Y-31963866D02*
X74643333Y-32154342D01*
X74643333Y-32154342D02*
X74595714Y-32249580D01*
X74595714Y-32249580D02*
X74548095Y-32297200D01*
X74548095Y-32297200D02*
X74452857Y-32344819D01*
X74452857Y-32344819D02*
X74357619Y-32344819D01*
X74357619Y-32344819D02*
X74262381Y-32297200D01*
X74262381Y-32297200D02*
X74214762Y-32249580D01*
X74214762Y-32249580D02*
X74167143Y-32154342D01*
X74167143Y-32154342D02*
X74119524Y-31963866D01*
X74119524Y-31963866D02*
X74119524Y-31725771D01*
X74119524Y-31725771D02*
X74167143Y-31535295D01*
X74167143Y-31535295D02*
X74214762Y-31440057D01*
X74214762Y-31440057D02*
X74262381Y-31392438D01*
X74262381Y-31392438D02*
X74357619Y-31344819D01*
X75310000Y-31344819D02*
X75405238Y-31344819D01*
X75405238Y-31344819D02*
X75500476Y-31392438D01*
X75500476Y-31392438D02*
X75548095Y-31440057D01*
X75548095Y-31440057D02*
X75595714Y-31535295D01*
X75595714Y-31535295D02*
X75643333Y-31725771D01*
X75643333Y-31725771D02*
X75643333Y-31963866D01*
X75643333Y-31963866D02*
X75595714Y-32154342D01*
X75595714Y-32154342D02*
X75548095Y-32249580D01*
X75548095Y-32249580D02*
X75500476Y-32297200D01*
X75500476Y-32297200D02*
X75405238Y-32344819D01*
X75405238Y-32344819D02*
X75310000Y-32344819D01*
X75310000Y-32344819D02*
X75214762Y-32297200D01*
X75214762Y-32297200D02*
X75167143Y-32249580D01*
X75167143Y-32249580D02*
X75119524Y-32154342D01*
X75119524Y-32154342D02*
X75071905Y-31963866D01*
X75071905Y-31963866D02*
X75071905Y-31725771D01*
X75071905Y-31725771D02*
X75119524Y-31535295D01*
X75119524Y-31535295D02*
X75167143Y-31440057D01*
X75167143Y-31440057D02*
X75214762Y-31392438D01*
X75214762Y-31392438D02*
X75310000Y-31344819D01*
X76500476Y-31678152D02*
X76500476Y-32344819D01*
X76071905Y-31678152D02*
X76071905Y-32201961D01*
X76071905Y-32201961D02*
X76119524Y-32297200D01*
X76119524Y-32297200D02*
X76214762Y-32344819D01*
X76214762Y-32344819D02*
X76357619Y-32344819D01*
X76357619Y-32344819D02*
X76452857Y-32297200D01*
X76452857Y-32297200D02*
X76500476Y-32249580D01*
X77310000Y-31821009D02*
X76976667Y-31821009D01*
X76976667Y-32344819D02*
X76976667Y-31344819D01*
X76976667Y-31344819D02*
X77452857Y-31344819D01*
X117050476Y-22277200D02*
X117193333Y-22324819D01*
X117193333Y-22324819D02*
X117431428Y-22324819D01*
X117431428Y-22324819D02*
X117526666Y-22277200D01*
X117526666Y-22277200D02*
X117574285Y-22229580D01*
X117574285Y-22229580D02*
X117621904Y-22134342D01*
X117621904Y-22134342D02*
X117621904Y-22039104D01*
X117621904Y-22039104D02*
X117574285Y-21943866D01*
X117574285Y-21943866D02*
X117526666Y-21896247D01*
X117526666Y-21896247D02*
X117431428Y-21848628D01*
X117431428Y-21848628D02*
X117240952Y-21801009D01*
X117240952Y-21801009D02*
X117145714Y-21753390D01*
X117145714Y-21753390D02*
X117098095Y-21705771D01*
X117098095Y-21705771D02*
X117050476Y-21610533D01*
X117050476Y-21610533D02*
X117050476Y-21515295D01*
X117050476Y-21515295D02*
X117098095Y-21420057D01*
X117098095Y-21420057D02*
X117145714Y-21372438D01*
X117145714Y-21372438D02*
X117240952Y-21324819D01*
X117240952Y-21324819D02*
X117479047Y-21324819D01*
X117479047Y-21324819D02*
X117621904Y-21372438D01*
X117955238Y-21324819D02*
X118193333Y-22324819D01*
X118193333Y-22324819D02*
X118383809Y-21610533D01*
X118383809Y-21610533D02*
X118574285Y-22324819D01*
X118574285Y-22324819D02*
X118812381Y-21324819D01*
X119717142Y-22324819D02*
X119145714Y-22324819D01*
X119431428Y-22324819D02*
X119431428Y-21324819D01*
X119431428Y-21324819D02*
X119336190Y-21467676D01*
X119336190Y-21467676D02*
X119240952Y-21562914D01*
X119240952Y-21562914D02*
X119145714Y-21610533D01*
X120098095Y-21420057D02*
X120145714Y-21372438D01*
X120145714Y-21372438D02*
X120240952Y-21324819D01*
X120240952Y-21324819D02*
X120479047Y-21324819D01*
X120479047Y-21324819D02*
X120574285Y-21372438D01*
X120574285Y-21372438D02*
X120621904Y-21420057D01*
X120621904Y-21420057D02*
X120669523Y-21515295D01*
X120669523Y-21515295D02*
X120669523Y-21610533D01*
X120669523Y-21610533D02*
X120621904Y-21753390D01*
X120621904Y-21753390D02*
X120050476Y-22324819D01*
X120050476Y-22324819D02*
X120669523Y-22324819D01*
X57210476Y-60277200D02*
X57353333Y-60324819D01*
X57353333Y-60324819D02*
X57591428Y-60324819D01*
X57591428Y-60324819D02*
X57686666Y-60277200D01*
X57686666Y-60277200D02*
X57734285Y-60229580D01*
X57734285Y-60229580D02*
X57781904Y-60134342D01*
X57781904Y-60134342D02*
X57781904Y-60039104D01*
X57781904Y-60039104D02*
X57734285Y-59943866D01*
X57734285Y-59943866D02*
X57686666Y-59896247D01*
X57686666Y-59896247D02*
X57591428Y-59848628D01*
X57591428Y-59848628D02*
X57400952Y-59801009D01*
X57400952Y-59801009D02*
X57305714Y-59753390D01*
X57305714Y-59753390D02*
X57258095Y-59705771D01*
X57258095Y-59705771D02*
X57210476Y-59610533D01*
X57210476Y-59610533D02*
X57210476Y-59515295D01*
X57210476Y-59515295D02*
X57258095Y-59420057D01*
X57258095Y-59420057D02*
X57305714Y-59372438D01*
X57305714Y-59372438D02*
X57400952Y-59324819D01*
X57400952Y-59324819D02*
X57639047Y-59324819D01*
X57639047Y-59324819D02*
X57781904Y-59372438D01*
X58115238Y-59324819D02*
X58353333Y-60324819D01*
X58353333Y-60324819D02*
X58543809Y-59610533D01*
X58543809Y-59610533D02*
X58734285Y-60324819D01*
X58734285Y-60324819D02*
X58972381Y-59324819D01*
X59877142Y-60324819D02*
X59305714Y-60324819D01*
X59591428Y-60324819D02*
X59591428Y-59324819D01*
X59591428Y-59324819D02*
X59496190Y-59467676D01*
X59496190Y-59467676D02*
X59400952Y-59562914D01*
X59400952Y-59562914D02*
X59305714Y-59610533D01*
X60496190Y-59324819D02*
X60591428Y-59324819D01*
X60591428Y-59324819D02*
X60686666Y-59372438D01*
X60686666Y-59372438D02*
X60734285Y-59420057D01*
X60734285Y-59420057D02*
X60781904Y-59515295D01*
X60781904Y-59515295D02*
X60829523Y-59705771D01*
X60829523Y-59705771D02*
X60829523Y-59943866D01*
X60829523Y-59943866D02*
X60781904Y-60134342D01*
X60781904Y-60134342D02*
X60734285Y-60229580D01*
X60734285Y-60229580D02*
X60686666Y-60277200D01*
X60686666Y-60277200D02*
X60591428Y-60324819D01*
X60591428Y-60324819D02*
X60496190Y-60324819D01*
X60496190Y-60324819D02*
X60400952Y-60277200D01*
X60400952Y-60277200D02*
X60353333Y-60229580D01*
X60353333Y-60229580D02*
X60305714Y-60134342D01*
X60305714Y-60134342D02*
X60258095Y-59943866D01*
X60258095Y-59943866D02*
X60258095Y-59705771D01*
X60258095Y-59705771D02*
X60305714Y-59515295D01*
X60305714Y-59515295D02*
X60353333Y-59420057D01*
X60353333Y-59420057D02*
X60400952Y-59372438D01*
X60400952Y-59372438D02*
X60496190Y-59324819D01*
X53234733Y-21009419D02*
X52901400Y-20533228D01*
X52663305Y-21009419D02*
X52663305Y-20009419D01*
X52663305Y-20009419D02*
X53044257Y-20009419D01*
X53044257Y-20009419D02*
X53139495Y-20057038D01*
X53139495Y-20057038D02*
X53187114Y-20104657D01*
X53187114Y-20104657D02*
X53234733Y-20199895D01*
X53234733Y-20199895D02*
X53234733Y-20342752D01*
X53234733Y-20342752D02*
X53187114Y-20437990D01*
X53187114Y-20437990D02*
X53139495Y-20485609D01*
X53139495Y-20485609D02*
X53044257Y-20533228D01*
X53044257Y-20533228D02*
X52663305Y-20533228D01*
X54187114Y-20057038D02*
X54091876Y-20009419D01*
X54091876Y-20009419D02*
X53949019Y-20009419D01*
X53949019Y-20009419D02*
X53806162Y-20057038D01*
X53806162Y-20057038D02*
X53710924Y-20152276D01*
X53710924Y-20152276D02*
X53663305Y-20247514D01*
X53663305Y-20247514D02*
X53615686Y-20437990D01*
X53615686Y-20437990D02*
X53615686Y-20580847D01*
X53615686Y-20580847D02*
X53663305Y-20771323D01*
X53663305Y-20771323D02*
X53710924Y-20866561D01*
X53710924Y-20866561D02*
X53806162Y-20961800D01*
X53806162Y-20961800D02*
X53949019Y-21009419D01*
X53949019Y-21009419D02*
X54044257Y-21009419D01*
X54044257Y-21009419D02*
X54187114Y-20961800D01*
X54187114Y-20961800D02*
X54234733Y-20914180D01*
X54234733Y-20914180D02*
X54234733Y-20580847D01*
X54234733Y-20580847D02*
X54044257Y-20580847D01*
X55187114Y-21009419D02*
X54615686Y-21009419D01*
X54901400Y-21009419D02*
X54901400Y-20009419D01*
X54901400Y-20009419D02*
X54806162Y-20152276D01*
X54806162Y-20152276D02*
X54710924Y-20247514D01*
X54710924Y-20247514D02*
X54615686Y-20295133D01*
X48853733Y-22762019D02*
X48853733Y-22095352D01*
X48853733Y-22190590D02*
X48901352Y-22142971D01*
X48901352Y-22142971D02*
X48996590Y-22095352D01*
X48996590Y-22095352D02*
X49139447Y-22095352D01*
X49139447Y-22095352D02*
X49234685Y-22142971D01*
X49234685Y-22142971D02*
X49282304Y-22238209D01*
X49282304Y-22238209D02*
X49282304Y-22762019D01*
X49282304Y-22238209D02*
X49329923Y-22142971D01*
X49329923Y-22142971D02*
X49425161Y-22095352D01*
X49425161Y-22095352D02*
X49568018Y-22095352D01*
X49568018Y-22095352D02*
X49663257Y-22142971D01*
X49663257Y-22142971D02*
X49710876Y-22238209D01*
X49710876Y-22238209D02*
X49710876Y-22762019D01*
X50187066Y-22238209D02*
X50520399Y-22238209D01*
X50663256Y-22762019D02*
X50187066Y-22762019D01*
X50187066Y-22762019D02*
X50187066Y-21762019D01*
X50187066Y-21762019D02*
X50663256Y-21762019D01*
X50996590Y-21762019D02*
X51663256Y-21762019D01*
X51663256Y-21762019D02*
X50996590Y-22762019D01*
X50996590Y-22762019D02*
X51663256Y-22762019D01*
X52044209Y-22762019D02*
X52044209Y-21762019D01*
X52044209Y-21762019D02*
X52282304Y-21762019D01*
X52282304Y-21762019D02*
X52425161Y-21809638D01*
X52425161Y-21809638D02*
X52520399Y-21904876D01*
X52520399Y-21904876D02*
X52568018Y-22000114D01*
X52568018Y-22000114D02*
X52615637Y-22190590D01*
X52615637Y-22190590D02*
X52615637Y-22333447D01*
X52615637Y-22333447D02*
X52568018Y-22523923D01*
X52568018Y-22523923D02*
X52520399Y-22619161D01*
X52520399Y-22619161D02*
X52425161Y-22714400D01*
X52425161Y-22714400D02*
X52282304Y-22762019D01*
X52282304Y-22762019D02*
X52044209Y-22762019D01*
X52948971Y-21762019D02*
X53615637Y-21762019D01*
X53615637Y-21762019D02*
X53187066Y-22762019D01*
X54520399Y-22762019D02*
X53948971Y-22762019D01*
X54234685Y-22762019D02*
X54234685Y-21762019D01*
X54234685Y-21762019D02*
X54139447Y-21904876D01*
X54139447Y-21904876D02*
X54044209Y-22000114D01*
X54044209Y-22000114D02*
X53948971Y-22047733D01*
X54901352Y-21857257D02*
X54948971Y-21809638D01*
X54948971Y-21809638D02*
X55044209Y-21762019D01*
X55044209Y-21762019D02*
X55282304Y-21762019D01*
X55282304Y-21762019D02*
X55377542Y-21809638D01*
X55377542Y-21809638D02*
X55425161Y-21857257D01*
X55425161Y-21857257D02*
X55472780Y-21952495D01*
X55472780Y-21952495D02*
X55472780Y-22047733D01*
X55472780Y-22047733D02*
X55425161Y-22190590D01*
X55425161Y-22190590D02*
X54853733Y-22762019D01*
X54853733Y-22762019D02*
X55472780Y-22762019D01*
X56091828Y-21762019D02*
X56187066Y-21762019D01*
X56187066Y-21762019D02*
X56282304Y-21809638D01*
X56282304Y-21809638D02*
X56329923Y-21857257D01*
X56329923Y-21857257D02*
X56377542Y-21952495D01*
X56377542Y-21952495D02*
X56425161Y-22142971D01*
X56425161Y-22142971D02*
X56425161Y-22381066D01*
X56425161Y-22381066D02*
X56377542Y-22571542D01*
X56377542Y-22571542D02*
X56329923Y-22666780D01*
X56329923Y-22666780D02*
X56282304Y-22714400D01*
X56282304Y-22714400D02*
X56187066Y-22762019D01*
X56187066Y-22762019D02*
X56091828Y-22762019D01*
X56091828Y-22762019D02*
X55996590Y-22714400D01*
X55996590Y-22714400D02*
X55948971Y-22666780D01*
X55948971Y-22666780D02*
X55901352Y-22571542D01*
X55901352Y-22571542D02*
X55853733Y-22381066D01*
X55853733Y-22381066D02*
X55853733Y-22142971D01*
X55853733Y-22142971D02*
X55901352Y-21952495D01*
X55901352Y-21952495D02*
X55948971Y-21857257D01*
X55948971Y-21857257D02*
X55996590Y-21809638D01*
X55996590Y-21809638D02*
X56091828Y-21762019D01*
X57377542Y-22762019D02*
X56806114Y-22762019D01*
X57091828Y-22762019D02*
X57091828Y-21762019D01*
X57091828Y-21762019D02*
X56996590Y-21904876D01*
X56996590Y-21904876D02*
X56901352Y-22000114D01*
X56901352Y-22000114D02*
X56806114Y-22047733D01*
X57758495Y-22476304D02*
X58234685Y-22476304D01*
X57663257Y-22762019D02*
X57996590Y-21762019D01*
X57996590Y-21762019D02*
X58329923Y-22762019D01*
X50308219Y-30778808D02*
X51308219Y-30445475D01*
X51308219Y-30445475D02*
X50308219Y-30112142D01*
X51308219Y-29778808D02*
X50641552Y-29778808D01*
X50308219Y-29778808D02*
X50355838Y-29826427D01*
X50355838Y-29826427D02*
X50403457Y-29778808D01*
X50403457Y-29778808D02*
X50355838Y-29731189D01*
X50355838Y-29731189D02*
X50308219Y-29778808D01*
X50308219Y-29778808D02*
X50403457Y-29778808D01*
X50641552Y-29302618D02*
X51308219Y-29302618D01*
X50736790Y-29302618D02*
X50689171Y-29254999D01*
X50689171Y-29254999D02*
X50641552Y-29159761D01*
X50641552Y-29159761D02*
X50641552Y-29016904D01*
X50641552Y-29016904D02*
X50689171Y-28921666D01*
X50689171Y-28921666D02*
X50784409Y-28874047D01*
X50784409Y-28874047D02*
X51308219Y-28874047D01*
X55388219Y-30778809D02*
X56388219Y-30445476D01*
X56388219Y-30445476D02*
X55388219Y-30112143D01*
X56388219Y-29635952D02*
X56340600Y-29731190D01*
X56340600Y-29731190D02*
X56292980Y-29778809D01*
X56292980Y-29778809D02*
X56197742Y-29826428D01*
X56197742Y-29826428D02*
X55912028Y-29826428D01*
X55912028Y-29826428D02*
X55816790Y-29778809D01*
X55816790Y-29778809D02*
X55769171Y-29731190D01*
X55769171Y-29731190D02*
X55721552Y-29635952D01*
X55721552Y-29635952D02*
X55721552Y-29493095D01*
X55721552Y-29493095D02*
X55769171Y-29397857D01*
X55769171Y-29397857D02*
X55816790Y-29350238D01*
X55816790Y-29350238D02*
X55912028Y-29302619D01*
X55912028Y-29302619D02*
X56197742Y-29302619D01*
X56197742Y-29302619D02*
X56292980Y-29350238D01*
X56292980Y-29350238D02*
X56340600Y-29397857D01*
X56340600Y-29397857D02*
X56388219Y-29493095D01*
X56388219Y-29493095D02*
X56388219Y-29635952D01*
X55721552Y-28445476D02*
X56388219Y-28445476D01*
X55721552Y-28874047D02*
X56245361Y-28874047D01*
X56245361Y-28874047D02*
X56340600Y-28826428D01*
X56340600Y-28826428D02*
X56388219Y-28731190D01*
X56388219Y-28731190D02*
X56388219Y-28588333D01*
X56388219Y-28588333D02*
X56340600Y-28493095D01*
X56340600Y-28493095D02*
X56292980Y-28445476D01*
X55721552Y-28112142D02*
X55721552Y-27731190D01*
X55388219Y-27969285D02*
X56245361Y-27969285D01*
X56245361Y-27969285D02*
X56340600Y-27921666D01*
X56340600Y-27921666D02*
X56388219Y-27826428D01*
X56388219Y-27826428D02*
X56388219Y-27731190D01*
X52921238Y-30112142D02*
X52873619Y-30207380D01*
X52873619Y-30207380D02*
X52873619Y-30350237D01*
X52873619Y-30350237D02*
X52921238Y-30493094D01*
X52921238Y-30493094D02*
X53016476Y-30588332D01*
X53016476Y-30588332D02*
X53111714Y-30635951D01*
X53111714Y-30635951D02*
X53302190Y-30683570D01*
X53302190Y-30683570D02*
X53445047Y-30683570D01*
X53445047Y-30683570D02*
X53635523Y-30635951D01*
X53635523Y-30635951D02*
X53730761Y-30588332D01*
X53730761Y-30588332D02*
X53826000Y-30493094D01*
X53826000Y-30493094D02*
X53873619Y-30350237D01*
X53873619Y-30350237D02*
X53873619Y-30254999D01*
X53873619Y-30254999D02*
X53826000Y-30112142D01*
X53826000Y-30112142D02*
X53778380Y-30064523D01*
X53778380Y-30064523D02*
X53445047Y-30064523D01*
X53445047Y-30064523D02*
X53445047Y-30254999D01*
X53873619Y-29635951D02*
X52873619Y-29635951D01*
X52873619Y-29635951D02*
X53873619Y-29064523D01*
X53873619Y-29064523D02*
X52873619Y-29064523D01*
X53873619Y-28588332D02*
X52873619Y-28588332D01*
X52873619Y-28588332D02*
X52873619Y-28350237D01*
X52873619Y-28350237D02*
X52921238Y-28207380D01*
X52921238Y-28207380D02*
X53016476Y-28112142D01*
X53016476Y-28112142D02*
X53111714Y-28064523D01*
X53111714Y-28064523D02*
X53302190Y-28016904D01*
X53302190Y-28016904D02*
X53445047Y-28016904D01*
X53445047Y-28016904D02*
X53635523Y-28064523D01*
X53635523Y-28064523D02*
X53730761Y-28112142D01*
X53730761Y-28112142D02*
X53826000Y-28207380D01*
X53826000Y-28207380D02*
X53873619Y-28350237D01*
X53873619Y-28350237D02*
X53873619Y-28588332D01*
X78066667Y-21307200D02*
X78209524Y-21354819D01*
X78209524Y-21354819D02*
X78447619Y-21354819D01*
X78447619Y-21354819D02*
X78542857Y-21307200D01*
X78542857Y-21307200D02*
X78590476Y-21259580D01*
X78590476Y-21259580D02*
X78638095Y-21164342D01*
X78638095Y-21164342D02*
X78638095Y-21069104D01*
X78638095Y-21069104D02*
X78590476Y-20973866D01*
X78590476Y-20973866D02*
X78542857Y-20926247D01*
X78542857Y-20926247D02*
X78447619Y-20878628D01*
X78447619Y-20878628D02*
X78257143Y-20831009D01*
X78257143Y-20831009D02*
X78161905Y-20783390D01*
X78161905Y-20783390D02*
X78114286Y-20735771D01*
X78114286Y-20735771D02*
X78066667Y-20640533D01*
X78066667Y-20640533D02*
X78066667Y-20545295D01*
X78066667Y-20545295D02*
X78114286Y-20450057D01*
X78114286Y-20450057D02*
X78161905Y-20402438D01*
X78161905Y-20402438D02*
X78257143Y-20354819D01*
X78257143Y-20354819D02*
X78495238Y-20354819D01*
X78495238Y-20354819D02*
X78638095Y-20402438D01*
X78971429Y-20354819D02*
X79209524Y-21354819D01*
X79209524Y-21354819D02*
X79400000Y-20640533D01*
X79400000Y-20640533D02*
X79590476Y-21354819D01*
X79590476Y-21354819D02*
X79828572Y-20354819D01*
X80685714Y-20354819D02*
X80209524Y-20354819D01*
X80209524Y-20354819D02*
X80161905Y-20831009D01*
X80161905Y-20831009D02*
X80209524Y-20783390D01*
X80209524Y-20783390D02*
X80304762Y-20735771D01*
X80304762Y-20735771D02*
X80542857Y-20735771D01*
X80542857Y-20735771D02*
X80638095Y-20783390D01*
X80638095Y-20783390D02*
X80685714Y-20831009D01*
X80685714Y-20831009D02*
X80733333Y-20926247D01*
X80733333Y-20926247D02*
X80733333Y-21164342D01*
X80733333Y-21164342D02*
X80685714Y-21259580D01*
X80685714Y-21259580D02*
X80638095Y-21307200D01*
X80638095Y-21307200D02*
X80542857Y-21354819D01*
X80542857Y-21354819D02*
X80304762Y-21354819D01*
X80304762Y-21354819D02*
X80209524Y-21307200D01*
X80209524Y-21307200D02*
X80161905Y-21259580D01*
X82499104Y-46784285D02*
X82499104Y-46308095D01*
X82784819Y-46879523D02*
X81784819Y-46546190D01*
X81784819Y-46546190D02*
X82784819Y-46212857D01*
X82784819Y-45355714D02*
X82784819Y-45927142D01*
X82784819Y-45641428D02*
X81784819Y-45641428D01*
X81784819Y-45641428D02*
X81927676Y-45736666D01*
X81927676Y-45736666D02*
X82022914Y-45831904D01*
X82022914Y-45831904D02*
X82070533Y-45927142D01*
X118160704Y-43550390D02*
X118160704Y-43074200D01*
X118446419Y-43645628D02*
X117446419Y-43312295D01*
X117446419Y-43312295D02*
X118446419Y-42978962D01*
X118446419Y-42074200D02*
X117970228Y-42407533D01*
X118446419Y-42645628D02*
X117446419Y-42645628D01*
X117446419Y-42645628D02*
X117446419Y-42264676D01*
X117446419Y-42264676D02*
X117494038Y-42169438D01*
X117494038Y-42169438D02*
X117541657Y-42121819D01*
X117541657Y-42121819D02*
X117636895Y-42074200D01*
X117636895Y-42074200D02*
X117779752Y-42074200D01*
X117779752Y-42074200D02*
X117874990Y-42121819D01*
X117874990Y-42121819D02*
X117922609Y-42169438D01*
X117922609Y-42169438D02*
X117970228Y-42264676D01*
X117970228Y-42264676D02*
X117970228Y-42645628D01*
X117922609Y-41645628D02*
X117922609Y-41312295D01*
X118446419Y-41169438D02*
X118446419Y-41645628D01*
X118446419Y-41645628D02*
X117446419Y-41645628D01*
X117446419Y-41645628D02*
X117446419Y-41169438D01*
X117922609Y-40407533D02*
X117922609Y-40740866D01*
X118446419Y-40740866D02*
X117446419Y-40740866D01*
X117446419Y-40740866D02*
X117446419Y-40264676D01*
X98075619Y-51957885D02*
X97075619Y-51957885D01*
X97075619Y-51957885D02*
X97075619Y-51719790D01*
X97075619Y-51719790D02*
X97123238Y-51576933D01*
X97123238Y-51576933D02*
X97218476Y-51481695D01*
X97218476Y-51481695D02*
X97313714Y-51434076D01*
X97313714Y-51434076D02*
X97504190Y-51386457D01*
X97504190Y-51386457D02*
X97647047Y-51386457D01*
X97647047Y-51386457D02*
X97837523Y-51434076D01*
X97837523Y-51434076D02*
X97932761Y-51481695D01*
X97932761Y-51481695D02*
X98028000Y-51576933D01*
X98028000Y-51576933D02*
X98075619Y-51719790D01*
X98075619Y-51719790D02*
X98075619Y-51957885D01*
X97170857Y-51005504D02*
X97123238Y-50957885D01*
X97123238Y-50957885D02*
X97075619Y-50862647D01*
X97075619Y-50862647D02*
X97075619Y-50624552D01*
X97075619Y-50624552D02*
X97123238Y-50529314D01*
X97123238Y-50529314D02*
X97170857Y-50481695D01*
X97170857Y-50481695D02*
X97266095Y-50434076D01*
X97266095Y-50434076D02*
X97361333Y-50434076D01*
X97361333Y-50434076D02*
X97504190Y-50481695D01*
X97504190Y-50481695D02*
X98075619Y-51053123D01*
X98075619Y-51053123D02*
X98075619Y-50434076D01*
X115620704Y-41740866D02*
X115620704Y-41264676D01*
X115906419Y-41836104D02*
X114906419Y-41502771D01*
X114906419Y-41502771D02*
X115906419Y-41169438D01*
X114906419Y-40645628D02*
X114906419Y-40550390D01*
X114906419Y-40550390D02*
X114954038Y-40455152D01*
X114954038Y-40455152D02*
X115001657Y-40407533D01*
X115001657Y-40407533D02*
X115096895Y-40359914D01*
X115096895Y-40359914D02*
X115287371Y-40312295D01*
X115287371Y-40312295D02*
X115525466Y-40312295D01*
X115525466Y-40312295D02*
X115715942Y-40359914D01*
X115715942Y-40359914D02*
X115811180Y-40407533D01*
X115811180Y-40407533D02*
X115858800Y-40455152D01*
X115858800Y-40455152D02*
X115906419Y-40550390D01*
X115906419Y-40550390D02*
X115906419Y-40645628D01*
X115906419Y-40645628D02*
X115858800Y-40740866D01*
X115858800Y-40740866D02*
X115811180Y-40788485D01*
X115811180Y-40788485D02*
X115715942Y-40836104D01*
X115715942Y-40836104D02*
X115525466Y-40883723D01*
X115525466Y-40883723D02*
X115287371Y-40883723D01*
X115287371Y-40883723D02*
X115096895Y-40836104D01*
X115096895Y-40836104D02*
X115001657Y-40788485D01*
X115001657Y-40788485D02*
X114954038Y-40740866D01*
X114954038Y-40740866D02*
X114906419Y-40645628D01*
X120884819Y-51957885D02*
X119884819Y-51957885D01*
X119884819Y-51957885D02*
X119884819Y-51719790D01*
X119884819Y-51719790D02*
X119932438Y-51576933D01*
X119932438Y-51576933D02*
X120027676Y-51481695D01*
X120027676Y-51481695D02*
X120122914Y-51434076D01*
X120122914Y-51434076D02*
X120313390Y-51386457D01*
X120313390Y-51386457D02*
X120456247Y-51386457D01*
X120456247Y-51386457D02*
X120646723Y-51434076D01*
X120646723Y-51434076D02*
X120741961Y-51481695D01*
X120741961Y-51481695D02*
X120837200Y-51576933D01*
X120837200Y-51576933D02*
X120884819Y-51719790D01*
X120884819Y-51719790D02*
X120884819Y-51957885D01*
X120884819Y-50434076D02*
X120884819Y-51005504D01*
X120884819Y-50719790D02*
X119884819Y-50719790D01*
X119884819Y-50719790D02*
X120027676Y-50815028D01*
X120027676Y-50815028D02*
X120122914Y-50910266D01*
X120122914Y-50910266D02*
X120170533Y-51005504D01*
X120884819Y-49481695D02*
X120884819Y-50053123D01*
X120884819Y-49767409D02*
X119884819Y-49767409D01*
X119884819Y-49767409D02*
X120027676Y-49862647D01*
X120027676Y-49862647D02*
X120122914Y-49957885D01*
X120122914Y-49957885D02*
X120170533Y-50053123D01*
X100590219Y-51957885D02*
X99590219Y-51957885D01*
X99590219Y-51957885D02*
X99590219Y-51719790D01*
X99590219Y-51719790D02*
X99637838Y-51576933D01*
X99637838Y-51576933D02*
X99733076Y-51481695D01*
X99733076Y-51481695D02*
X99828314Y-51434076D01*
X99828314Y-51434076D02*
X100018790Y-51386457D01*
X100018790Y-51386457D02*
X100161647Y-51386457D01*
X100161647Y-51386457D02*
X100352123Y-51434076D01*
X100352123Y-51434076D02*
X100447361Y-51481695D01*
X100447361Y-51481695D02*
X100542600Y-51576933D01*
X100542600Y-51576933D02*
X100590219Y-51719790D01*
X100590219Y-51719790D02*
X100590219Y-51957885D01*
X99590219Y-51053123D02*
X99590219Y-50434076D01*
X99590219Y-50434076D02*
X99971171Y-50767409D01*
X99971171Y-50767409D02*
X99971171Y-50624552D01*
X99971171Y-50624552D02*
X100018790Y-50529314D01*
X100018790Y-50529314D02*
X100066409Y-50481695D01*
X100066409Y-50481695D02*
X100161647Y-50434076D01*
X100161647Y-50434076D02*
X100399742Y-50434076D01*
X100399742Y-50434076D02*
X100494980Y-50481695D01*
X100494980Y-50481695D02*
X100542600Y-50529314D01*
X100542600Y-50529314D02*
X100590219Y-50624552D01*
X100590219Y-50624552D02*
X100590219Y-50910266D01*
X100590219Y-50910266D02*
X100542600Y-51005504D01*
X100542600Y-51005504D02*
X100494980Y-51053123D01*
X92995619Y-42026581D02*
X92519428Y-42359914D01*
X92995619Y-42598009D02*
X91995619Y-42598009D01*
X91995619Y-42598009D02*
X91995619Y-42217057D01*
X91995619Y-42217057D02*
X92043238Y-42121819D01*
X92043238Y-42121819D02*
X92090857Y-42074200D01*
X92090857Y-42074200D02*
X92186095Y-42026581D01*
X92186095Y-42026581D02*
X92328952Y-42026581D01*
X92328952Y-42026581D02*
X92424190Y-42074200D01*
X92424190Y-42074200D02*
X92471809Y-42121819D01*
X92471809Y-42121819D02*
X92519428Y-42217057D01*
X92519428Y-42217057D02*
X92519428Y-42598009D01*
X92948000Y-41645628D02*
X92995619Y-41502771D01*
X92995619Y-41502771D02*
X92995619Y-41264676D01*
X92995619Y-41264676D02*
X92948000Y-41169438D01*
X92948000Y-41169438D02*
X92900380Y-41121819D01*
X92900380Y-41121819D02*
X92805142Y-41074200D01*
X92805142Y-41074200D02*
X92709904Y-41074200D01*
X92709904Y-41074200D02*
X92614666Y-41121819D01*
X92614666Y-41121819D02*
X92567047Y-41169438D01*
X92567047Y-41169438D02*
X92519428Y-41264676D01*
X92519428Y-41264676D02*
X92471809Y-41455152D01*
X92471809Y-41455152D02*
X92424190Y-41550390D01*
X92424190Y-41550390D02*
X92376571Y-41598009D01*
X92376571Y-41598009D02*
X92281333Y-41645628D01*
X92281333Y-41645628D02*
X92186095Y-41645628D01*
X92186095Y-41645628D02*
X92090857Y-41598009D01*
X92090857Y-41598009D02*
X92043238Y-41550390D01*
X92043238Y-41550390D02*
X91995619Y-41455152D01*
X91995619Y-41455152D02*
X91995619Y-41217057D01*
X91995619Y-41217057D02*
X92043238Y-41074200D01*
X91995619Y-40788485D02*
X91995619Y-40217057D01*
X92995619Y-40502771D02*
X91995619Y-40502771D01*
X87915619Y-51957885D02*
X86915619Y-51957885D01*
X86915619Y-51957885D02*
X86915619Y-51719790D01*
X86915619Y-51719790D02*
X86963238Y-51576933D01*
X86963238Y-51576933D02*
X87058476Y-51481695D01*
X87058476Y-51481695D02*
X87153714Y-51434076D01*
X87153714Y-51434076D02*
X87344190Y-51386457D01*
X87344190Y-51386457D02*
X87487047Y-51386457D01*
X87487047Y-51386457D02*
X87677523Y-51434076D01*
X87677523Y-51434076D02*
X87772761Y-51481695D01*
X87772761Y-51481695D02*
X87868000Y-51576933D01*
X87868000Y-51576933D02*
X87915619Y-51719790D01*
X87915619Y-51719790D02*
X87915619Y-51957885D01*
X87915619Y-50434076D02*
X87915619Y-51005504D01*
X87915619Y-50719790D02*
X86915619Y-50719790D01*
X86915619Y-50719790D02*
X87058476Y-50815028D01*
X87058476Y-50815028D02*
X87153714Y-50910266D01*
X87153714Y-50910266D02*
X87201333Y-51005504D01*
X87868000Y-49957885D02*
X87915619Y-49957885D01*
X87915619Y-49957885D02*
X88010857Y-50005504D01*
X88010857Y-50005504D02*
X88058476Y-50053123D01*
X86915619Y-48910266D02*
X86915619Y-48338838D01*
X87915619Y-48624552D02*
X86915619Y-48624552D01*
X86915619Y-48100742D02*
X87915619Y-47434076D01*
X86915619Y-47434076D02*
X87915619Y-48100742D01*
X120554666Y-43883723D02*
X120554666Y-43121819D01*
X120935619Y-43502771D02*
X120173714Y-43502771D01*
X119935619Y-42740866D02*
X119935619Y-42121819D01*
X119935619Y-42121819D02*
X120316571Y-42455152D01*
X120316571Y-42455152D02*
X120316571Y-42312295D01*
X120316571Y-42312295D02*
X120364190Y-42217057D01*
X120364190Y-42217057D02*
X120411809Y-42169438D01*
X120411809Y-42169438D02*
X120507047Y-42121819D01*
X120507047Y-42121819D02*
X120745142Y-42121819D01*
X120745142Y-42121819D02*
X120840380Y-42169438D01*
X120840380Y-42169438D02*
X120888000Y-42217057D01*
X120888000Y-42217057D02*
X120935619Y-42312295D01*
X120935619Y-42312295D02*
X120935619Y-42598009D01*
X120935619Y-42598009D02*
X120888000Y-42693247D01*
X120888000Y-42693247D02*
X120840380Y-42740866D01*
X119935619Y-41836104D02*
X120935619Y-41502771D01*
X120935619Y-41502771D02*
X119935619Y-41169438D01*
X119935619Y-40931342D02*
X119935619Y-40312295D01*
X119935619Y-40312295D02*
X120316571Y-40645628D01*
X120316571Y-40645628D02*
X120316571Y-40502771D01*
X120316571Y-40502771D02*
X120364190Y-40407533D01*
X120364190Y-40407533D02*
X120411809Y-40359914D01*
X120411809Y-40359914D02*
X120507047Y-40312295D01*
X120507047Y-40312295D02*
X120745142Y-40312295D01*
X120745142Y-40312295D02*
X120840380Y-40359914D01*
X120840380Y-40359914D02*
X120888000Y-40407533D01*
X120888000Y-40407533D02*
X120935619Y-40502771D01*
X120935619Y-40502771D02*
X120935619Y-40788485D01*
X120935619Y-40788485D02*
X120888000Y-40883723D01*
X120888000Y-40883723D02*
X120840380Y-40931342D01*
X118446419Y-51957885D02*
X117446419Y-51957885D01*
X117446419Y-51957885D02*
X117446419Y-51719790D01*
X117446419Y-51719790D02*
X117494038Y-51576933D01*
X117494038Y-51576933D02*
X117589276Y-51481695D01*
X117589276Y-51481695D02*
X117684514Y-51434076D01*
X117684514Y-51434076D02*
X117874990Y-51386457D01*
X117874990Y-51386457D02*
X118017847Y-51386457D01*
X118017847Y-51386457D02*
X118208323Y-51434076D01*
X118208323Y-51434076D02*
X118303561Y-51481695D01*
X118303561Y-51481695D02*
X118398800Y-51576933D01*
X118398800Y-51576933D02*
X118446419Y-51719790D01*
X118446419Y-51719790D02*
X118446419Y-51957885D01*
X118446419Y-50434076D02*
X118446419Y-51005504D01*
X118446419Y-50719790D02*
X117446419Y-50719790D01*
X117446419Y-50719790D02*
X117589276Y-50815028D01*
X117589276Y-50815028D02*
X117684514Y-50910266D01*
X117684514Y-50910266D02*
X117732133Y-51005504D01*
X117446419Y-49815028D02*
X117446419Y-49719790D01*
X117446419Y-49719790D02*
X117494038Y-49624552D01*
X117494038Y-49624552D02*
X117541657Y-49576933D01*
X117541657Y-49576933D02*
X117636895Y-49529314D01*
X117636895Y-49529314D02*
X117827371Y-49481695D01*
X117827371Y-49481695D02*
X118065466Y-49481695D01*
X118065466Y-49481695D02*
X118255942Y-49529314D01*
X118255942Y-49529314D02*
X118351180Y-49576933D01*
X118351180Y-49576933D02*
X118398800Y-49624552D01*
X118398800Y-49624552D02*
X118446419Y-49719790D01*
X118446419Y-49719790D02*
X118446419Y-49815028D01*
X118446419Y-49815028D02*
X118398800Y-49910266D01*
X118398800Y-49910266D02*
X118351180Y-49957885D01*
X118351180Y-49957885D02*
X118255942Y-50005504D01*
X118255942Y-50005504D02*
X118065466Y-50053123D01*
X118065466Y-50053123D02*
X117827371Y-50053123D01*
X117827371Y-50053123D02*
X117636895Y-50005504D01*
X117636895Y-50005504D02*
X117541657Y-49957885D01*
X117541657Y-49957885D02*
X117494038Y-49910266D01*
X117494038Y-49910266D02*
X117446419Y-49815028D01*
X113366419Y-51957885D02*
X112366419Y-51957885D01*
X112366419Y-51957885D02*
X112366419Y-51719790D01*
X112366419Y-51719790D02*
X112414038Y-51576933D01*
X112414038Y-51576933D02*
X112509276Y-51481695D01*
X112509276Y-51481695D02*
X112604514Y-51434076D01*
X112604514Y-51434076D02*
X112794990Y-51386457D01*
X112794990Y-51386457D02*
X112937847Y-51386457D01*
X112937847Y-51386457D02*
X113128323Y-51434076D01*
X113128323Y-51434076D02*
X113223561Y-51481695D01*
X113223561Y-51481695D02*
X113318800Y-51576933D01*
X113318800Y-51576933D02*
X113366419Y-51719790D01*
X113366419Y-51719790D02*
X113366419Y-51957885D01*
X112794990Y-50815028D02*
X112747371Y-50910266D01*
X112747371Y-50910266D02*
X112699752Y-50957885D01*
X112699752Y-50957885D02*
X112604514Y-51005504D01*
X112604514Y-51005504D02*
X112556895Y-51005504D01*
X112556895Y-51005504D02*
X112461657Y-50957885D01*
X112461657Y-50957885D02*
X112414038Y-50910266D01*
X112414038Y-50910266D02*
X112366419Y-50815028D01*
X112366419Y-50815028D02*
X112366419Y-50624552D01*
X112366419Y-50624552D02*
X112414038Y-50529314D01*
X112414038Y-50529314D02*
X112461657Y-50481695D01*
X112461657Y-50481695D02*
X112556895Y-50434076D01*
X112556895Y-50434076D02*
X112604514Y-50434076D01*
X112604514Y-50434076D02*
X112699752Y-50481695D01*
X112699752Y-50481695D02*
X112747371Y-50529314D01*
X112747371Y-50529314D02*
X112794990Y-50624552D01*
X112794990Y-50624552D02*
X112794990Y-50815028D01*
X112794990Y-50815028D02*
X112842609Y-50910266D01*
X112842609Y-50910266D02*
X112890228Y-50957885D01*
X112890228Y-50957885D02*
X112985466Y-51005504D01*
X112985466Y-51005504D02*
X113175942Y-51005504D01*
X113175942Y-51005504D02*
X113271180Y-50957885D01*
X113271180Y-50957885D02*
X113318800Y-50910266D01*
X113318800Y-50910266D02*
X113366419Y-50815028D01*
X113366419Y-50815028D02*
X113366419Y-50624552D01*
X113366419Y-50624552D02*
X113318800Y-50529314D01*
X113318800Y-50529314D02*
X113271180Y-50481695D01*
X113271180Y-50481695D02*
X113175942Y-50434076D01*
X113175942Y-50434076D02*
X112985466Y-50434076D01*
X112985466Y-50434076D02*
X112890228Y-50481695D01*
X112890228Y-50481695D02*
X112842609Y-50529314D01*
X112842609Y-50529314D02*
X112794990Y-50624552D01*
X93097219Y-51386457D02*
X92621028Y-51719790D01*
X93097219Y-51957885D02*
X92097219Y-51957885D01*
X92097219Y-51957885D02*
X92097219Y-51576933D01*
X92097219Y-51576933D02*
X92144838Y-51481695D01*
X92144838Y-51481695D02*
X92192457Y-51434076D01*
X92192457Y-51434076D02*
X92287695Y-51386457D01*
X92287695Y-51386457D02*
X92430552Y-51386457D01*
X92430552Y-51386457D02*
X92525790Y-51434076D01*
X92525790Y-51434076D02*
X92573409Y-51481695D01*
X92573409Y-51481695D02*
X92621028Y-51576933D01*
X92621028Y-51576933D02*
X92621028Y-51957885D01*
X93049600Y-51005504D02*
X93097219Y-50862647D01*
X93097219Y-50862647D02*
X93097219Y-50624552D01*
X93097219Y-50624552D02*
X93049600Y-50529314D01*
X93049600Y-50529314D02*
X93001980Y-50481695D01*
X93001980Y-50481695D02*
X92906742Y-50434076D01*
X92906742Y-50434076D02*
X92811504Y-50434076D01*
X92811504Y-50434076D02*
X92716266Y-50481695D01*
X92716266Y-50481695D02*
X92668647Y-50529314D01*
X92668647Y-50529314D02*
X92621028Y-50624552D01*
X92621028Y-50624552D02*
X92573409Y-50815028D01*
X92573409Y-50815028D02*
X92525790Y-50910266D01*
X92525790Y-50910266D02*
X92478171Y-50957885D01*
X92478171Y-50957885D02*
X92382933Y-51005504D01*
X92382933Y-51005504D02*
X92287695Y-51005504D01*
X92287695Y-51005504D02*
X92192457Y-50957885D01*
X92192457Y-50957885D02*
X92144838Y-50910266D01*
X92144838Y-50910266D02*
X92097219Y-50815028D01*
X92097219Y-50815028D02*
X92097219Y-50576933D01*
X92097219Y-50576933D02*
X92144838Y-50434076D01*
X92097219Y-50148361D02*
X92097219Y-49576933D01*
X93097219Y-49862647D02*
X92097219Y-49862647D01*
X102717504Y-41740866D02*
X102717504Y-41264676D01*
X103003219Y-41836104D02*
X102003219Y-41502771D01*
X102003219Y-41502771D02*
X103003219Y-41169438D01*
X102003219Y-40359914D02*
X102003219Y-40836104D01*
X102003219Y-40836104D02*
X102479409Y-40883723D01*
X102479409Y-40883723D02*
X102431790Y-40836104D01*
X102431790Y-40836104D02*
X102384171Y-40740866D01*
X102384171Y-40740866D02*
X102384171Y-40502771D01*
X102384171Y-40502771D02*
X102431790Y-40407533D01*
X102431790Y-40407533D02*
X102479409Y-40359914D01*
X102479409Y-40359914D02*
X102574647Y-40312295D01*
X102574647Y-40312295D02*
X102812742Y-40312295D01*
X102812742Y-40312295D02*
X102907980Y-40359914D01*
X102907980Y-40359914D02*
X102955600Y-40407533D01*
X102955600Y-40407533D02*
X103003219Y-40502771D01*
X103003219Y-40502771D02*
X103003219Y-40740866D01*
X103003219Y-40740866D02*
X102955600Y-40836104D01*
X102955600Y-40836104D02*
X102907980Y-40883723D01*
X115881019Y-51957885D02*
X114881019Y-51957885D01*
X114881019Y-51957885D02*
X114881019Y-51719790D01*
X114881019Y-51719790D02*
X114928638Y-51576933D01*
X114928638Y-51576933D02*
X115023876Y-51481695D01*
X115023876Y-51481695D02*
X115119114Y-51434076D01*
X115119114Y-51434076D02*
X115309590Y-51386457D01*
X115309590Y-51386457D02*
X115452447Y-51386457D01*
X115452447Y-51386457D02*
X115642923Y-51434076D01*
X115642923Y-51434076D02*
X115738161Y-51481695D01*
X115738161Y-51481695D02*
X115833400Y-51576933D01*
X115833400Y-51576933D02*
X115881019Y-51719790D01*
X115881019Y-51719790D02*
X115881019Y-51957885D01*
X115881019Y-50910266D02*
X115881019Y-50719790D01*
X115881019Y-50719790D02*
X115833400Y-50624552D01*
X115833400Y-50624552D02*
X115785780Y-50576933D01*
X115785780Y-50576933D02*
X115642923Y-50481695D01*
X115642923Y-50481695D02*
X115452447Y-50434076D01*
X115452447Y-50434076D02*
X115071495Y-50434076D01*
X115071495Y-50434076D02*
X114976257Y-50481695D01*
X114976257Y-50481695D02*
X114928638Y-50529314D01*
X114928638Y-50529314D02*
X114881019Y-50624552D01*
X114881019Y-50624552D02*
X114881019Y-50815028D01*
X114881019Y-50815028D02*
X114928638Y-50910266D01*
X114928638Y-50910266D02*
X114976257Y-50957885D01*
X114976257Y-50957885D02*
X115071495Y-51005504D01*
X115071495Y-51005504D02*
X115309590Y-51005504D01*
X115309590Y-51005504D02*
X115404828Y-50957885D01*
X115404828Y-50957885D02*
X115452447Y-50910266D01*
X115452447Y-50910266D02*
X115500066Y-50815028D01*
X115500066Y-50815028D02*
X115500066Y-50624552D01*
X115500066Y-50624552D02*
X115452447Y-50529314D01*
X115452447Y-50529314D02*
X115404828Y-50481695D01*
X115404828Y-50481695D02*
X115309590Y-50434076D01*
X100304504Y-41740866D02*
X100304504Y-41264676D01*
X100590219Y-41836104D02*
X99590219Y-41502771D01*
X99590219Y-41502771D02*
X100590219Y-41169438D01*
X99590219Y-40407533D02*
X99590219Y-40598009D01*
X99590219Y-40598009D02*
X99637838Y-40693247D01*
X99637838Y-40693247D02*
X99685457Y-40740866D01*
X99685457Y-40740866D02*
X99828314Y-40836104D01*
X99828314Y-40836104D02*
X100018790Y-40883723D01*
X100018790Y-40883723D02*
X100399742Y-40883723D01*
X100399742Y-40883723D02*
X100494980Y-40836104D01*
X100494980Y-40836104D02*
X100542600Y-40788485D01*
X100542600Y-40788485D02*
X100590219Y-40693247D01*
X100590219Y-40693247D02*
X100590219Y-40502771D01*
X100590219Y-40502771D02*
X100542600Y-40407533D01*
X100542600Y-40407533D02*
X100494980Y-40359914D01*
X100494980Y-40359914D02*
X100399742Y-40312295D01*
X100399742Y-40312295D02*
X100161647Y-40312295D01*
X100161647Y-40312295D02*
X100066409Y-40359914D01*
X100066409Y-40359914D02*
X100018790Y-40407533D01*
X100018790Y-40407533D02*
X99971171Y-40502771D01*
X99971171Y-40502771D02*
X99971171Y-40693247D01*
X99971171Y-40693247D02*
X100018790Y-40788485D01*
X100018790Y-40788485D02*
X100066409Y-40836104D01*
X100066409Y-40836104D02*
X100161647Y-40883723D01*
X110515304Y-41740866D02*
X110515304Y-41264676D01*
X110801019Y-41836104D02*
X109801019Y-41502771D01*
X109801019Y-41502771D02*
X110801019Y-41169438D01*
X109896257Y-40883723D02*
X109848638Y-40836104D01*
X109848638Y-40836104D02*
X109801019Y-40740866D01*
X109801019Y-40740866D02*
X109801019Y-40502771D01*
X109801019Y-40502771D02*
X109848638Y-40407533D01*
X109848638Y-40407533D02*
X109896257Y-40359914D01*
X109896257Y-40359914D02*
X109991495Y-40312295D01*
X109991495Y-40312295D02*
X110086733Y-40312295D01*
X110086733Y-40312295D02*
X110229590Y-40359914D01*
X110229590Y-40359914D02*
X110801019Y-40931342D01*
X110801019Y-40931342D02*
X110801019Y-40312295D01*
X108102304Y-41740866D02*
X108102304Y-41264676D01*
X108388019Y-41836104D02*
X107388019Y-41502771D01*
X107388019Y-41502771D02*
X108388019Y-41169438D01*
X107388019Y-40931342D02*
X107388019Y-40312295D01*
X107388019Y-40312295D02*
X107768971Y-40645628D01*
X107768971Y-40645628D02*
X107768971Y-40502771D01*
X107768971Y-40502771D02*
X107816590Y-40407533D01*
X107816590Y-40407533D02*
X107864209Y-40359914D01*
X107864209Y-40359914D02*
X107959447Y-40312295D01*
X107959447Y-40312295D02*
X108197542Y-40312295D01*
X108197542Y-40312295D02*
X108292780Y-40359914D01*
X108292780Y-40359914D02*
X108340400Y-40407533D01*
X108340400Y-40407533D02*
X108388019Y-40502771D01*
X108388019Y-40502771D02*
X108388019Y-40788485D01*
X108388019Y-40788485D02*
X108340400Y-40883723D01*
X108340400Y-40883723D02*
X108292780Y-40931342D01*
X112953704Y-41740866D02*
X112953704Y-41264676D01*
X113239419Y-41836104D02*
X112239419Y-41502771D01*
X112239419Y-41502771D02*
X113239419Y-41169438D01*
X113239419Y-40312295D02*
X113239419Y-40883723D01*
X113239419Y-40598009D02*
X112239419Y-40598009D01*
X112239419Y-40598009D02*
X112382276Y-40693247D01*
X112382276Y-40693247D02*
X112477514Y-40788485D01*
X112477514Y-40788485D02*
X112525133Y-40883723D01*
X123501019Y-51957885D02*
X122501019Y-51957885D01*
X122501019Y-51957885D02*
X122501019Y-51719790D01*
X122501019Y-51719790D02*
X122548638Y-51576933D01*
X122548638Y-51576933D02*
X122643876Y-51481695D01*
X122643876Y-51481695D02*
X122739114Y-51434076D01*
X122739114Y-51434076D02*
X122929590Y-51386457D01*
X122929590Y-51386457D02*
X123072447Y-51386457D01*
X123072447Y-51386457D02*
X123262923Y-51434076D01*
X123262923Y-51434076D02*
X123358161Y-51481695D01*
X123358161Y-51481695D02*
X123453400Y-51576933D01*
X123453400Y-51576933D02*
X123501019Y-51719790D01*
X123501019Y-51719790D02*
X123501019Y-51957885D01*
X123501019Y-50434076D02*
X123501019Y-51005504D01*
X123501019Y-50719790D02*
X122501019Y-50719790D01*
X122501019Y-50719790D02*
X122643876Y-50815028D01*
X122643876Y-50815028D02*
X122739114Y-50910266D01*
X122739114Y-50910266D02*
X122786733Y-51005504D01*
X122596257Y-50053123D02*
X122548638Y-50005504D01*
X122548638Y-50005504D02*
X122501019Y-49910266D01*
X122501019Y-49910266D02*
X122501019Y-49672171D01*
X122501019Y-49672171D02*
X122548638Y-49576933D01*
X122548638Y-49576933D02*
X122596257Y-49529314D01*
X122596257Y-49529314D02*
X122691495Y-49481695D01*
X122691495Y-49481695D02*
X122786733Y-49481695D01*
X122786733Y-49481695D02*
X122929590Y-49529314D01*
X122929590Y-49529314D02*
X123501019Y-50100742D01*
X123501019Y-50100742D02*
X123501019Y-49481695D01*
X90430219Y-51957885D02*
X89430219Y-51957885D01*
X89430219Y-51957885D02*
X89430219Y-51719790D01*
X89430219Y-51719790D02*
X89477838Y-51576933D01*
X89477838Y-51576933D02*
X89573076Y-51481695D01*
X89573076Y-51481695D02*
X89668314Y-51434076D01*
X89668314Y-51434076D02*
X89858790Y-51386457D01*
X89858790Y-51386457D02*
X90001647Y-51386457D01*
X90001647Y-51386457D02*
X90192123Y-51434076D01*
X90192123Y-51434076D02*
X90287361Y-51481695D01*
X90287361Y-51481695D02*
X90382600Y-51576933D01*
X90382600Y-51576933D02*
X90430219Y-51719790D01*
X90430219Y-51719790D02*
X90430219Y-51957885D01*
X89430219Y-50767409D02*
X89430219Y-50672171D01*
X89430219Y-50672171D02*
X89477838Y-50576933D01*
X89477838Y-50576933D02*
X89525457Y-50529314D01*
X89525457Y-50529314D02*
X89620695Y-50481695D01*
X89620695Y-50481695D02*
X89811171Y-50434076D01*
X89811171Y-50434076D02*
X90049266Y-50434076D01*
X90049266Y-50434076D02*
X90239742Y-50481695D01*
X90239742Y-50481695D02*
X90334980Y-50529314D01*
X90334980Y-50529314D02*
X90382600Y-50576933D01*
X90382600Y-50576933D02*
X90430219Y-50672171D01*
X90430219Y-50672171D02*
X90430219Y-50767409D01*
X90430219Y-50767409D02*
X90382600Y-50862647D01*
X90382600Y-50862647D02*
X90334980Y-50910266D01*
X90334980Y-50910266D02*
X90239742Y-50957885D01*
X90239742Y-50957885D02*
X90049266Y-51005504D01*
X90049266Y-51005504D02*
X89811171Y-51005504D01*
X89811171Y-51005504D02*
X89620695Y-50957885D01*
X89620695Y-50957885D02*
X89525457Y-50910266D01*
X89525457Y-50910266D02*
X89477838Y-50862647D01*
X89477838Y-50862647D02*
X89430219Y-50767409D01*
X90382600Y-49957885D02*
X90430219Y-49957885D01*
X90430219Y-49957885D02*
X90525457Y-50005504D01*
X90525457Y-50005504D02*
X90573076Y-50053123D01*
X90430219Y-48195981D02*
X89954028Y-48529314D01*
X90430219Y-48767409D02*
X89430219Y-48767409D01*
X89430219Y-48767409D02*
X89430219Y-48386457D01*
X89430219Y-48386457D02*
X89477838Y-48291219D01*
X89477838Y-48291219D02*
X89525457Y-48243600D01*
X89525457Y-48243600D02*
X89620695Y-48195981D01*
X89620695Y-48195981D02*
X89763552Y-48195981D01*
X89763552Y-48195981D02*
X89858790Y-48243600D01*
X89858790Y-48243600D02*
X89906409Y-48291219D01*
X89906409Y-48291219D02*
X89954028Y-48386457D01*
X89954028Y-48386457D02*
X89954028Y-48767409D01*
X89430219Y-47862647D02*
X90430219Y-47195981D01*
X89430219Y-47195981D02*
X90430219Y-47862647D01*
X108261019Y-51957885D02*
X107261019Y-51957885D01*
X107261019Y-51957885D02*
X107261019Y-51719790D01*
X107261019Y-51719790D02*
X107308638Y-51576933D01*
X107308638Y-51576933D02*
X107403876Y-51481695D01*
X107403876Y-51481695D02*
X107499114Y-51434076D01*
X107499114Y-51434076D02*
X107689590Y-51386457D01*
X107689590Y-51386457D02*
X107832447Y-51386457D01*
X107832447Y-51386457D02*
X108022923Y-51434076D01*
X108022923Y-51434076D02*
X108118161Y-51481695D01*
X108118161Y-51481695D02*
X108213400Y-51576933D01*
X108213400Y-51576933D02*
X108261019Y-51719790D01*
X108261019Y-51719790D02*
X108261019Y-51957885D01*
X107261019Y-50529314D02*
X107261019Y-50719790D01*
X107261019Y-50719790D02*
X107308638Y-50815028D01*
X107308638Y-50815028D02*
X107356257Y-50862647D01*
X107356257Y-50862647D02*
X107499114Y-50957885D01*
X107499114Y-50957885D02*
X107689590Y-51005504D01*
X107689590Y-51005504D02*
X108070542Y-51005504D01*
X108070542Y-51005504D02*
X108165780Y-50957885D01*
X108165780Y-50957885D02*
X108213400Y-50910266D01*
X108213400Y-50910266D02*
X108261019Y-50815028D01*
X108261019Y-50815028D02*
X108261019Y-50624552D01*
X108261019Y-50624552D02*
X108213400Y-50529314D01*
X108213400Y-50529314D02*
X108165780Y-50481695D01*
X108165780Y-50481695D02*
X108070542Y-50434076D01*
X108070542Y-50434076D02*
X107832447Y-50434076D01*
X107832447Y-50434076D02*
X107737209Y-50481695D01*
X107737209Y-50481695D02*
X107689590Y-50529314D01*
X107689590Y-50529314D02*
X107641971Y-50624552D01*
X107641971Y-50624552D02*
X107641971Y-50815028D01*
X107641971Y-50815028D02*
X107689590Y-50910266D01*
X107689590Y-50910266D02*
X107737209Y-50957885D01*
X107737209Y-50957885D02*
X107832447Y-51005504D01*
X95078466Y-42931342D02*
X95078466Y-42169438D01*
X95459419Y-42550390D02*
X94697514Y-42550390D01*
X94459419Y-41217057D02*
X94459419Y-41693247D01*
X94459419Y-41693247D02*
X94935609Y-41740866D01*
X94935609Y-41740866D02*
X94887990Y-41693247D01*
X94887990Y-41693247D02*
X94840371Y-41598009D01*
X94840371Y-41598009D02*
X94840371Y-41359914D01*
X94840371Y-41359914D02*
X94887990Y-41264676D01*
X94887990Y-41264676D02*
X94935609Y-41217057D01*
X94935609Y-41217057D02*
X95030847Y-41169438D01*
X95030847Y-41169438D02*
X95268942Y-41169438D01*
X95268942Y-41169438D02*
X95364180Y-41217057D01*
X95364180Y-41217057D02*
X95411800Y-41264676D01*
X95411800Y-41264676D02*
X95459419Y-41359914D01*
X95459419Y-41359914D02*
X95459419Y-41598009D01*
X95459419Y-41598009D02*
X95411800Y-41693247D01*
X95411800Y-41693247D02*
X95364180Y-41740866D01*
X94459419Y-40883723D02*
X95459419Y-40550390D01*
X95459419Y-40550390D02*
X94459419Y-40217057D01*
X103206419Y-51957885D02*
X102206419Y-51957885D01*
X102206419Y-51957885D02*
X102206419Y-51719790D01*
X102206419Y-51719790D02*
X102254038Y-51576933D01*
X102254038Y-51576933D02*
X102349276Y-51481695D01*
X102349276Y-51481695D02*
X102444514Y-51434076D01*
X102444514Y-51434076D02*
X102634990Y-51386457D01*
X102634990Y-51386457D02*
X102777847Y-51386457D01*
X102777847Y-51386457D02*
X102968323Y-51434076D01*
X102968323Y-51434076D02*
X103063561Y-51481695D01*
X103063561Y-51481695D02*
X103158800Y-51576933D01*
X103158800Y-51576933D02*
X103206419Y-51719790D01*
X103206419Y-51719790D02*
X103206419Y-51957885D01*
X102539752Y-50529314D02*
X103206419Y-50529314D01*
X102158800Y-50767409D02*
X102873085Y-51005504D01*
X102873085Y-51005504D02*
X102873085Y-50386457D01*
X105384504Y-41740866D02*
X105384504Y-41264676D01*
X105670219Y-41836104D02*
X104670219Y-41502771D01*
X104670219Y-41502771D02*
X105670219Y-41169438D01*
X105003552Y-40407533D02*
X105670219Y-40407533D01*
X104622600Y-40645628D02*
X105336885Y-40883723D01*
X105336885Y-40883723D02*
X105336885Y-40264676D01*
X94710238Y-51434076D02*
X94662619Y-51529314D01*
X94662619Y-51529314D02*
X94662619Y-51672171D01*
X94662619Y-51672171D02*
X94710238Y-51815028D01*
X94710238Y-51815028D02*
X94805476Y-51910266D01*
X94805476Y-51910266D02*
X94900714Y-51957885D01*
X94900714Y-51957885D02*
X95091190Y-52005504D01*
X95091190Y-52005504D02*
X95234047Y-52005504D01*
X95234047Y-52005504D02*
X95424523Y-51957885D01*
X95424523Y-51957885D02*
X95519761Y-51910266D01*
X95519761Y-51910266D02*
X95615000Y-51815028D01*
X95615000Y-51815028D02*
X95662619Y-51672171D01*
X95662619Y-51672171D02*
X95662619Y-51576933D01*
X95662619Y-51576933D02*
X95615000Y-51434076D01*
X95615000Y-51434076D02*
X95567380Y-51386457D01*
X95567380Y-51386457D02*
X95234047Y-51386457D01*
X95234047Y-51386457D02*
X95234047Y-51576933D01*
X95662619Y-50957885D02*
X94662619Y-50957885D01*
X94662619Y-50957885D02*
X95662619Y-50386457D01*
X95662619Y-50386457D02*
X94662619Y-50386457D01*
X95662619Y-49910266D02*
X94662619Y-49910266D01*
X94662619Y-49910266D02*
X94662619Y-49672171D01*
X94662619Y-49672171D02*
X94710238Y-49529314D01*
X94710238Y-49529314D02*
X94805476Y-49434076D01*
X94805476Y-49434076D02*
X94900714Y-49386457D01*
X94900714Y-49386457D02*
X95091190Y-49338838D01*
X95091190Y-49338838D02*
X95234047Y-49338838D01*
X95234047Y-49338838D02*
X95424523Y-49386457D01*
X95424523Y-49386457D02*
X95519761Y-49434076D01*
X95519761Y-49434076D02*
X95615000Y-49529314D01*
X95615000Y-49529314D02*
X95662619Y-49672171D01*
X95662619Y-49672171D02*
X95662619Y-49910266D01*
X110648619Y-51957885D02*
X109648619Y-51957885D01*
X109648619Y-51957885D02*
X109648619Y-51719790D01*
X109648619Y-51719790D02*
X109696238Y-51576933D01*
X109696238Y-51576933D02*
X109791476Y-51481695D01*
X109791476Y-51481695D02*
X109886714Y-51434076D01*
X109886714Y-51434076D02*
X110077190Y-51386457D01*
X110077190Y-51386457D02*
X110220047Y-51386457D01*
X110220047Y-51386457D02*
X110410523Y-51434076D01*
X110410523Y-51434076D02*
X110505761Y-51481695D01*
X110505761Y-51481695D02*
X110601000Y-51576933D01*
X110601000Y-51576933D02*
X110648619Y-51719790D01*
X110648619Y-51719790D02*
X110648619Y-51957885D01*
X109648619Y-51053123D02*
X109648619Y-50386457D01*
X109648619Y-50386457D02*
X110648619Y-50815028D01*
X89452438Y-42407533D02*
X89404819Y-42502771D01*
X89404819Y-42502771D02*
X89404819Y-42645628D01*
X89404819Y-42645628D02*
X89452438Y-42788485D01*
X89452438Y-42788485D02*
X89547676Y-42883723D01*
X89547676Y-42883723D02*
X89642914Y-42931342D01*
X89642914Y-42931342D02*
X89833390Y-42978961D01*
X89833390Y-42978961D02*
X89976247Y-42978961D01*
X89976247Y-42978961D02*
X90166723Y-42931342D01*
X90166723Y-42931342D02*
X90261961Y-42883723D01*
X90261961Y-42883723D02*
X90357200Y-42788485D01*
X90357200Y-42788485D02*
X90404819Y-42645628D01*
X90404819Y-42645628D02*
X90404819Y-42550390D01*
X90404819Y-42550390D02*
X90357200Y-42407533D01*
X90357200Y-42407533D02*
X90309580Y-42359914D01*
X90309580Y-42359914D02*
X89976247Y-42359914D01*
X89976247Y-42359914D02*
X89976247Y-42550390D01*
X90404819Y-41931342D02*
X89404819Y-41931342D01*
X89404819Y-41931342D02*
X90404819Y-41359914D01*
X90404819Y-41359914D02*
X89404819Y-41359914D01*
X90404819Y-40883723D02*
X89404819Y-40883723D01*
X89404819Y-40883723D02*
X89404819Y-40645628D01*
X89404819Y-40645628D02*
X89452438Y-40502771D01*
X89452438Y-40502771D02*
X89547676Y-40407533D01*
X89547676Y-40407533D02*
X89642914Y-40359914D01*
X89642914Y-40359914D02*
X89833390Y-40312295D01*
X89833390Y-40312295D02*
X89976247Y-40312295D01*
X89976247Y-40312295D02*
X90166723Y-40359914D01*
X90166723Y-40359914D02*
X90261961Y-40407533D01*
X90261961Y-40407533D02*
X90357200Y-40502771D01*
X90357200Y-40502771D02*
X90404819Y-40645628D01*
X90404819Y-40645628D02*
X90404819Y-40883723D01*
X105695619Y-51957885D02*
X104695619Y-51957885D01*
X104695619Y-51957885D02*
X104695619Y-51719790D01*
X104695619Y-51719790D02*
X104743238Y-51576933D01*
X104743238Y-51576933D02*
X104838476Y-51481695D01*
X104838476Y-51481695D02*
X104933714Y-51434076D01*
X104933714Y-51434076D02*
X105124190Y-51386457D01*
X105124190Y-51386457D02*
X105267047Y-51386457D01*
X105267047Y-51386457D02*
X105457523Y-51434076D01*
X105457523Y-51434076D02*
X105552761Y-51481695D01*
X105552761Y-51481695D02*
X105648000Y-51576933D01*
X105648000Y-51576933D02*
X105695619Y-51719790D01*
X105695619Y-51719790D02*
X105695619Y-51957885D01*
X104695619Y-50481695D02*
X104695619Y-50957885D01*
X104695619Y-50957885D02*
X105171809Y-51005504D01*
X105171809Y-51005504D02*
X105124190Y-50957885D01*
X105124190Y-50957885D02*
X105076571Y-50862647D01*
X105076571Y-50862647D02*
X105076571Y-50624552D01*
X105076571Y-50624552D02*
X105124190Y-50529314D01*
X105124190Y-50529314D02*
X105171809Y-50481695D01*
X105171809Y-50481695D02*
X105267047Y-50434076D01*
X105267047Y-50434076D02*
X105505142Y-50434076D01*
X105505142Y-50434076D02*
X105600380Y-50481695D01*
X105600380Y-50481695D02*
X105648000Y-50529314D01*
X105648000Y-50529314D02*
X105695619Y-50624552D01*
X105695619Y-50624552D02*
X105695619Y-50862647D01*
X105695619Y-50862647D02*
X105648000Y-50957885D01*
X105648000Y-50957885D02*
X105600380Y-51005504D01*
X86991819Y-42407532D02*
X87991819Y-42074199D01*
X87991819Y-42074199D02*
X86991819Y-41740866D01*
X87991819Y-41407532D02*
X86991819Y-41407532D01*
X87991819Y-40931342D02*
X86991819Y-40931342D01*
X86991819Y-40931342D02*
X87991819Y-40359914D01*
X87991819Y-40359914D02*
X86991819Y-40359914D01*
X123450219Y-42788485D02*
X122450219Y-42788485D01*
X122450219Y-42788485D02*
X122450219Y-42550390D01*
X122450219Y-42550390D02*
X122497838Y-42407533D01*
X122497838Y-42407533D02*
X122593076Y-42312295D01*
X122593076Y-42312295D02*
X122688314Y-42264676D01*
X122688314Y-42264676D02*
X122878790Y-42217057D01*
X122878790Y-42217057D02*
X123021647Y-42217057D01*
X123021647Y-42217057D02*
X123212123Y-42264676D01*
X123212123Y-42264676D02*
X123307361Y-42312295D01*
X123307361Y-42312295D02*
X123402600Y-42407533D01*
X123402600Y-42407533D02*
X123450219Y-42550390D01*
X123450219Y-42550390D02*
X123450219Y-42788485D01*
X123450219Y-41264676D02*
X123450219Y-41836104D01*
X123450219Y-41550390D02*
X122450219Y-41550390D01*
X122450219Y-41550390D02*
X122593076Y-41645628D01*
X122593076Y-41645628D02*
X122688314Y-41740866D01*
X122688314Y-41740866D02*
X122735933Y-41836104D01*
X122450219Y-40931342D02*
X122450219Y-40312295D01*
X122450219Y-40312295D02*
X122831171Y-40645628D01*
X122831171Y-40645628D02*
X122831171Y-40502771D01*
X122831171Y-40502771D02*
X122878790Y-40407533D01*
X122878790Y-40407533D02*
X122926409Y-40359914D01*
X122926409Y-40359914D02*
X123021647Y-40312295D01*
X123021647Y-40312295D02*
X123259742Y-40312295D01*
X123259742Y-40312295D02*
X123354980Y-40359914D01*
X123354980Y-40359914D02*
X123402600Y-40407533D01*
X123402600Y-40407533D02*
X123450219Y-40502771D01*
X123450219Y-40502771D02*
X123450219Y-40788485D01*
X123450219Y-40788485D02*
X123402600Y-40883723D01*
X123402600Y-40883723D02*
X123354980Y-40931342D01*
X97840704Y-41740866D02*
X97840704Y-41264676D01*
X98126419Y-41836104D02*
X97126419Y-41502771D01*
X97126419Y-41502771D02*
X98126419Y-41169438D01*
X97126419Y-40931342D02*
X97126419Y-40264676D01*
X97126419Y-40264676D02*
X98126419Y-40693247D01*
X78036667Y-60257200D02*
X78179524Y-60304819D01*
X78179524Y-60304819D02*
X78417619Y-60304819D01*
X78417619Y-60304819D02*
X78512857Y-60257200D01*
X78512857Y-60257200D02*
X78560476Y-60209580D01*
X78560476Y-60209580D02*
X78608095Y-60114342D01*
X78608095Y-60114342D02*
X78608095Y-60019104D01*
X78608095Y-60019104D02*
X78560476Y-59923866D01*
X78560476Y-59923866D02*
X78512857Y-59876247D01*
X78512857Y-59876247D02*
X78417619Y-59828628D01*
X78417619Y-59828628D02*
X78227143Y-59781009D01*
X78227143Y-59781009D02*
X78131905Y-59733390D01*
X78131905Y-59733390D02*
X78084286Y-59685771D01*
X78084286Y-59685771D02*
X78036667Y-59590533D01*
X78036667Y-59590533D02*
X78036667Y-59495295D01*
X78036667Y-59495295D02*
X78084286Y-59400057D01*
X78084286Y-59400057D02*
X78131905Y-59352438D01*
X78131905Y-59352438D02*
X78227143Y-59304819D01*
X78227143Y-59304819D02*
X78465238Y-59304819D01*
X78465238Y-59304819D02*
X78608095Y-59352438D01*
X78941429Y-59304819D02*
X79179524Y-60304819D01*
X79179524Y-60304819D02*
X79370000Y-59590533D01*
X79370000Y-59590533D02*
X79560476Y-60304819D01*
X79560476Y-60304819D02*
X79798572Y-59304819D01*
X80227143Y-60304819D02*
X80417619Y-60304819D01*
X80417619Y-60304819D02*
X80512857Y-60257200D01*
X80512857Y-60257200D02*
X80560476Y-60209580D01*
X80560476Y-60209580D02*
X80655714Y-60066723D01*
X80655714Y-60066723D02*
X80703333Y-59876247D01*
X80703333Y-59876247D02*
X80703333Y-59495295D01*
X80703333Y-59495295D02*
X80655714Y-59400057D01*
X80655714Y-59400057D02*
X80608095Y-59352438D01*
X80608095Y-59352438D02*
X80512857Y-59304819D01*
X80512857Y-59304819D02*
X80322381Y-59304819D01*
X80322381Y-59304819D02*
X80227143Y-59352438D01*
X80227143Y-59352438D02*
X80179524Y-59400057D01*
X80179524Y-59400057D02*
X80131905Y-59495295D01*
X80131905Y-59495295D02*
X80131905Y-59733390D01*
X80131905Y-59733390D02*
X80179524Y-59828628D01*
X80179524Y-59828628D02*
X80227143Y-59876247D01*
X80227143Y-59876247D02*
X80322381Y-59923866D01*
X80322381Y-59923866D02*
X80512857Y-59923866D01*
X80512857Y-59923866D02*
X80608095Y-59876247D01*
X80608095Y-59876247D02*
X80655714Y-59828628D01*
X80655714Y-59828628D02*
X80703333Y-59733390D01*
X56043333Y-34969580D02*
X55995714Y-35017200D01*
X55995714Y-35017200D02*
X55852857Y-35064819D01*
X55852857Y-35064819D02*
X55757619Y-35064819D01*
X55757619Y-35064819D02*
X55614762Y-35017200D01*
X55614762Y-35017200D02*
X55519524Y-34921961D01*
X55519524Y-34921961D02*
X55471905Y-34826723D01*
X55471905Y-34826723D02*
X55424286Y-34636247D01*
X55424286Y-34636247D02*
X55424286Y-34493390D01*
X55424286Y-34493390D02*
X55471905Y-34302914D01*
X55471905Y-34302914D02*
X55519524Y-34207676D01*
X55519524Y-34207676D02*
X55614762Y-34112438D01*
X55614762Y-34112438D02*
X55757619Y-34064819D01*
X55757619Y-34064819D02*
X55852857Y-34064819D01*
X55852857Y-34064819D02*
X55995714Y-34112438D01*
X55995714Y-34112438D02*
X56043333Y-34160057D01*
X56376667Y-34064819D02*
X56995714Y-34064819D01*
X56995714Y-34064819D02*
X56662381Y-34445771D01*
X56662381Y-34445771D02*
X56805238Y-34445771D01*
X56805238Y-34445771D02*
X56900476Y-34493390D01*
X56900476Y-34493390D02*
X56948095Y-34541009D01*
X56948095Y-34541009D02*
X56995714Y-34636247D01*
X56995714Y-34636247D02*
X56995714Y-34874342D01*
X56995714Y-34874342D02*
X56948095Y-34969580D01*
X56948095Y-34969580D02*
X56900476Y-35017200D01*
X56900476Y-35017200D02*
X56805238Y-35064819D01*
X56805238Y-35064819D02*
X56519524Y-35064819D01*
X56519524Y-35064819D02*
X56424286Y-35017200D01*
X56424286Y-35017200D02*
X56376667Y-34969580D01*
X55278571Y-39994819D02*
X54707143Y-39994819D01*
X54992857Y-39994819D02*
X54992857Y-38994819D01*
X54992857Y-38994819D02*
X54897619Y-39137676D01*
X54897619Y-39137676D02*
X54802381Y-39232914D01*
X54802381Y-39232914D02*
X54707143Y-39280533D01*
X55897619Y-38994819D02*
X55992857Y-38994819D01*
X55992857Y-38994819D02*
X56088095Y-39042438D01*
X56088095Y-39042438D02*
X56135714Y-39090057D01*
X56135714Y-39090057D02*
X56183333Y-39185295D01*
X56183333Y-39185295D02*
X56230952Y-39375771D01*
X56230952Y-39375771D02*
X56230952Y-39613866D01*
X56230952Y-39613866D02*
X56183333Y-39804342D01*
X56183333Y-39804342D02*
X56135714Y-39899580D01*
X56135714Y-39899580D02*
X56088095Y-39947200D01*
X56088095Y-39947200D02*
X55992857Y-39994819D01*
X55992857Y-39994819D02*
X55897619Y-39994819D01*
X55897619Y-39994819D02*
X55802381Y-39947200D01*
X55802381Y-39947200D02*
X55754762Y-39899580D01*
X55754762Y-39899580D02*
X55707143Y-39804342D01*
X55707143Y-39804342D02*
X55659524Y-39613866D01*
X55659524Y-39613866D02*
X55659524Y-39375771D01*
X55659524Y-39375771D02*
X55707143Y-39185295D01*
X55707143Y-39185295D02*
X55754762Y-39090057D01*
X55754762Y-39090057D02*
X55802381Y-39042438D01*
X55802381Y-39042438D02*
X55897619Y-38994819D01*
X57088095Y-39328152D02*
X57088095Y-39994819D01*
X56659524Y-39328152D02*
X56659524Y-39851961D01*
X56659524Y-39851961D02*
X56707143Y-39947200D01*
X56707143Y-39947200D02*
X56802381Y-39994819D01*
X56802381Y-39994819D02*
X56945238Y-39994819D01*
X56945238Y-39994819D02*
X57040476Y-39947200D01*
X57040476Y-39947200D02*
X57088095Y-39899580D01*
X57897619Y-39471009D02*
X57564286Y-39471009D01*
X57564286Y-39994819D02*
X57564286Y-38994819D01*
X57564286Y-38994819D02*
X58040476Y-38994819D01*
X34865656Y-60859580D02*
X34818037Y-60907200D01*
X34818037Y-60907200D02*
X34675180Y-60954819D01*
X34675180Y-60954819D02*
X34579942Y-60954819D01*
X34579942Y-60954819D02*
X34437085Y-60907200D01*
X34437085Y-60907200D02*
X34341847Y-60811961D01*
X34341847Y-60811961D02*
X34294228Y-60716723D01*
X34294228Y-60716723D02*
X34246609Y-60526247D01*
X34246609Y-60526247D02*
X34246609Y-60383390D01*
X34246609Y-60383390D02*
X34294228Y-60192914D01*
X34294228Y-60192914D02*
X34341847Y-60097676D01*
X34341847Y-60097676D02*
X34437085Y-60002438D01*
X34437085Y-60002438D02*
X34579942Y-59954819D01*
X34579942Y-59954819D02*
X34675180Y-59954819D01*
X34675180Y-59954819D02*
X34818037Y-60002438D01*
X34818037Y-60002438D02*
X34865656Y-60050057D01*
X35818037Y-60954819D02*
X35246609Y-60954819D01*
X35532323Y-60954819D02*
X35532323Y-59954819D01*
X35532323Y-59954819D02*
X35437085Y-60097676D01*
X35437085Y-60097676D02*
X35341847Y-60192914D01*
X35341847Y-60192914D02*
X35246609Y-60240533D01*
X33008513Y-73454819D02*
X32437085Y-73454819D01*
X32722799Y-73454819D02*
X32722799Y-72454819D01*
X32722799Y-72454819D02*
X32627561Y-72597676D01*
X32627561Y-72597676D02*
X32532323Y-72692914D01*
X32532323Y-72692914D02*
X32437085Y-72740533D01*
X33627561Y-72454819D02*
X33722799Y-72454819D01*
X33722799Y-72454819D02*
X33818037Y-72502438D01*
X33818037Y-72502438D02*
X33865656Y-72550057D01*
X33865656Y-72550057D02*
X33913275Y-72645295D01*
X33913275Y-72645295D02*
X33960894Y-72835771D01*
X33960894Y-72835771D02*
X33960894Y-73073866D01*
X33960894Y-73073866D02*
X33913275Y-73264342D01*
X33913275Y-73264342D02*
X33865656Y-73359580D01*
X33865656Y-73359580D02*
X33818037Y-73407200D01*
X33818037Y-73407200D02*
X33722799Y-73454819D01*
X33722799Y-73454819D02*
X33627561Y-73454819D01*
X33627561Y-73454819D02*
X33532323Y-73407200D01*
X33532323Y-73407200D02*
X33484704Y-73359580D01*
X33484704Y-73359580D02*
X33437085Y-73264342D01*
X33437085Y-73264342D02*
X33389466Y-73073866D01*
X33389466Y-73073866D02*
X33389466Y-72835771D01*
X33389466Y-72835771D02*
X33437085Y-72645295D01*
X33437085Y-72645295D02*
X33484704Y-72550057D01*
X33484704Y-72550057D02*
X33532323Y-72502438D01*
X33532323Y-72502438D02*
X33627561Y-72454819D01*
X34579942Y-72454819D02*
X34675180Y-72454819D01*
X34675180Y-72454819D02*
X34770418Y-72502438D01*
X34770418Y-72502438D02*
X34818037Y-72550057D01*
X34818037Y-72550057D02*
X34865656Y-72645295D01*
X34865656Y-72645295D02*
X34913275Y-72835771D01*
X34913275Y-72835771D02*
X34913275Y-73073866D01*
X34913275Y-73073866D02*
X34865656Y-73264342D01*
X34865656Y-73264342D02*
X34818037Y-73359580D01*
X34818037Y-73359580D02*
X34770418Y-73407200D01*
X34770418Y-73407200D02*
X34675180Y-73454819D01*
X34675180Y-73454819D02*
X34579942Y-73454819D01*
X34579942Y-73454819D02*
X34484704Y-73407200D01*
X34484704Y-73407200D02*
X34437085Y-73359580D01*
X34437085Y-73359580D02*
X34389466Y-73264342D01*
X34389466Y-73264342D02*
X34341847Y-73073866D01*
X34341847Y-73073866D02*
X34341847Y-72835771D01*
X34341847Y-72835771D02*
X34389466Y-72645295D01*
X34389466Y-72645295D02*
X34437085Y-72550057D01*
X34437085Y-72550057D02*
X34484704Y-72502438D01*
X34484704Y-72502438D02*
X34579942Y-72454819D01*
X35532323Y-72454819D02*
X35627561Y-72454819D01*
X35627561Y-72454819D02*
X35722799Y-72502438D01*
X35722799Y-72502438D02*
X35770418Y-72550057D01*
X35770418Y-72550057D02*
X35818037Y-72645295D01*
X35818037Y-72645295D02*
X35865656Y-72835771D01*
X35865656Y-72835771D02*
X35865656Y-73073866D01*
X35865656Y-73073866D02*
X35818037Y-73264342D01*
X35818037Y-73264342D02*
X35770418Y-73359580D01*
X35770418Y-73359580D02*
X35722799Y-73407200D01*
X35722799Y-73407200D02*
X35627561Y-73454819D01*
X35627561Y-73454819D02*
X35532323Y-73454819D01*
X35532323Y-73454819D02*
X35437085Y-73407200D01*
X35437085Y-73407200D02*
X35389466Y-73359580D01*
X35389466Y-73359580D02*
X35341847Y-73264342D01*
X35341847Y-73264342D02*
X35294228Y-73073866D01*
X35294228Y-73073866D02*
X35294228Y-72835771D01*
X35294228Y-72835771D02*
X35341847Y-72645295D01*
X35341847Y-72645295D02*
X35389466Y-72550057D01*
X35389466Y-72550057D02*
X35437085Y-72502438D01*
X35437085Y-72502438D02*
X35532323Y-72454819D01*
X36722799Y-72788152D02*
X36722799Y-73454819D01*
X36294228Y-72788152D02*
X36294228Y-73311961D01*
X36294228Y-73311961D02*
X36341847Y-73407200D01*
X36341847Y-73407200D02*
X36437085Y-73454819D01*
X36437085Y-73454819D02*
X36579942Y-73454819D01*
X36579942Y-73454819D02*
X36675180Y-73407200D01*
X36675180Y-73407200D02*
X36722799Y-73359580D01*
X37532323Y-72931009D02*
X37198990Y-72931009D01*
X37198990Y-73454819D02*
X37198990Y-72454819D01*
X37198990Y-72454819D02*
X37675180Y-72454819D01*
D13*
%TO.C,SW3*%
X21063000Y-34226800D02*
X21063000Y-21222000D01*
X28962400Y-21222000D02*
X21063000Y-21222000D01*
X28962400Y-34226800D02*
X21063000Y-34226800D01*
X28962400Y-34226800D02*
X28962400Y-21222000D01*
%TO.C,SW4*%
X101063000Y-34226800D02*
X101063000Y-21222000D01*
X108962400Y-21222000D02*
X101063000Y-21222000D01*
X108962400Y-34226800D02*
X101063000Y-34226800D01*
X108962400Y-34226800D02*
X108962400Y-21222000D01*
%TO.C,SW6*%
X61063000Y-34226800D02*
X61063000Y-21222000D01*
X68962400Y-21222000D02*
X61063000Y-21222000D01*
X68962400Y-34226800D02*
X61063000Y-34226800D01*
X68962400Y-34226800D02*
X68962400Y-21222000D01*
%TO.C,SW1*%
X21063000Y-59222000D02*
X21063000Y-72226800D01*
X21063000Y-59222000D02*
X28962400Y-59222000D01*
X21063000Y-72226800D02*
X28962400Y-72226800D01*
X28962400Y-59222000D02*
X28962400Y-72226800D01*
%TO.C,J2*%
X86110000Y-52335000D02*
X87440000Y-52335000D01*
X86110000Y-53665000D02*
X86110000Y-52335000D01*
X88710000Y-52335000D02*
X124330000Y-52335000D01*
X88710000Y-54995000D02*
X88710000Y-52335000D01*
X88710000Y-54995000D02*
X124330000Y-54995000D01*
X124330000Y-54995000D02*
X124330000Y-52335000D01*
%TO.C,SW7*%
X121063000Y-72226800D02*
X121063000Y-59222000D01*
X128962400Y-59222000D02*
X121063000Y-59222000D01*
X128962400Y-72226800D02*
X121063000Y-72226800D01*
X128962400Y-72226800D02*
X128962400Y-59222000D01*
%TO.C,SW2*%
X41063000Y-59222000D02*
X41063000Y-72226800D01*
X41063000Y-59222000D02*
X48962400Y-59222000D01*
X41063000Y-72226800D02*
X48962400Y-72226800D01*
X48962400Y-59222000D02*
X48962400Y-72226800D01*
%TO.C,J1*%
X34010000Y-24320000D02*
X34010000Y-33560000D01*
X34010000Y-24320000D02*
X44250000Y-24320000D01*
X34010000Y-31940000D02*
X44250000Y-31940000D01*
X34010000Y-33040000D02*
X44250000Y-33040000D01*
X34010000Y-33560000D02*
X36330000Y-33560000D01*
X36930000Y-33560000D02*
X44250000Y-33560000D01*
X44250000Y-24320000D02*
X44250000Y-33560000D01*
X37070000Y-34170000D02*
X36190000Y-34170000D01*
X36630000Y-33560000D01*
X37070000Y-34170000D01*
G36*
X37070000Y-34170000D02*
G01*
X36190000Y-34170000D01*
X36630000Y-33560000D01*
X37070000Y-34170000D01*
G37*
%TO.C,R2*%
X97890000Y-22760000D02*
X97890000Y-23530000D01*
X97890000Y-30840000D02*
X97890000Y-30070000D01*
X99260000Y-23530000D02*
X96520000Y-23530000D01*
X96520000Y-30070000D01*
X99260000Y-30070000D01*
X99260000Y-23530000D01*
%TO.C,SW8*%
X101063000Y-72226800D02*
X101063000Y-59222000D01*
X108962400Y-59222000D02*
X101063000Y-59222000D01*
X108962400Y-72226800D02*
X101063000Y-72226800D01*
X108962400Y-72226800D02*
X108962400Y-59222000D01*
%TO.C,C5*%
X91210000Y-33560000D02*
X91210000Y-36300000D01*
X91210000Y-33560000D02*
X96450000Y-33560000D01*
X91210000Y-36300000D02*
X96450000Y-36300000D01*
X96450000Y-33560000D02*
X96450000Y-36300000D01*
%TO.C,R1*%
X93330000Y-22760000D02*
X93330000Y-23530000D01*
X93330000Y-30840000D02*
X93330000Y-30070000D01*
X94700000Y-23530000D02*
X91960000Y-23530000D01*
X91960000Y-30070000D01*
X94700000Y-30070000D01*
X94700000Y-23530000D01*
%TO.C,J3*%
X86060000Y-37110000D02*
X87390000Y-37110000D01*
X86060000Y-38440000D02*
X86060000Y-37110000D01*
X88660000Y-37110000D02*
X124280000Y-37110000D01*
X88660000Y-39770000D02*
X88660000Y-37110000D01*
X88660000Y-39770000D02*
X124280000Y-39770000D01*
X124280000Y-39770000D02*
X124280000Y-37110000D01*
D14*
%TO.C,D1*%
X29815000Y-43785000D02*
X34865000Y-43785000D01*
X29815000Y-52135000D02*
X29815000Y-43785000D01*
X32340000Y-43785000D02*
X32340000Y-37873200D01*
X32340000Y-52135000D02*
X29815000Y-49610000D01*
X32340000Y-58085200D02*
X32340000Y-52173400D01*
X34865000Y-43785000D02*
X34865000Y-52135000D01*
X34865000Y-52135000D02*
X29815000Y-52135000D01*
D13*
%TO.C,C2*%
X47970000Y-35590000D02*
X47970000Y-38330000D01*
X47970000Y-35590000D02*
X53210000Y-35590000D01*
X47970000Y-38330000D02*
X53210000Y-38330000D01*
X53210000Y-35590000D02*
X53210000Y-38330000D01*
%TO.C,C4*%
X69510000Y-25620000D02*
X79670000Y-25620000D01*
X69510000Y-25660000D02*
X79670000Y-25660000D01*
X69511000Y-25540000D02*
X79669000Y-25540000D01*
X69511000Y-25580000D02*
X79669000Y-25580000D01*
X69513000Y-25500000D02*
X79667000Y-25500000D01*
X69514000Y-25460000D02*
X79666000Y-25460000D01*
X69516000Y-25420000D02*
X79664000Y-25420000D01*
X69518000Y-25380000D02*
X79662000Y-25380000D01*
X69520000Y-25340000D02*
X79660000Y-25340000D01*
X69523000Y-25300000D02*
X79657000Y-25300000D01*
X69526000Y-25260000D02*
X79654000Y-25260000D01*
X69529000Y-25220000D02*
X79651000Y-25220000D01*
X69533000Y-25180000D02*
X79647000Y-25180000D01*
X69536000Y-25140000D02*
X79644000Y-25140000D01*
X69541000Y-25100000D02*
X79639000Y-25100000D01*
X69545000Y-25060000D02*
X79635000Y-25060000D01*
X69550000Y-25020000D02*
X79630000Y-25020000D01*
X69555000Y-24980000D02*
X79625000Y-24980000D01*
X69561000Y-24940000D02*
X79619000Y-24940000D01*
X69567000Y-24900000D02*
X79613000Y-24900000D01*
X69573000Y-24860000D02*
X79607000Y-24860000D01*
X69579000Y-24820000D02*
X79601000Y-24820000D01*
X69586000Y-24780000D02*
X79594000Y-24780000D01*
X69593000Y-24740000D02*
X79587000Y-24740000D01*
X69601000Y-24700000D02*
X79579000Y-24700000D01*
X69609000Y-24660000D02*
X79571000Y-24660000D01*
X69617000Y-24620000D02*
X79563000Y-24620000D01*
X69625000Y-24580000D02*
X79555000Y-24580000D01*
X69634000Y-24540000D02*
X79546000Y-24540000D01*
X69643000Y-24500000D02*
X79537000Y-24500000D01*
X69653000Y-24460000D02*
X79527000Y-24460000D01*
X69662000Y-24420000D02*
X79518000Y-24420000D01*
X69673000Y-24380000D02*
X73350000Y-24380000D01*
X69683000Y-24340000D02*
X73350000Y-24340000D01*
X69694000Y-24300000D02*
X73350000Y-24300000D01*
X69705000Y-24260000D02*
X73350000Y-24260000D01*
X69717000Y-24220000D02*
X73350000Y-24220000D01*
X69729000Y-24180000D02*
X73350000Y-24180000D01*
X69741000Y-24140000D02*
X73350000Y-24140000D01*
X69753000Y-24100000D02*
X73350000Y-24100000D01*
X69766000Y-24060000D02*
X73350000Y-24060000D01*
X69780000Y-24020000D02*
X73350000Y-24020000D01*
X69793000Y-23980000D02*
X73350000Y-23980000D01*
X69808000Y-23940000D02*
X73350000Y-23940000D01*
X69822000Y-23900000D02*
X73350000Y-23900000D01*
X69837000Y-23860000D02*
X73350000Y-23860000D01*
X69852000Y-23820000D02*
X73350000Y-23820000D01*
X69868000Y-23780000D02*
X73350000Y-23780000D01*
X69884000Y-23740000D02*
X73350000Y-23740000D01*
X69900000Y-23700000D02*
X73350000Y-23700000D01*
X69917000Y-23660000D02*
X73350000Y-23660000D01*
X69934000Y-23620000D02*
X73350000Y-23620000D01*
X69952000Y-23580000D02*
X73350000Y-23580000D01*
X69970000Y-23540000D02*
X73350000Y-23540000D01*
X69988000Y-23500000D02*
X73350000Y-23500000D01*
X70007000Y-23460000D02*
X73350000Y-23460000D01*
X70026000Y-23420000D02*
X73350000Y-23420000D01*
X70046000Y-23380000D02*
X73350000Y-23380000D01*
X70066000Y-23340000D02*
X73350000Y-23340000D01*
X70086000Y-23300000D02*
X73350000Y-23300000D01*
X70107000Y-23260000D02*
X73350000Y-23260000D01*
X70129000Y-23220000D02*
X73350000Y-23220000D01*
X70151000Y-23180000D02*
X73350000Y-23180000D01*
X70173000Y-23140000D02*
X73350000Y-23140000D01*
X70196000Y-23100000D02*
X73350000Y-23100000D01*
X70219000Y-23060000D02*
X73350000Y-23060000D01*
X70243000Y-23020000D02*
X73350000Y-23020000D01*
X70267000Y-22980000D02*
X73350000Y-22980000D01*
X70292000Y-22940000D02*
X73350000Y-22940000D01*
X70318000Y-22900000D02*
X73350000Y-22900000D01*
X70343000Y-22860000D02*
X73350000Y-22860000D01*
X70370000Y-22820000D02*
X73350000Y-22820000D01*
X70397000Y-22780000D02*
X73350000Y-22780000D01*
X70424000Y-22740000D02*
X73350000Y-22740000D01*
X70452000Y-22700000D02*
X73350000Y-22700000D01*
X70481000Y-22660000D02*
X73350000Y-22660000D01*
X70510000Y-22620000D02*
X73350000Y-22620000D01*
X70540000Y-22580000D02*
X73350000Y-22580000D01*
X70570000Y-22540000D02*
X73350000Y-22540000D01*
X70602000Y-22500000D02*
X73350000Y-22500000D01*
X70633000Y-22460000D02*
X73350000Y-22460000D01*
X70666000Y-22420000D02*
X73350000Y-22420000D01*
X70699000Y-22380000D02*
X73350000Y-22380000D01*
X70732000Y-22340000D02*
X73350000Y-22340000D01*
X70767000Y-22300000D02*
X73350000Y-22300000D01*
X70802000Y-22260000D02*
X73350000Y-22260000D01*
X70838000Y-22220000D02*
X73350000Y-22220000D01*
X70874000Y-22180000D02*
X73350000Y-22180000D01*
X70912000Y-22140000D02*
X73350000Y-22140000D01*
X70950000Y-22100000D02*
X73350000Y-22100000D01*
X70989000Y-22060000D02*
X73350000Y-22060000D01*
X71029000Y-22020000D02*
X73350000Y-22020000D01*
X71070000Y-21980000D02*
X73350000Y-21980000D01*
X71112000Y-21940000D02*
X73350000Y-21940000D01*
X71155000Y-21900000D02*
X78025000Y-21900000D01*
X71199000Y-21860000D02*
X77981000Y-21860000D01*
X71215000Y-30639646D02*
X72215000Y-30639646D01*
X71243000Y-21820000D02*
X77937000Y-21820000D01*
X71289000Y-21780000D02*
X77891000Y-21780000D01*
X71336000Y-21740000D02*
X77844000Y-21740000D01*
X71385000Y-21700000D02*
X77795000Y-21700000D01*
X71434000Y-21660000D02*
X77746000Y-21660000D01*
X71485000Y-21620000D02*
X77695000Y-21620000D01*
X71537000Y-21580000D02*
X77643000Y-21580000D01*
X71590000Y-21540000D02*
X77590000Y-21540000D01*
X71645000Y-21500000D02*
X77535000Y-21500000D01*
X71702000Y-21460000D02*
X77478000Y-21460000D01*
X71715000Y-31139646D02*
X71715000Y-30139646D01*
X71760000Y-21420000D02*
X77420000Y-21420000D01*
X71820000Y-21380000D02*
X77360000Y-21380000D01*
X71882000Y-21340000D02*
X77298000Y-21340000D01*
X71946000Y-21300000D02*
X77234000Y-21300000D01*
X72012000Y-21260000D02*
X77168000Y-21260000D01*
X72080000Y-21220000D02*
X77100000Y-21220000D01*
X72151000Y-21180000D02*
X77029000Y-21180000D01*
X72225000Y-21140000D02*
X76955000Y-21140000D01*
X72302000Y-21100000D02*
X76878000Y-21100000D01*
X72382000Y-21060000D02*
X76798000Y-21060000D01*
X72466000Y-21020000D02*
X76714000Y-21020000D01*
X72553000Y-20980000D02*
X76627000Y-20980000D01*
X72646000Y-20940000D02*
X76534000Y-20940000D01*
X72744000Y-20900000D02*
X76436000Y-20900000D01*
X72848000Y-20860000D02*
X76332000Y-20860000D01*
X72960000Y-20820000D02*
X76220000Y-20820000D01*
X73081000Y-20780000D02*
X76099000Y-20780000D01*
X73213000Y-20740000D02*
X75967000Y-20740000D01*
X73360000Y-20700000D02*
X75820000Y-20700000D01*
X73528000Y-20660000D02*
X75652000Y-20660000D01*
X73728000Y-20620000D02*
X75452000Y-20620000D01*
X73991000Y-20580000D02*
X75189000Y-20580000D01*
X75830000Y-21940000D02*
X78068000Y-21940000D01*
X75830000Y-21980000D02*
X78110000Y-21980000D01*
X75830000Y-22020000D02*
X78151000Y-22020000D01*
X75830000Y-22060000D02*
X78191000Y-22060000D01*
X75830000Y-22100000D02*
X78230000Y-22100000D01*
X75830000Y-22140000D02*
X78268000Y-22140000D01*
X75830000Y-22180000D02*
X78306000Y-22180000D01*
X75830000Y-22220000D02*
X78342000Y-22220000D01*
X75830000Y-22260000D02*
X78378000Y-22260000D01*
X75830000Y-22300000D02*
X78413000Y-22300000D01*
X75830000Y-22340000D02*
X78448000Y-22340000D01*
X75830000Y-22380000D02*
X78481000Y-22380000D01*
X75830000Y-22420000D02*
X78514000Y-22420000D01*
X75830000Y-22460000D02*
X78547000Y-22460000D01*
X75830000Y-22500000D02*
X78578000Y-22500000D01*
X75830000Y-22540000D02*
X78610000Y-22540000D01*
X75830000Y-22580000D02*
X78640000Y-22580000D01*
X75830000Y-22620000D02*
X78670000Y-22620000D01*
X75830000Y-22660000D02*
X78699000Y-22660000D01*
X75830000Y-22700000D02*
X78728000Y-22700000D01*
X75830000Y-22740000D02*
X78756000Y-22740000D01*
X75830000Y-22780000D02*
X78783000Y-22780000D01*
X75830000Y-22820000D02*
X78810000Y-22820000D01*
X75830000Y-22860000D02*
X78837000Y-22860000D01*
X75830000Y-22900000D02*
X78862000Y-22900000D01*
X75830000Y-22940000D02*
X78888000Y-22940000D01*
X75830000Y-22980000D02*
X78913000Y-22980000D01*
X75830000Y-23020000D02*
X78937000Y-23020000D01*
X75830000Y-23060000D02*
X78961000Y-23060000D01*
X75830000Y-23100000D02*
X78984000Y-23100000D01*
X75830000Y-23140000D02*
X79007000Y-23140000D01*
X75830000Y-23180000D02*
X79029000Y-23180000D01*
X75830000Y-23220000D02*
X79051000Y-23220000D01*
X75830000Y-23260000D02*
X79073000Y-23260000D01*
X75830000Y-23300000D02*
X79094000Y-23300000D01*
X75830000Y-23340000D02*
X79114000Y-23340000D01*
X75830000Y-23380000D02*
X79134000Y-23380000D01*
X75830000Y-23420000D02*
X79154000Y-23420000D01*
X75830000Y-23460000D02*
X79173000Y-23460000D01*
X75830000Y-23500000D02*
X79192000Y-23500000D01*
X75830000Y-23540000D02*
X79210000Y-23540000D01*
X75830000Y-23580000D02*
X79228000Y-23580000D01*
X75830000Y-23620000D02*
X79246000Y-23620000D01*
X75830000Y-23660000D02*
X79263000Y-23660000D01*
X75830000Y-23700000D02*
X79280000Y-23700000D01*
X75830000Y-23740000D02*
X79296000Y-23740000D01*
X75830000Y-23780000D02*
X79312000Y-23780000D01*
X75830000Y-23820000D02*
X79328000Y-23820000D01*
X75830000Y-23860000D02*
X79343000Y-23860000D01*
X75830000Y-23900000D02*
X79358000Y-23900000D01*
X75830000Y-23940000D02*
X79372000Y-23940000D01*
X75830000Y-23980000D02*
X79387000Y-23980000D01*
X75830000Y-24020000D02*
X79400000Y-24020000D01*
X75830000Y-24060000D02*
X79414000Y-24060000D01*
X75830000Y-24100000D02*
X79427000Y-24100000D01*
X75830000Y-24140000D02*
X79439000Y-24140000D01*
X75830000Y-24180000D02*
X79451000Y-24180000D01*
X75830000Y-24220000D02*
X79463000Y-24220000D01*
X75830000Y-24260000D02*
X79475000Y-24260000D01*
X75830000Y-24300000D02*
X79486000Y-24300000D01*
X75830000Y-24340000D02*
X79497000Y-24340000D01*
X75830000Y-24380000D02*
X79507000Y-24380000D01*
X79710000Y-25660000D02*
G75*
G02*
X69470000Y-25660000I-5120000J0D01*
G01*
X69470000Y-25660000D02*
G75*
G02*
X79710000Y-25660000I5120000J0D01*
G01*
%TO.C,SW12*%
X121063000Y-34226800D02*
X121063000Y-21222000D01*
X128962400Y-21222000D02*
X121063000Y-21222000D01*
X128962400Y-34226800D02*
X121063000Y-34226800D01*
X128962400Y-34226800D02*
X128962400Y-21222000D01*
%TO.C,SW10*%
X61063000Y-72226800D02*
X61063000Y-59222000D01*
X68962400Y-59222000D02*
X61063000Y-59222000D01*
X68962400Y-72226800D02*
X61063000Y-72226800D01*
X68962400Y-72226800D02*
X68962400Y-59222000D01*
%TO.C,RG1*%
X48415000Y-23755000D02*
X48415000Y-33755000D01*
X48415000Y-23755000D02*
X58615000Y-23755000D01*
X48415000Y-33755000D02*
X58615000Y-33755000D01*
X58615000Y-23755000D02*
X58615000Y-33755000D01*
%TO.C,SW5*%
X81063000Y-34226800D02*
X81063000Y-21222000D01*
X88962400Y-21222000D02*
X81063000Y-21222000D01*
X88962400Y-34226800D02*
X81063000Y-34226800D01*
X88962400Y-34226800D02*
X88962400Y-21222000D01*
%TO.C,A1*%
X83470000Y-37050000D02*
X83470000Y-55090000D01*
X83470000Y-55090000D02*
X86140000Y-55090000D01*
X86140000Y-39720000D02*
X86140000Y-37050000D01*
X86140000Y-39720000D02*
X124240000Y-39720000D01*
X86140000Y-52420000D02*
X86140000Y-55090000D01*
X88680000Y-52420000D02*
X86140000Y-52420000D01*
X88680000Y-52420000D02*
X88680000Y-55090000D01*
X88680000Y-52420000D02*
X124240000Y-52420000D01*
X88680000Y-55090000D02*
X126910000Y-55090000D01*
D15*
X119160000Y-42260000D02*
X129320000Y-42260000D01*
X119160000Y-49880000D02*
X119160000Y-42260000D01*
D13*
X124240000Y-39720000D02*
X124240000Y-37050000D01*
X124240000Y-52420000D02*
X124240000Y-55090000D01*
X126910000Y-37050000D02*
X83470000Y-37050000D01*
X126910000Y-55090000D02*
X126910000Y-37050000D01*
D15*
X129320000Y-42260000D02*
X129320000Y-49880000D01*
X129320000Y-49880000D02*
X119160000Y-49880000D01*
X87910000Y-38430000D02*
G75*
G02*
X86910000Y-38430000I-500000J0D01*
G01*
X86910000Y-38430000D02*
G75*
G02*
X87910000Y-38430000I500000J0D01*
G01*
X87910000Y-53690000D02*
G75*
G02*
X86910000Y-53690000I-500000J0D01*
G01*
X86910000Y-53690000D02*
G75*
G02*
X87910000Y-53690000I500000J0D01*
G01*
X123510186Y-38430000D02*
G75*
G02*
X122430000Y-38430000I-540093J0D01*
G01*
X122430000Y-38430000D02*
G75*
G02*
X123510186Y-38430000I540093J0D01*
G01*
X123520093Y-53689907D02*
G75*
G02*
X122439907Y-53689907I-540093J0D01*
G01*
X122439907Y-53689907D02*
G75*
G02*
X123520093Y-53689907I540093J0D01*
G01*
D13*
%TO.C,SW9*%
X81063000Y-72226800D02*
X81063000Y-59222000D01*
X88962400Y-59222000D02*
X81063000Y-59222000D01*
X88962400Y-72226800D02*
X81063000Y-72226800D01*
X88962400Y-72226800D02*
X88962400Y-59222000D01*
%TO.C,C3*%
X53890000Y-38330000D02*
X53890000Y-35590000D01*
X59130000Y-35590000D02*
X53890000Y-35590000D01*
X59130000Y-38330000D02*
X53890000Y-38330000D01*
X59130000Y-38330000D02*
X59130000Y-35590000D01*
%TO.C,C1*%
X29552677Y-63875000D02*
X30552677Y-63875000D01*
X30052677Y-63375000D02*
X30052677Y-64375000D01*
X35032323Y-61670000D02*
X35032323Y-71830000D01*
X35072323Y-61670000D02*
X35072323Y-71830000D01*
X35112323Y-61671000D02*
X35112323Y-71829000D01*
X35152323Y-61671000D02*
X35152323Y-71829000D01*
X35192323Y-61673000D02*
X35192323Y-71827000D01*
X35232323Y-61674000D02*
X35232323Y-71826000D01*
X35272323Y-61676000D02*
X35272323Y-71824000D01*
X35312323Y-61678000D02*
X35312323Y-71822000D01*
X35352323Y-61680000D02*
X35352323Y-71820000D01*
X35392323Y-61683000D02*
X35392323Y-71817000D01*
X35432323Y-61686000D02*
X35432323Y-71814000D01*
X35472323Y-61689000D02*
X35472323Y-71811000D01*
X35512323Y-61693000D02*
X35512323Y-71807000D01*
X35552323Y-61696000D02*
X35552323Y-71804000D01*
X35592323Y-61701000D02*
X35592323Y-71799000D01*
X35632323Y-61705000D02*
X35632323Y-71795000D01*
X35672323Y-61710000D02*
X35672323Y-71790000D01*
X35712323Y-61715000D02*
X35712323Y-71785000D01*
X35752323Y-61721000D02*
X35752323Y-71779000D01*
X35792323Y-61727000D02*
X35792323Y-71773000D01*
X35832323Y-61733000D02*
X35832323Y-71767000D01*
X35872323Y-61739000D02*
X35872323Y-71761000D01*
X35912323Y-61746000D02*
X35912323Y-71754000D01*
X35952323Y-61753000D02*
X35952323Y-71747000D01*
X35992323Y-61761000D02*
X35992323Y-71739000D01*
X36032323Y-61769000D02*
X36032323Y-71731000D01*
X36072323Y-61777000D02*
X36072323Y-71723000D01*
X36112323Y-61785000D02*
X36112323Y-71715000D01*
X36152323Y-61794000D02*
X36152323Y-71706000D01*
X36192323Y-61803000D02*
X36192323Y-71697000D01*
X36232323Y-61813000D02*
X36232323Y-71687000D01*
X36272323Y-61822000D02*
X36272323Y-71678000D01*
X36312323Y-61833000D02*
X36312323Y-65510000D01*
X36312323Y-67990000D02*
X36312323Y-71667000D01*
X36352323Y-61843000D02*
X36352323Y-65510000D01*
X36352323Y-67990000D02*
X36352323Y-71657000D01*
X36392323Y-61854000D02*
X36392323Y-65510000D01*
X36392323Y-67990000D02*
X36392323Y-71646000D01*
X36432323Y-61865000D02*
X36432323Y-65510000D01*
X36432323Y-67990000D02*
X36432323Y-71635000D01*
X36472323Y-61877000D02*
X36472323Y-65510000D01*
X36472323Y-67990000D02*
X36472323Y-71623000D01*
X36512323Y-61889000D02*
X36512323Y-65510000D01*
X36512323Y-67990000D02*
X36512323Y-71611000D01*
X36552323Y-61901000D02*
X36552323Y-65510000D01*
X36552323Y-67990000D02*
X36552323Y-71599000D01*
X36592323Y-61913000D02*
X36592323Y-65510000D01*
X36592323Y-67990000D02*
X36592323Y-71587000D01*
X36632323Y-61926000D02*
X36632323Y-65510000D01*
X36632323Y-67990000D02*
X36632323Y-71574000D01*
X36672323Y-61940000D02*
X36672323Y-65510000D01*
X36672323Y-67990000D02*
X36672323Y-71560000D01*
X36712323Y-61953000D02*
X36712323Y-65510000D01*
X36712323Y-67990000D02*
X36712323Y-71547000D01*
X36752323Y-61968000D02*
X36752323Y-65510000D01*
X36752323Y-67990000D02*
X36752323Y-71532000D01*
X36792323Y-61982000D02*
X36792323Y-65510000D01*
X36792323Y-67990000D02*
X36792323Y-71518000D01*
X36832323Y-61997000D02*
X36832323Y-65510000D01*
X36832323Y-67990000D02*
X36832323Y-71503000D01*
X36872323Y-62012000D02*
X36872323Y-65510000D01*
X36872323Y-67990000D02*
X36872323Y-71488000D01*
X36912323Y-62028000D02*
X36912323Y-65510000D01*
X36912323Y-67990000D02*
X36912323Y-71472000D01*
X36952323Y-62044000D02*
X36952323Y-65510000D01*
X36952323Y-67990000D02*
X36952323Y-71456000D01*
X36992323Y-62060000D02*
X36992323Y-65510000D01*
X36992323Y-67990000D02*
X36992323Y-71440000D01*
X37032323Y-62077000D02*
X37032323Y-65510000D01*
X37032323Y-67990000D02*
X37032323Y-71423000D01*
X37072323Y-62094000D02*
X37072323Y-65510000D01*
X37072323Y-67990000D02*
X37072323Y-71406000D01*
X37112323Y-62112000D02*
X37112323Y-65510000D01*
X37112323Y-67990000D02*
X37112323Y-71388000D01*
X37152323Y-62130000D02*
X37152323Y-65510000D01*
X37152323Y-67990000D02*
X37152323Y-71370000D01*
X37192323Y-62148000D02*
X37192323Y-65510000D01*
X37192323Y-67990000D02*
X37192323Y-71352000D01*
X37232323Y-62167000D02*
X37232323Y-65510000D01*
X37232323Y-67990000D02*
X37232323Y-71333000D01*
X37272323Y-62186000D02*
X37272323Y-65510000D01*
X37272323Y-67990000D02*
X37272323Y-71314000D01*
X37312323Y-62206000D02*
X37312323Y-65510000D01*
X37312323Y-67990000D02*
X37312323Y-71294000D01*
X37352323Y-62226000D02*
X37352323Y-65510000D01*
X37352323Y-67990000D02*
X37352323Y-71274000D01*
X37392323Y-62246000D02*
X37392323Y-65510000D01*
X37392323Y-67990000D02*
X37392323Y-71254000D01*
X37432323Y-62267000D02*
X37432323Y-65510000D01*
X37432323Y-67990000D02*
X37432323Y-71233000D01*
X37472323Y-62289000D02*
X37472323Y-65510000D01*
X37472323Y-67990000D02*
X37472323Y-71211000D01*
X37512323Y-62311000D02*
X37512323Y-65510000D01*
X37512323Y-67990000D02*
X37512323Y-71189000D01*
X37552323Y-62333000D02*
X37552323Y-65510000D01*
X37552323Y-67990000D02*
X37552323Y-71167000D01*
X37592323Y-62356000D02*
X37592323Y-65510000D01*
X37592323Y-67990000D02*
X37592323Y-71144000D01*
X37632323Y-62379000D02*
X37632323Y-65510000D01*
X37632323Y-67990000D02*
X37632323Y-71121000D01*
X37672323Y-62403000D02*
X37672323Y-65510000D01*
X37672323Y-67990000D02*
X37672323Y-71097000D01*
X37712323Y-62427000D02*
X37712323Y-65510000D01*
X37712323Y-67990000D02*
X37712323Y-71073000D01*
X37752323Y-62452000D02*
X37752323Y-65510000D01*
X37752323Y-67990000D02*
X37752323Y-71048000D01*
X37792323Y-62478000D02*
X37792323Y-65510000D01*
X37792323Y-67990000D02*
X37792323Y-71022000D01*
X37832323Y-62503000D02*
X37832323Y-65510000D01*
X37832323Y-67990000D02*
X37832323Y-70997000D01*
X37872323Y-62530000D02*
X37872323Y-65510000D01*
X37872323Y-67990000D02*
X37872323Y-70970000D01*
X37912323Y-62557000D02*
X37912323Y-65510000D01*
X37912323Y-67990000D02*
X37912323Y-70943000D01*
X37952323Y-62584000D02*
X37952323Y-65510000D01*
X37952323Y-67990000D02*
X37952323Y-70916000D01*
X37992323Y-62612000D02*
X37992323Y-65510000D01*
X37992323Y-67990000D02*
X37992323Y-70888000D01*
X38032323Y-62641000D02*
X38032323Y-65510000D01*
X38032323Y-67990000D02*
X38032323Y-70859000D01*
X38072323Y-62670000D02*
X38072323Y-65510000D01*
X38072323Y-67990000D02*
X38072323Y-70830000D01*
X38112323Y-62700000D02*
X38112323Y-65510000D01*
X38112323Y-67990000D02*
X38112323Y-70800000D01*
X38152323Y-62730000D02*
X38152323Y-65510000D01*
X38152323Y-67990000D02*
X38152323Y-70770000D01*
X38192323Y-62762000D02*
X38192323Y-65510000D01*
X38192323Y-67990000D02*
X38192323Y-70738000D01*
X38232323Y-62793000D02*
X38232323Y-65510000D01*
X38232323Y-67990000D02*
X38232323Y-70707000D01*
X38272323Y-62826000D02*
X38272323Y-65510000D01*
X38272323Y-67990000D02*
X38272323Y-70674000D01*
X38312323Y-62859000D02*
X38312323Y-65510000D01*
X38312323Y-67990000D02*
X38312323Y-70641000D01*
X38352323Y-62892000D02*
X38352323Y-65510000D01*
X38352323Y-67990000D02*
X38352323Y-70608000D01*
X38392323Y-62927000D02*
X38392323Y-65510000D01*
X38392323Y-67990000D02*
X38392323Y-70573000D01*
X38432323Y-62962000D02*
X38432323Y-65510000D01*
X38432323Y-67990000D02*
X38432323Y-70538000D01*
X38472323Y-62998000D02*
X38472323Y-65510000D01*
X38472323Y-67990000D02*
X38472323Y-70502000D01*
X38512323Y-63034000D02*
X38512323Y-65510000D01*
X38512323Y-67990000D02*
X38512323Y-70466000D01*
X38552323Y-63072000D02*
X38552323Y-65510000D01*
X38552323Y-67990000D02*
X38552323Y-70428000D01*
X38592323Y-63110000D02*
X38592323Y-65510000D01*
X38592323Y-67990000D02*
X38592323Y-70390000D01*
X38632323Y-63149000D02*
X38632323Y-65510000D01*
X38632323Y-67990000D02*
X38632323Y-70351000D01*
X38672323Y-63189000D02*
X38672323Y-65510000D01*
X38672323Y-67990000D02*
X38672323Y-70311000D01*
X38712323Y-63230000D02*
X38712323Y-65510000D01*
X38712323Y-67990000D02*
X38712323Y-70270000D01*
X38752323Y-63272000D02*
X38752323Y-65510000D01*
X38752323Y-67990000D02*
X38752323Y-70228000D01*
X38792323Y-63315000D02*
X38792323Y-70185000D01*
X38832323Y-63359000D02*
X38832323Y-70141000D01*
X38872323Y-63403000D02*
X38872323Y-70097000D01*
X38912323Y-63449000D02*
X38912323Y-70051000D01*
X38952323Y-63496000D02*
X38952323Y-70004000D01*
X38992323Y-63545000D02*
X38992323Y-69955000D01*
X39032323Y-63594000D02*
X39032323Y-69906000D01*
X39072323Y-63645000D02*
X39072323Y-69855000D01*
X39112323Y-63697000D02*
X39112323Y-69803000D01*
X39152323Y-63750000D02*
X39152323Y-69750000D01*
X39192323Y-63805000D02*
X39192323Y-69695000D01*
X39232323Y-63862000D02*
X39232323Y-69638000D01*
X39272323Y-63920000D02*
X39272323Y-69580000D01*
X39312323Y-63980000D02*
X39312323Y-69520000D01*
X39352323Y-64042000D02*
X39352323Y-69458000D01*
X39392323Y-64106000D02*
X39392323Y-69394000D01*
X39432323Y-64172000D02*
X39432323Y-69328000D01*
X39472323Y-64240000D02*
X39472323Y-69260000D01*
X39512323Y-64311000D02*
X39512323Y-69189000D01*
X39552323Y-64385000D02*
X39552323Y-69115000D01*
X39592323Y-64462000D02*
X39592323Y-69038000D01*
X39632323Y-64542000D02*
X39632323Y-68958000D01*
X39672323Y-64626000D02*
X39672323Y-68874000D01*
X39712323Y-64713000D02*
X39712323Y-68787000D01*
X39752323Y-64806000D02*
X39752323Y-68694000D01*
X39792323Y-64904000D02*
X39792323Y-68596000D01*
X39832323Y-65008000D02*
X39832323Y-68492000D01*
X39872323Y-65120000D02*
X39872323Y-68380000D01*
X39912323Y-65241000D02*
X39912323Y-68259000D01*
X39952323Y-65373000D02*
X39952323Y-68127000D01*
X39992323Y-65520000D02*
X39992323Y-67980000D01*
X40032323Y-65688000D02*
X40032323Y-67812000D01*
X40072323Y-65888000D02*
X40072323Y-67612000D01*
X40112323Y-66151000D02*
X40112323Y-67349000D01*
X40152323Y-66750000D02*
G75*
G02*
X29912323Y-66750000I-5120000J0D01*
G01*
X29912323Y-66750000D02*
G75*
G02*
X40152323Y-66750000I5120000J0D01*
G01*
%TD*%
M02*
