%TF.GenerationSoftware,KiCad,Pcbnew,9.0.2*%
%TF.CreationDate,2025-07-06T14:12:51-06:00*%
%TF.ProjectId,Switchbox3,53776974-6368-4626-9f78-332e6b696361,rev?*%
%TF.SameCoordinates,Original*%
%TF.FileFunction,Legend,Bot*%
%TF.FilePolarity,Positive*%
%FSLAX46Y46*%
G04 Gerber Fmt 4.6, Leading zero omitted, Abs format (unit mm)*
G04 Created by KiCad (PCBNEW 9.0.2) date 2025-07-06 14:12:51*
%MOMM*%
%LPD*%
G01*
G04 APERTURE LIST*
%ADD10C,0.300000*%
%ADD11C,0.100000*%
G04 APERTURE END LIST*
D10*
X105346917Y-34743685D02*
X105275489Y-34672257D01*
X105275489Y-34672257D02*
X105132632Y-34600828D01*
X105132632Y-34600828D02*
X104775489Y-34600828D01*
X104775489Y-34600828D02*
X104632632Y-34672257D01*
X104632632Y-34672257D02*
X104561203Y-34743685D01*
X104561203Y-34743685D02*
X104489774Y-34886542D01*
X104489774Y-34886542D02*
X104489774Y-35029400D01*
X104489774Y-35029400D02*
X104561203Y-35243685D01*
X104561203Y-35243685D02*
X105418346Y-36100828D01*
X105418346Y-36100828D02*
X104489774Y-36100828D01*
X26796917Y-35882257D02*
X26082632Y-35882257D01*
X26939774Y-36310828D02*
X26439774Y-34810828D01*
X26439774Y-34810828D02*
X25939774Y-36310828D01*
X24796918Y-35310828D02*
X24796918Y-36310828D01*
X25439775Y-35310828D02*
X25439775Y-36096542D01*
X25439775Y-36096542D02*
X25368346Y-36239400D01*
X25368346Y-36239400D02*
X25225489Y-36310828D01*
X25225489Y-36310828D02*
X25011203Y-36310828D01*
X25011203Y-36310828D02*
X24868346Y-36239400D01*
X24868346Y-36239400D02*
X24796918Y-36167971D01*
X24296917Y-35310828D02*
X23725489Y-35310828D01*
X24082632Y-34810828D02*
X24082632Y-36096542D01*
X24082632Y-36096542D02*
X24011203Y-36239400D01*
X24011203Y-36239400D02*
X23868346Y-36310828D01*
X23868346Y-36310828D02*
X23725489Y-36310828D01*
X23011203Y-36310828D02*
X23154060Y-36239400D01*
X23154060Y-36239400D02*
X23225489Y-36167971D01*
X23225489Y-36167971D02*
X23296917Y-36025114D01*
X23296917Y-36025114D02*
X23296917Y-35596542D01*
X23296917Y-35596542D02*
X23225489Y-35453685D01*
X23225489Y-35453685D02*
X23154060Y-35382257D01*
X23154060Y-35382257D02*
X23011203Y-35310828D01*
X23011203Y-35310828D02*
X22796917Y-35310828D01*
X22796917Y-35310828D02*
X22654060Y-35382257D01*
X22654060Y-35382257D02*
X22582632Y-35453685D01*
X22582632Y-35453685D02*
X22511203Y-35596542D01*
X22511203Y-35596542D02*
X22511203Y-36025114D01*
X22511203Y-36025114D02*
X22582632Y-36167971D01*
X22582632Y-36167971D02*
X22654060Y-36239400D01*
X22654060Y-36239400D02*
X22796917Y-36310828D01*
X22796917Y-36310828D02*
X23011203Y-36310828D01*
X85498346Y-34670828D02*
X84569774Y-34670828D01*
X84569774Y-34670828D02*
X85069774Y-35242257D01*
X85069774Y-35242257D02*
X84855489Y-35242257D01*
X84855489Y-35242257D02*
X84712632Y-35313685D01*
X84712632Y-35313685D02*
X84641203Y-35385114D01*
X84641203Y-35385114D02*
X84569774Y-35527971D01*
X84569774Y-35527971D02*
X84569774Y-35885114D01*
X84569774Y-35885114D02*
X84641203Y-36027971D01*
X84641203Y-36027971D02*
X84712632Y-36099400D01*
X84712632Y-36099400D02*
X84855489Y-36170828D01*
X84855489Y-36170828D02*
X85284060Y-36170828D01*
X85284060Y-36170828D02*
X85426917Y-36099400D01*
X85426917Y-36099400D02*
X85498346Y-36027971D01*
X84261428Y-44716900D02*
X84047143Y-44788328D01*
X84047143Y-44788328D02*
X83690000Y-44788328D01*
X83690000Y-44788328D02*
X83547143Y-44716900D01*
X83547143Y-44716900D02*
X83475714Y-44645471D01*
X83475714Y-44645471D02*
X83404285Y-44502614D01*
X83404285Y-44502614D02*
X83404285Y-44359757D01*
X83404285Y-44359757D02*
X83475714Y-44216900D01*
X83475714Y-44216900D02*
X83547143Y-44145471D01*
X83547143Y-44145471D02*
X83690000Y-44074042D01*
X83690000Y-44074042D02*
X83975714Y-44002614D01*
X83975714Y-44002614D02*
X84118571Y-43931185D01*
X84118571Y-43931185D02*
X84190000Y-43859757D01*
X84190000Y-43859757D02*
X84261428Y-43716900D01*
X84261428Y-43716900D02*
X84261428Y-43574042D01*
X84261428Y-43574042D02*
X84190000Y-43431185D01*
X84190000Y-43431185D02*
X84118571Y-43359757D01*
X84118571Y-43359757D02*
X83975714Y-43288328D01*
X83975714Y-43288328D02*
X83618571Y-43288328D01*
X83618571Y-43288328D02*
X83404285Y-43359757D01*
X82904286Y-43788328D02*
X82618572Y-44788328D01*
X82618572Y-44788328D02*
X82332857Y-44074042D01*
X82332857Y-44074042D02*
X82047143Y-44788328D01*
X82047143Y-44788328D02*
X81761429Y-43788328D01*
X81190000Y-44788328D02*
X81190000Y-43788328D01*
X81190000Y-43288328D02*
X81261428Y-43359757D01*
X81261428Y-43359757D02*
X81190000Y-43431185D01*
X81190000Y-43431185D02*
X81118571Y-43359757D01*
X81118571Y-43359757D02*
X81190000Y-43288328D01*
X81190000Y-43288328D02*
X81190000Y-43431185D01*
X80689999Y-43788328D02*
X80118571Y-43788328D01*
X80475714Y-43288328D02*
X80475714Y-44574042D01*
X80475714Y-44574042D02*
X80404285Y-44716900D01*
X80404285Y-44716900D02*
X80261428Y-44788328D01*
X80261428Y-44788328D02*
X80118571Y-44788328D01*
X78975714Y-44716900D02*
X79118571Y-44788328D01*
X79118571Y-44788328D02*
X79404285Y-44788328D01*
X79404285Y-44788328D02*
X79547142Y-44716900D01*
X79547142Y-44716900D02*
X79618571Y-44645471D01*
X79618571Y-44645471D02*
X79689999Y-44502614D01*
X79689999Y-44502614D02*
X79689999Y-44074042D01*
X79689999Y-44074042D02*
X79618571Y-43931185D01*
X79618571Y-43931185D02*
X79547142Y-43859757D01*
X79547142Y-43859757D02*
X79404285Y-43788328D01*
X79404285Y-43788328D02*
X79118571Y-43788328D01*
X79118571Y-43788328D02*
X78975714Y-43859757D01*
X78332857Y-44788328D02*
X78332857Y-43288328D01*
X77690000Y-44788328D02*
X77690000Y-44002614D01*
X77690000Y-44002614D02*
X77761428Y-43859757D01*
X77761428Y-43859757D02*
X77904285Y-43788328D01*
X77904285Y-43788328D02*
X78118571Y-43788328D01*
X78118571Y-43788328D02*
X78261428Y-43859757D01*
X78261428Y-43859757D02*
X78332857Y-43931185D01*
X76404285Y-44716900D02*
X76547142Y-44788328D01*
X76547142Y-44788328D02*
X76832857Y-44788328D01*
X76832857Y-44788328D02*
X76975714Y-44716900D01*
X76975714Y-44716900D02*
X77047142Y-44574042D01*
X77047142Y-44574042D02*
X77047142Y-44002614D01*
X77047142Y-44002614D02*
X76975714Y-43859757D01*
X76975714Y-43859757D02*
X76832857Y-43788328D01*
X76832857Y-43788328D02*
X76547142Y-43788328D01*
X76547142Y-43788328D02*
X76404285Y-43859757D01*
X76404285Y-43859757D02*
X76332857Y-44002614D01*
X76332857Y-44002614D02*
X76332857Y-44145471D01*
X76332857Y-44145471D02*
X77047142Y-44288328D01*
X75761428Y-44716900D02*
X75618571Y-44788328D01*
X75618571Y-44788328D02*
X75332857Y-44788328D01*
X75332857Y-44788328D02*
X75190000Y-44716900D01*
X75190000Y-44716900D02*
X75118571Y-44574042D01*
X75118571Y-44574042D02*
X75118571Y-44502614D01*
X75118571Y-44502614D02*
X75190000Y-44359757D01*
X75190000Y-44359757D02*
X75332857Y-44288328D01*
X75332857Y-44288328D02*
X75547143Y-44288328D01*
X75547143Y-44288328D02*
X75690000Y-44216900D01*
X75690000Y-44216900D02*
X75761428Y-44074042D01*
X75761428Y-44074042D02*
X75761428Y-44002614D01*
X75761428Y-44002614D02*
X75690000Y-43859757D01*
X75690000Y-43859757D02*
X75547143Y-43788328D01*
X75547143Y-43788328D02*
X75332857Y-43788328D01*
X75332857Y-43788328D02*
X75190000Y-43859757D01*
X73547142Y-43288328D02*
X72690000Y-43288328D01*
X73118571Y-44788328D02*
X73118571Y-43288328D01*
X72190000Y-44788328D02*
X72190000Y-43288328D01*
X71547143Y-44788328D02*
X71547143Y-44002614D01*
X71547143Y-44002614D02*
X71618571Y-43859757D01*
X71618571Y-43859757D02*
X71761428Y-43788328D01*
X71761428Y-43788328D02*
X71975714Y-43788328D01*
X71975714Y-43788328D02*
X72118571Y-43859757D01*
X72118571Y-43859757D02*
X72190000Y-43931185D01*
X70832857Y-44788328D02*
X70832857Y-43788328D01*
X70832857Y-43288328D02*
X70904285Y-43359757D01*
X70904285Y-43359757D02*
X70832857Y-43431185D01*
X70832857Y-43431185D02*
X70761428Y-43359757D01*
X70761428Y-43359757D02*
X70832857Y-43288328D01*
X70832857Y-43288328D02*
X70832857Y-43431185D01*
X70189999Y-44716900D02*
X70047142Y-44788328D01*
X70047142Y-44788328D02*
X69761428Y-44788328D01*
X69761428Y-44788328D02*
X69618571Y-44716900D01*
X69618571Y-44716900D02*
X69547142Y-44574042D01*
X69547142Y-44574042D02*
X69547142Y-44502614D01*
X69547142Y-44502614D02*
X69618571Y-44359757D01*
X69618571Y-44359757D02*
X69761428Y-44288328D01*
X69761428Y-44288328D02*
X69975714Y-44288328D01*
X69975714Y-44288328D02*
X70118571Y-44216900D01*
X70118571Y-44216900D02*
X70189999Y-44074042D01*
X70189999Y-44074042D02*
X70189999Y-44002614D01*
X70189999Y-44002614D02*
X70118571Y-43859757D01*
X70118571Y-43859757D02*
X69975714Y-43788328D01*
X69975714Y-43788328D02*
X69761428Y-43788328D01*
X69761428Y-43788328D02*
X69618571Y-43859757D01*
X67832856Y-44716900D02*
X67618571Y-44788328D01*
X67618571Y-44788328D02*
X67261428Y-44788328D01*
X67261428Y-44788328D02*
X67118571Y-44716900D01*
X67118571Y-44716900D02*
X67047142Y-44645471D01*
X67047142Y-44645471D02*
X66975713Y-44502614D01*
X66975713Y-44502614D02*
X66975713Y-44359757D01*
X66975713Y-44359757D02*
X67047142Y-44216900D01*
X67047142Y-44216900D02*
X67118571Y-44145471D01*
X67118571Y-44145471D02*
X67261428Y-44074042D01*
X67261428Y-44074042D02*
X67547142Y-44002614D01*
X67547142Y-44002614D02*
X67689999Y-43931185D01*
X67689999Y-43931185D02*
X67761428Y-43859757D01*
X67761428Y-43859757D02*
X67832856Y-43716900D01*
X67832856Y-43716900D02*
X67832856Y-43574042D01*
X67832856Y-43574042D02*
X67761428Y-43431185D01*
X67761428Y-43431185D02*
X67689999Y-43359757D01*
X67689999Y-43359757D02*
X67547142Y-43288328D01*
X67547142Y-43288328D02*
X67189999Y-43288328D01*
X67189999Y-43288328D02*
X66975713Y-43359757D01*
X66332857Y-44788328D02*
X66332857Y-43788328D01*
X66332857Y-43288328D02*
X66404285Y-43359757D01*
X66404285Y-43359757D02*
X66332857Y-43431185D01*
X66332857Y-43431185D02*
X66261428Y-43359757D01*
X66261428Y-43359757D02*
X66332857Y-43288328D01*
X66332857Y-43288328D02*
X66332857Y-43431185D01*
X64975714Y-44788328D02*
X64975714Y-43288328D01*
X64975714Y-44716900D02*
X65118571Y-44788328D01*
X65118571Y-44788328D02*
X65404285Y-44788328D01*
X65404285Y-44788328D02*
X65547142Y-44716900D01*
X65547142Y-44716900D02*
X65618571Y-44645471D01*
X65618571Y-44645471D02*
X65689999Y-44502614D01*
X65689999Y-44502614D02*
X65689999Y-44074042D01*
X65689999Y-44074042D02*
X65618571Y-43931185D01*
X65618571Y-43931185D02*
X65547142Y-43859757D01*
X65547142Y-43859757D02*
X65404285Y-43788328D01*
X65404285Y-43788328D02*
X65118571Y-43788328D01*
X65118571Y-43788328D02*
X64975714Y-43859757D01*
X63689999Y-44716900D02*
X63832856Y-44788328D01*
X63832856Y-44788328D02*
X64118571Y-44788328D01*
X64118571Y-44788328D02*
X64261428Y-44716900D01*
X64261428Y-44716900D02*
X64332856Y-44574042D01*
X64332856Y-44574042D02*
X64332856Y-44002614D01*
X64332856Y-44002614D02*
X64261428Y-43859757D01*
X64261428Y-43859757D02*
X64118571Y-43788328D01*
X64118571Y-43788328D02*
X63832856Y-43788328D01*
X63832856Y-43788328D02*
X63689999Y-43859757D01*
X63689999Y-43859757D02*
X63618571Y-44002614D01*
X63618571Y-44002614D02*
X63618571Y-44145471D01*
X63618571Y-44145471D02*
X64332856Y-44288328D01*
X28265489Y-58420828D02*
X28265489Y-56920828D01*
X28265489Y-56920828D02*
X27765489Y-57992257D01*
X27765489Y-57992257D02*
X27265489Y-56920828D01*
X27265489Y-56920828D02*
X27265489Y-58420828D01*
X25908346Y-58420828D02*
X25908346Y-57635114D01*
X25908346Y-57635114D02*
X25979774Y-57492257D01*
X25979774Y-57492257D02*
X26122631Y-57420828D01*
X26122631Y-57420828D02*
X26408346Y-57420828D01*
X26408346Y-57420828D02*
X26551203Y-57492257D01*
X25908346Y-58349400D02*
X26051203Y-58420828D01*
X26051203Y-58420828D02*
X26408346Y-58420828D01*
X26408346Y-58420828D02*
X26551203Y-58349400D01*
X26551203Y-58349400D02*
X26622631Y-58206542D01*
X26622631Y-58206542D02*
X26622631Y-58063685D01*
X26622631Y-58063685D02*
X26551203Y-57920828D01*
X26551203Y-57920828D02*
X26408346Y-57849400D01*
X26408346Y-57849400D02*
X26051203Y-57849400D01*
X26051203Y-57849400D02*
X25908346Y-57777971D01*
X25265488Y-58349400D02*
X25122631Y-58420828D01*
X25122631Y-58420828D02*
X24836917Y-58420828D01*
X24836917Y-58420828D02*
X24694060Y-58349400D01*
X24694060Y-58349400D02*
X24622631Y-58206542D01*
X24622631Y-58206542D02*
X24622631Y-58135114D01*
X24622631Y-58135114D02*
X24694060Y-57992257D01*
X24694060Y-57992257D02*
X24836917Y-57920828D01*
X24836917Y-57920828D02*
X25051203Y-57920828D01*
X25051203Y-57920828D02*
X25194060Y-57849400D01*
X25194060Y-57849400D02*
X25265488Y-57706542D01*
X25265488Y-57706542D02*
X25265488Y-57635114D01*
X25265488Y-57635114D02*
X25194060Y-57492257D01*
X25194060Y-57492257D02*
X25051203Y-57420828D01*
X25051203Y-57420828D02*
X24836917Y-57420828D01*
X24836917Y-57420828D02*
X24694060Y-57492257D01*
X24194059Y-57420828D02*
X23622631Y-57420828D01*
X23979774Y-56920828D02*
X23979774Y-58206542D01*
X23979774Y-58206542D02*
X23908345Y-58349400D01*
X23908345Y-58349400D02*
X23765488Y-58420828D01*
X23765488Y-58420828D02*
X23622631Y-58420828D01*
X22551202Y-58349400D02*
X22694059Y-58420828D01*
X22694059Y-58420828D02*
X22979774Y-58420828D01*
X22979774Y-58420828D02*
X23122631Y-58349400D01*
X23122631Y-58349400D02*
X23194059Y-58206542D01*
X23194059Y-58206542D02*
X23194059Y-57635114D01*
X23194059Y-57635114D02*
X23122631Y-57492257D01*
X23122631Y-57492257D02*
X22979774Y-57420828D01*
X22979774Y-57420828D02*
X22694059Y-57420828D01*
X22694059Y-57420828D02*
X22551202Y-57492257D01*
X22551202Y-57492257D02*
X22479774Y-57635114D01*
X22479774Y-57635114D02*
X22479774Y-57777971D01*
X22479774Y-57777971D02*
X23194059Y-57920828D01*
X21836917Y-58420828D02*
X21836917Y-57420828D01*
X21836917Y-57706542D02*
X21765488Y-57563685D01*
X21765488Y-57563685D02*
X21694060Y-57492257D01*
X21694060Y-57492257D02*
X21551202Y-57420828D01*
X21551202Y-57420828D02*
X21408345Y-57420828D01*
X65151203Y-57693685D02*
X65294060Y-57622257D01*
X65294060Y-57622257D02*
X65365489Y-57550828D01*
X65365489Y-57550828D02*
X65436917Y-57407971D01*
X65436917Y-57407971D02*
X65436917Y-57336542D01*
X65436917Y-57336542D02*
X65365489Y-57193685D01*
X65365489Y-57193685D02*
X65294060Y-57122257D01*
X65294060Y-57122257D02*
X65151203Y-57050828D01*
X65151203Y-57050828D02*
X64865489Y-57050828D01*
X64865489Y-57050828D02*
X64722632Y-57122257D01*
X64722632Y-57122257D02*
X64651203Y-57193685D01*
X64651203Y-57193685D02*
X64579774Y-57336542D01*
X64579774Y-57336542D02*
X64579774Y-57407971D01*
X64579774Y-57407971D02*
X64651203Y-57550828D01*
X64651203Y-57550828D02*
X64722632Y-57622257D01*
X64722632Y-57622257D02*
X64865489Y-57693685D01*
X64865489Y-57693685D02*
X65151203Y-57693685D01*
X65151203Y-57693685D02*
X65294060Y-57765114D01*
X65294060Y-57765114D02*
X65365489Y-57836542D01*
X65365489Y-57836542D02*
X65436917Y-57979400D01*
X65436917Y-57979400D02*
X65436917Y-58265114D01*
X65436917Y-58265114D02*
X65365489Y-58407971D01*
X65365489Y-58407971D02*
X65294060Y-58479400D01*
X65294060Y-58479400D02*
X65151203Y-58550828D01*
X65151203Y-58550828D02*
X64865489Y-58550828D01*
X64865489Y-58550828D02*
X64722632Y-58479400D01*
X64722632Y-58479400D02*
X64651203Y-58407971D01*
X64651203Y-58407971D02*
X64579774Y-58265114D01*
X64579774Y-58265114D02*
X64579774Y-57979400D01*
X64579774Y-57979400D02*
X64651203Y-57836542D01*
X64651203Y-57836542D02*
X64722632Y-57765114D01*
X64722632Y-57765114D02*
X64865489Y-57693685D01*
X85148346Y-57200828D02*
X84148346Y-57200828D01*
X84148346Y-57200828D02*
X84791203Y-58700828D01*
X124341203Y-57130828D02*
X125055489Y-57130828D01*
X125055489Y-57130828D02*
X125126917Y-57845114D01*
X125126917Y-57845114D02*
X125055489Y-57773685D01*
X125055489Y-57773685D02*
X124912632Y-57702257D01*
X124912632Y-57702257D02*
X124555489Y-57702257D01*
X124555489Y-57702257D02*
X124412632Y-57773685D01*
X124412632Y-57773685D02*
X124341203Y-57845114D01*
X124341203Y-57845114D02*
X124269774Y-57987971D01*
X124269774Y-57987971D02*
X124269774Y-58345114D01*
X124269774Y-58345114D02*
X124341203Y-58487971D01*
X124341203Y-58487971D02*
X124412632Y-58559400D01*
X124412632Y-58559400D02*
X124555489Y-58630828D01*
X124555489Y-58630828D02*
X124912632Y-58630828D01*
X124912632Y-58630828D02*
X125055489Y-58559400D01*
X125055489Y-58559400D02*
X125126917Y-58487971D01*
X104492632Y-57200828D02*
X104778346Y-57200828D01*
X104778346Y-57200828D02*
X104921203Y-57272257D01*
X104921203Y-57272257D02*
X104992632Y-57343685D01*
X104992632Y-57343685D02*
X105135489Y-57557971D01*
X105135489Y-57557971D02*
X105206917Y-57843685D01*
X105206917Y-57843685D02*
X105206917Y-58415114D01*
X105206917Y-58415114D02*
X105135489Y-58557971D01*
X105135489Y-58557971D02*
X105064060Y-58629400D01*
X105064060Y-58629400D02*
X104921203Y-58700828D01*
X104921203Y-58700828D02*
X104635489Y-58700828D01*
X104635489Y-58700828D02*
X104492632Y-58629400D01*
X104492632Y-58629400D02*
X104421203Y-58557971D01*
X104421203Y-58557971D02*
X104349774Y-58415114D01*
X104349774Y-58415114D02*
X104349774Y-58057971D01*
X104349774Y-58057971D02*
X104421203Y-57915114D01*
X104421203Y-57915114D02*
X104492632Y-57843685D01*
X104492632Y-57843685D02*
X104635489Y-57772257D01*
X104635489Y-57772257D02*
X104921203Y-57772257D01*
X104921203Y-57772257D02*
X105064060Y-57843685D01*
X105064060Y-57843685D02*
X105135489Y-57915114D01*
X105135489Y-57915114D02*
X105206917Y-58057971D01*
X46528346Y-58380828D02*
X47028346Y-57666542D01*
X47385489Y-58380828D02*
X47385489Y-56880828D01*
X47385489Y-56880828D02*
X46814060Y-56880828D01*
X46814060Y-56880828D02*
X46671203Y-56952257D01*
X46671203Y-56952257D02*
X46599774Y-57023685D01*
X46599774Y-57023685D02*
X46528346Y-57166542D01*
X46528346Y-57166542D02*
X46528346Y-57380828D01*
X46528346Y-57380828D02*
X46599774Y-57523685D01*
X46599774Y-57523685D02*
X46671203Y-57595114D01*
X46671203Y-57595114D02*
X46814060Y-57666542D01*
X46814060Y-57666542D02*
X47385489Y-57666542D01*
X45242632Y-58380828D02*
X45242632Y-57595114D01*
X45242632Y-57595114D02*
X45314060Y-57452257D01*
X45314060Y-57452257D02*
X45456917Y-57380828D01*
X45456917Y-57380828D02*
X45742632Y-57380828D01*
X45742632Y-57380828D02*
X45885489Y-57452257D01*
X45242632Y-58309400D02*
X45385489Y-58380828D01*
X45385489Y-58380828D02*
X45742632Y-58380828D01*
X45742632Y-58380828D02*
X45885489Y-58309400D01*
X45885489Y-58309400D02*
X45956917Y-58166542D01*
X45956917Y-58166542D02*
X45956917Y-58023685D01*
X45956917Y-58023685D02*
X45885489Y-57880828D01*
X45885489Y-57880828D02*
X45742632Y-57809400D01*
X45742632Y-57809400D02*
X45385489Y-57809400D01*
X45385489Y-57809400D02*
X45242632Y-57737971D01*
X44742631Y-57380828D02*
X44171203Y-57380828D01*
X44528346Y-56880828D02*
X44528346Y-58166542D01*
X44528346Y-58166542D02*
X44456917Y-58309400D01*
X44456917Y-58309400D02*
X44314060Y-58380828D01*
X44314060Y-58380828D02*
X44171203Y-58380828D01*
X43099774Y-58309400D02*
X43242631Y-58380828D01*
X43242631Y-58380828D02*
X43528346Y-58380828D01*
X43528346Y-58380828D02*
X43671203Y-58309400D01*
X43671203Y-58309400D02*
X43742631Y-58166542D01*
X43742631Y-58166542D02*
X43742631Y-57595114D01*
X43742631Y-57595114D02*
X43671203Y-57452257D01*
X43671203Y-57452257D02*
X43528346Y-57380828D01*
X43528346Y-57380828D02*
X43242631Y-57380828D01*
X43242631Y-57380828D02*
X43099774Y-57452257D01*
X43099774Y-57452257D02*
X43028346Y-57595114D01*
X43028346Y-57595114D02*
X43028346Y-57737971D01*
X43028346Y-57737971D02*
X43742631Y-57880828D01*
X124691427Y-36068328D02*
X125548570Y-36068328D01*
X125119999Y-36068328D02*
X125119999Y-34568328D01*
X125119999Y-34568328D02*
X125262856Y-34782614D01*
X125262856Y-34782614D02*
X125405713Y-34925471D01*
X125405713Y-34925471D02*
X125548570Y-34996900D01*
D11*
X50242419Y-62533884D02*
X49242419Y-62533884D01*
X49242419Y-62533884D02*
X49956704Y-62867217D01*
X49956704Y-62867217D02*
X49242419Y-63200550D01*
X49242419Y-63200550D02*
X50242419Y-63200550D01*
X50242419Y-63819598D02*
X50194800Y-63724360D01*
X50194800Y-63724360D02*
X50147180Y-63676741D01*
X50147180Y-63676741D02*
X50051942Y-63629122D01*
X50051942Y-63629122D02*
X49766228Y-63629122D01*
X49766228Y-63629122D02*
X49670990Y-63676741D01*
X49670990Y-63676741D02*
X49623371Y-63724360D01*
X49623371Y-63724360D02*
X49575752Y-63819598D01*
X49575752Y-63819598D02*
X49575752Y-63962455D01*
X49575752Y-63962455D02*
X49623371Y-64057693D01*
X49623371Y-64057693D02*
X49670990Y-64105312D01*
X49670990Y-64105312D02*
X49766228Y-64152931D01*
X49766228Y-64152931D02*
X50051942Y-64152931D01*
X50051942Y-64152931D02*
X50147180Y-64105312D01*
X50147180Y-64105312D02*
X50194800Y-64057693D01*
X50194800Y-64057693D02*
X50242419Y-63962455D01*
X50242419Y-63962455D02*
X50242419Y-63819598D01*
X50242419Y-64581503D02*
X49575752Y-64581503D01*
X49670990Y-64581503D02*
X49623371Y-64629122D01*
X49623371Y-64629122D02*
X49575752Y-64724360D01*
X49575752Y-64724360D02*
X49575752Y-64867217D01*
X49575752Y-64867217D02*
X49623371Y-64962455D01*
X49623371Y-64962455D02*
X49718609Y-65010074D01*
X49718609Y-65010074D02*
X50242419Y-65010074D01*
X49718609Y-65010074D02*
X49623371Y-65057693D01*
X49623371Y-65057693D02*
X49575752Y-65152931D01*
X49575752Y-65152931D02*
X49575752Y-65295788D01*
X49575752Y-65295788D02*
X49623371Y-65391027D01*
X49623371Y-65391027D02*
X49718609Y-65438646D01*
X49718609Y-65438646D02*
X50242419Y-65438646D01*
X50194800Y-66295788D02*
X50242419Y-66200550D01*
X50242419Y-66200550D02*
X50242419Y-66010074D01*
X50242419Y-66010074D02*
X50194800Y-65914836D01*
X50194800Y-65914836D02*
X50099561Y-65867217D01*
X50099561Y-65867217D02*
X49718609Y-65867217D01*
X49718609Y-65867217D02*
X49623371Y-65914836D01*
X49623371Y-65914836D02*
X49575752Y-66010074D01*
X49575752Y-66010074D02*
X49575752Y-66200550D01*
X49575752Y-66200550D02*
X49623371Y-66295788D01*
X49623371Y-66295788D02*
X49718609Y-66343407D01*
X49718609Y-66343407D02*
X49813847Y-66343407D01*
X49813847Y-66343407D02*
X49909085Y-65867217D01*
X49575752Y-66771979D02*
X50242419Y-66771979D01*
X49670990Y-66771979D02*
X49623371Y-66819598D01*
X49623371Y-66819598D02*
X49575752Y-66914836D01*
X49575752Y-66914836D02*
X49575752Y-67057693D01*
X49575752Y-67057693D02*
X49623371Y-67152931D01*
X49623371Y-67152931D02*
X49718609Y-67200550D01*
X49718609Y-67200550D02*
X50242419Y-67200550D01*
X49575752Y-67533884D02*
X49575752Y-67914836D01*
X49242419Y-67676741D02*
X50099561Y-67676741D01*
X50099561Y-67676741D02*
X50194800Y-67724360D01*
X50194800Y-67724360D02*
X50242419Y-67819598D01*
X50242419Y-67819598D02*
X50242419Y-67914836D01*
X50242419Y-68676741D02*
X49718609Y-68676741D01*
X49718609Y-68676741D02*
X49623371Y-68629122D01*
X49623371Y-68629122D02*
X49575752Y-68533884D01*
X49575752Y-68533884D02*
X49575752Y-68343408D01*
X49575752Y-68343408D02*
X49623371Y-68248170D01*
X50194800Y-68676741D02*
X50242419Y-68581503D01*
X50242419Y-68581503D02*
X50242419Y-68343408D01*
X50242419Y-68343408D02*
X50194800Y-68248170D01*
X50194800Y-68248170D02*
X50099561Y-68200551D01*
X50099561Y-68200551D02*
X50004323Y-68200551D01*
X50004323Y-68200551D02*
X49909085Y-68248170D01*
X49909085Y-68248170D02*
X49861466Y-68343408D01*
X49861466Y-68343408D02*
X49861466Y-68581503D01*
X49861466Y-68581503D02*
X49813847Y-68676741D01*
X50242419Y-69152932D02*
X49575752Y-69152932D01*
X49766228Y-69152932D02*
X49670990Y-69200551D01*
X49670990Y-69200551D02*
X49623371Y-69248170D01*
X49623371Y-69248170D02*
X49575752Y-69343408D01*
X49575752Y-69343408D02*
X49575752Y-69438646D01*
X49575752Y-69676742D02*
X50242419Y-69914837D01*
X49575752Y-70152932D02*
X50242419Y-69914837D01*
X50242419Y-69914837D02*
X50480514Y-69819599D01*
X50480514Y-69819599D02*
X50528133Y-69771980D01*
X50528133Y-69771980D02*
X50575752Y-69676742D01*
D10*
X76155713Y-39988328D02*
X75298571Y-39988328D01*
X75727142Y-41488328D02*
X75727142Y-39988328D01*
X74584285Y-41488328D02*
X74727142Y-41416900D01*
X74727142Y-41416900D02*
X74798571Y-41345471D01*
X74798571Y-41345471D02*
X74869999Y-41202614D01*
X74869999Y-41202614D02*
X74869999Y-40774042D01*
X74869999Y-40774042D02*
X74798571Y-40631185D01*
X74798571Y-40631185D02*
X74727142Y-40559757D01*
X74727142Y-40559757D02*
X74584285Y-40488328D01*
X74584285Y-40488328D02*
X74369999Y-40488328D01*
X74369999Y-40488328D02*
X74227142Y-40559757D01*
X74227142Y-40559757D02*
X74155714Y-40631185D01*
X74155714Y-40631185D02*
X74084285Y-40774042D01*
X74084285Y-40774042D02*
X74084285Y-41202614D01*
X74084285Y-41202614D02*
X74155714Y-41345471D01*
X74155714Y-41345471D02*
X74227142Y-41416900D01*
X74227142Y-41416900D02*
X74369999Y-41488328D01*
X74369999Y-41488328D02*
X74584285Y-41488328D01*
X73441428Y-40488328D02*
X73441428Y-41988328D01*
X73441428Y-40559757D02*
X73298571Y-40488328D01*
X73298571Y-40488328D02*
X73012856Y-40488328D01*
X73012856Y-40488328D02*
X72869999Y-40559757D01*
X72869999Y-40559757D02*
X72798571Y-40631185D01*
X72798571Y-40631185D02*
X72727142Y-40774042D01*
X72727142Y-40774042D02*
X72727142Y-41202614D01*
X72727142Y-41202614D02*
X72798571Y-41345471D01*
X72798571Y-41345471D02*
X72869999Y-41416900D01*
X72869999Y-41416900D02*
X73012856Y-41488328D01*
X73012856Y-41488328D02*
X73298571Y-41488328D01*
X73298571Y-41488328D02*
X73441428Y-41416900D01*
D11*
X30212419Y-62153884D02*
X29212419Y-62153884D01*
X29212419Y-62153884D02*
X29926704Y-62487217D01*
X29926704Y-62487217D02*
X29212419Y-62820550D01*
X29212419Y-62820550D02*
X30212419Y-62820550D01*
X30212419Y-63439598D02*
X30164800Y-63344360D01*
X30164800Y-63344360D02*
X30117180Y-63296741D01*
X30117180Y-63296741D02*
X30021942Y-63249122D01*
X30021942Y-63249122D02*
X29736228Y-63249122D01*
X29736228Y-63249122D02*
X29640990Y-63296741D01*
X29640990Y-63296741D02*
X29593371Y-63344360D01*
X29593371Y-63344360D02*
X29545752Y-63439598D01*
X29545752Y-63439598D02*
X29545752Y-63582455D01*
X29545752Y-63582455D02*
X29593371Y-63677693D01*
X29593371Y-63677693D02*
X29640990Y-63725312D01*
X29640990Y-63725312D02*
X29736228Y-63772931D01*
X29736228Y-63772931D02*
X30021942Y-63772931D01*
X30021942Y-63772931D02*
X30117180Y-63725312D01*
X30117180Y-63725312D02*
X30164800Y-63677693D01*
X30164800Y-63677693D02*
X30212419Y-63582455D01*
X30212419Y-63582455D02*
X30212419Y-63439598D01*
X30212419Y-64201503D02*
X29545752Y-64201503D01*
X29640990Y-64201503D02*
X29593371Y-64249122D01*
X29593371Y-64249122D02*
X29545752Y-64344360D01*
X29545752Y-64344360D02*
X29545752Y-64487217D01*
X29545752Y-64487217D02*
X29593371Y-64582455D01*
X29593371Y-64582455D02*
X29688609Y-64630074D01*
X29688609Y-64630074D02*
X30212419Y-64630074D01*
X29688609Y-64630074D02*
X29593371Y-64677693D01*
X29593371Y-64677693D02*
X29545752Y-64772931D01*
X29545752Y-64772931D02*
X29545752Y-64915788D01*
X29545752Y-64915788D02*
X29593371Y-65011027D01*
X29593371Y-65011027D02*
X29688609Y-65058646D01*
X29688609Y-65058646D02*
X30212419Y-65058646D01*
X30164800Y-65915788D02*
X30212419Y-65820550D01*
X30212419Y-65820550D02*
X30212419Y-65630074D01*
X30212419Y-65630074D02*
X30164800Y-65534836D01*
X30164800Y-65534836D02*
X30069561Y-65487217D01*
X30069561Y-65487217D02*
X29688609Y-65487217D01*
X29688609Y-65487217D02*
X29593371Y-65534836D01*
X29593371Y-65534836D02*
X29545752Y-65630074D01*
X29545752Y-65630074D02*
X29545752Y-65820550D01*
X29545752Y-65820550D02*
X29593371Y-65915788D01*
X29593371Y-65915788D02*
X29688609Y-65963407D01*
X29688609Y-65963407D02*
X29783847Y-65963407D01*
X29783847Y-65963407D02*
X29879085Y-65487217D01*
X29545752Y-66391979D02*
X30212419Y-66391979D01*
X29640990Y-66391979D02*
X29593371Y-66439598D01*
X29593371Y-66439598D02*
X29545752Y-66534836D01*
X29545752Y-66534836D02*
X29545752Y-66677693D01*
X29545752Y-66677693D02*
X29593371Y-66772931D01*
X29593371Y-66772931D02*
X29688609Y-66820550D01*
X29688609Y-66820550D02*
X30212419Y-66820550D01*
X29545752Y-67153884D02*
X29545752Y-67534836D01*
X29212419Y-67296741D02*
X30069561Y-67296741D01*
X30069561Y-67296741D02*
X30164800Y-67344360D01*
X30164800Y-67344360D02*
X30212419Y-67439598D01*
X30212419Y-67439598D02*
X30212419Y-67534836D01*
X30212419Y-68296741D02*
X29688609Y-68296741D01*
X29688609Y-68296741D02*
X29593371Y-68249122D01*
X29593371Y-68249122D02*
X29545752Y-68153884D01*
X29545752Y-68153884D02*
X29545752Y-67963408D01*
X29545752Y-67963408D02*
X29593371Y-67868170D01*
X30164800Y-68296741D02*
X30212419Y-68201503D01*
X30212419Y-68201503D02*
X30212419Y-67963408D01*
X30212419Y-67963408D02*
X30164800Y-67868170D01*
X30164800Y-67868170D02*
X30069561Y-67820551D01*
X30069561Y-67820551D02*
X29974323Y-67820551D01*
X29974323Y-67820551D02*
X29879085Y-67868170D01*
X29879085Y-67868170D02*
X29831466Y-67963408D01*
X29831466Y-67963408D02*
X29831466Y-68201503D01*
X29831466Y-68201503D02*
X29783847Y-68296741D01*
X30212419Y-68772932D02*
X29545752Y-68772932D01*
X29736228Y-68772932D02*
X29640990Y-68820551D01*
X29640990Y-68820551D02*
X29593371Y-68868170D01*
X29593371Y-68868170D02*
X29545752Y-68963408D01*
X29545752Y-68963408D02*
X29545752Y-69058646D01*
X29545752Y-69296742D02*
X30212419Y-69534837D01*
X29545752Y-69772932D02*
X30212419Y-69534837D01*
X30212419Y-69534837D02*
X30450514Y-69439599D01*
X30450514Y-69439599D02*
X30498133Y-69391980D01*
X30498133Y-69391980D02*
X30545752Y-69296742D01*
D10*
X64512632Y-35380828D02*
X64512632Y-36380828D01*
X64869774Y-34809400D02*
X65226917Y-35880828D01*
X65226917Y-35880828D02*
X64298346Y-35880828D01*
M02*
