%TF.GenerationSoftware,KiCad,Pcbnew,9.0.2*%
%TF.CreationDate,2025-07-06T14:12:51-06:00*%
%TF.ProjectId,Switchbox3,53776974-6368-4626-9f78-332e6b696361,rev?*%
%TF.SameCoordinates,Original*%
%TF.FileFunction,Copper,L2,Bot*%
%TF.FilePolarity,Positive*%
%FSLAX46Y46*%
G04 Gerber Fmt 4.6, Leading zero omitted, Abs format (unit mm)*
G04 Created by KiCad (PCBNEW 9.0.2) date 2025-07-06 14:12:51*
%MOMM*%
%LPD*%
G01*
G04 APERTURE LIST*
G04 Aperture macros list*
%AMRoundRect*
0 Rectangle with rounded corners*
0 $1 Rounding radius*
0 $2 $3 $4 $5 $6 $7 $8 $9 X,Y pos of 4 corners*
0 Add a 4 corners polygon primitive as box body*
4,1,4,$2,$3,$4,$5,$6,$7,$8,$9,$2,$3,0*
0 Add four circle primitives for the rounded corners*
1,1,$1+$1,$2,$3*
1,1,$1+$1,$4,$5*
1,1,$1+$1,$6,$7*
1,1,$1+$1,$8,$9*
0 Add four rect primitives between the rounded corners*
20,1,$1+$1,$2,$3,$4,$5,0*
20,1,$1+$1,$4,$5,$6,$7,0*
20,1,$1+$1,$6,$7,$8,$9,0*
20,1,$1+$1,$8,$9,$2,$3,0*%
G04 Aperture macros list end*
%TA.AperFunction,ComponentPad*%
%ADD10C,3.100000*%
%TD*%
%TA.AperFunction,ComponentPad*%
%ADD11R,1.700000X1.700000*%
%TD*%
%TA.AperFunction,ComponentPad*%
%ADD12C,1.700000*%
%TD*%
%TA.AperFunction,ComponentPad*%
%ADD13RoundRect,0.250000X-1.050000X-1.050000X1.050000X-1.050000X1.050000X1.050000X-1.050000X1.050000X0*%
%TD*%
%TA.AperFunction,ComponentPad*%
%ADD14C,2.600000*%
%TD*%
%TA.AperFunction,ComponentPad*%
%ADD15C,1.600000*%
%TD*%
%TA.AperFunction,ComponentPad*%
%ADD16R,2.250000X2.250000*%
%TD*%
%TA.AperFunction,ComponentPad*%
%ADD17C,2.250000*%
%TD*%
%TA.AperFunction,ComponentPad*%
%ADD18RoundRect,0.250000X0.750000X-0.750000X0.750000X0.750000X-0.750000X0.750000X-0.750000X-0.750000X0*%
%TD*%
%TA.AperFunction,ComponentPad*%
%ADD19C,2.000000*%
%TD*%
%TA.AperFunction,ComponentPad*%
%ADD20C,1.590000*%
%TD*%
%TA.AperFunction,ComponentPad*%
%ADD21RoundRect,0.250000X-0.750000X-0.750000X0.750000X-0.750000X0.750000X0.750000X-0.750000X0.750000X0*%
%TD*%
%TA.AperFunction,ViaPad*%
%ADD22C,0.600000*%
%TD*%
%TA.AperFunction,Conductor*%
%ADD23C,0.254000*%
%TD*%
G04 APERTURE END LIST*
D10*
%TO.P,SW3,1,A*%
%TO.N,GND*%
X25025400Y-32448800D03*
%TO.P,SW3,2,B*%
%TO.N,Net-(J2-Pin_12)*%
X25025400Y-27748800D03*
%TD*%
%TO.P,SW4,1,A*%
%TO.N,Net-(J3-Pin_6)*%
X105025400Y-32448800D03*
%TO.P,SW4,2,B*%
%TO.N,GND*%
X105025400Y-27748800D03*
%TD*%
%TO.P,SW6,1,A*%
%TO.N,Net-(J3-Pin_8)*%
X65025400Y-32448800D03*
%TO.P,SW6,2,B*%
%TO.N,GND*%
X65025400Y-27748800D03*
%TD*%
%TO.P,SW1,1,A*%
%TO.N,Net-(J2-Pin_6)*%
X25000000Y-61000000D03*
%TO.P,SW1,2,B*%
%TO.N,GND*%
X25000000Y-65700000D03*
%TO.P,SW1,3,C*%
%TO.N,Net-(J2-Pin_7)*%
X25000000Y-70400000D03*
%TD*%
D11*
%TO.P,J2,1,Pin_1*%
%TO.N,unconnected-(J2-Pin_1-Pad1)*%
X87440000Y-53665000D03*
D12*
%TO.P,J2,2,Pin_2*%
%TO.N,unconnected-(J2-Pin_2-Pad2)*%
X89980000Y-53665000D03*
%TO.P,J2,3,Pin_3*%
%TO.N,unconnected-(J2-Pin_3-Pad3)*%
X92520000Y-53665000D03*
%TO.P,J2,4,Pin_4*%
%TO.N,GND*%
X95060000Y-53665000D03*
%TO.P,J2,5,Pin_5*%
%TO.N,unconnected-(J2-Pin_5-Pad5)*%
X97600000Y-53665000D03*
%TO.P,J2,6,Pin_6*%
%TO.N,Net-(J2-Pin_6)*%
X100140000Y-53665000D03*
%TO.P,J2,7,Pin_7*%
%TO.N,Net-(J2-Pin_7)*%
X102680000Y-53665000D03*
%TO.P,J2,8,Pin_8*%
%TO.N,Net-(J2-Pin_8)*%
X105220000Y-53665000D03*
%TO.P,J2,9,Pin_9*%
%TO.N,Net-(J2-Pin_9)*%
X107760000Y-53665000D03*
%TO.P,J2,10,Pin_10*%
%TO.N,unconnected-(J2-Pin_10-Pad10)*%
X110300000Y-53665000D03*
%TO.P,J2,11,Pin_11*%
%TO.N,unconnected-(J2-Pin_11-Pad11)*%
X112840000Y-53665000D03*
%TO.P,J2,12,Pin_12*%
%TO.N,Net-(J2-Pin_12)*%
X115380000Y-53665000D03*
%TO.P,J2,13,Pin_13*%
%TO.N,unconnected-(J2-Pin_13-Pad13)*%
X117920000Y-53665000D03*
%TO.P,J2,14,Pin_14*%
%TO.N,unconnected-(J2-Pin_14-Pad14)*%
X120460000Y-53665000D03*
%TO.P,J2,15,Pin_15*%
%TO.N,unconnected-(J2-Pin_15-Pad15)*%
X123000000Y-53665000D03*
%TD*%
D10*
%TO.P,SW7,1,A*%
%TO.N,Net-(J3-Pin_12)*%
X125025400Y-70448800D03*
%TO.P,SW7,2,B*%
%TO.N,GND*%
X125025400Y-65748800D03*
%TD*%
%TO.P,SW2,1,A*%
%TO.N,Net-(J2-Pin_8)*%
X45000000Y-61000000D03*
%TO.P,SW2,2,B*%
%TO.N,GND*%
X45000000Y-65700000D03*
%TO.P,SW2,3,C*%
%TO.N,Net-(J2-Pin_9)*%
X45000000Y-70400000D03*
%TD*%
D13*
%TO.P,J1,1,Pin_1*%
%TO.N,+12V*%
X36630000Y-28440000D03*
D14*
%TO.P,J1,2,Pin_2*%
%TO.N,GND*%
X41630000Y-28440000D03*
%TD*%
D15*
%TO.P,R2,1*%
%TO.N,Net-(J3-Pin_4)*%
X97890000Y-21720000D03*
%TO.P,R2,2*%
%TO.N,Net-(J3-Pin_6)*%
X97890000Y-31880000D03*
%TD*%
D10*
%TO.P,SW8,1,A*%
%TO.N,Net-(J3-Pin_11)*%
X105025400Y-70448800D03*
%TO.P,SW8,2,B*%
%TO.N,GND*%
X105025400Y-65748800D03*
%TD*%
D15*
%TO.P,C5,1*%
%TO.N,GND*%
X92580000Y-34930000D03*
%TO.P,C5,2*%
%TO.N,Net-(J3-Pin_4)*%
X95080000Y-34930000D03*
%TD*%
%TO.P,R1,1*%
%TO.N,Net-(J3-Pin_4)*%
X93330000Y-21720000D03*
%TO.P,R1,2*%
%TO.N,Net-(J3-Pin_5)*%
X93330000Y-31880000D03*
%TD*%
D11*
%TO.P,J3,1,Pin_1*%
%TO.N,unconnected-(J3-Pin_1-Pad1)*%
X87390000Y-38440000D03*
D12*
%TO.P,J3,2,Pin_2*%
%TO.N,GND*%
X89930000Y-38440000D03*
%TO.P,J3,3,Pin_3*%
%TO.N,unconnected-(J3-Pin_3-Pad3)*%
X92470000Y-38440000D03*
%TO.P,J3,4,Pin_4*%
%TO.N,Net-(J3-Pin_4)*%
X95010000Y-38440000D03*
%TO.P,J3,5,Pin_5*%
%TO.N,Net-(J3-Pin_5)*%
X97550000Y-38440000D03*
%TO.P,J3,6,Pin_6*%
%TO.N,Net-(J3-Pin_6)*%
X100090000Y-38440000D03*
%TO.P,J3,7,Pin_7*%
%TO.N,Net-(J3-Pin_7)*%
X102630000Y-38440000D03*
%TO.P,J3,8,Pin_8*%
%TO.N,Net-(J3-Pin_8)*%
X105170000Y-38440000D03*
%TO.P,J3,9,Pin_9*%
%TO.N,Net-(J3-Pin_9)*%
X107710000Y-38440000D03*
%TO.P,J3,10,Pin_10*%
%TO.N,Net-(J3-Pin_10)*%
X110250000Y-38440000D03*
%TO.P,J3,11,Pin_11*%
%TO.N,Net-(J3-Pin_11)*%
X112790000Y-38440000D03*
%TO.P,J3,12,Pin_12*%
%TO.N,Net-(J3-Pin_12)*%
X115330000Y-38440000D03*
%TO.P,J3,13,Pin_13*%
%TO.N,unconnected-(J3-Pin_13-Pad13)*%
X117870000Y-38440000D03*
%TO.P,J3,14,Pin_14*%
%TO.N,unconnected-(J3-Pin_14-Pad14)*%
X120410000Y-38440000D03*
%TO.P,J3,15,Pin_15*%
%TO.N,unconnected-(J3-Pin_15-Pad15)*%
X122950000Y-38440000D03*
%TD*%
D16*
%TO.P,D1,1,K*%
%TO.N,Net-(D1-K)*%
X32340000Y-59260000D03*
D17*
%TO.P,D1,2,A*%
%TO.N,+12V*%
X32340000Y-36660000D03*
%TD*%
D15*
%TO.P,C2,1*%
%TO.N,Net-(D1-K)*%
X49340000Y-36960000D03*
%TO.P,C2,2*%
%TO.N,GND*%
X51840000Y-36960000D03*
%TD*%
D18*
%TO.P,C4,1*%
%TO.N,Net-(J3-Pin_4)*%
X74590000Y-28160000D03*
D19*
%TO.P,C4,2*%
%TO.N,GND*%
X74590000Y-23160000D03*
%TD*%
D10*
%TO.P,SW12,1,A*%
%TO.N,Net-(J3-Pin_5)*%
X125025400Y-32448800D03*
%TO.P,SW12,2,B*%
%TO.N,GND*%
X125025400Y-27748800D03*
%TD*%
%TO.P,SW10,1,A*%
%TO.N,Net-(J3-Pin_9)*%
X65025400Y-70448800D03*
%TO.P,SW10,2,B*%
%TO.N,GND*%
X65025400Y-65748800D03*
%TD*%
D20*
%TO.P,RG1,1,Vin*%
%TO.N,Net-(D1-K)*%
X50751800Y-32255000D03*
%TO.P,RG1,2,GND*%
%TO.N,GND*%
X53291800Y-32255000D03*
%TO.P,RG1,3,Vout*%
%TO.N,Net-(J3-Pin_4)*%
X55831800Y-32255000D03*
%TD*%
D10*
%TO.P,SW5,1,A*%
%TO.N,Net-(J3-Pin_7)*%
X85025400Y-32448800D03*
%TO.P,SW5,2,B*%
%TO.N,GND*%
X85025400Y-27748800D03*
%TD*%
%TO.P,SW9,1,A*%
%TO.N,Net-(J3-Pin_10)*%
X85025400Y-70448800D03*
%TO.P,SW9,2,B*%
%TO.N,GND*%
X85025400Y-65748800D03*
%TD*%
D15*
%TO.P,C3,1*%
%TO.N,Net-(J3-Pin_4)*%
X57760000Y-36960000D03*
%TO.P,C3,2*%
%TO.N,GND*%
X55260000Y-36960000D03*
%TD*%
D21*
%TO.P,C1,1*%
%TO.N,Net-(D1-K)*%
X32532323Y-66750000D03*
D19*
%TO.P,C1,2*%
%TO.N,GND*%
X37532323Y-66750000D03*
%TD*%
D22*
%TO.N,GND*%
X88780000Y-36230000D03*
X112910000Y-46870000D03*
X98350000Y-36230000D03*
X93710000Y-36550000D03*
X88670000Y-41717000D03*
X88119066Y-30960934D03*
%TO.N,Net-(J3-Pin_9)*%
X81050000Y-54360000D03*
%TD*%
D23*
%TO.N,Net-(J2-Pin_12)*%
X115380000Y-53665000D02*
X108575000Y-46860000D01*
X30887000Y-41817000D02*
X30887000Y-33610400D01*
X108575000Y-46860000D02*
X35930000Y-46860000D01*
X35930000Y-46860000D02*
X30887000Y-41817000D01*
X30887000Y-33610400D02*
X25025400Y-27748800D01*
%TO.N,Net-(J3-Pin_9)*%
X81040000Y-54360000D02*
X81050000Y-54360000D01*
X65000000Y-70400000D02*
X81040000Y-54360000D01*
%TD*%
%TA.AperFunction,Conductor*%
%TO.N,GND*%
G36*
X92481360Y-20520185D02*
G01*
X92527115Y-20572989D01*
X92537059Y-20642147D01*
X92508034Y-20705703D01*
X92487207Y-20724818D01*
X92482782Y-20728032D01*
X92338028Y-20872786D01*
X92217715Y-21038386D01*
X92124781Y-21220776D01*
X92061522Y-21415465D01*
X92029500Y-21617648D01*
X92029500Y-21822351D01*
X92061522Y-22024534D01*
X92124781Y-22219223D01*
X92161300Y-22290894D01*
X92203558Y-22373830D01*
X92217715Y-22401613D01*
X92338028Y-22567213D01*
X92482786Y-22711971D01*
X92637749Y-22824556D01*
X92648390Y-22832287D01*
X92764607Y-22891503D01*
X92830776Y-22925218D01*
X92830778Y-22925218D01*
X92830781Y-22925220D01*
X92935137Y-22959127D01*
X93025465Y-22988477D01*
X93126557Y-23004488D01*
X93227648Y-23020500D01*
X93227649Y-23020500D01*
X93432351Y-23020500D01*
X93432352Y-23020500D01*
X93634534Y-22988477D01*
X93829219Y-22925220D01*
X94011610Y-22832287D01*
X94111242Y-22759901D01*
X94177213Y-22711971D01*
X94177215Y-22711968D01*
X94177219Y-22711966D01*
X94321966Y-22567219D01*
X94321968Y-22567215D01*
X94321971Y-22567213D01*
X94374732Y-22494590D01*
X94442287Y-22401610D01*
X94535220Y-22219219D01*
X94598477Y-22024534D01*
X94630500Y-21822352D01*
X94630500Y-21617648D01*
X94610606Y-21492046D01*
X94598477Y-21415465D01*
X94560247Y-21297807D01*
X94535220Y-21220781D01*
X94535218Y-21220778D01*
X94535218Y-21220776D01*
X94501503Y-21154607D01*
X94442287Y-21038390D01*
X94427499Y-21018036D01*
X94321971Y-20872786D01*
X94177217Y-20728032D01*
X94172793Y-20724818D01*
X94130128Y-20669488D01*
X94124149Y-20599875D01*
X94156755Y-20538080D01*
X94217594Y-20503722D01*
X94245679Y-20500500D01*
X96974321Y-20500500D01*
X97041360Y-20520185D01*
X97087115Y-20572989D01*
X97097059Y-20642147D01*
X97068034Y-20705703D01*
X97047207Y-20724818D01*
X97042782Y-20728032D01*
X96898028Y-20872786D01*
X96777715Y-21038386D01*
X96684781Y-21220776D01*
X96621522Y-21415465D01*
X96589500Y-21617648D01*
X96589500Y-21822351D01*
X96621522Y-22024534D01*
X96684781Y-22219223D01*
X96721300Y-22290894D01*
X96763558Y-22373830D01*
X96777715Y-22401613D01*
X96898028Y-22567213D01*
X97042786Y-22711971D01*
X97197749Y-22824556D01*
X97208390Y-22832287D01*
X97324607Y-22891503D01*
X97390776Y-22925218D01*
X97390778Y-22925218D01*
X97390781Y-22925220D01*
X97495137Y-22959127D01*
X97585465Y-22988477D01*
X97686557Y-23004488D01*
X97787648Y-23020500D01*
X97787649Y-23020500D01*
X97992351Y-23020500D01*
X97992352Y-23020500D01*
X98194534Y-22988477D01*
X98389219Y-22925220D01*
X98571610Y-22832287D01*
X98671242Y-22759901D01*
X98737213Y-22711971D01*
X98737215Y-22711968D01*
X98737219Y-22711966D01*
X98881966Y-22567219D01*
X98881968Y-22567215D01*
X98881971Y-22567213D01*
X98934732Y-22494590D01*
X99002287Y-22401610D01*
X99095220Y-22219219D01*
X99158477Y-22024534D01*
X99190500Y-21822352D01*
X99190500Y-21617648D01*
X99170606Y-21492046D01*
X99158477Y-21415465D01*
X99120247Y-21297807D01*
X99095220Y-21220781D01*
X99095218Y-21220778D01*
X99095218Y-21220776D01*
X99061503Y-21154607D01*
X99002287Y-21038390D01*
X98987499Y-21018036D01*
X98881971Y-20872786D01*
X98737217Y-20728032D01*
X98732793Y-20724818D01*
X98690128Y-20669488D01*
X98684149Y-20599875D01*
X98716755Y-20538080D01*
X98777594Y-20503722D01*
X98805679Y-20500500D01*
X127934108Y-20500500D01*
X127995572Y-20500500D01*
X128004418Y-20500816D01*
X128204561Y-20515130D01*
X128222063Y-20517647D01*
X128384462Y-20552974D01*
X128442230Y-20583043D01*
X129374816Y-21444284D01*
X129406870Y-21492046D01*
X129435661Y-21569235D01*
X129440646Y-21586212D01*
X129482351Y-21777931D01*
X129484869Y-21795442D01*
X129499184Y-21995580D01*
X129499500Y-22004427D01*
X129499500Y-71995572D01*
X129499184Y-72004418D01*
X129499184Y-72004419D01*
X129484869Y-72204557D01*
X129482351Y-72222068D01*
X129440646Y-72413787D01*
X129435661Y-72430763D01*
X129395924Y-72537300D01*
X129380876Y-72565716D01*
X128985271Y-73123332D01*
X128983795Y-73124846D01*
X128983405Y-73125892D01*
X128958449Y-73150849D01*
X128817789Y-73256146D01*
X128802904Y-73265711D01*
X128630701Y-73359740D01*
X128614609Y-73367090D01*
X128430763Y-73435662D01*
X128413787Y-73440646D01*
X128222068Y-73482351D01*
X128204557Y-73484869D01*
X128023779Y-73497799D01*
X128004417Y-73499184D01*
X127995572Y-73499500D01*
X43965429Y-73499500D01*
X21736578Y-73470491D01*
X21710382Y-73467657D01*
X21586212Y-73440646D01*
X21569236Y-73435662D01*
X21385390Y-73367090D01*
X21369298Y-73359740D01*
X21197095Y-73265711D01*
X21182208Y-73256144D01*
X21165583Y-73243698D01*
X21146577Y-73226088D01*
X21080743Y-73150849D01*
X20673544Y-72685479D01*
X20658033Y-72663253D01*
X20640257Y-72630697D01*
X20632908Y-72614606D01*
X20604074Y-72537300D01*
X20564334Y-72430755D01*
X20559355Y-72413797D01*
X20517647Y-72222063D01*
X20515130Y-72204556D01*
X20511756Y-72157387D01*
X20500816Y-72004418D01*
X20500500Y-71995572D01*
X20500500Y-70265602D01*
X22949500Y-70265602D01*
X22949500Y-70534397D01*
X22984582Y-70800880D01*
X22984583Y-70800885D01*
X22984584Y-70800891D01*
X23019368Y-70930708D01*
X23054152Y-71060524D01*
X23157011Y-71308850D01*
X23157019Y-71308866D01*
X23237830Y-71448832D01*
X23291413Y-71541641D01*
X23291415Y-71541644D01*
X23291416Y-71541645D01*
X23455042Y-71754888D01*
X23455048Y-71754895D01*
X23645104Y-71944951D01*
X23645110Y-71944956D01*
X23858359Y-72108587D01*
X24007968Y-72194964D01*
X24091133Y-72242980D01*
X24091149Y-72242988D01*
X24208964Y-72291788D01*
X24339474Y-72345847D01*
X24599109Y-72415416D01*
X24787319Y-72440193D01*
X24865602Y-72450500D01*
X24865603Y-72450500D01*
X25134398Y-72450500D01*
X25194905Y-72442534D01*
X25400891Y-72415416D01*
X25660526Y-72345847D01*
X25847457Y-72268417D01*
X25908850Y-72242988D01*
X25908853Y-72242986D01*
X25908859Y-72242984D01*
X26141641Y-72108587D01*
X26354890Y-71944956D01*
X26544956Y-71754890D01*
X26708587Y-71541641D01*
X26842984Y-71308859D01*
X26945847Y-71060526D01*
X27015416Y-70800891D01*
X27050500Y-70534397D01*
X27050500Y-70265603D01*
X27050500Y-70265602D01*
X42949500Y-70265602D01*
X42949500Y-70534397D01*
X42984582Y-70800880D01*
X42984583Y-70800885D01*
X42984584Y-70800891D01*
X43019368Y-70930708D01*
X43054152Y-71060524D01*
X43157011Y-71308850D01*
X43157019Y-71308866D01*
X43237830Y-71448832D01*
X43291413Y-71541641D01*
X43291415Y-71541644D01*
X43291416Y-71541645D01*
X43455042Y-71754888D01*
X43455048Y-71754895D01*
X43645104Y-71944951D01*
X43645110Y-71944956D01*
X43858359Y-72108587D01*
X44007968Y-72194964D01*
X44091133Y-72242980D01*
X44091149Y-72242988D01*
X44208964Y-72291788D01*
X44339474Y-72345847D01*
X44599109Y-72415416D01*
X44787319Y-72440193D01*
X44865602Y-72450500D01*
X44865603Y-72450500D01*
X45134398Y-72450500D01*
X45194905Y-72442534D01*
X45400891Y-72415416D01*
X45660526Y-72345847D01*
X45847457Y-72268417D01*
X45908850Y-72242988D01*
X45908853Y-72242986D01*
X45908859Y-72242984D01*
X46141641Y-72108587D01*
X46354890Y-71944956D01*
X46544956Y-71754890D01*
X46708587Y-71541641D01*
X46842984Y-71308859D01*
X46945847Y-71060526D01*
X47015416Y-70800891D01*
X47050500Y-70534397D01*
X47050500Y-70314402D01*
X62974900Y-70314402D01*
X62974900Y-70583197D01*
X63009982Y-70849680D01*
X63009983Y-70849685D01*
X63009984Y-70849691D01*
X63009985Y-70849693D01*
X63079552Y-71109324D01*
X63182411Y-71357650D01*
X63182419Y-71357666D01*
X63263230Y-71497632D01*
X63316813Y-71590441D01*
X63316815Y-71590444D01*
X63316816Y-71590445D01*
X63480442Y-71803688D01*
X63480448Y-71803695D01*
X63670504Y-71993751D01*
X63670511Y-71993757D01*
X63678647Y-72000000D01*
X63883759Y-72157387D01*
X63995790Y-72222068D01*
X64116533Y-72291780D01*
X64116549Y-72291788D01*
X64247060Y-72345847D01*
X64364874Y-72394647D01*
X64624509Y-72464216D01*
X64812719Y-72488993D01*
X64891002Y-72499300D01*
X64891003Y-72499300D01*
X65159798Y-72499300D01*
X65220305Y-72491334D01*
X65426291Y-72464216D01*
X65685926Y-72394647D01*
X65872857Y-72317217D01*
X65934250Y-72291788D01*
X65934253Y-72291786D01*
X65934259Y-72291784D01*
X66167041Y-72157387D01*
X66380290Y-71993756D01*
X66570356Y-71803690D01*
X66733987Y-71590441D01*
X66868384Y-71357659D01*
X66971247Y-71109326D01*
X67040816Y-70849691D01*
X67075900Y-70583197D01*
X67075900Y-70314403D01*
X67075900Y-70314402D01*
X82974900Y-70314402D01*
X82974900Y-70583197D01*
X83009982Y-70849680D01*
X83009983Y-70849685D01*
X83009984Y-70849691D01*
X83009985Y-70849693D01*
X83079552Y-71109324D01*
X83182411Y-71357650D01*
X83182419Y-71357666D01*
X83263230Y-71497632D01*
X83316813Y-71590441D01*
X83316815Y-71590444D01*
X83316816Y-71590445D01*
X83480442Y-71803688D01*
X83480448Y-71803695D01*
X83670504Y-71993751D01*
X83670511Y-71993757D01*
X83678647Y-72000000D01*
X83883759Y-72157387D01*
X83995790Y-72222068D01*
X84116533Y-72291780D01*
X84116549Y-72291788D01*
X84247060Y-72345847D01*
X84364874Y-72394647D01*
X84624509Y-72464216D01*
X84812719Y-72488993D01*
X84891002Y-72499300D01*
X84891003Y-72499300D01*
X85159798Y-72499300D01*
X85220305Y-72491334D01*
X85426291Y-72464216D01*
X85685926Y-72394647D01*
X85872857Y-72317217D01*
X85934250Y-72291788D01*
X85934253Y-72291786D01*
X85934259Y-72291784D01*
X86167041Y-72157387D01*
X86380290Y-71993756D01*
X86570356Y-71803690D01*
X86733987Y-71590441D01*
X86868384Y-71357659D01*
X86971247Y-71109326D01*
X87040816Y-70849691D01*
X87075900Y-70583197D01*
X87075900Y-70314403D01*
X87075900Y-70314402D01*
X102974900Y-70314402D01*
X102974900Y-70583197D01*
X103009982Y-70849680D01*
X103009983Y-70849685D01*
X103009984Y-70849691D01*
X103009985Y-70849693D01*
X103079552Y-71109324D01*
X103182411Y-71357650D01*
X103182419Y-71357666D01*
X103263230Y-71497632D01*
X103316813Y-71590441D01*
X103316815Y-71590444D01*
X103316816Y-71590445D01*
X103480442Y-71803688D01*
X103480448Y-71803695D01*
X103670504Y-71993751D01*
X103670511Y-71993757D01*
X103678647Y-72000000D01*
X103883759Y-72157387D01*
X103995790Y-72222068D01*
X104116533Y-72291780D01*
X104116549Y-72291788D01*
X104247060Y-72345847D01*
X104364874Y-72394647D01*
X104624509Y-72464216D01*
X104812719Y-72488993D01*
X104891002Y-72499300D01*
X104891003Y-72499300D01*
X105159798Y-72499300D01*
X105220305Y-72491334D01*
X105426291Y-72464216D01*
X105685926Y-72394647D01*
X105872857Y-72317217D01*
X105934250Y-72291788D01*
X105934253Y-72291786D01*
X105934259Y-72291784D01*
X106167041Y-72157387D01*
X106380290Y-71993756D01*
X106570356Y-71803690D01*
X106733987Y-71590441D01*
X106868384Y-71357659D01*
X106971247Y-71109326D01*
X107040816Y-70849691D01*
X107075900Y-70583197D01*
X107075900Y-70314403D01*
X107075900Y-70314402D01*
X122974900Y-70314402D01*
X122974900Y-70583197D01*
X123009982Y-70849680D01*
X123009983Y-70849685D01*
X123009984Y-70849691D01*
X123009985Y-70849693D01*
X123079552Y-71109324D01*
X123182411Y-71357650D01*
X123182419Y-71357666D01*
X123263230Y-71497632D01*
X123316813Y-71590441D01*
X123316815Y-71590444D01*
X123316816Y-71590445D01*
X123480442Y-71803688D01*
X123480448Y-71803695D01*
X123670504Y-71993751D01*
X123670511Y-71993757D01*
X123678647Y-72000000D01*
X123883759Y-72157387D01*
X123995790Y-72222068D01*
X124116533Y-72291780D01*
X124116549Y-72291788D01*
X124247060Y-72345847D01*
X124364874Y-72394647D01*
X124624509Y-72464216D01*
X124812719Y-72488993D01*
X124891002Y-72499300D01*
X124891003Y-72499300D01*
X125159798Y-72499300D01*
X125220305Y-72491334D01*
X125426291Y-72464216D01*
X125685926Y-72394647D01*
X125872857Y-72317217D01*
X125934250Y-72291788D01*
X125934253Y-72291786D01*
X125934259Y-72291784D01*
X126167041Y-72157387D01*
X126380290Y-71993756D01*
X126570356Y-71803690D01*
X126733987Y-71590441D01*
X126868384Y-71357659D01*
X126971247Y-71109326D01*
X127040816Y-70849691D01*
X127075900Y-70583197D01*
X127075900Y-70314403D01*
X127069475Y-70265603D01*
X127040817Y-70047919D01*
X127040816Y-70047909D01*
X126971247Y-69788274D01*
X126932532Y-69694808D01*
X126868388Y-69539949D01*
X126868380Y-69539933D01*
X126820364Y-69456768D01*
X126733987Y-69307159D01*
X126570356Y-69093910D01*
X126570351Y-69093904D01*
X126380295Y-68903848D01*
X126380288Y-68903842D01*
X126167045Y-68740216D01*
X126167044Y-68740215D01*
X126167041Y-68740213D01*
X126074232Y-68686630D01*
X125934266Y-68605819D01*
X125934250Y-68605811D01*
X125685924Y-68502952D01*
X125556108Y-68468168D01*
X125426291Y-68433384D01*
X125426285Y-68433383D01*
X125426280Y-68433382D01*
X125159798Y-68398300D01*
X125159797Y-68398300D01*
X124891003Y-68398300D01*
X124891002Y-68398300D01*
X124624519Y-68433382D01*
X124624512Y-68433383D01*
X124624509Y-68433384D01*
X124569639Y-68448086D01*
X124364875Y-68502952D01*
X124116549Y-68605811D01*
X124116533Y-68605819D01*
X123883754Y-68740216D01*
X123670511Y-68903842D01*
X123670504Y-68903848D01*
X123480448Y-69093904D01*
X123480442Y-69093911D01*
X123316816Y-69307154D01*
X123182419Y-69539933D01*
X123182411Y-69539949D01*
X123079552Y-69788275D01*
X123009985Y-70047906D01*
X123009982Y-70047919D01*
X122974900Y-70314402D01*
X107075900Y-70314402D01*
X107069475Y-70265603D01*
X107040817Y-70047919D01*
X107040816Y-70047909D01*
X106971247Y-69788274D01*
X106932532Y-69694808D01*
X106868388Y-69539949D01*
X106868380Y-69539933D01*
X106820364Y-69456768D01*
X106733987Y-69307159D01*
X106570356Y-69093910D01*
X106570351Y-69093904D01*
X106380295Y-68903848D01*
X106380288Y-68903842D01*
X106167045Y-68740216D01*
X106167044Y-68740215D01*
X106167041Y-68740213D01*
X106074232Y-68686630D01*
X105934266Y-68605819D01*
X105934250Y-68605811D01*
X105685924Y-68502952D01*
X105556108Y-68468168D01*
X105426291Y-68433384D01*
X105426285Y-68433383D01*
X105426280Y-68433382D01*
X105159798Y-68398300D01*
X105159797Y-68398300D01*
X104891003Y-68398300D01*
X104891002Y-68398300D01*
X104624519Y-68433382D01*
X104624512Y-68433383D01*
X104624509Y-68433384D01*
X104569639Y-68448086D01*
X104364875Y-68502952D01*
X104116549Y-68605811D01*
X104116533Y-68605819D01*
X103883754Y-68740216D01*
X103670511Y-68903842D01*
X103670504Y-68903848D01*
X103480448Y-69093904D01*
X103480442Y-69093911D01*
X103316816Y-69307154D01*
X103182419Y-69539933D01*
X103182411Y-69539949D01*
X103079552Y-69788275D01*
X103009985Y-70047906D01*
X103009982Y-70047919D01*
X102974900Y-70314402D01*
X87075900Y-70314402D01*
X87069475Y-70265603D01*
X87040817Y-70047919D01*
X87040816Y-70047909D01*
X86971247Y-69788274D01*
X86932532Y-69694808D01*
X86868388Y-69539949D01*
X86868380Y-69539933D01*
X86820364Y-69456768D01*
X86733987Y-69307159D01*
X86570356Y-69093910D01*
X86570351Y-69093904D01*
X86380295Y-68903848D01*
X86380288Y-68903842D01*
X86167045Y-68740216D01*
X86167044Y-68740215D01*
X86167041Y-68740213D01*
X86074232Y-68686630D01*
X85934266Y-68605819D01*
X85934250Y-68605811D01*
X85685924Y-68502952D01*
X85556108Y-68468168D01*
X85426291Y-68433384D01*
X85426285Y-68433383D01*
X85426280Y-68433382D01*
X85159798Y-68398300D01*
X85159797Y-68398300D01*
X84891003Y-68398300D01*
X84891002Y-68398300D01*
X84624519Y-68433382D01*
X84624512Y-68433383D01*
X84624509Y-68433384D01*
X84569639Y-68448086D01*
X84364875Y-68502952D01*
X84116549Y-68605811D01*
X84116533Y-68605819D01*
X83883754Y-68740216D01*
X83670511Y-68903842D01*
X83670504Y-68903848D01*
X83480448Y-69093904D01*
X83480442Y-69093911D01*
X83316816Y-69307154D01*
X83182419Y-69539933D01*
X83182411Y-69539949D01*
X83079552Y-69788275D01*
X83009985Y-70047906D01*
X83009982Y-70047919D01*
X82974900Y-70314402D01*
X67075900Y-70314402D01*
X67069475Y-70265603D01*
X67040817Y-70047919D01*
X67040816Y-70047909D01*
X66971247Y-69788274D01*
X66868384Y-69539941D01*
X66868380Y-69539935D01*
X66867754Y-69538663D01*
X66867680Y-69538240D01*
X66866831Y-69536190D01*
X66867289Y-69535999D01*
X66855755Y-69469832D01*
X66882874Y-69405440D01*
X66891273Y-69396144D01*
X70672975Y-65614442D01*
X82975400Y-65614442D01*
X82975400Y-65883157D01*
X82975401Y-65883173D01*
X83010475Y-66149591D01*
X83080027Y-66409163D01*
X83182863Y-66657430D01*
X83182867Y-66657440D01*
X83317226Y-66890158D01*
X83409819Y-67010826D01*
X84126777Y-66293867D01*
X84209811Y-66418136D01*
X84356064Y-66564389D01*
X84480330Y-66647421D01*
X83763372Y-67364379D01*
X83884042Y-67456973D01*
X84116759Y-67591332D01*
X84116769Y-67591336D01*
X84365036Y-67694172D01*
X84624608Y-67763724D01*
X84891026Y-67798798D01*
X84891043Y-67798800D01*
X85159757Y-67798800D01*
X85159773Y-67798798D01*
X85426191Y-67763724D01*
X85685763Y-67694172D01*
X85934030Y-67591336D01*
X85934040Y-67591332D01*
X86166756Y-67456973D01*
X86166773Y-67456962D01*
X86287426Y-67364380D01*
X86287426Y-67364378D01*
X85570468Y-66647421D01*
X85694736Y-66564389D01*
X85840989Y-66418136D01*
X85924021Y-66293868D01*
X86640978Y-67010826D01*
X86640980Y-67010826D01*
X86733562Y-66890173D01*
X86733573Y-66890156D01*
X86867932Y-66657440D01*
X86867936Y-66657430D01*
X86970772Y-66409163D01*
X87040324Y-66149591D01*
X87075398Y-65883173D01*
X87075400Y-65883157D01*
X87075400Y-65614442D01*
X102975400Y-65614442D01*
X102975400Y-65883157D01*
X102975401Y-65883173D01*
X103010475Y-66149591D01*
X103080027Y-66409163D01*
X103182863Y-66657430D01*
X103182867Y-66657440D01*
X103317226Y-66890158D01*
X103409819Y-67010826D01*
X104126777Y-66293867D01*
X104209811Y-66418136D01*
X104356064Y-66564389D01*
X104480330Y-66647421D01*
X103763372Y-67364379D01*
X103884042Y-67456973D01*
X104116759Y-67591332D01*
X104116769Y-67591336D01*
X104365036Y-67694172D01*
X104624608Y-67763724D01*
X104891026Y-67798798D01*
X104891043Y-67798800D01*
X105159757Y-67798800D01*
X105159773Y-67798798D01*
X105426191Y-67763724D01*
X105685763Y-67694172D01*
X105934030Y-67591336D01*
X105934040Y-67591332D01*
X106166756Y-67456973D01*
X106166773Y-67456962D01*
X106287426Y-67364380D01*
X106287426Y-67364378D01*
X105570468Y-66647421D01*
X105694736Y-66564389D01*
X105840989Y-66418136D01*
X105924021Y-66293868D01*
X106640978Y-67010826D01*
X106640980Y-67010826D01*
X106733562Y-66890173D01*
X106733573Y-66890156D01*
X106867932Y-66657440D01*
X106867936Y-66657430D01*
X106970772Y-66409163D01*
X107040324Y-66149591D01*
X107075398Y-65883173D01*
X107075400Y-65883157D01*
X107075400Y-65614442D01*
X122975400Y-65614442D01*
X122975400Y-65883157D01*
X122975401Y-65883173D01*
X123010475Y-66149591D01*
X123080027Y-66409163D01*
X123182863Y-66657430D01*
X123182867Y-66657440D01*
X123317226Y-66890158D01*
X123409819Y-67010826D01*
X124126777Y-66293867D01*
X124209811Y-66418136D01*
X124356064Y-66564389D01*
X124480330Y-66647421D01*
X123763372Y-67364379D01*
X123884042Y-67456973D01*
X124116759Y-67591332D01*
X124116769Y-67591336D01*
X124365036Y-67694172D01*
X124624608Y-67763724D01*
X124891026Y-67798798D01*
X124891043Y-67798800D01*
X125159757Y-67798800D01*
X125159773Y-67798798D01*
X125426191Y-67763724D01*
X125685763Y-67694172D01*
X125934030Y-67591336D01*
X125934040Y-67591332D01*
X126166756Y-67456973D01*
X126166773Y-67456962D01*
X126287426Y-67364380D01*
X126287426Y-67364378D01*
X125570468Y-66647421D01*
X125694736Y-66564389D01*
X125840989Y-66418136D01*
X125924021Y-66293869D01*
X126640978Y-67010826D01*
X126640980Y-67010826D01*
X126733562Y-66890173D01*
X126733573Y-66890156D01*
X126867932Y-66657440D01*
X126867936Y-66657430D01*
X126970772Y-66409163D01*
X127040324Y-66149591D01*
X127075398Y-65883173D01*
X127075400Y-65883157D01*
X127075400Y-65614442D01*
X127075398Y-65614426D01*
X127040324Y-65348008D01*
X126970772Y-65088436D01*
X126867936Y-64840169D01*
X126867932Y-64840159D01*
X126733573Y-64607442D01*
X126640979Y-64486772D01*
X125924021Y-65203730D01*
X125840989Y-65079464D01*
X125694736Y-64933211D01*
X125570467Y-64850177D01*
X126287426Y-64133219D01*
X126166758Y-64040626D01*
X125934040Y-63906267D01*
X125934030Y-63906263D01*
X125685763Y-63803427D01*
X125426191Y-63733875D01*
X125159773Y-63698801D01*
X125159757Y-63698800D01*
X124891043Y-63698800D01*
X124891026Y-63698801D01*
X124624608Y-63733875D01*
X124365036Y-63803427D01*
X124116769Y-63906263D01*
X124116759Y-63906267D01*
X123884037Y-64040629D01*
X123763372Y-64133218D01*
X123763372Y-64133219D01*
X124480331Y-64850178D01*
X124356064Y-64933211D01*
X124209811Y-65079464D01*
X124126778Y-65203731D01*
X123409819Y-64486772D01*
X123409818Y-64486772D01*
X123317229Y-64607437D01*
X123182867Y-64840159D01*
X123182863Y-64840169D01*
X123080027Y-65088436D01*
X123010475Y-65348008D01*
X122975401Y-65614426D01*
X122975400Y-65614442D01*
X107075400Y-65614442D01*
X107075398Y-65614426D01*
X107040324Y-65348008D01*
X106970772Y-65088436D01*
X106867936Y-64840169D01*
X106867932Y-64840159D01*
X106733573Y-64607442D01*
X106640979Y-64486772D01*
X105924021Y-65203730D01*
X105840989Y-65079464D01*
X105694736Y-64933211D01*
X105570467Y-64850177D01*
X106287426Y-64133219D01*
X106166758Y-64040626D01*
X105934040Y-63906267D01*
X105934030Y-63906263D01*
X105685763Y-63803427D01*
X105426191Y-63733875D01*
X105159773Y-63698801D01*
X105159757Y-63698800D01*
X104891043Y-63698800D01*
X104891026Y-63698801D01*
X104624608Y-63733875D01*
X104365036Y-63803427D01*
X104116769Y-63906263D01*
X104116759Y-63906267D01*
X103884037Y-64040629D01*
X103763372Y-64133218D01*
X103763372Y-64133219D01*
X104480331Y-64850178D01*
X104356064Y-64933211D01*
X104209811Y-65079464D01*
X104126778Y-65203731D01*
X103409819Y-64486772D01*
X103409818Y-64486772D01*
X103317229Y-64607437D01*
X103182867Y-64840159D01*
X103182863Y-64840169D01*
X103080027Y-65088436D01*
X103010475Y-65348008D01*
X102975401Y-65614426D01*
X102975400Y-65614442D01*
X87075400Y-65614442D01*
X87075398Y-65614426D01*
X87040324Y-65348008D01*
X86970772Y-65088436D01*
X86867936Y-64840169D01*
X86867932Y-64840159D01*
X86733573Y-64607442D01*
X86640979Y-64486772D01*
X85924021Y-65203730D01*
X85840989Y-65079464D01*
X85694736Y-64933211D01*
X85570467Y-64850177D01*
X86287426Y-64133219D01*
X86166758Y-64040626D01*
X85934040Y-63906267D01*
X85934030Y-63906263D01*
X85685763Y-63803427D01*
X85426191Y-63733875D01*
X85159773Y-63698801D01*
X85159757Y-63698800D01*
X84891043Y-63698800D01*
X84891026Y-63698801D01*
X84624608Y-63733875D01*
X84365036Y-63803427D01*
X84116769Y-63906263D01*
X84116759Y-63906267D01*
X83884037Y-64040629D01*
X83763372Y-64133218D01*
X83763372Y-64133219D01*
X84480331Y-64850178D01*
X84356064Y-64933211D01*
X84209811Y-65079464D01*
X84126778Y-65203731D01*
X83409819Y-64486772D01*
X83409818Y-64486772D01*
X83317229Y-64607437D01*
X83182867Y-64840159D01*
X83182863Y-64840169D01*
X83080027Y-65088436D01*
X83010475Y-65348008D01*
X82975401Y-65614426D01*
X82975400Y-65614442D01*
X70672975Y-65614442D01*
X81099845Y-55187573D01*
X81161166Y-55154090D01*
X81163303Y-55153645D01*
X81283497Y-55129737D01*
X81429179Y-55069394D01*
X81560289Y-54981789D01*
X81671789Y-54870289D01*
X81759394Y-54739179D01*
X81819737Y-54593497D01*
X81850500Y-54438842D01*
X81850500Y-54281158D01*
X81850500Y-54281155D01*
X81850499Y-54281153D01*
X81831057Y-54183412D01*
X81819737Y-54126503D01*
X81794303Y-54065099D01*
X81759397Y-53980827D01*
X81759390Y-53980814D01*
X81671789Y-53849711D01*
X81671786Y-53849707D01*
X81560292Y-53738213D01*
X81560288Y-53738210D01*
X81429185Y-53650609D01*
X81429172Y-53650602D01*
X81283501Y-53590264D01*
X81283489Y-53590261D01*
X81128845Y-53559500D01*
X81128842Y-53559500D01*
X80971158Y-53559500D01*
X80971155Y-53559500D01*
X80816510Y-53590261D01*
X80816498Y-53590264D01*
X80670827Y-53650602D01*
X80670814Y-53650609D01*
X80539711Y-53738210D01*
X80539707Y-53738213D01*
X80428213Y-53849707D01*
X80428210Y-53849711D01*
X80340609Y-53980814D01*
X80340602Y-53980827D01*
X80280264Y-54126498D01*
X80280261Y-54126508D01*
X80261326Y-54221700D01*
X80228941Y-54283611D01*
X80227390Y-54285189D01*
X65973403Y-68539176D01*
X65912080Y-68572661D01*
X65842388Y-68567677D01*
X65838283Y-68566061D01*
X65685926Y-68502953D01*
X65426291Y-68433384D01*
X65426285Y-68433383D01*
X65426280Y-68433382D01*
X65159798Y-68398300D01*
X65159797Y-68398300D01*
X64891003Y-68398300D01*
X64891002Y-68398300D01*
X64624519Y-68433382D01*
X64624512Y-68433383D01*
X64624509Y-68433384D01*
X64569639Y-68448086D01*
X64364875Y-68502952D01*
X64116549Y-68605811D01*
X64116533Y-68605819D01*
X63883754Y-68740216D01*
X63670511Y-68903842D01*
X63670504Y-68903848D01*
X63480448Y-69093904D01*
X63480442Y-69093911D01*
X63316816Y-69307154D01*
X63182419Y-69539933D01*
X63182411Y-69539949D01*
X63079552Y-69788275D01*
X63009985Y-70047906D01*
X63009982Y-70047919D01*
X62974900Y-70314402D01*
X47050500Y-70314402D01*
X47050500Y-70265603D01*
X47015416Y-69999109D01*
X46945847Y-69739474D01*
X46863198Y-69539941D01*
X46842988Y-69491149D01*
X46842980Y-69491133D01*
X46793504Y-69405440D01*
X46708587Y-69258359D01*
X46582402Y-69093911D01*
X46544957Y-69045111D01*
X46544951Y-69045104D01*
X46354895Y-68855048D01*
X46354888Y-68855042D01*
X46141645Y-68691416D01*
X46141644Y-68691415D01*
X46141641Y-68691413D01*
X46048832Y-68637830D01*
X45908866Y-68557019D01*
X45908850Y-68557011D01*
X45660524Y-68454152D01*
X45530708Y-68419368D01*
X45400891Y-68384584D01*
X45400885Y-68384583D01*
X45400880Y-68384582D01*
X45134398Y-68349500D01*
X45134397Y-68349500D01*
X44865603Y-68349500D01*
X44865602Y-68349500D01*
X44599119Y-68384582D01*
X44599112Y-68384583D01*
X44599109Y-68384584D01*
X44547920Y-68398300D01*
X44339475Y-68454152D01*
X44091149Y-68557011D01*
X44091133Y-68557019D01*
X43858354Y-68691416D01*
X43645111Y-68855042D01*
X43645104Y-68855048D01*
X43455048Y-69045104D01*
X43455042Y-69045111D01*
X43291416Y-69258354D01*
X43157019Y-69491133D01*
X43157011Y-69491149D01*
X43054152Y-69739475D01*
X42984585Y-69999106D01*
X42984582Y-69999119D01*
X42949500Y-70265602D01*
X27050500Y-70265602D01*
X27015416Y-69999109D01*
X26945847Y-69739474D01*
X26863198Y-69539941D01*
X26842988Y-69491149D01*
X26842980Y-69491133D01*
X26793504Y-69405440D01*
X26708587Y-69258359D01*
X26582402Y-69093911D01*
X26544957Y-69045111D01*
X26544951Y-69045104D01*
X26354895Y-68855048D01*
X26354888Y-68855042D01*
X26141645Y-68691416D01*
X26141644Y-68691415D01*
X26141641Y-68691413D01*
X26048832Y-68637830D01*
X25908866Y-68557019D01*
X25908850Y-68557011D01*
X25660524Y-68454152D01*
X25530708Y-68419368D01*
X25400891Y-68384584D01*
X25400885Y-68384583D01*
X25400880Y-68384582D01*
X25134398Y-68349500D01*
X25134397Y-68349500D01*
X24865603Y-68349500D01*
X24865602Y-68349500D01*
X24599119Y-68384582D01*
X24599112Y-68384583D01*
X24599109Y-68384584D01*
X24547920Y-68398300D01*
X24339475Y-68454152D01*
X24091149Y-68557011D01*
X24091133Y-68557019D01*
X23858354Y-68691416D01*
X23645111Y-68855042D01*
X23645104Y-68855048D01*
X23455048Y-69045104D01*
X23455042Y-69045111D01*
X23291416Y-69258354D01*
X23157019Y-69491133D01*
X23157011Y-69491149D01*
X23054152Y-69739475D01*
X22984585Y-69999106D01*
X22984582Y-69999119D01*
X22949500Y-70265602D01*
X20500500Y-70265602D01*
X20500500Y-65565642D01*
X22950000Y-65565642D01*
X22950000Y-65834357D01*
X22950001Y-65834373D01*
X22985075Y-66100791D01*
X23054627Y-66360363D01*
X23157463Y-66608630D01*
X23157467Y-66608640D01*
X23291826Y-66841358D01*
X23384419Y-66962026D01*
X24101377Y-66245067D01*
X24184411Y-66369336D01*
X24330664Y-66515589D01*
X24454930Y-66598621D01*
X23737972Y-67315579D01*
X23858642Y-67408173D01*
X24091359Y-67542532D01*
X24091369Y-67542536D01*
X24339636Y-67645372D01*
X24599208Y-67714924D01*
X24865626Y-67749998D01*
X24865643Y-67750000D01*
X25134357Y-67750000D01*
X25134373Y-67749998D01*
X25400791Y-67714924D01*
X25660363Y-67645372D01*
X25908630Y-67542536D01*
X25908640Y-67542532D01*
X26141356Y-67408173D01*
X26141373Y-67408162D01*
X26262026Y-67315580D01*
X26262026Y-67315578D01*
X25545068Y-66598621D01*
X25669336Y-66515589D01*
X25815589Y-66369336D01*
X25898621Y-66245069D01*
X26615578Y-66962026D01*
X26615580Y-66962026D01*
X26708162Y-66841373D01*
X26708173Y-66841356D01*
X26842532Y-66608640D01*
X26842536Y-66608630D01*
X26945372Y-66360363D01*
X27014924Y-66100791D01*
X27034779Y-65949983D01*
X31031823Y-65949983D01*
X31031823Y-67550001D01*
X31031824Y-67550018D01*
X31042323Y-67652796D01*
X31042324Y-67652799D01*
X31090704Y-67798798D01*
X31097509Y-67819334D01*
X31189611Y-67968656D01*
X31313667Y-68092712D01*
X31462989Y-68184814D01*
X31629526Y-68239999D01*
X31732314Y-68250500D01*
X33332331Y-68250499D01*
X33435120Y-68239999D01*
X33601657Y-68184814D01*
X33750979Y-68092712D01*
X33875035Y-67968656D01*
X33967137Y-67819334D01*
X34022322Y-67652797D01*
X34032823Y-67550009D01*
X34032822Y-66631947D01*
X36032323Y-66631947D01*
X36032323Y-66868052D01*
X36069257Y-67101247D01*
X36142220Y-67325802D01*
X36249410Y-67536174D01*
X36309661Y-67619104D01*
X36309663Y-67619105D01*
X37049360Y-66879408D01*
X37066398Y-66942993D01*
X37132224Y-67057007D01*
X37225316Y-67150099D01*
X37339330Y-67215925D01*
X37402913Y-67232962D01*
X36663216Y-67972658D01*
X36746151Y-68032914D01*
X36956520Y-68140102D01*
X37181075Y-68213065D01*
X37181074Y-68213065D01*
X37414271Y-68250000D01*
X37650375Y-68250000D01*
X37883570Y-68213065D01*
X38108125Y-68140102D01*
X38318486Y-68032918D01*
X38318492Y-68032914D01*
X38401427Y-67972658D01*
X38401428Y-67972658D01*
X37661731Y-67232962D01*
X37725316Y-67215925D01*
X37839330Y-67150099D01*
X37932422Y-67057007D01*
X37998248Y-66942993D01*
X38015285Y-66879408D01*
X38754981Y-67619105D01*
X38754981Y-67619104D01*
X38815237Y-67536169D01*
X38815241Y-67536163D01*
X38922425Y-67325804D01*
X38953779Y-67229308D01*
X38953779Y-67229307D01*
X38995388Y-67101248D01*
X39032323Y-66868052D01*
X39032323Y-66631947D01*
X38995388Y-66398752D01*
X38922425Y-66174197D01*
X38815237Y-65963828D01*
X38754981Y-65880894D01*
X38754981Y-65880893D01*
X38015285Y-66620590D01*
X37998248Y-66557007D01*
X37932422Y-66442993D01*
X37839330Y-66349901D01*
X37725316Y-66284075D01*
X37661732Y-66267037D01*
X38363127Y-65565642D01*
X42950000Y-65565642D01*
X42950000Y-65834357D01*
X42950001Y-65834373D01*
X42985075Y-66100791D01*
X43054627Y-66360363D01*
X43157463Y-66608630D01*
X43157467Y-66608640D01*
X43291826Y-66841358D01*
X43384419Y-66962026D01*
X44101377Y-66245067D01*
X44184411Y-66369336D01*
X44330664Y-66515589D01*
X44454930Y-66598621D01*
X43737972Y-67315579D01*
X43858642Y-67408173D01*
X44091359Y-67542532D01*
X44091369Y-67542536D01*
X44339636Y-67645372D01*
X44599208Y-67714924D01*
X44865626Y-67749998D01*
X44865643Y-67750000D01*
X45134357Y-67750000D01*
X45134373Y-67749998D01*
X45400791Y-67714924D01*
X45660363Y-67645372D01*
X45908630Y-67542536D01*
X45908640Y-67542532D01*
X46141356Y-67408173D01*
X46141373Y-67408162D01*
X46262026Y-67315581D01*
X46262026Y-67315578D01*
X45545068Y-66598621D01*
X45669336Y-66515589D01*
X45815589Y-66369336D01*
X45898621Y-66245069D01*
X46615578Y-66962026D01*
X46615580Y-66962026D01*
X46708162Y-66841373D01*
X46708173Y-66841356D01*
X46842532Y-66608640D01*
X46842536Y-66608630D01*
X46945372Y-66360363D01*
X47014924Y-66100791D01*
X47049998Y-65834373D01*
X47050000Y-65834357D01*
X47050000Y-65614442D01*
X62975400Y-65614442D01*
X62975400Y-65883157D01*
X62975401Y-65883173D01*
X63010475Y-66149591D01*
X63080027Y-66409163D01*
X63182863Y-66657430D01*
X63182867Y-66657440D01*
X63317226Y-66890158D01*
X63409819Y-67010826D01*
X64126777Y-66293867D01*
X64209811Y-66418136D01*
X64356064Y-66564389D01*
X64480330Y-66647421D01*
X63763372Y-67364379D01*
X63884042Y-67456973D01*
X64116759Y-67591332D01*
X64116769Y-67591336D01*
X64365036Y-67694172D01*
X64624608Y-67763724D01*
X64891026Y-67798798D01*
X64891043Y-67798800D01*
X65159757Y-67798800D01*
X65159773Y-67798798D01*
X65426191Y-67763724D01*
X65685763Y-67694172D01*
X65934030Y-67591336D01*
X65934040Y-67591332D01*
X66166756Y-67456973D01*
X66166773Y-67456962D01*
X66287426Y-67364380D01*
X66287426Y-67364378D01*
X65570468Y-66647421D01*
X65694736Y-66564389D01*
X65840989Y-66418136D01*
X65924021Y-66293868D01*
X66640978Y-67010826D01*
X66640980Y-67010826D01*
X66733562Y-66890173D01*
X66733573Y-66890156D01*
X66867932Y-66657440D01*
X66867936Y-66657430D01*
X66970772Y-66409163D01*
X67040324Y-66149591D01*
X67075398Y-65883173D01*
X67075400Y-65883157D01*
X67075400Y-65614442D01*
X67075398Y-65614426D01*
X67040324Y-65348008D01*
X66970772Y-65088436D01*
X66867936Y-64840169D01*
X66867932Y-64840159D01*
X66733573Y-64607442D01*
X66640979Y-64486772D01*
X65924021Y-65203730D01*
X65840989Y-65079464D01*
X65694736Y-64933211D01*
X65570467Y-64850177D01*
X66287426Y-64133219D01*
X66166758Y-64040626D01*
X65934040Y-63906267D01*
X65934030Y-63906263D01*
X65685763Y-63803427D01*
X65426191Y-63733875D01*
X65159773Y-63698801D01*
X65159757Y-63698800D01*
X64891043Y-63698800D01*
X64891026Y-63698801D01*
X64624608Y-63733875D01*
X64365036Y-63803427D01*
X64116769Y-63906263D01*
X64116759Y-63906267D01*
X63884037Y-64040629D01*
X63763372Y-64133218D01*
X63763372Y-64133219D01*
X64480331Y-64850178D01*
X64356064Y-64933211D01*
X64209811Y-65079464D01*
X64126778Y-65203731D01*
X63409819Y-64486772D01*
X63409818Y-64486772D01*
X63317229Y-64607437D01*
X63182867Y-64840159D01*
X63182863Y-64840169D01*
X63080027Y-65088436D01*
X63010475Y-65348008D01*
X62975401Y-65614426D01*
X62975400Y-65614442D01*
X47050000Y-65614442D01*
X47050000Y-65565642D01*
X47049998Y-65565626D01*
X47014924Y-65299208D01*
X46945372Y-65039636D01*
X46842536Y-64791369D01*
X46842532Y-64791359D01*
X46708173Y-64558642D01*
X46615579Y-64437972D01*
X45898621Y-65154930D01*
X45815589Y-65030664D01*
X45669336Y-64884411D01*
X45545067Y-64801377D01*
X46252955Y-64093491D01*
X46262026Y-64084419D01*
X46141358Y-63991826D01*
X45908640Y-63857467D01*
X45908630Y-63857463D01*
X45660363Y-63754627D01*
X45400791Y-63685075D01*
X45134373Y-63650001D01*
X45134357Y-63650000D01*
X44865643Y-63650000D01*
X44865626Y-63650001D01*
X44599208Y-63685075D01*
X44339636Y-63754627D01*
X44091369Y-63857463D01*
X44091359Y-63857467D01*
X43858637Y-63991829D01*
X43737972Y-64084418D01*
X43737972Y-64084419D01*
X44454931Y-64801378D01*
X44330664Y-64884411D01*
X44184411Y-65030664D01*
X44101378Y-65154931D01*
X43384419Y-64437972D01*
X43384418Y-64437972D01*
X43291829Y-64558637D01*
X43157467Y-64791359D01*
X43157463Y-64791369D01*
X43054627Y-65039636D01*
X42985075Y-65299208D01*
X42950001Y-65565626D01*
X42950000Y-65565642D01*
X38363127Y-65565642D01*
X38401428Y-65527341D01*
X38401427Y-65527338D01*
X38318497Y-65467087D01*
X38108125Y-65359897D01*
X37883570Y-65286934D01*
X37883571Y-65286934D01*
X37650375Y-65250000D01*
X37414271Y-65250000D01*
X37181075Y-65286934D01*
X36956520Y-65359897D01*
X36746153Y-65467084D01*
X36663217Y-65527340D01*
X37402914Y-66267037D01*
X37339330Y-66284075D01*
X37225316Y-66349901D01*
X37132224Y-66442993D01*
X37066398Y-66557007D01*
X37049360Y-66620591D01*
X36309663Y-65880894D01*
X36249407Y-65963830D01*
X36142220Y-66174197D01*
X36069257Y-66398752D01*
X36032323Y-66631947D01*
X34032822Y-66631947D01*
X34032822Y-65949992D01*
X34025763Y-65880893D01*
X34022322Y-65847203D01*
X34022321Y-65847200D01*
X34018071Y-65834374D01*
X33967137Y-65680666D01*
X33875035Y-65531344D01*
X33750979Y-65407288D01*
X33601657Y-65315186D01*
X33435120Y-65260001D01*
X33435118Y-65260000D01*
X33332333Y-65249500D01*
X31732321Y-65249500D01*
X31732304Y-65249501D01*
X31629526Y-65260000D01*
X31629523Y-65260001D01*
X31462991Y-65315185D01*
X31462986Y-65315187D01*
X31313665Y-65407289D01*
X31189612Y-65531342D01*
X31097510Y-65680663D01*
X31097508Y-65680668D01*
X31091102Y-65700000D01*
X31042324Y-65847203D01*
X31042324Y-65847204D01*
X31042323Y-65847204D01*
X31031823Y-65949983D01*
X27034779Y-65949983D01*
X27037324Y-65930649D01*
X27049998Y-65834374D01*
X27050000Y-65834357D01*
X27050000Y-65565642D01*
X27049998Y-65565626D01*
X27014924Y-65299208D01*
X26945372Y-65039636D01*
X26842536Y-64791369D01*
X26842532Y-64791359D01*
X26708173Y-64558642D01*
X26615579Y-64437972D01*
X25898621Y-65154930D01*
X25815589Y-65030664D01*
X25669336Y-64884411D01*
X25545067Y-64801377D01*
X26262026Y-64084419D01*
X26141358Y-63991826D01*
X25908640Y-63857467D01*
X25908630Y-63857463D01*
X25660363Y-63754627D01*
X25400791Y-63685075D01*
X25134373Y-63650001D01*
X25134357Y-63650000D01*
X24865643Y-63650000D01*
X24865626Y-63650001D01*
X24599208Y-63685075D01*
X24339636Y-63754627D01*
X24091369Y-63857463D01*
X24091359Y-63857467D01*
X23858637Y-63991829D01*
X23737972Y-64084418D01*
X23737972Y-64084419D01*
X24454931Y-64801378D01*
X24330664Y-64884411D01*
X24184411Y-65030664D01*
X24101378Y-65154931D01*
X23384419Y-64437972D01*
X23384418Y-64437972D01*
X23291829Y-64558637D01*
X23157467Y-64791359D01*
X23157463Y-64791369D01*
X23054627Y-65039636D01*
X22985075Y-65299208D01*
X22950001Y-65565626D01*
X22950000Y-65565642D01*
X20500500Y-65565642D01*
X20500500Y-60865602D01*
X22949500Y-60865602D01*
X22949500Y-61134397D01*
X22984582Y-61400880D01*
X22984583Y-61400885D01*
X22984584Y-61400891D01*
X22984585Y-61400893D01*
X23054152Y-61660524D01*
X23157011Y-61908850D01*
X23157019Y-61908866D01*
X23237830Y-62048832D01*
X23291413Y-62141641D01*
X23291415Y-62141644D01*
X23291416Y-62141645D01*
X23455042Y-62354888D01*
X23455048Y-62354895D01*
X23645104Y-62544951D01*
X23645110Y-62544956D01*
X23858359Y-62708587D01*
X24007968Y-62794964D01*
X24091133Y-62842980D01*
X24091149Y-62842988D01*
X24246008Y-62907132D01*
X24339474Y-62945847D01*
X24599109Y-63015416D01*
X24787319Y-63040193D01*
X24865602Y-63050500D01*
X24865603Y-63050500D01*
X25134398Y-63050500D01*
X25194905Y-63042534D01*
X25400891Y-63015416D01*
X25660526Y-62945847D01*
X25847457Y-62868417D01*
X25908850Y-62842988D01*
X25908853Y-62842986D01*
X25908859Y-62842984D01*
X26141641Y-62708587D01*
X26354890Y-62544956D01*
X26544956Y-62354890D01*
X26708587Y-62141641D01*
X26842984Y-61908859D01*
X26945847Y-61660526D01*
X27015416Y-61400891D01*
X27050500Y-61134397D01*
X27050500Y-60865603D01*
X27045654Y-60828797D01*
X27034300Y-60742547D01*
X27015416Y-60599109D01*
X26945847Y-60339474D01*
X26907132Y-60246008D01*
X26842988Y-60091149D01*
X26842980Y-60091133D01*
X26794964Y-60007968D01*
X26708587Y-59858359D01*
X26544956Y-59645110D01*
X26544951Y-59645104D01*
X26354895Y-59455048D01*
X26354888Y-59455042D01*
X26141645Y-59291416D01*
X26141644Y-59291415D01*
X26141641Y-59291413D01*
X26048832Y-59237830D01*
X25908866Y-59157019D01*
X25908850Y-59157011D01*
X25660524Y-59054152D01*
X25530708Y-59019368D01*
X25400891Y-58984584D01*
X25400885Y-58984583D01*
X25400880Y-58984582D01*
X25134398Y-58949500D01*
X25134397Y-58949500D01*
X24865603Y-58949500D01*
X24865602Y-58949500D01*
X24599119Y-58984582D01*
X24599112Y-58984583D01*
X24599109Y-58984584D01*
X24544239Y-58999286D01*
X24339475Y-59054152D01*
X24091149Y-59157011D01*
X24091133Y-59157019D01*
X23858354Y-59291416D01*
X23645111Y-59455042D01*
X23645104Y-59455048D01*
X23455048Y-59645104D01*
X23455042Y-59645111D01*
X23291416Y-59858354D01*
X23157019Y-60091133D01*
X23157011Y-60091149D01*
X23054152Y-60339475D01*
X22984585Y-60599106D01*
X22984582Y-60599119D01*
X22949500Y-60865602D01*
X20500500Y-60865602D01*
X20500500Y-58087135D01*
X30714500Y-58087135D01*
X30714500Y-60432870D01*
X30714501Y-60432876D01*
X30720908Y-60492483D01*
X30771202Y-60627328D01*
X30771206Y-60627335D01*
X30857452Y-60742544D01*
X30857455Y-60742547D01*
X30972664Y-60828793D01*
X30972671Y-60828797D01*
X31107517Y-60879091D01*
X31107516Y-60879091D01*
X31114444Y-60879835D01*
X31167127Y-60885500D01*
X33512872Y-60885499D01*
X33572483Y-60879091D01*
X33608649Y-60865602D01*
X42949500Y-60865602D01*
X42949500Y-61134397D01*
X42984582Y-61400880D01*
X42984583Y-61400885D01*
X42984584Y-61400891D01*
X42984585Y-61400893D01*
X43054152Y-61660524D01*
X43157011Y-61908850D01*
X43157019Y-61908866D01*
X43237830Y-62048832D01*
X43291413Y-62141641D01*
X43291415Y-62141644D01*
X43291416Y-62141645D01*
X43455042Y-62354888D01*
X43455048Y-62354895D01*
X43645104Y-62544951D01*
X43645110Y-62544956D01*
X43858359Y-62708587D01*
X44007968Y-62794964D01*
X44091133Y-62842980D01*
X44091149Y-62842988D01*
X44246008Y-62907132D01*
X44339474Y-62945847D01*
X44599109Y-63015416D01*
X44787319Y-63040193D01*
X44865602Y-63050500D01*
X44865603Y-63050500D01*
X45134398Y-63050500D01*
X45194905Y-63042534D01*
X45400891Y-63015416D01*
X45660526Y-62945847D01*
X45847457Y-62868417D01*
X45908850Y-62842988D01*
X45908853Y-62842986D01*
X45908859Y-62842984D01*
X46141641Y-62708587D01*
X46354890Y-62544956D01*
X46544956Y-62354890D01*
X46708587Y-62141641D01*
X46842984Y-61908859D01*
X46945847Y-61660526D01*
X47015416Y-61400891D01*
X47050500Y-61134397D01*
X47050500Y-60865603D01*
X47045654Y-60828797D01*
X47034300Y-60742547D01*
X47015416Y-60599109D01*
X46945847Y-60339474D01*
X46907132Y-60246008D01*
X46842988Y-60091149D01*
X46842980Y-60091133D01*
X46794964Y-60007968D01*
X46708587Y-59858359D01*
X46544956Y-59645110D01*
X46544951Y-59645104D01*
X46354895Y-59455048D01*
X46354888Y-59455042D01*
X46141645Y-59291416D01*
X46141644Y-59291415D01*
X46141641Y-59291413D01*
X46048832Y-59237830D01*
X45908866Y-59157019D01*
X45908850Y-59157011D01*
X45660524Y-59054152D01*
X45530708Y-59019368D01*
X45400891Y-58984584D01*
X45400885Y-58984583D01*
X45400880Y-58984582D01*
X45134398Y-58949500D01*
X45134397Y-58949500D01*
X44865603Y-58949500D01*
X44865602Y-58949500D01*
X44599119Y-58984582D01*
X44599112Y-58984583D01*
X44599109Y-58984584D01*
X44544239Y-58999286D01*
X44339475Y-59054152D01*
X44091149Y-59157011D01*
X44091133Y-59157019D01*
X43858354Y-59291416D01*
X43645111Y-59455042D01*
X43645104Y-59455048D01*
X43455048Y-59645104D01*
X43455042Y-59645111D01*
X43291416Y-59858354D01*
X43157019Y-60091133D01*
X43157011Y-60091149D01*
X43054152Y-60339475D01*
X42984585Y-60599106D01*
X42984582Y-60599119D01*
X42949500Y-60865602D01*
X33608649Y-60865602D01*
X33707331Y-60828796D01*
X33822546Y-60742546D01*
X33908796Y-60627331D01*
X33959091Y-60492483D01*
X33965500Y-60432873D01*
X33965499Y-58087128D01*
X33959091Y-58027517D01*
X33908796Y-57892669D01*
X33908795Y-57892668D01*
X33908793Y-57892664D01*
X33822547Y-57777455D01*
X33822544Y-57777452D01*
X33707335Y-57691206D01*
X33707328Y-57691202D01*
X33572482Y-57640908D01*
X33572483Y-57640908D01*
X33512883Y-57634501D01*
X33512881Y-57634500D01*
X33512873Y-57634500D01*
X33512864Y-57634500D01*
X31167129Y-57634500D01*
X31167123Y-57634501D01*
X31107516Y-57640908D01*
X30972671Y-57691202D01*
X30972664Y-57691206D01*
X30857455Y-57777452D01*
X30857452Y-57777455D01*
X30771206Y-57892664D01*
X30771202Y-57892671D01*
X30720908Y-58027517D01*
X30714501Y-58087116D01*
X30714501Y-58087123D01*
X30714500Y-58087135D01*
X20500500Y-58087135D01*
X20500500Y-32314442D01*
X22975400Y-32314442D01*
X22975400Y-32583157D01*
X22975401Y-32583173D01*
X23010475Y-32849591D01*
X23080027Y-33109163D01*
X23182863Y-33357430D01*
X23182867Y-33357440D01*
X23317226Y-33590158D01*
X23409819Y-33710826D01*
X24126777Y-32993867D01*
X24209811Y-33118136D01*
X24356064Y-33264389D01*
X24480330Y-33347421D01*
X23763372Y-34064379D01*
X23884042Y-34156973D01*
X24116759Y-34291332D01*
X24116769Y-34291336D01*
X24365036Y-34394172D01*
X24624608Y-34463724D01*
X24891026Y-34498798D01*
X24891043Y-34498800D01*
X25159757Y-34498800D01*
X25159773Y-34498798D01*
X25426191Y-34463724D01*
X25685763Y-34394172D01*
X25934030Y-34291336D01*
X25934040Y-34291332D01*
X26166756Y-34156973D01*
X26166773Y-34156962D01*
X26287426Y-34064380D01*
X26287426Y-34064378D01*
X25570468Y-33347421D01*
X25694736Y-33264389D01*
X25840989Y-33118136D01*
X25924021Y-32993869D01*
X26640978Y-33710826D01*
X26640980Y-33710826D01*
X26733562Y-33590173D01*
X26733573Y-33590156D01*
X26867932Y-33357440D01*
X26867936Y-33357430D01*
X26970772Y-33109163D01*
X27040324Y-32849591D01*
X27075398Y-32583173D01*
X27075400Y-32583157D01*
X27075400Y-32314442D01*
X27075398Y-32314426D01*
X27040324Y-32048008D01*
X26970772Y-31788436D01*
X26867936Y-31540169D01*
X26867932Y-31540159D01*
X26733573Y-31307442D01*
X26640979Y-31186772D01*
X25924021Y-31903730D01*
X25840989Y-31779464D01*
X25694736Y-31633211D01*
X25570467Y-31550177D01*
X26287426Y-30833219D01*
X26166758Y-30740626D01*
X25934040Y-30606267D01*
X25934030Y-30606263D01*
X25685763Y-30503427D01*
X25426191Y-30433875D01*
X25159773Y-30398801D01*
X25159757Y-30398800D01*
X24891043Y-30398800D01*
X24891026Y-30398801D01*
X24624608Y-30433875D01*
X24365036Y-30503427D01*
X24116769Y-30606263D01*
X24116759Y-30606267D01*
X23884037Y-30740629D01*
X23763372Y-30833218D01*
X23763372Y-30833219D01*
X24480331Y-31550178D01*
X24356064Y-31633211D01*
X24209811Y-31779464D01*
X24126778Y-31903731D01*
X23409819Y-31186772D01*
X23409818Y-31186772D01*
X23317229Y-31307437D01*
X23182867Y-31540159D01*
X23182863Y-31540169D01*
X23080027Y-31788436D01*
X23010475Y-32048008D01*
X22975401Y-32314426D01*
X22975400Y-32314442D01*
X20500500Y-32314442D01*
X20500500Y-27614402D01*
X22974900Y-27614402D01*
X22974900Y-27883197D01*
X23009982Y-28149680D01*
X23009983Y-28149685D01*
X23009984Y-28149691D01*
X23044768Y-28279508D01*
X23079552Y-28409324D01*
X23182411Y-28657650D01*
X23182419Y-28657666D01*
X23199511Y-28687269D01*
X23316813Y-28890441D01*
X23316815Y-28890444D01*
X23316816Y-28890445D01*
X23480442Y-29103688D01*
X23480448Y-29103695D01*
X23670504Y-29293751D01*
X23670510Y-29293756D01*
X23883759Y-29457387D01*
X24026850Y-29540001D01*
X24116533Y-29591780D01*
X24116549Y-29591788D01*
X24239697Y-29642797D01*
X24364874Y-29694647D01*
X24624509Y-29764216D01*
X24812719Y-29788993D01*
X24891002Y-29799300D01*
X24891003Y-29799300D01*
X25159798Y-29799300D01*
X25228016Y-29790319D01*
X25426291Y-29764216D01*
X25685926Y-29694647D01*
X25890741Y-29609809D01*
X25960206Y-29602341D01*
X26022686Y-29633616D01*
X26025871Y-29636690D01*
X30223181Y-33834000D01*
X30256666Y-33895323D01*
X30259500Y-33921681D01*
X30259500Y-41878807D01*
X30283612Y-42000027D01*
X30283614Y-42000035D01*
X30317062Y-42080785D01*
X30330915Y-42114229D01*
X30330920Y-42114239D01*
X30399588Y-42217007D01*
X30399591Y-42217011D01*
X35442589Y-47260008D01*
X35529992Y-47347411D01*
X35529994Y-47347413D01*
X35529997Y-47347414D01*
X35632767Y-47416083D01*
X35666215Y-47429937D01*
X35746965Y-47463386D01*
X35868192Y-47487499D01*
X35868196Y-47487500D01*
X35868197Y-47487500D01*
X35991803Y-47487500D01*
X108263719Y-47487500D01*
X108330758Y-47507185D01*
X108351400Y-47523819D01*
X112930400Y-52102819D01*
X112963885Y-52164142D01*
X112958901Y-52233834D01*
X112917029Y-52289767D01*
X112851565Y-52314184D01*
X112842719Y-52314500D01*
X112733713Y-52314500D01*
X112687137Y-52321877D01*
X112523760Y-52347753D01*
X112321585Y-52413444D01*
X112132179Y-52509951D01*
X111960213Y-52634890D01*
X111809890Y-52785213D01*
X111684949Y-52957182D01*
X111680484Y-52965946D01*
X111632509Y-53016742D01*
X111564688Y-53033536D01*
X111498553Y-53010998D01*
X111459516Y-52965946D01*
X111455050Y-52957182D01*
X111330109Y-52785213D01*
X111179786Y-52634890D01*
X111007820Y-52509951D01*
X110818414Y-52413444D01*
X110818413Y-52413443D01*
X110818412Y-52413443D01*
X110616243Y-52347754D01*
X110616241Y-52347753D01*
X110616240Y-52347753D01*
X110452863Y-52321877D01*
X110406287Y-52314500D01*
X110193713Y-52314500D01*
X110147137Y-52321877D01*
X109983760Y-52347753D01*
X109781585Y-52413444D01*
X109592179Y-52509951D01*
X109420213Y-52634890D01*
X109269890Y-52785213D01*
X109144949Y-52957182D01*
X109140484Y-52965946D01*
X109092509Y-53016742D01*
X109024688Y-53033536D01*
X108958553Y-53010998D01*
X108919516Y-52965946D01*
X108915050Y-52957182D01*
X108790109Y-52785213D01*
X108639786Y-52634890D01*
X108467820Y-52509951D01*
X108278414Y-52413444D01*
X108278413Y-52413443D01*
X108278412Y-52413443D01*
X108076243Y-52347754D01*
X108076241Y-52347753D01*
X108076240Y-52347753D01*
X107912863Y-52321877D01*
X107866287Y-52314500D01*
X107653713Y-52314500D01*
X107607137Y-52321877D01*
X107443760Y-52347753D01*
X107241585Y-52413444D01*
X107052179Y-52509951D01*
X106880213Y-52634890D01*
X106729890Y-52785213D01*
X106604949Y-52957182D01*
X106600484Y-52965946D01*
X106552509Y-53016742D01*
X106484688Y-53033536D01*
X106418553Y-53010998D01*
X106379516Y-52965946D01*
X106375050Y-52957182D01*
X106250109Y-52785213D01*
X106099786Y-52634890D01*
X105927820Y-52509951D01*
X105738414Y-52413444D01*
X105738413Y-52413443D01*
X105738412Y-52413443D01*
X105536243Y-52347754D01*
X105536241Y-52347753D01*
X105536240Y-52347753D01*
X105372863Y-52321877D01*
X105326287Y-52314500D01*
X105113713Y-52314500D01*
X105067137Y-52321877D01*
X104903760Y-52347753D01*
X104701585Y-52413444D01*
X104512179Y-52509951D01*
X104340213Y-52634890D01*
X104189890Y-52785213D01*
X104064949Y-52957182D01*
X104060484Y-52965946D01*
X104012509Y-53016742D01*
X103944688Y-53033536D01*
X103878553Y-53010998D01*
X103839516Y-52965946D01*
X103835050Y-52957182D01*
X103710109Y-52785213D01*
X103559786Y-52634890D01*
X103387820Y-52509951D01*
X103198414Y-52413444D01*
X103198413Y-52413443D01*
X103198412Y-52413443D01*
X102996243Y-52347754D01*
X102996241Y-52347753D01*
X102996240Y-52347753D01*
X102832863Y-52321877D01*
X102786287Y-52314500D01*
X102573713Y-52314500D01*
X102527137Y-52321877D01*
X102363760Y-52347753D01*
X102161585Y-52413444D01*
X101972179Y-52509951D01*
X101800213Y-52634890D01*
X101649890Y-52785213D01*
X101524949Y-52957182D01*
X101520484Y-52965946D01*
X101472509Y-53016742D01*
X101404688Y-53033536D01*
X101338553Y-53010998D01*
X101299516Y-52965946D01*
X101295050Y-52957182D01*
X101170109Y-52785213D01*
X101019786Y-52634890D01*
X100847820Y-52509951D01*
X100658414Y-52413444D01*
X100658413Y-52413443D01*
X100658412Y-52413443D01*
X100456243Y-52347754D01*
X100456241Y-52347753D01*
X100456240Y-52347753D01*
X100292863Y-52321877D01*
X100246287Y-52314500D01*
X100033713Y-52314500D01*
X99987137Y-52321877D01*
X99823760Y-52347753D01*
X99621585Y-52413444D01*
X99432179Y-52509951D01*
X99260213Y-52634890D01*
X99109890Y-52785213D01*
X98984949Y-52957182D01*
X98980484Y-52965946D01*
X98932509Y-53016742D01*
X98864688Y-53033536D01*
X98798553Y-53010998D01*
X98759516Y-52965946D01*
X98755050Y-52957182D01*
X98630109Y-52785213D01*
X98479786Y-52634890D01*
X98307820Y-52509951D01*
X98118414Y-52413444D01*
X98118413Y-52413443D01*
X98118412Y-52413443D01*
X97916243Y-52347754D01*
X97916241Y-52347753D01*
X97916240Y-52347753D01*
X97752863Y-52321877D01*
X97706287Y-52314500D01*
X97493713Y-52314500D01*
X97447137Y-52321877D01*
X97283760Y-52347753D01*
X97081585Y-52413444D01*
X96892179Y-52509951D01*
X96720213Y-52634890D01*
X96569890Y-52785213D01*
X96444949Y-52957182D01*
X96440202Y-52966499D01*
X96392227Y-53017293D01*
X96324405Y-53034087D01*
X96258271Y-53011548D01*
X96219234Y-52966495D01*
X96214626Y-52957452D01*
X96175270Y-52903282D01*
X96175269Y-52903282D01*
X95542962Y-53535590D01*
X95525925Y-53472007D01*
X95460099Y-53357993D01*
X95367007Y-53264901D01*
X95252993Y-53199075D01*
X95189409Y-53182037D01*
X95821716Y-52549728D01*
X95767550Y-52510375D01*
X95578217Y-52413904D01*
X95376129Y-52348242D01*
X95166246Y-52315000D01*
X94953754Y-52315000D01*
X94743872Y-52348242D01*
X94743869Y-52348242D01*
X94541782Y-52413904D01*
X94352439Y-52510380D01*
X94298282Y-52549727D01*
X94298282Y-52549728D01*
X94930591Y-53182037D01*
X94867007Y-53199075D01*
X94752993Y-53264901D01*
X94659901Y-53357993D01*
X94594075Y-53472007D01*
X94577037Y-53535591D01*
X93944728Y-52903282D01*
X93944727Y-52903282D01*
X93905380Y-52957440D01*
X93905376Y-52957446D01*
X93900760Y-52966505D01*
X93852781Y-53017297D01*
X93784959Y-53034087D01*
X93718826Y-53011543D01*
X93679794Y-52966493D01*
X93675051Y-52957184D01*
X93675049Y-52957181D01*
X93675048Y-52957179D01*
X93550109Y-52785213D01*
X93399786Y-52634890D01*
X93227820Y-52509951D01*
X93038414Y-52413444D01*
X93038413Y-52413443D01*
X93038412Y-52413443D01*
X92836243Y-52347754D01*
X92836241Y-52347753D01*
X92836240Y-52347753D01*
X92672863Y-52321877D01*
X92626287Y-52314500D01*
X92413713Y-52314500D01*
X92367137Y-52321877D01*
X92203760Y-52347753D01*
X92001585Y-52413444D01*
X91812179Y-52509951D01*
X91640213Y-52634890D01*
X91489890Y-52785213D01*
X91364949Y-52957182D01*
X91360484Y-52965946D01*
X91312509Y-53016742D01*
X91244688Y-53033536D01*
X91178553Y-53010998D01*
X91139516Y-52965946D01*
X91135050Y-52957182D01*
X91010109Y-52785213D01*
X90859786Y-52634890D01*
X90687820Y-52509951D01*
X90498414Y-52413444D01*
X90498413Y-52413443D01*
X90498412Y-52413443D01*
X90296243Y-52347754D01*
X90296241Y-52347753D01*
X90296240Y-52347753D01*
X90132863Y-52321877D01*
X90086287Y-52314500D01*
X89873713Y-52314500D01*
X89827137Y-52321877D01*
X89663760Y-52347753D01*
X89461585Y-52413444D01*
X89272179Y-52509951D01*
X89100215Y-52634889D01*
X88986673Y-52748431D01*
X88925350Y-52781915D01*
X88855658Y-52776931D01*
X88799725Y-52735059D01*
X88782810Y-52704082D01*
X88733797Y-52572671D01*
X88733793Y-52572664D01*
X88647547Y-52457455D01*
X88647544Y-52457452D01*
X88532335Y-52371206D01*
X88532328Y-52371202D01*
X88397482Y-52320908D01*
X88397483Y-52320908D01*
X88337883Y-52314501D01*
X88337881Y-52314500D01*
X88337873Y-52314500D01*
X88337864Y-52314500D01*
X86542129Y-52314500D01*
X86542123Y-52314501D01*
X86482516Y-52320908D01*
X86347671Y-52371202D01*
X86347664Y-52371206D01*
X86232455Y-52457452D01*
X86232452Y-52457455D01*
X86146206Y-52572664D01*
X86146202Y-52572671D01*
X86095908Y-52707517D01*
X86089501Y-52767116D01*
X86089500Y-52767135D01*
X86089500Y-54562870D01*
X86089501Y-54562876D01*
X86095908Y-54622483D01*
X86146202Y-54757328D01*
X86146206Y-54757335D01*
X86232452Y-54872544D01*
X86232455Y-54872547D01*
X86347664Y-54958793D01*
X86347671Y-54958797D01*
X86482517Y-55009091D01*
X86482516Y-55009091D01*
X86489444Y-55009835D01*
X86542127Y-55015500D01*
X88337872Y-55015499D01*
X88397483Y-55009091D01*
X88532331Y-54958796D01*
X88647546Y-54872546D01*
X88733796Y-54757331D01*
X88782810Y-54625916D01*
X88824681Y-54569984D01*
X88890145Y-54545566D01*
X88958418Y-54560417D01*
X88986673Y-54581569D01*
X89100213Y-54695109D01*
X89272179Y-54820048D01*
X89272181Y-54820049D01*
X89272184Y-54820051D01*
X89461588Y-54916557D01*
X89663757Y-54982246D01*
X89873713Y-55015500D01*
X89873714Y-55015500D01*
X90086286Y-55015500D01*
X90086287Y-55015500D01*
X90296243Y-54982246D01*
X90498412Y-54916557D01*
X90687816Y-54820051D01*
X90774138Y-54757335D01*
X90859786Y-54695109D01*
X90859788Y-54695106D01*
X90859792Y-54695104D01*
X91010104Y-54544792D01*
X91010106Y-54544788D01*
X91010109Y-54544786D01*
X91135048Y-54372820D01*
X91135047Y-54372820D01*
X91135051Y-54372816D01*
X91139514Y-54364054D01*
X91187488Y-54313259D01*
X91255308Y-54296463D01*
X91321444Y-54318999D01*
X91360486Y-54364056D01*
X91364951Y-54372820D01*
X91489890Y-54544786D01*
X91640213Y-54695109D01*
X91812179Y-54820048D01*
X91812181Y-54820049D01*
X91812184Y-54820051D01*
X92001588Y-54916557D01*
X92203757Y-54982246D01*
X92413713Y-55015500D01*
X92413714Y-55015500D01*
X92626286Y-55015500D01*
X92626287Y-55015500D01*
X92836243Y-54982246D01*
X93038412Y-54916557D01*
X93227816Y-54820051D01*
X93314138Y-54757335D01*
X93399786Y-54695109D01*
X93399788Y-54695106D01*
X93399792Y-54695104D01*
X93550104Y-54544792D01*
X93550106Y-54544788D01*
X93550109Y-54544786D01*
X93635890Y-54426717D01*
X93675051Y-54372816D01*
X93679793Y-54363508D01*
X93727763Y-54312711D01*
X93795583Y-54295911D01*
X93861719Y-54318445D01*
X93900763Y-54363500D01*
X93905373Y-54372547D01*
X93944728Y-54426716D01*
X94577037Y-53794408D01*
X94594075Y-53857993D01*
X94659901Y-53972007D01*
X94752993Y-54065099D01*
X94867007Y-54130925D01*
X94930590Y-54147962D01*
X94298282Y-54780269D01*
X94298282Y-54780270D01*
X94352449Y-54819624D01*
X94541782Y-54916095D01*
X94743870Y-54981757D01*
X94953754Y-55015000D01*
X95166246Y-55015000D01*
X95376127Y-54981757D01*
X95376130Y-54981757D01*
X95578217Y-54916095D01*
X95767554Y-54819622D01*
X95821716Y-54780270D01*
X95821717Y-54780270D01*
X95189408Y-54147962D01*
X95252993Y-54130925D01*
X95367007Y-54065099D01*
X95460099Y-53972007D01*
X95525925Y-53857993D01*
X95542962Y-53794408D01*
X96175270Y-54426717D01*
X96175270Y-54426716D01*
X96214622Y-54372555D01*
X96219232Y-54363507D01*
X96267205Y-54312709D01*
X96335025Y-54295912D01*
X96401161Y-54318447D01*
X96440204Y-54363504D01*
X96444949Y-54372817D01*
X96569890Y-54544786D01*
X96720213Y-54695109D01*
X96892179Y-54820048D01*
X96892181Y-54820049D01*
X96892184Y-54820051D01*
X97081588Y-54916557D01*
X97283757Y-54982246D01*
X97493713Y-55015500D01*
X97493714Y-55015500D01*
X97706286Y-55015500D01*
X97706287Y-55015500D01*
X97916243Y-54982246D01*
X98118412Y-54916557D01*
X98307816Y-54820051D01*
X98394138Y-54757335D01*
X98479786Y-54695109D01*
X98479788Y-54695106D01*
X98479792Y-54695104D01*
X98630104Y-54544792D01*
X98630106Y-54544788D01*
X98630109Y-54544786D01*
X98755048Y-54372820D01*
X98755047Y-54372820D01*
X98755051Y-54372816D01*
X98759514Y-54364054D01*
X98807488Y-54313259D01*
X98875308Y-54296463D01*
X98941444Y-54318999D01*
X98980486Y-54364056D01*
X98984951Y-54372820D01*
X99109890Y-54544786D01*
X99260213Y-54695109D01*
X99432179Y-54820048D01*
X99432181Y-54820049D01*
X99432184Y-54820051D01*
X99621588Y-54916557D01*
X99823757Y-54982246D01*
X100033713Y-55015500D01*
X100033714Y-55015500D01*
X100246286Y-55015500D01*
X100246287Y-55015500D01*
X100456243Y-54982246D01*
X100658412Y-54916557D01*
X100847816Y-54820051D01*
X100934138Y-54757335D01*
X101019786Y-54695109D01*
X101019788Y-54695106D01*
X101019792Y-54695104D01*
X101170104Y-54544792D01*
X101170106Y-54544788D01*
X101170109Y-54544786D01*
X101295048Y-54372820D01*
X101295047Y-54372820D01*
X101295051Y-54372816D01*
X101299514Y-54364054D01*
X101347488Y-54313259D01*
X101415308Y-54296463D01*
X101481444Y-54318999D01*
X101520486Y-54364056D01*
X101524951Y-54372820D01*
X101649890Y-54544786D01*
X101800213Y-54695109D01*
X101972179Y-54820048D01*
X101972181Y-54820049D01*
X101972184Y-54820051D01*
X102161588Y-54916557D01*
X102363757Y-54982246D01*
X102573713Y-55015500D01*
X102573714Y-55015500D01*
X102786286Y-55015500D01*
X102786287Y-55015500D01*
X102996243Y-54982246D01*
X103198412Y-54916557D01*
X103387816Y-54820051D01*
X103474138Y-54757335D01*
X103559786Y-54695109D01*
X103559788Y-54695106D01*
X103559792Y-54695104D01*
X103710104Y-54544792D01*
X103710106Y-54544788D01*
X103710109Y-54544786D01*
X103835048Y-54372820D01*
X103835047Y-54372820D01*
X103835051Y-54372816D01*
X103839514Y-54364054D01*
X103887488Y-54313259D01*
X103955308Y-54296463D01*
X104021444Y-54318999D01*
X104060486Y-54364056D01*
X104064951Y-54372820D01*
X104189890Y-54544786D01*
X104340213Y-54695109D01*
X104512179Y-54820048D01*
X104512181Y-54820049D01*
X104512184Y-54820051D01*
X104701588Y-54916557D01*
X104903757Y-54982246D01*
X105113713Y-55015500D01*
X105113714Y-55015500D01*
X105326286Y-55015500D01*
X105326287Y-55015500D01*
X105536243Y-54982246D01*
X105738412Y-54916557D01*
X105927816Y-54820051D01*
X106014138Y-54757335D01*
X106099786Y-54695109D01*
X106099788Y-54695106D01*
X106099792Y-54695104D01*
X106250104Y-54544792D01*
X106250106Y-54544788D01*
X106250109Y-54544786D01*
X106375048Y-54372820D01*
X106375047Y-54372820D01*
X106375051Y-54372816D01*
X106379514Y-54364054D01*
X106427488Y-54313259D01*
X106495308Y-54296463D01*
X106561444Y-54318999D01*
X106600486Y-54364056D01*
X106604951Y-54372820D01*
X106729890Y-54544786D01*
X106880213Y-54695109D01*
X107052179Y-54820048D01*
X107052181Y-54820049D01*
X107052184Y-54820051D01*
X107241588Y-54916557D01*
X107443757Y-54982246D01*
X107653713Y-55015500D01*
X107653714Y-55015500D01*
X107866286Y-55015500D01*
X107866287Y-55015500D01*
X108076243Y-54982246D01*
X108278412Y-54916557D01*
X108467816Y-54820051D01*
X108554138Y-54757335D01*
X108639786Y-54695109D01*
X108639788Y-54695106D01*
X108639792Y-54695104D01*
X108790104Y-54544792D01*
X108790106Y-54544788D01*
X108790109Y-54544786D01*
X108915048Y-54372820D01*
X108915047Y-54372820D01*
X108915051Y-54372816D01*
X108919514Y-54364054D01*
X108967488Y-54313259D01*
X109035308Y-54296463D01*
X109101444Y-54318999D01*
X109140486Y-54364056D01*
X109144951Y-54372820D01*
X109269890Y-54544786D01*
X109420213Y-54695109D01*
X109592179Y-54820048D01*
X109592181Y-54820049D01*
X109592184Y-54820051D01*
X109781588Y-54916557D01*
X109983757Y-54982246D01*
X110193713Y-55015500D01*
X110193714Y-55015500D01*
X110406286Y-55015500D01*
X110406287Y-55015500D01*
X110616243Y-54982246D01*
X110818412Y-54916557D01*
X111007816Y-54820051D01*
X111094138Y-54757335D01*
X111179786Y-54695109D01*
X111179788Y-54695106D01*
X111179792Y-54695104D01*
X111330104Y-54544792D01*
X111330106Y-54544788D01*
X111330109Y-54544786D01*
X111455048Y-54372820D01*
X111455047Y-54372820D01*
X111455051Y-54372816D01*
X111459514Y-54364054D01*
X111507488Y-54313259D01*
X111575308Y-54296463D01*
X111641444Y-54318999D01*
X111680486Y-54364056D01*
X111684951Y-54372820D01*
X111809890Y-54544786D01*
X111960213Y-54695109D01*
X112132179Y-54820048D01*
X112132181Y-54820049D01*
X112132184Y-54820051D01*
X112321588Y-54916557D01*
X112523757Y-54982246D01*
X112733713Y-55015500D01*
X112733714Y-55015500D01*
X112946286Y-55015500D01*
X112946287Y-55015500D01*
X113156243Y-54982246D01*
X113358412Y-54916557D01*
X113547816Y-54820051D01*
X113634138Y-54757335D01*
X113719786Y-54695109D01*
X113719788Y-54695106D01*
X113719792Y-54695104D01*
X113870104Y-54544792D01*
X113870106Y-54544788D01*
X113870109Y-54544786D01*
X113995048Y-54372820D01*
X113995047Y-54372820D01*
X113995051Y-54372816D01*
X113999514Y-54364054D01*
X114047488Y-54313259D01*
X114115308Y-54296463D01*
X114181444Y-54318999D01*
X114220486Y-54364056D01*
X114224951Y-54372820D01*
X114349890Y-54544786D01*
X114500213Y-54695109D01*
X114672179Y-54820048D01*
X114672181Y-54820049D01*
X114672184Y-54820051D01*
X114861588Y-54916557D01*
X115063757Y-54982246D01*
X115273713Y-55015500D01*
X115273714Y-55015500D01*
X115486286Y-55015500D01*
X115486287Y-55015500D01*
X115696243Y-54982246D01*
X115898412Y-54916557D01*
X116087816Y-54820051D01*
X116174138Y-54757335D01*
X116259786Y-54695109D01*
X116259788Y-54695106D01*
X116259792Y-54695104D01*
X116410104Y-54544792D01*
X116410106Y-54544788D01*
X116410109Y-54544786D01*
X116535048Y-54372820D01*
X116535047Y-54372820D01*
X116535051Y-54372816D01*
X116539514Y-54364054D01*
X116587488Y-54313259D01*
X116655308Y-54296463D01*
X116721444Y-54318999D01*
X116760486Y-54364056D01*
X116764951Y-54372820D01*
X116889890Y-54544786D01*
X117040213Y-54695109D01*
X117212179Y-54820048D01*
X117212181Y-54820049D01*
X117212184Y-54820051D01*
X117401588Y-54916557D01*
X117603757Y-54982246D01*
X117813713Y-55015500D01*
X117813714Y-55015500D01*
X118026286Y-55015500D01*
X118026287Y-55015500D01*
X118236243Y-54982246D01*
X118438412Y-54916557D01*
X118627816Y-54820051D01*
X118714138Y-54757335D01*
X118799786Y-54695109D01*
X118799788Y-54695106D01*
X118799792Y-54695104D01*
X118950104Y-54544792D01*
X118950106Y-54544788D01*
X118950109Y-54544786D01*
X119075048Y-54372820D01*
X119075047Y-54372820D01*
X119075051Y-54372816D01*
X119079514Y-54364054D01*
X119127488Y-54313259D01*
X119195308Y-54296463D01*
X119261444Y-54318999D01*
X119300486Y-54364056D01*
X119304951Y-54372820D01*
X119429890Y-54544786D01*
X119580213Y-54695109D01*
X119752179Y-54820048D01*
X119752181Y-54820049D01*
X119752184Y-54820051D01*
X119941588Y-54916557D01*
X120143757Y-54982246D01*
X120353713Y-55015500D01*
X120353714Y-55015500D01*
X120566286Y-55015500D01*
X120566287Y-55015500D01*
X120776243Y-54982246D01*
X120978412Y-54916557D01*
X121167816Y-54820051D01*
X121254138Y-54757335D01*
X121339786Y-54695109D01*
X121339788Y-54695106D01*
X121339792Y-54695104D01*
X121490104Y-54544792D01*
X121490106Y-54544788D01*
X121490109Y-54544786D01*
X121615048Y-54372820D01*
X121615047Y-54372820D01*
X121615051Y-54372816D01*
X121619514Y-54364054D01*
X121667488Y-54313259D01*
X121735308Y-54296463D01*
X121801444Y-54318999D01*
X121840486Y-54364056D01*
X121844951Y-54372820D01*
X121969890Y-54544786D01*
X122120213Y-54695109D01*
X122292179Y-54820048D01*
X122292181Y-54820049D01*
X122292184Y-54820051D01*
X122481588Y-54916557D01*
X122683757Y-54982246D01*
X122893713Y-55015500D01*
X122893714Y-55015500D01*
X123106286Y-55015500D01*
X123106287Y-55015500D01*
X123316243Y-54982246D01*
X123518412Y-54916557D01*
X123707816Y-54820051D01*
X123794138Y-54757335D01*
X123879786Y-54695109D01*
X123879788Y-54695106D01*
X123879792Y-54695104D01*
X124030104Y-54544792D01*
X124030106Y-54544788D01*
X124030109Y-54544786D01*
X124155048Y-54372820D01*
X124155047Y-54372820D01*
X124155051Y-54372816D01*
X124251557Y-54183412D01*
X124317246Y-53981243D01*
X124350500Y-53771287D01*
X124350500Y-53558713D01*
X124317246Y-53348757D01*
X124251557Y-53146588D01*
X124155051Y-52957184D01*
X124155049Y-52957181D01*
X124155048Y-52957179D01*
X124030109Y-52785213D01*
X123879786Y-52634890D01*
X123707820Y-52509951D01*
X123518414Y-52413444D01*
X123518413Y-52413443D01*
X123518412Y-52413443D01*
X123316243Y-52347754D01*
X123316241Y-52347753D01*
X123316240Y-52347753D01*
X123152863Y-52321877D01*
X123106287Y-52314500D01*
X122893713Y-52314500D01*
X122847137Y-52321877D01*
X122683760Y-52347753D01*
X122481585Y-52413444D01*
X122292179Y-52509951D01*
X122120213Y-52634890D01*
X121969890Y-52785213D01*
X121844949Y-52957182D01*
X121840484Y-52965946D01*
X121792509Y-53016742D01*
X121724688Y-53033536D01*
X121658553Y-53010998D01*
X121619516Y-52965946D01*
X121615050Y-52957182D01*
X121490109Y-52785213D01*
X121339786Y-52634890D01*
X121167820Y-52509951D01*
X120978414Y-52413444D01*
X120978413Y-52413443D01*
X120978412Y-52413443D01*
X120776243Y-52347754D01*
X120776241Y-52347753D01*
X120776240Y-52347753D01*
X120612863Y-52321877D01*
X120566287Y-52314500D01*
X120353713Y-52314500D01*
X120307137Y-52321877D01*
X120143760Y-52347753D01*
X119941585Y-52413444D01*
X119752179Y-52509951D01*
X119580213Y-52634890D01*
X119429890Y-52785213D01*
X119304949Y-52957182D01*
X119300484Y-52965946D01*
X119252509Y-53016742D01*
X119184688Y-53033536D01*
X119118553Y-53010998D01*
X119079516Y-52965946D01*
X119075050Y-52957182D01*
X118950109Y-52785213D01*
X118799786Y-52634890D01*
X118627820Y-52509951D01*
X118438414Y-52413444D01*
X118438413Y-52413443D01*
X118438412Y-52413443D01*
X118236243Y-52347754D01*
X118236241Y-52347753D01*
X118236240Y-52347753D01*
X118072863Y-52321877D01*
X118026287Y-52314500D01*
X117813713Y-52314500D01*
X117767137Y-52321877D01*
X117603760Y-52347753D01*
X117401585Y-52413444D01*
X117212179Y-52509951D01*
X117040213Y-52634890D01*
X116889890Y-52785213D01*
X116764949Y-52957182D01*
X116760484Y-52965946D01*
X116712509Y-53016742D01*
X116644688Y-53033536D01*
X116578553Y-53010998D01*
X116539516Y-52965946D01*
X116535050Y-52957182D01*
X116410109Y-52785213D01*
X116259786Y-52634890D01*
X116087820Y-52509951D01*
X115898414Y-52413444D01*
X115898413Y-52413443D01*
X115898412Y-52413443D01*
X115696243Y-52347754D01*
X115696241Y-52347753D01*
X115696240Y-52347753D01*
X115532863Y-52321877D01*
X115486287Y-52314500D01*
X115273713Y-52314500D01*
X115227137Y-52321877D01*
X115063755Y-52347754D01*
X115050293Y-52352128D01*
X114980451Y-52354122D01*
X114924296Y-52321877D01*
X108975011Y-46372591D01*
X108975007Y-46372588D01*
X108872239Y-46303920D01*
X108872226Y-46303913D01*
X108838785Y-46290062D01*
X108758035Y-46256614D01*
X108758027Y-46256612D01*
X108636807Y-46232500D01*
X108636803Y-46232500D01*
X36241281Y-46232500D01*
X36174242Y-46212815D01*
X36153600Y-46196181D01*
X31550819Y-41593400D01*
X31517334Y-41532077D01*
X31514500Y-41505719D01*
X31514500Y-38266077D01*
X31534185Y-38199038D01*
X31586989Y-38153283D01*
X31656147Y-38143339D01*
X31694798Y-38155594D01*
X31716026Y-38166411D01*
X31816444Y-38199038D01*
X31959361Y-38245474D01*
X32212070Y-38285500D01*
X32212071Y-38285500D01*
X32467929Y-38285500D01*
X32467930Y-38285500D01*
X32720639Y-38245474D01*
X32963975Y-38166410D01*
X33191947Y-38050252D01*
X33398942Y-37899862D01*
X33579862Y-37718942D01*
X33730252Y-37511947D01*
X33846410Y-37283975D01*
X33925474Y-37040639D01*
X33954458Y-36857648D01*
X48039500Y-36857648D01*
X48039500Y-37062351D01*
X48071522Y-37264534D01*
X48134781Y-37459223D01*
X48198691Y-37584653D01*
X48227585Y-37641359D01*
X48227715Y-37641613D01*
X48348028Y-37807213D01*
X48492786Y-37951971D01*
X48613226Y-38039474D01*
X48658390Y-38072287D01*
X48774607Y-38131503D01*
X48840776Y-38165218D01*
X48840778Y-38165218D01*
X48840781Y-38165220D01*
X48944862Y-38199038D01*
X49035465Y-38228477D01*
X49136557Y-38244488D01*
X49237648Y-38260500D01*
X49237649Y-38260500D01*
X49442351Y-38260500D01*
X49442352Y-38260500D01*
X49644534Y-38228477D01*
X49839219Y-38165220D01*
X50021610Y-38072287D01*
X50150906Y-37978349D01*
X50187213Y-37951971D01*
X50187215Y-37951968D01*
X50187219Y-37951966D01*
X50331966Y-37807219D01*
X50331968Y-37807215D01*
X50331971Y-37807213D01*
X50452286Y-37641611D01*
X50452415Y-37641359D01*
X50479795Y-37587621D01*
X50527769Y-37536826D01*
X50595589Y-37520030D01*
X50661725Y-37542567D01*
X50700765Y-37587621D01*
X50728141Y-37641350D01*
X50728147Y-37641359D01*
X50760523Y-37685921D01*
X50760524Y-37685922D01*
X51440000Y-37006446D01*
X51440000Y-37012661D01*
X51467259Y-37114394D01*
X51519920Y-37205606D01*
X51594394Y-37280080D01*
X51685606Y-37332741D01*
X51787339Y-37360000D01*
X51793553Y-37360000D01*
X51114076Y-38039474D01*
X51158650Y-38071859D01*
X51340968Y-38164755D01*
X51535582Y-38227990D01*
X51737683Y-38260000D01*
X51942317Y-38260000D01*
X52144417Y-38227990D01*
X52339031Y-38164755D01*
X52521349Y-38071859D01*
X52565921Y-38039474D01*
X51886447Y-37360000D01*
X51892661Y-37360000D01*
X51994394Y-37332741D01*
X52085606Y-37280080D01*
X52160080Y-37205606D01*
X52212741Y-37114394D01*
X52240000Y-37012661D01*
X52240000Y-37006447D01*
X52919474Y-37685921D01*
X52951859Y-37641349D01*
X53044755Y-37459031D01*
X53107990Y-37264417D01*
X53140000Y-37062317D01*
X53140000Y-36857682D01*
X53960000Y-36857682D01*
X53960000Y-37062317D01*
X53992009Y-37264417D01*
X54055244Y-37459031D01*
X54148141Y-37641350D01*
X54148147Y-37641359D01*
X54180523Y-37685921D01*
X54180524Y-37685922D01*
X54860000Y-37006446D01*
X54860000Y-37012661D01*
X54887259Y-37114394D01*
X54939920Y-37205606D01*
X55014394Y-37280080D01*
X55105606Y-37332741D01*
X55207339Y-37360000D01*
X55213553Y-37360000D01*
X54534076Y-38039474D01*
X54578650Y-38071859D01*
X54760968Y-38164755D01*
X54955582Y-38227990D01*
X55157683Y-38260000D01*
X55362317Y-38260000D01*
X55564417Y-38227990D01*
X55759031Y-38164755D01*
X55941349Y-38071859D01*
X55985921Y-38039474D01*
X55306447Y-37360000D01*
X55312661Y-37360000D01*
X55414394Y-37332741D01*
X55505606Y-37280080D01*
X55580080Y-37205606D01*
X55632741Y-37114394D01*
X55660000Y-37012661D01*
X55660000Y-37006447D01*
X56339474Y-37685921D01*
X56371859Y-37641349D01*
X56399233Y-37587624D01*
X56447207Y-37536827D01*
X56515028Y-37520031D01*
X56581163Y-37542567D01*
X56620203Y-37587621D01*
X56647713Y-37641611D01*
X56768028Y-37807213D01*
X56912786Y-37951971D01*
X57033226Y-38039474D01*
X57078390Y-38072287D01*
X57194607Y-38131503D01*
X57260776Y-38165218D01*
X57260778Y-38165218D01*
X57260781Y-38165220D01*
X57364862Y-38199038D01*
X57455465Y-38228477D01*
X57556557Y-38244488D01*
X57657648Y-38260500D01*
X57657649Y-38260500D01*
X57862351Y-38260500D01*
X57862352Y-38260500D01*
X58064534Y-38228477D01*
X58259219Y-38165220D01*
X58441610Y-38072287D01*
X58570906Y-37978349D01*
X58607213Y-37951971D01*
X58607215Y-37951968D01*
X58607219Y-37951966D01*
X58751966Y-37807219D01*
X58751968Y-37807215D01*
X58751971Y-37807213D01*
X58872284Y-37641614D01*
X58872286Y-37641611D01*
X58872287Y-37641610D01*
X58922972Y-37542135D01*
X86039500Y-37542135D01*
X86039500Y-39337870D01*
X86039501Y-39337876D01*
X86045908Y-39397483D01*
X86096202Y-39532328D01*
X86096206Y-39532335D01*
X86182452Y-39647544D01*
X86182455Y-39647547D01*
X86297664Y-39733793D01*
X86297671Y-39733797D01*
X86432517Y-39784091D01*
X86432516Y-39784091D01*
X86439444Y-39784835D01*
X86492127Y-39790500D01*
X88287872Y-39790499D01*
X88347483Y-39784091D01*
X88482331Y-39733796D01*
X88597546Y-39647546D01*
X88683796Y-39532331D01*
X88734091Y-39397483D01*
X88740500Y-39337873D01*
X88740499Y-39313979D01*
X88743330Y-39300963D01*
X88753940Y-39281525D01*
X88760179Y-39260275D01*
X88776803Y-39239643D01*
X88776808Y-39239636D01*
X88776811Y-39239634D01*
X88776818Y-39239626D01*
X89447037Y-38569408D01*
X89464075Y-38632993D01*
X89529901Y-38747007D01*
X89622993Y-38840099D01*
X89737007Y-38905925D01*
X89800590Y-38922962D01*
X89168282Y-39555269D01*
X89168282Y-39555270D01*
X89222449Y-39594624D01*
X89411782Y-39691095D01*
X89613870Y-39756757D01*
X89823754Y-39790000D01*
X90036246Y-39790000D01*
X90246127Y-39756757D01*
X90246130Y-39756757D01*
X90448217Y-39691095D01*
X90637554Y-39594622D01*
X90691716Y-39555270D01*
X90691717Y-39555270D01*
X90059408Y-38922962D01*
X90122993Y-38905925D01*
X90237007Y-38840099D01*
X90330099Y-38747007D01*
X90395925Y-38632993D01*
X90412962Y-38569408D01*
X91045270Y-39201717D01*
X91045270Y-39201716D01*
X91084622Y-39147555D01*
X91089232Y-39138507D01*
X91137205Y-39087709D01*
X91205025Y-39070912D01*
X91271161Y-39093447D01*
X91310204Y-39138504D01*
X91314949Y-39147817D01*
X91439890Y-39319786D01*
X91590213Y-39470109D01*
X91762179Y-39595048D01*
X91762181Y-39595049D01*
X91762184Y-39595051D01*
X91951588Y-39691557D01*
X92153757Y-39757246D01*
X92363713Y-39790500D01*
X92363714Y-39790500D01*
X92576286Y-39790500D01*
X92576287Y-39790500D01*
X92786243Y-39757246D01*
X92988412Y-39691557D01*
X93177816Y-39595051D01*
X93264138Y-39532335D01*
X93349786Y-39470109D01*
X93349788Y-39470106D01*
X93349792Y-39470104D01*
X93500104Y-39319792D01*
X93500106Y-39319788D01*
X93500109Y-39319786D01*
X93625048Y-39147820D01*
X93625050Y-39147817D01*
X93625051Y-39147816D01*
X93629514Y-39139054D01*
X93677488Y-39088259D01*
X93745308Y-39071463D01*
X93811444Y-39093999D01*
X93850486Y-39139056D01*
X93854951Y-39147820D01*
X93979890Y-39319786D01*
X94130213Y-39470109D01*
X94302179Y-39595048D01*
X94302181Y-39595049D01*
X94302184Y-39595051D01*
X94491588Y-39691557D01*
X94693757Y-39757246D01*
X94903713Y-39790500D01*
X94903714Y-39790500D01*
X95116286Y-39790500D01*
X95116287Y-39790500D01*
X95326243Y-39757246D01*
X95528412Y-39691557D01*
X95717816Y-39595051D01*
X95804138Y-39532335D01*
X95889786Y-39470109D01*
X95889788Y-39470106D01*
X95889792Y-39470104D01*
X96040104Y-39319792D01*
X96040106Y-39319788D01*
X96040109Y-39319786D01*
X96165048Y-39147820D01*
X96165050Y-39147817D01*
X96165051Y-39147816D01*
X96169514Y-39139054D01*
X96217488Y-39088259D01*
X96285308Y-39071463D01*
X96351444Y-39093999D01*
X96390486Y-39139056D01*
X96394951Y-39147820D01*
X96519890Y-39319786D01*
X96670213Y-39470109D01*
X96842179Y-39595048D01*
X96842181Y-39595049D01*
X96842184Y-39595051D01*
X97031588Y-39691557D01*
X97233757Y-39757246D01*
X97443713Y-39790500D01*
X97443714Y-39790500D01*
X97656286Y-39790500D01*
X97656287Y-39790500D01*
X97866243Y-39757246D01*
X98068412Y-39691557D01*
X98257816Y-39595051D01*
X98344138Y-39532335D01*
X98429786Y-39470109D01*
X98429788Y-39470106D01*
X98429792Y-39470104D01*
X98580104Y-39319792D01*
X98580106Y-39319788D01*
X98580109Y-39319786D01*
X98705048Y-39147820D01*
X98705050Y-39147817D01*
X98705051Y-39147816D01*
X98709514Y-39139054D01*
X98757488Y-39088259D01*
X98825308Y-39071463D01*
X98891444Y-39093999D01*
X98930486Y-39139056D01*
X98934951Y-39147820D01*
X99059890Y-39319786D01*
X99210213Y-39470109D01*
X99382179Y-39595048D01*
X99382181Y-39595049D01*
X99382184Y-39595051D01*
X99571588Y-39691557D01*
X99773757Y-39757246D01*
X99983713Y-39790500D01*
X99983714Y-39790500D01*
X100196286Y-39790500D01*
X100196287Y-39790500D01*
X100406243Y-39757246D01*
X100608412Y-39691557D01*
X100797816Y-39595051D01*
X100884138Y-39532335D01*
X100969786Y-39470109D01*
X100969788Y-39470106D01*
X100969792Y-39470104D01*
X101120104Y-39319792D01*
X101120106Y-39319788D01*
X101120109Y-39319786D01*
X101245048Y-39147820D01*
X101245050Y-39147817D01*
X101245051Y-39147816D01*
X101249514Y-39139054D01*
X101297488Y-39088259D01*
X101365308Y-39071463D01*
X101431444Y-39093999D01*
X101470486Y-39139056D01*
X101474951Y-39147820D01*
X101599890Y-39319786D01*
X101750213Y-39470109D01*
X101922179Y-39595048D01*
X101922181Y-39595049D01*
X101922184Y-39595051D01*
X102111588Y-39691557D01*
X102313757Y-39757246D01*
X102523713Y-39790500D01*
X102523714Y-39790500D01*
X102736286Y-39790500D01*
X102736287Y-39790500D01*
X102946243Y-39757246D01*
X103148412Y-39691557D01*
X103337816Y-39595051D01*
X103424138Y-39532335D01*
X103509786Y-39470109D01*
X103509788Y-39470106D01*
X103509792Y-39470104D01*
X103660104Y-39319792D01*
X103660106Y-39319788D01*
X103660109Y-39319786D01*
X103785048Y-39147820D01*
X103785050Y-39147817D01*
X103785051Y-39147816D01*
X103789514Y-39139054D01*
X103837488Y-39088259D01*
X103905308Y-39071463D01*
X103971444Y-39093999D01*
X104010486Y-39139056D01*
X104014951Y-39147820D01*
X104139890Y-39319786D01*
X104290213Y-39470109D01*
X104462179Y-39595048D01*
X104462181Y-39595049D01*
X104462184Y-39595051D01*
X104651588Y-39691557D01*
X104853757Y-39757246D01*
X105063713Y-39790500D01*
X105063714Y-39790500D01*
X105276286Y-39790500D01*
X105276287Y-39790500D01*
X105486243Y-39757246D01*
X105688412Y-39691557D01*
X105877816Y-39595051D01*
X105964138Y-39532335D01*
X106049786Y-39470109D01*
X106049788Y-39470106D01*
X106049792Y-39470104D01*
X106200104Y-39319792D01*
X106200106Y-39319788D01*
X106200109Y-39319786D01*
X106325048Y-39147820D01*
X106325050Y-39147817D01*
X106325051Y-39147816D01*
X106329514Y-39139054D01*
X106377488Y-39088259D01*
X106445308Y-39071463D01*
X106511444Y-39093999D01*
X106550486Y-39139056D01*
X106554951Y-39147820D01*
X106679890Y-39319786D01*
X106830213Y-39470109D01*
X107002179Y-39595048D01*
X107002181Y-39595049D01*
X107002184Y-39595051D01*
X107191588Y-39691557D01*
X107393757Y-39757246D01*
X107603713Y-39790500D01*
X107603714Y-39790500D01*
X107816286Y-39790500D01*
X107816287Y-39790500D01*
X108026243Y-39757246D01*
X108228412Y-39691557D01*
X108417816Y-39595051D01*
X108504138Y-39532335D01*
X108589786Y-39470109D01*
X108589788Y-39470106D01*
X108589792Y-39470104D01*
X108740104Y-39319792D01*
X108740106Y-39319788D01*
X108740109Y-39319786D01*
X108865048Y-39147820D01*
X108865050Y-39147817D01*
X108865051Y-39147816D01*
X108869514Y-39139054D01*
X108917488Y-39088259D01*
X108985308Y-39071463D01*
X109051444Y-39093999D01*
X109090486Y-39139056D01*
X109094951Y-39147820D01*
X109219890Y-39319786D01*
X109370213Y-39470109D01*
X109542179Y-39595048D01*
X109542181Y-39595049D01*
X109542184Y-39595051D01*
X109731588Y-39691557D01*
X109933757Y-39757246D01*
X110143713Y-39790500D01*
X110143714Y-39790500D01*
X110356286Y-39790500D01*
X110356287Y-39790500D01*
X110566243Y-39757246D01*
X110768412Y-39691557D01*
X110957816Y-39595051D01*
X111044138Y-39532335D01*
X111129786Y-39470109D01*
X111129788Y-39470106D01*
X111129792Y-39470104D01*
X111280104Y-39319792D01*
X111280106Y-39319788D01*
X111280109Y-39319786D01*
X111405048Y-39147820D01*
X111405050Y-39147817D01*
X111405051Y-39147816D01*
X111409514Y-39139054D01*
X111457488Y-39088259D01*
X111525308Y-39071463D01*
X111591444Y-39093999D01*
X111630486Y-39139056D01*
X111634951Y-39147820D01*
X111759890Y-39319786D01*
X111910213Y-39470109D01*
X112082179Y-39595048D01*
X112082181Y-39595049D01*
X112082184Y-39595051D01*
X112271588Y-39691557D01*
X112473757Y-39757246D01*
X112683713Y-39790500D01*
X112683714Y-39790500D01*
X112896286Y-39790500D01*
X112896287Y-39790500D01*
X113106243Y-39757246D01*
X113308412Y-39691557D01*
X113497816Y-39595051D01*
X113584138Y-39532335D01*
X113669786Y-39470109D01*
X113669788Y-39470106D01*
X113669792Y-39470104D01*
X113820104Y-39319792D01*
X113820106Y-39319788D01*
X113820109Y-39319786D01*
X113945048Y-39147820D01*
X113945050Y-39147817D01*
X113945051Y-39147816D01*
X113949514Y-39139054D01*
X113997488Y-39088259D01*
X114065308Y-39071463D01*
X114131444Y-39093999D01*
X114170486Y-39139056D01*
X114174951Y-39147820D01*
X114299890Y-39319786D01*
X114450213Y-39470109D01*
X114622179Y-39595048D01*
X114622181Y-39595049D01*
X114622184Y-39595051D01*
X114811588Y-39691557D01*
X115013757Y-39757246D01*
X115223713Y-39790500D01*
X115223714Y-39790500D01*
X115436286Y-39790500D01*
X115436287Y-39790500D01*
X115646243Y-39757246D01*
X115848412Y-39691557D01*
X116037816Y-39595051D01*
X116124138Y-39532335D01*
X116209786Y-39470109D01*
X116209788Y-39470106D01*
X116209792Y-39470104D01*
X116360104Y-39319792D01*
X116360106Y-39319788D01*
X116360109Y-39319786D01*
X116485048Y-39147820D01*
X116485050Y-39147817D01*
X116485051Y-39147816D01*
X116489514Y-39139054D01*
X116537488Y-39088259D01*
X116605308Y-39071463D01*
X116671444Y-39093999D01*
X116710486Y-39139056D01*
X116714951Y-39147820D01*
X116839890Y-39319786D01*
X116990213Y-39470109D01*
X117162179Y-39595048D01*
X117162181Y-39595049D01*
X117162184Y-39595051D01*
X117351588Y-39691557D01*
X117553757Y-39757246D01*
X117763713Y-39790500D01*
X117763714Y-39790500D01*
X117976286Y-39790500D01*
X117976287Y-39790500D01*
X118186243Y-39757246D01*
X118388412Y-39691557D01*
X118577816Y-39595051D01*
X118664138Y-39532335D01*
X118749786Y-39470109D01*
X118749788Y-39470106D01*
X118749792Y-39470104D01*
X118900104Y-39319792D01*
X118900106Y-39319788D01*
X118900109Y-39319786D01*
X119025048Y-39147820D01*
X119025050Y-39147817D01*
X119025051Y-39147816D01*
X119029514Y-39139054D01*
X119077488Y-39088259D01*
X119145308Y-39071463D01*
X119211444Y-39093999D01*
X119250486Y-39139056D01*
X119254951Y-39147820D01*
X119379890Y-39319786D01*
X119530213Y-39470109D01*
X119702179Y-39595048D01*
X119702181Y-39595049D01*
X119702184Y-39595051D01*
X119891588Y-39691557D01*
X120093757Y-39757246D01*
X120303713Y-39790500D01*
X120303714Y-39790500D01*
X120516286Y-39790500D01*
X120516287Y-39790500D01*
X120726243Y-39757246D01*
X120928412Y-39691557D01*
X121117816Y-39595051D01*
X121204138Y-39532335D01*
X121289786Y-39470109D01*
X121289788Y-39470106D01*
X121289792Y-39470104D01*
X121440104Y-39319792D01*
X121440106Y-39319788D01*
X121440109Y-39319786D01*
X121565048Y-39147820D01*
X121565050Y-39147817D01*
X121565051Y-39147816D01*
X121569514Y-39139054D01*
X121617488Y-39088259D01*
X121685308Y-39071463D01*
X121751444Y-39093999D01*
X121790486Y-39139056D01*
X121794951Y-39147820D01*
X121919890Y-39319786D01*
X122070213Y-39470109D01*
X122242179Y-39595048D01*
X122242181Y-39595049D01*
X122242184Y-39595051D01*
X122431588Y-39691557D01*
X122633757Y-39757246D01*
X122843713Y-39790500D01*
X122843714Y-39790500D01*
X123056286Y-39790500D01*
X123056287Y-39790500D01*
X123266243Y-39757246D01*
X123468412Y-39691557D01*
X123657816Y-39595051D01*
X123744138Y-39532335D01*
X123829786Y-39470109D01*
X123829788Y-39470106D01*
X123829792Y-39470104D01*
X123980104Y-39319792D01*
X123980106Y-39319788D01*
X123980109Y-39319786D01*
X124105048Y-39147820D01*
X124105050Y-39147817D01*
X124105051Y-39147816D01*
X124201557Y-38958412D01*
X124267246Y-38756243D01*
X124300500Y-38546287D01*
X124300500Y-38333713D01*
X124267246Y-38123757D01*
X124201557Y-37921588D01*
X124105051Y-37732184D01*
X124105049Y-37732181D01*
X124105048Y-37732179D01*
X123980109Y-37560213D01*
X123829786Y-37409890D01*
X123657820Y-37284951D01*
X123468414Y-37188444D01*
X123468413Y-37188443D01*
X123468412Y-37188443D01*
X123266243Y-37122754D01*
X123266241Y-37122753D01*
X123266240Y-37122753D01*
X123104957Y-37097208D01*
X123056287Y-37089500D01*
X122843713Y-37089500D01*
X122795042Y-37097208D01*
X122633760Y-37122753D01*
X122431585Y-37188444D01*
X122242179Y-37284951D01*
X122070213Y-37409890D01*
X121919890Y-37560213D01*
X121794949Y-37732182D01*
X121790484Y-37740946D01*
X121742509Y-37791742D01*
X121674688Y-37808536D01*
X121608553Y-37785998D01*
X121569516Y-37740946D01*
X121565050Y-37732182D01*
X121440109Y-37560213D01*
X121289786Y-37409890D01*
X121117820Y-37284951D01*
X120928414Y-37188444D01*
X120928413Y-37188443D01*
X120928412Y-37188443D01*
X120726243Y-37122754D01*
X120726241Y-37122753D01*
X120726240Y-37122753D01*
X120564957Y-37097208D01*
X120516287Y-37089500D01*
X120303713Y-37089500D01*
X120255042Y-37097208D01*
X120093760Y-37122753D01*
X119891585Y-37188444D01*
X119702179Y-37284951D01*
X119530213Y-37409890D01*
X119379890Y-37560213D01*
X119254949Y-37732182D01*
X119250484Y-37740946D01*
X119202509Y-37791742D01*
X119134688Y-37808536D01*
X119068553Y-37785998D01*
X119029516Y-37740946D01*
X119025050Y-37732182D01*
X118900109Y-37560213D01*
X118749786Y-37409890D01*
X118577820Y-37284951D01*
X118388414Y-37188444D01*
X118388413Y-37188443D01*
X118388412Y-37188443D01*
X118186243Y-37122754D01*
X118186241Y-37122753D01*
X118186240Y-37122753D01*
X118024957Y-37097208D01*
X117976287Y-37089500D01*
X117763713Y-37089500D01*
X117715042Y-37097208D01*
X117553760Y-37122753D01*
X117351585Y-37188444D01*
X117162179Y-37284951D01*
X116990213Y-37409890D01*
X116839890Y-37560213D01*
X116714949Y-37732182D01*
X116710484Y-37740946D01*
X116662509Y-37791742D01*
X116594688Y-37808536D01*
X116528553Y-37785998D01*
X116489516Y-37740946D01*
X116485050Y-37732182D01*
X116360109Y-37560213D01*
X116209786Y-37409890D01*
X116037820Y-37284951D01*
X115848414Y-37188444D01*
X115848413Y-37188443D01*
X115848412Y-37188443D01*
X115646243Y-37122754D01*
X115646241Y-37122753D01*
X115646240Y-37122753D01*
X115484957Y-37097208D01*
X115436287Y-37089500D01*
X115223713Y-37089500D01*
X115175042Y-37097208D01*
X115013760Y-37122753D01*
X114811585Y-37188444D01*
X114622179Y-37284951D01*
X114450213Y-37409890D01*
X114299890Y-37560213D01*
X114174949Y-37732182D01*
X114170484Y-37740946D01*
X114122509Y-37791742D01*
X114054688Y-37808536D01*
X113988553Y-37785998D01*
X113949516Y-37740946D01*
X113945050Y-37732182D01*
X113820109Y-37560213D01*
X113669786Y-37409890D01*
X113497820Y-37284951D01*
X113308414Y-37188444D01*
X113308413Y-37188443D01*
X113308412Y-37188443D01*
X113106243Y-37122754D01*
X113106241Y-37122753D01*
X113106240Y-37122753D01*
X112944957Y-37097208D01*
X112896287Y-37089500D01*
X112683713Y-37089500D01*
X112635042Y-37097208D01*
X112473760Y-37122753D01*
X112271585Y-37188444D01*
X112082179Y-37284951D01*
X111910213Y-37409890D01*
X111759890Y-37560213D01*
X111634949Y-37732182D01*
X111630484Y-37740946D01*
X111582509Y-37791742D01*
X111514688Y-37808536D01*
X111448553Y-37785998D01*
X111409516Y-37740946D01*
X111405050Y-37732182D01*
X111280109Y-37560213D01*
X111129786Y-37409890D01*
X110957820Y-37284951D01*
X110768414Y-37188444D01*
X110768413Y-37188443D01*
X110768412Y-37188443D01*
X110566243Y-37122754D01*
X110566241Y-37122753D01*
X110566240Y-37122753D01*
X110404957Y-37097208D01*
X110356287Y-37089500D01*
X110143713Y-37089500D01*
X110095042Y-37097208D01*
X109933760Y-37122753D01*
X109731585Y-37188444D01*
X109542179Y-37284951D01*
X109370213Y-37409890D01*
X109219890Y-37560213D01*
X109094949Y-37732182D01*
X109090484Y-37740946D01*
X109042509Y-37791742D01*
X108974688Y-37808536D01*
X108908553Y-37785998D01*
X108869516Y-37740946D01*
X108865050Y-37732182D01*
X108740109Y-37560213D01*
X108589786Y-37409890D01*
X108417820Y-37284951D01*
X108228414Y-37188444D01*
X108228413Y-37188443D01*
X108228412Y-37188443D01*
X108026243Y-37122754D01*
X108026241Y-37122753D01*
X108026240Y-37122753D01*
X107864957Y-37097208D01*
X107816287Y-37089500D01*
X107603713Y-37089500D01*
X107555042Y-37097208D01*
X107393760Y-37122753D01*
X107191585Y-37188444D01*
X107002179Y-37284951D01*
X106830213Y-37409890D01*
X106679890Y-37560213D01*
X106554949Y-37732182D01*
X106550484Y-37740946D01*
X106502509Y-37791742D01*
X106434688Y-37808536D01*
X106368553Y-37785998D01*
X106329516Y-37740946D01*
X106325050Y-37732182D01*
X106200109Y-37560213D01*
X106049786Y-37409890D01*
X105877820Y-37284951D01*
X105688414Y-37188444D01*
X105688413Y-37188443D01*
X105688412Y-37188443D01*
X105486243Y-37122754D01*
X105486241Y-37122753D01*
X105486240Y-37122753D01*
X105324957Y-37097208D01*
X105276287Y-37089500D01*
X105063713Y-37089500D01*
X105015042Y-37097208D01*
X104853760Y-37122753D01*
X104651585Y-37188444D01*
X104462179Y-37284951D01*
X104290213Y-37409890D01*
X104139890Y-37560213D01*
X104014949Y-37732182D01*
X104010484Y-37740946D01*
X103962509Y-37791742D01*
X103894688Y-37808536D01*
X103828553Y-37785998D01*
X103789516Y-37740946D01*
X103785050Y-37732182D01*
X103660109Y-37560213D01*
X103509786Y-37409890D01*
X103337820Y-37284951D01*
X103148414Y-37188444D01*
X103148413Y-37188443D01*
X103148412Y-37188443D01*
X102946243Y-37122754D01*
X102946241Y-37122753D01*
X102946240Y-37122753D01*
X102784957Y-37097208D01*
X102736287Y-37089500D01*
X102523713Y-37089500D01*
X102475042Y-37097208D01*
X102313760Y-37122753D01*
X102111585Y-37188444D01*
X101922179Y-37284951D01*
X101750213Y-37409890D01*
X101599890Y-37560213D01*
X101474949Y-37732182D01*
X101470484Y-37740946D01*
X101422509Y-37791742D01*
X101354688Y-37808536D01*
X101288553Y-37785998D01*
X101249516Y-37740946D01*
X101245050Y-37732182D01*
X101120109Y-37560213D01*
X100969786Y-37409890D01*
X100797820Y-37284951D01*
X100608414Y-37188444D01*
X100608413Y-37188443D01*
X100608412Y-37188443D01*
X100406243Y-37122754D01*
X100406241Y-37122753D01*
X100406240Y-37122753D01*
X100244957Y-37097208D01*
X100196287Y-37089500D01*
X99983713Y-37089500D01*
X99935042Y-37097208D01*
X99773760Y-37122753D01*
X99571585Y-37188444D01*
X99382179Y-37284951D01*
X99210213Y-37409890D01*
X99059890Y-37560213D01*
X98934949Y-37732182D01*
X98930484Y-37740946D01*
X98882509Y-37791742D01*
X98814688Y-37808536D01*
X98748553Y-37785998D01*
X98709516Y-37740946D01*
X98705050Y-37732182D01*
X98580109Y-37560213D01*
X98429786Y-37409890D01*
X98257820Y-37284951D01*
X98068414Y-37188444D01*
X98068413Y-37188443D01*
X98068412Y-37188443D01*
X97866243Y-37122754D01*
X97866241Y-37122753D01*
X97866240Y-37122753D01*
X97704957Y-37097208D01*
X97656287Y-37089500D01*
X97443713Y-37089500D01*
X97395042Y-37097208D01*
X97233760Y-37122753D01*
X97031585Y-37188444D01*
X96842179Y-37284951D01*
X96670213Y-37409890D01*
X96519890Y-37560213D01*
X96394949Y-37732182D01*
X96390484Y-37740946D01*
X96342509Y-37791742D01*
X96274688Y-37808536D01*
X96208553Y-37785998D01*
X96169516Y-37740946D01*
X96165050Y-37732182D01*
X96040109Y-37560213D01*
X95889786Y-37409890D01*
X95717820Y-37284951D01*
X95528414Y-37188444D01*
X95528413Y-37188443D01*
X95528412Y-37188443D01*
X95326243Y-37122754D01*
X95326241Y-37122753D01*
X95326240Y-37122753D01*
X95164957Y-37097208D01*
X95116287Y-37089500D01*
X94903713Y-37089500D01*
X94855042Y-37097208D01*
X94693760Y-37122753D01*
X94491585Y-37188444D01*
X94302179Y-37284951D01*
X94130213Y-37409890D01*
X93979890Y-37560213D01*
X93854949Y-37732182D01*
X93850484Y-37740946D01*
X93802509Y-37791742D01*
X93734688Y-37808536D01*
X93668553Y-37785998D01*
X93629516Y-37740946D01*
X93625050Y-37732182D01*
X93500109Y-37560213D01*
X93349786Y-37409890D01*
X93177820Y-37284951D01*
X92988414Y-37188444D01*
X92988413Y-37188443D01*
X92988412Y-37188443D01*
X92786243Y-37122754D01*
X92786241Y-37122753D01*
X92786240Y-37122753D01*
X92624957Y-37097208D01*
X92576287Y-37089500D01*
X92363713Y-37089500D01*
X92315042Y-37097208D01*
X92153760Y-37122753D01*
X91951585Y-37188444D01*
X91762179Y-37284951D01*
X91590213Y-37409890D01*
X91439890Y-37560213D01*
X91314949Y-37732182D01*
X91310202Y-37741499D01*
X91262227Y-37792293D01*
X91194405Y-37809087D01*
X91128271Y-37786548D01*
X91089234Y-37741495D01*
X91084626Y-37732452D01*
X91045270Y-37678282D01*
X91045269Y-37678282D01*
X90412962Y-38310590D01*
X90395925Y-38247007D01*
X90330099Y-38132993D01*
X90237007Y-38039901D01*
X90122993Y-37974075D01*
X90059409Y-37957037D01*
X90691716Y-37324728D01*
X90637550Y-37285375D01*
X90448217Y-37188904D01*
X90246129Y-37123242D01*
X90036246Y-37090000D01*
X89823754Y-37090000D01*
X89613872Y-37123242D01*
X89613869Y-37123242D01*
X89411782Y-37188904D01*
X89222439Y-37285380D01*
X89168282Y-37324727D01*
X89168282Y-37324728D01*
X89800591Y-37957037D01*
X89737007Y-37974075D01*
X89622993Y-38039901D01*
X89529901Y-38132993D01*
X89464075Y-38247007D01*
X89447037Y-38310591D01*
X88776818Y-37640372D01*
X88743333Y-37579049D01*
X88743330Y-37579036D01*
X88740499Y-37566015D01*
X88740499Y-37542128D01*
X88734091Y-37482517D01*
X88705926Y-37407002D01*
X88683798Y-37347673D01*
X88683793Y-37347664D01*
X88597547Y-37232455D01*
X88597544Y-37232452D01*
X88482335Y-37146206D01*
X88482328Y-37146202D01*
X88347482Y-37095908D01*
X88347483Y-37095908D01*
X88287883Y-37089501D01*
X88287881Y-37089500D01*
X88287873Y-37089500D01*
X88287864Y-37089500D01*
X86492129Y-37089500D01*
X86492123Y-37089501D01*
X86432516Y-37095908D01*
X86297671Y-37146202D01*
X86297664Y-37146206D01*
X86182455Y-37232452D01*
X86182452Y-37232455D01*
X86096206Y-37347664D01*
X86096202Y-37347671D01*
X86045908Y-37482517D01*
X86039501Y-37542116D01*
X86039500Y-37542135D01*
X58922972Y-37542135D01*
X58965220Y-37459219D01*
X59028477Y-37264534D01*
X59060500Y-37062352D01*
X59060500Y-36857648D01*
X59049457Y-36787927D01*
X59028477Y-36655465D01*
X58988383Y-36532070D01*
X58965220Y-36460781D01*
X58965218Y-36460778D01*
X58965218Y-36460776D01*
X58922750Y-36377429D01*
X58872287Y-36278390D01*
X58840092Y-36234077D01*
X58751971Y-36112786D01*
X58607213Y-35968028D01*
X58441613Y-35847715D01*
X58441612Y-35847714D01*
X58441610Y-35847713D01*
X58363765Y-35808049D01*
X58259223Y-35754781D01*
X58064534Y-35691522D01*
X57889995Y-35663878D01*
X57862352Y-35659500D01*
X57657648Y-35659500D01*
X57633329Y-35663351D01*
X57455465Y-35691522D01*
X57260776Y-35754781D01*
X57078386Y-35847715D01*
X56912786Y-35968028D01*
X56768028Y-36112786D01*
X56647714Y-36278386D01*
X56620203Y-36332379D01*
X56572227Y-36383174D01*
X56504406Y-36399968D01*
X56438272Y-36377429D01*
X56399234Y-36332376D01*
X56371861Y-36278652D01*
X56339474Y-36234077D01*
X56339474Y-36234076D01*
X55660000Y-36913551D01*
X55660000Y-36907339D01*
X55632741Y-36805606D01*
X55580080Y-36714394D01*
X55505606Y-36639920D01*
X55414394Y-36587259D01*
X55312661Y-36560000D01*
X55306446Y-36560000D01*
X55985922Y-35880524D01*
X55985921Y-35880523D01*
X55941359Y-35848147D01*
X55941350Y-35848141D01*
X55759031Y-35755244D01*
X55564417Y-35692009D01*
X55362317Y-35660000D01*
X55157683Y-35660000D01*
X54955582Y-35692009D01*
X54760968Y-35755244D01*
X54578644Y-35848143D01*
X54534077Y-35880523D01*
X54534077Y-35880524D01*
X55213554Y-36560000D01*
X55207339Y-36560000D01*
X55105606Y-36587259D01*
X55014394Y-36639920D01*
X54939920Y-36714394D01*
X54887259Y-36805606D01*
X54860000Y-36907339D01*
X54860000Y-36913553D01*
X54180524Y-36234077D01*
X54180523Y-36234077D01*
X54148143Y-36278644D01*
X54055244Y-36460968D01*
X53992009Y-36655582D01*
X53960000Y-36857682D01*
X53140000Y-36857682D01*
X53107990Y-36655582D01*
X53044755Y-36460968D01*
X52951859Y-36278650D01*
X52919474Y-36234077D01*
X52919474Y-36234076D01*
X52240000Y-36913551D01*
X52240000Y-36907339D01*
X52212741Y-36805606D01*
X52160080Y-36714394D01*
X52085606Y-36639920D01*
X51994394Y-36587259D01*
X51892661Y-36560000D01*
X51886446Y-36560000D01*
X52565922Y-35880524D01*
X52565921Y-35880523D01*
X52521359Y-35848147D01*
X52521350Y-35848141D01*
X52339031Y-35755244D01*
X52144417Y-35692009D01*
X51942317Y-35660000D01*
X51737683Y-35660000D01*
X51535582Y-35692009D01*
X51340968Y-35755244D01*
X51158644Y-35848143D01*
X51114077Y-35880523D01*
X51114077Y-35880524D01*
X51793554Y-36560000D01*
X51787339Y-36560000D01*
X51685606Y-36587259D01*
X51594394Y-36639920D01*
X51519920Y-36714394D01*
X51467259Y-36805606D01*
X51440000Y-36907339D01*
X51440000Y-36913553D01*
X50760524Y-36234077D01*
X50760523Y-36234077D01*
X50728143Y-36278644D01*
X50700765Y-36332378D01*
X50652790Y-36383174D01*
X50584969Y-36399969D01*
X50518834Y-36377431D01*
X50479795Y-36332378D01*
X50479794Y-36332376D01*
X50452287Y-36278390D01*
X50452285Y-36278387D01*
X50452284Y-36278385D01*
X50331971Y-36112786D01*
X50187213Y-35968028D01*
X50021613Y-35847715D01*
X50021612Y-35847714D01*
X50021610Y-35847713D01*
X49943765Y-35808049D01*
X49839223Y-35754781D01*
X49644534Y-35691522D01*
X49469995Y-35663878D01*
X49442352Y-35659500D01*
X49237648Y-35659500D01*
X49213329Y-35663351D01*
X49035465Y-35691522D01*
X48840776Y-35754781D01*
X48658386Y-35847715D01*
X48492786Y-35968028D01*
X48348028Y-36112786D01*
X48227715Y-36278386D01*
X48134781Y-36460776D01*
X48071522Y-36655465D01*
X48039500Y-36857648D01*
X33954458Y-36857648D01*
X33965500Y-36787930D01*
X33965500Y-36532070D01*
X33925474Y-36279361D01*
X33878640Y-36135220D01*
X33846411Y-36036027D01*
X33846410Y-36036024D01*
X33788294Y-35921966D01*
X33730252Y-35808053D01*
X33691547Y-35754780D01*
X33579867Y-35601064D01*
X33579863Y-35601059D01*
X33398940Y-35420136D01*
X33398935Y-35420132D01*
X33191950Y-35269750D01*
X33191949Y-35269749D01*
X33191947Y-35269748D01*
X33118910Y-35232533D01*
X32963975Y-35153589D01*
X32963972Y-35153588D01*
X32720640Y-35074526D01*
X32590553Y-35053922D01*
X32467930Y-35034500D01*
X32212070Y-35034500D01*
X32127833Y-35047842D01*
X31959359Y-35074526D01*
X31716027Y-35153588D01*
X31716024Y-35153590D01*
X31694795Y-35164407D01*
X31626125Y-35177303D01*
X31561385Y-35151026D01*
X31521128Y-35093920D01*
X31514500Y-35053922D01*
X31514500Y-34827682D01*
X91280000Y-34827682D01*
X91280000Y-35032317D01*
X91312009Y-35234417D01*
X91375244Y-35429031D01*
X91468141Y-35611350D01*
X91468147Y-35611359D01*
X91500523Y-35655921D01*
X91500524Y-35655922D01*
X92180000Y-34976446D01*
X92180000Y-34982661D01*
X92207259Y-35084394D01*
X92259920Y-35175606D01*
X92334394Y-35250080D01*
X92425606Y-35302741D01*
X92527339Y-35330000D01*
X92533553Y-35330000D01*
X91854076Y-36009474D01*
X91898650Y-36041859D01*
X92080968Y-36134755D01*
X92275582Y-36197990D01*
X92477683Y-36230000D01*
X92682317Y-36230000D01*
X92884417Y-36197990D01*
X93079031Y-36134755D01*
X93261349Y-36041859D01*
X93305921Y-36009474D01*
X92626447Y-35330000D01*
X92632661Y-35330000D01*
X92734394Y-35302741D01*
X92825606Y-35250080D01*
X92900080Y-35175606D01*
X92952741Y-35084394D01*
X92980000Y-34982661D01*
X92980000Y-34976447D01*
X93659474Y-35655921D01*
X93691859Y-35611349D01*
X93719233Y-35557624D01*
X93767207Y-35506827D01*
X93835028Y-35490031D01*
X93901163Y-35512567D01*
X93940203Y-35557621D01*
X93967713Y-35611611D01*
X94088028Y-35777213D01*
X94232786Y-35921971D01*
X94353226Y-36009474D01*
X94398390Y-36042287D01*
X94514607Y-36101503D01*
X94580776Y-36135218D01*
X94580778Y-36135218D01*
X94580781Y-36135220D01*
X94685137Y-36169127D01*
X94775465Y-36198477D01*
X94876557Y-36214488D01*
X94977648Y-36230500D01*
X94977649Y-36230500D01*
X95182351Y-36230500D01*
X95182352Y-36230500D01*
X95384534Y-36198477D01*
X95579219Y-36135220D01*
X95761610Y-36042287D01*
X95863820Y-35968028D01*
X95927213Y-35921971D01*
X95927215Y-35921968D01*
X95927219Y-35921966D01*
X96071966Y-35777219D01*
X96071968Y-35777215D01*
X96071971Y-35777213D01*
X96157493Y-35659500D01*
X96192287Y-35611610D01*
X96285220Y-35429219D01*
X96348477Y-35234534D01*
X96380500Y-35032352D01*
X96380500Y-34827648D01*
X96372257Y-34775606D01*
X96348477Y-34625465D01*
X96296084Y-34464217D01*
X96285220Y-34430781D01*
X96285218Y-34430778D01*
X96285218Y-34430776D01*
X96242750Y-34347429D01*
X96192287Y-34248390D01*
X96160092Y-34204077D01*
X96071971Y-34082786D01*
X95927213Y-33938028D01*
X95761613Y-33817715D01*
X95761612Y-33817714D01*
X95761610Y-33817713D01*
X95704653Y-33788691D01*
X95579223Y-33724781D01*
X95384534Y-33661522D01*
X95209995Y-33633878D01*
X95182352Y-33629500D01*
X94977648Y-33629500D01*
X94953329Y-33633351D01*
X94775465Y-33661522D01*
X94580776Y-33724781D01*
X94398386Y-33817715D01*
X94232786Y-33938028D01*
X94088028Y-34082786D01*
X93967714Y-34248386D01*
X93940203Y-34302379D01*
X93892227Y-34353174D01*
X93824406Y-34369968D01*
X93758272Y-34347429D01*
X93719234Y-34302376D01*
X93691861Y-34248652D01*
X93659474Y-34204077D01*
X93659474Y-34204076D01*
X92980000Y-34883551D01*
X92980000Y-34877339D01*
X92952741Y-34775606D01*
X92900080Y-34684394D01*
X92825606Y-34609920D01*
X92734394Y-34557259D01*
X92632661Y-34530000D01*
X92626446Y-34530000D01*
X93305922Y-33850524D01*
X93305921Y-33850523D01*
X93261359Y-33818147D01*
X93261350Y-33818141D01*
X93079031Y-33725244D01*
X92884417Y-33662009D01*
X92682317Y-33630000D01*
X92477683Y-33630000D01*
X92275582Y-33662009D01*
X92080968Y-33725244D01*
X91898644Y-33818143D01*
X91854077Y-33850523D01*
X91854077Y-33850524D01*
X92533554Y-34530000D01*
X92527339Y-34530000D01*
X92425606Y-34557259D01*
X92334394Y-34609920D01*
X92259920Y-34684394D01*
X92207259Y-34775606D01*
X92180000Y-34877339D01*
X92180000Y-34883553D01*
X91500524Y-34204077D01*
X91500523Y-34204077D01*
X91468143Y-34248644D01*
X91375244Y-34430968D01*
X91312009Y-34625582D01*
X91280000Y-34827682D01*
X31514500Y-34827682D01*
X31514500Y-33548594D01*
X31490386Y-33427370D01*
X31490385Y-33427369D01*
X31490385Y-33427365D01*
X31463729Y-33363011D01*
X31443086Y-33313173D01*
X31443079Y-33313160D01*
X31374412Y-33210393D01*
X31344519Y-33180500D01*
X31287008Y-33122989D01*
X30317055Y-32153036D01*
X49456300Y-32153036D01*
X49456300Y-32356963D01*
X49470846Y-32448801D01*
X49488199Y-32558364D01*
X49524366Y-32669674D01*
X49551214Y-32752301D01*
X49600786Y-32849591D01*
X49643789Y-32933990D01*
X49763648Y-33098962D01*
X49907838Y-33243152D01*
X50072810Y-33363011D01*
X50254501Y-33455587D01*
X50448436Y-33518601D01*
X50523963Y-33530563D01*
X50649837Y-33550500D01*
X50649842Y-33550500D01*
X50853763Y-33550500D01*
X50965650Y-33532778D01*
X51055164Y-33518601D01*
X51249099Y-33455587D01*
X51430790Y-33363011D01*
X51595762Y-33243152D01*
X51739952Y-33098962D01*
X51859811Y-32933990D01*
X51911596Y-32832355D01*
X51959569Y-32781561D01*
X52027390Y-32764765D01*
X52093525Y-32787302D01*
X52132565Y-32832356D01*
X52184217Y-32933728D01*
X52215904Y-32977340D01*
X52215905Y-32977341D01*
X52853744Y-32339501D01*
X52877126Y-32426764D01*
X52935711Y-32528236D01*
X53018564Y-32611089D01*
X53120036Y-32669674D01*
X53207298Y-32693055D01*
X52569457Y-33330894D01*
X52569458Y-33330895D01*
X52613066Y-33362578D01*
X52613079Y-33362586D01*
X52794692Y-33455122D01*
X52794695Y-33455124D01*
X52988551Y-33518111D01*
X53189882Y-33550000D01*
X53393718Y-33550000D01*
X53595047Y-33518111D01*
X53595050Y-33518111D01*
X53788904Y-33455124D01*
X53788907Y-33455122D01*
X53970528Y-33362582D01*
X54014140Y-33330895D01*
X54014140Y-33330894D01*
X53376301Y-32693055D01*
X53463564Y-32669674D01*
X53565036Y-32611089D01*
X53647889Y-32528236D01*
X53706474Y-32426764D01*
X53729855Y-32339501D01*
X54367694Y-32977340D01*
X54367695Y-32977340D01*
X54399384Y-32933726D01*
X54399384Y-32933725D01*
X54451034Y-32832357D01*
X54499008Y-32781560D01*
X54566829Y-32764765D01*
X54632964Y-32787302D01*
X54672003Y-32832355D01*
X54723789Y-32933990D01*
X54843648Y-33098962D01*
X54987838Y-33243152D01*
X55152810Y-33363011D01*
X55334501Y-33455587D01*
X55528436Y-33518601D01*
X55603963Y-33530563D01*
X55729837Y-33550500D01*
X55729842Y-33550500D01*
X55933763Y-33550500D01*
X56045650Y-33532778D01*
X56135164Y-33518601D01*
X56329099Y-33455587D01*
X56510790Y-33363011D01*
X56675762Y-33243152D01*
X56819952Y-33098962D01*
X56939811Y-32933990D01*
X57032387Y-32752299D01*
X57095401Y-32558364D01*
X57123774Y-32379223D01*
X57127300Y-32356963D01*
X57127300Y-32314402D01*
X62974900Y-32314402D01*
X62974900Y-32583197D01*
X63009982Y-32849680D01*
X63009983Y-32849685D01*
X63009984Y-32849691D01*
X63009985Y-32849693D01*
X63079552Y-33109324D01*
X63182411Y-33357650D01*
X63182419Y-33357666D01*
X63238955Y-33455587D01*
X63316813Y-33590441D01*
X63316815Y-33590444D01*
X63316816Y-33590445D01*
X63480442Y-33803688D01*
X63480448Y-33803695D01*
X63670504Y-33993751D01*
X63670510Y-33993756D01*
X63883759Y-34157387D01*
X64033368Y-34243764D01*
X64116533Y-34291780D01*
X64116549Y-34291788D01*
X64250880Y-34347429D01*
X64364874Y-34394647D01*
X64624509Y-34464216D01*
X64812719Y-34488993D01*
X64891002Y-34499300D01*
X64891003Y-34499300D01*
X65159798Y-34499300D01*
X65220305Y-34491334D01*
X65426291Y-34464216D01*
X65685926Y-34394647D01*
X65872857Y-34317217D01*
X65934250Y-34291788D01*
X65934253Y-34291786D01*
X65934259Y-34291784D01*
X66167041Y-34157387D01*
X66380290Y-33993756D01*
X66570356Y-33803690D01*
X66733987Y-33590441D01*
X66868384Y-33357659D01*
X66879471Y-33330894D01*
X66915814Y-33243152D01*
X66971247Y-33109326D01*
X67040816Y-32849691D01*
X67075900Y-32583197D01*
X67075900Y-32314403D01*
X67075900Y-32314402D01*
X82974900Y-32314402D01*
X82974900Y-32583197D01*
X83009982Y-32849680D01*
X83009983Y-32849685D01*
X83009984Y-32849691D01*
X83009985Y-32849693D01*
X83079552Y-33109324D01*
X83182411Y-33357650D01*
X83182419Y-33357666D01*
X83238955Y-33455587D01*
X83316813Y-33590441D01*
X83316815Y-33590444D01*
X83316816Y-33590445D01*
X83480442Y-33803688D01*
X83480448Y-33803695D01*
X83670504Y-33993751D01*
X83670510Y-33993756D01*
X83883759Y-34157387D01*
X84033368Y-34243764D01*
X84116533Y-34291780D01*
X84116549Y-34291788D01*
X84250880Y-34347429D01*
X84364874Y-34394647D01*
X84624509Y-34464216D01*
X84812719Y-34488993D01*
X84891002Y-34499300D01*
X84891003Y-34499300D01*
X85159798Y-34499300D01*
X85220305Y-34491334D01*
X85426291Y-34464216D01*
X85685926Y-34394647D01*
X85872857Y-34317217D01*
X85934250Y-34291788D01*
X85934253Y-34291786D01*
X85934259Y-34291784D01*
X86167041Y-34157387D01*
X86380290Y-33993756D01*
X86452365Y-33921681D01*
X86563945Y-33810102D01*
X86570351Y-33803695D01*
X86570356Y-33803690D01*
X86733987Y-33590441D01*
X86868384Y-33357659D01*
X86879471Y-33330894D01*
X86915814Y-33243152D01*
X86971247Y-33109326D01*
X87040816Y-32849691D01*
X87075900Y-32583197D01*
X87075900Y-32314403D01*
X87040816Y-32047909D01*
X86971247Y-31788274D01*
X86966846Y-31777648D01*
X92029500Y-31777648D01*
X92029500Y-31982351D01*
X92061522Y-32184534D01*
X92124781Y-32379223D01*
X92188691Y-32504653D01*
X92216059Y-32558364D01*
X92217715Y-32561613D01*
X92338028Y-32727213D01*
X92482786Y-32871971D01*
X92627817Y-32977340D01*
X92648390Y-32992287D01*
X92764607Y-33051503D01*
X92830776Y-33085218D01*
X92830778Y-33085218D01*
X92830781Y-33085220D01*
X92904972Y-33109326D01*
X93025465Y-33148477D01*
X93126557Y-33164488D01*
X93227648Y-33180500D01*
X93227649Y-33180500D01*
X93432351Y-33180500D01*
X93432352Y-33180500D01*
X93634534Y-33148477D01*
X93829219Y-33085220D01*
X94011610Y-32992287D01*
X94104590Y-32924732D01*
X94177213Y-32871971D01*
X94177215Y-32871968D01*
X94177219Y-32871966D01*
X94321966Y-32727219D01*
X94321968Y-32727215D01*
X94321971Y-32727213D01*
X94374732Y-32654590D01*
X94442287Y-32561610D01*
X94535220Y-32379219D01*
X94598477Y-32184534D01*
X94630500Y-31982352D01*
X94630500Y-31777648D01*
X96589500Y-31777648D01*
X96589500Y-31982351D01*
X96621522Y-32184534D01*
X96684781Y-32379223D01*
X96748691Y-32504653D01*
X96776059Y-32558364D01*
X96777715Y-32561613D01*
X96898028Y-32727213D01*
X97042786Y-32871971D01*
X97187817Y-32977340D01*
X97208390Y-32992287D01*
X97324607Y-33051503D01*
X97390776Y-33085218D01*
X97390778Y-33085218D01*
X97390781Y-33085220D01*
X97464972Y-33109326D01*
X97585465Y-33148477D01*
X97686557Y-33164488D01*
X97787648Y-33180500D01*
X97787649Y-33180500D01*
X97992351Y-33180500D01*
X97992352Y-33180500D01*
X98194534Y-33148477D01*
X98389219Y-33085220D01*
X98571610Y-32992287D01*
X98664590Y-32924732D01*
X98737213Y-32871971D01*
X98737215Y-32871968D01*
X98737219Y-32871966D01*
X98881966Y-32727219D01*
X98881968Y-32727215D01*
X98881971Y-32727213D01*
X98934732Y-32654590D01*
X99002287Y-32561610D01*
X99095220Y-32379219D01*
X99116280Y-32314402D01*
X102974900Y-32314402D01*
X102974900Y-32583197D01*
X103009982Y-32849680D01*
X103009983Y-32849685D01*
X103009984Y-32849691D01*
X103009985Y-32849693D01*
X103079552Y-33109324D01*
X103182411Y-33357650D01*
X103182419Y-33357666D01*
X103238955Y-33455587D01*
X103316813Y-33590441D01*
X103316815Y-33590444D01*
X103316816Y-33590445D01*
X103480442Y-33803688D01*
X103480448Y-33803695D01*
X103670504Y-33993751D01*
X103670510Y-33993756D01*
X103883759Y-34157387D01*
X104033368Y-34243764D01*
X104116533Y-34291780D01*
X104116549Y-34291788D01*
X104250880Y-34347429D01*
X104364874Y-34394647D01*
X104624509Y-34464216D01*
X104812719Y-34488993D01*
X104891002Y-34499300D01*
X104891003Y-34499300D01*
X105159798Y-34499300D01*
X105220305Y-34491334D01*
X105426291Y-34464216D01*
X105685926Y-34394647D01*
X105872857Y-34317217D01*
X105934250Y-34291788D01*
X105934253Y-34291786D01*
X105934259Y-34291784D01*
X106167041Y-34157387D01*
X106380290Y-33993756D01*
X106570356Y-33803690D01*
X106733987Y-33590441D01*
X106868384Y-33357659D01*
X106879471Y-33330894D01*
X106915814Y-33243152D01*
X106971247Y-33109326D01*
X107040816Y-32849691D01*
X107075900Y-32583197D01*
X107075900Y-32314403D01*
X107075900Y-32314402D01*
X122974900Y-32314402D01*
X122974900Y-32583197D01*
X123009982Y-32849680D01*
X123009983Y-32849685D01*
X123009984Y-32849691D01*
X123009985Y-32849693D01*
X123079552Y-33109324D01*
X123182411Y-33357650D01*
X123182419Y-33357666D01*
X123238955Y-33455587D01*
X123316813Y-33590441D01*
X123316815Y-33590444D01*
X123316816Y-33590445D01*
X123480442Y-33803688D01*
X123480448Y-33803695D01*
X123670504Y-33993751D01*
X123670510Y-33993756D01*
X123883759Y-34157387D01*
X124033368Y-34243764D01*
X124116533Y-34291780D01*
X124116549Y-34291788D01*
X124250880Y-34347429D01*
X124364874Y-34394647D01*
X124624509Y-34464216D01*
X124812719Y-34488993D01*
X124891002Y-34499300D01*
X124891003Y-34499300D01*
X125159798Y-34499300D01*
X125220305Y-34491334D01*
X125426291Y-34464216D01*
X125685926Y-34394647D01*
X125872857Y-34317217D01*
X125934250Y-34291788D01*
X125934253Y-34291786D01*
X125934259Y-34291784D01*
X126167041Y-34157387D01*
X126380290Y-33993756D01*
X126570356Y-33803690D01*
X126733987Y-33590441D01*
X126868384Y-33357659D01*
X126879471Y-33330894D01*
X126915814Y-33243152D01*
X126971247Y-33109326D01*
X127040816Y-32849691D01*
X127075900Y-32583197D01*
X127075900Y-32314403D01*
X127040816Y-32047909D01*
X126971247Y-31788274D01*
X126883436Y-31576279D01*
X126868388Y-31539949D01*
X126868380Y-31539933D01*
X126810192Y-31439150D01*
X126733987Y-31307159D01*
X126611413Y-31147417D01*
X126570357Y-31093911D01*
X126570351Y-31093904D01*
X126380295Y-30903848D01*
X126380288Y-30903842D01*
X126167045Y-30740216D01*
X126167044Y-30740215D01*
X126167041Y-30740213D01*
X126053708Y-30674780D01*
X125934266Y-30605819D01*
X125934250Y-30605811D01*
X125685924Y-30502952D01*
X125556108Y-30468168D01*
X125426291Y-30433384D01*
X125426285Y-30433383D01*
X125426280Y-30433382D01*
X125159798Y-30398300D01*
X125159797Y-30398300D01*
X124891003Y-30398300D01*
X124891002Y-30398300D01*
X124624519Y-30433382D01*
X124624512Y-30433383D01*
X124624509Y-30433384D01*
X124622677Y-30433875D01*
X124364875Y-30502952D01*
X124116549Y-30605811D01*
X124116533Y-30605819D01*
X123883754Y-30740216D01*
X123670511Y-30903842D01*
X123670504Y-30903848D01*
X123480448Y-31093904D01*
X123480442Y-31093911D01*
X123316816Y-31307154D01*
X123316813Y-31307158D01*
X123316813Y-31307159D01*
X123316650Y-31307442D01*
X123182419Y-31539933D01*
X123182411Y-31539949D01*
X123079552Y-31788275D01*
X123009985Y-32047906D01*
X123009982Y-32047919D01*
X122974900Y-32314402D01*
X107075900Y-32314402D01*
X107040816Y-32047909D01*
X106971247Y-31788274D01*
X106883436Y-31576279D01*
X106868388Y-31539949D01*
X106868380Y-31539933D01*
X106810192Y-31439150D01*
X106733987Y-31307159D01*
X106611413Y-31147417D01*
X106570357Y-31093911D01*
X106570351Y-31093904D01*
X106380295Y-30903848D01*
X106380288Y-30903842D01*
X106167045Y-30740216D01*
X106167044Y-30740215D01*
X106167041Y-30740213D01*
X106053708Y-30674780D01*
X105934266Y-30605819D01*
X105934250Y-30605811D01*
X105685924Y-30502952D01*
X105556108Y-30468168D01*
X105426291Y-30433384D01*
X105426285Y-30433383D01*
X105426280Y-30433382D01*
X105159798Y-30398300D01*
X105159797Y-30398300D01*
X104891003Y-30398300D01*
X104891002Y-30398300D01*
X104624519Y-30433382D01*
X104624512Y-30433383D01*
X104624509Y-30433384D01*
X104622677Y-30433875D01*
X104364875Y-30502952D01*
X104116549Y-30605811D01*
X104116533Y-30605819D01*
X103883754Y-30740216D01*
X103670511Y-30903842D01*
X103670504Y-30903848D01*
X103480448Y-31093904D01*
X103480442Y-31093911D01*
X103316816Y-31307154D01*
X103316813Y-31307158D01*
X103316813Y-31307159D01*
X103316650Y-31307442D01*
X103182419Y-31539933D01*
X103182411Y-31539949D01*
X103079552Y-31788275D01*
X103009985Y-32047906D01*
X103009982Y-32047919D01*
X102974900Y-32314402D01*
X99116280Y-32314402D01*
X99158477Y-32184534D01*
X99190500Y-31982352D01*
X99190500Y-31777648D01*
X99158477Y-31575466D01*
X99147008Y-31540169D01*
X99105050Y-31411035D01*
X99095220Y-31380781D01*
X99095218Y-31380778D01*
X99095218Y-31380776D01*
X99037168Y-31266848D01*
X99002287Y-31198390D01*
X98988275Y-31179104D01*
X98881971Y-31032786D01*
X98737213Y-30888028D01*
X98571613Y-30767715D01*
X98571612Y-30767714D01*
X98571610Y-30767713D01*
X98514653Y-30738691D01*
X98389223Y-30674781D01*
X98194534Y-30611522D01*
X98019995Y-30583878D01*
X97992352Y-30579500D01*
X97787648Y-30579500D01*
X97763329Y-30583351D01*
X97585465Y-30611522D01*
X97390776Y-30674781D01*
X97208386Y-30767715D01*
X97042786Y-30888028D01*
X96898028Y-31032786D01*
X96777715Y-31198386D01*
X96684781Y-31380776D01*
X96621522Y-31575465D01*
X96589500Y-31777648D01*
X94630500Y-31777648D01*
X94598477Y-31575466D01*
X94587008Y-31540169D01*
X94545050Y-31411035D01*
X94535220Y-31380781D01*
X94535218Y-31380778D01*
X94535218Y-31380776D01*
X94477168Y-31266848D01*
X94442287Y-31198390D01*
X94428275Y-31179104D01*
X94321971Y-31032786D01*
X94177213Y-30888028D01*
X94011613Y-30767715D01*
X94011612Y-30767714D01*
X94011610Y-30767713D01*
X93954653Y-30738691D01*
X93829223Y-30674781D01*
X93634534Y-30611522D01*
X93459995Y-30583878D01*
X93432352Y-30579500D01*
X93227648Y-30579500D01*
X93203329Y-30583351D01*
X93025465Y-30611522D01*
X92830776Y-30674781D01*
X92648386Y-30767715D01*
X92482786Y-30888028D01*
X92338028Y-31032786D01*
X92217715Y-31198386D01*
X92124781Y-31380776D01*
X92061522Y-31575465D01*
X92029500Y-31777648D01*
X86966846Y-31777648D01*
X86883436Y-31576279D01*
X86868388Y-31539949D01*
X86868380Y-31539933D01*
X86810192Y-31439150D01*
X86733987Y-31307159D01*
X86611413Y-31147417D01*
X86570357Y-31093911D01*
X86570351Y-31093904D01*
X86380295Y-30903848D01*
X86380288Y-30903842D01*
X86167045Y-30740216D01*
X86167044Y-30740215D01*
X86167041Y-30740213D01*
X86053708Y-30674780D01*
X85934266Y-30605819D01*
X85934250Y-30605811D01*
X85685924Y-30502952D01*
X85556108Y-30468168D01*
X85426291Y-30433384D01*
X85426285Y-30433383D01*
X85426280Y-30433382D01*
X85159798Y-30398300D01*
X85159797Y-30398300D01*
X84891003Y-30398300D01*
X84891002Y-30398300D01*
X84624519Y-30433382D01*
X84624512Y-30433383D01*
X84624509Y-30433384D01*
X84622677Y-30433875D01*
X84364875Y-30502952D01*
X84116549Y-30605811D01*
X84116533Y-30605819D01*
X83883754Y-30740216D01*
X83670511Y-30903842D01*
X83670504Y-30903848D01*
X83480448Y-31093904D01*
X83480442Y-31093911D01*
X83316816Y-31307154D01*
X83316813Y-31307158D01*
X83316813Y-31307159D01*
X83316650Y-31307442D01*
X83182419Y-31539933D01*
X83182411Y-31539949D01*
X83079552Y-31788275D01*
X83009985Y-32047906D01*
X83009982Y-32047919D01*
X82974900Y-32314402D01*
X67075900Y-32314402D01*
X67040816Y-32047909D01*
X66971247Y-31788274D01*
X66883436Y-31576279D01*
X66868388Y-31539949D01*
X66868380Y-31539933D01*
X66810192Y-31439150D01*
X66733987Y-31307159D01*
X66611413Y-31147417D01*
X66570357Y-31093911D01*
X66570351Y-31093904D01*
X66380295Y-30903848D01*
X66380288Y-30903842D01*
X66167045Y-30740216D01*
X66167044Y-30740215D01*
X66167041Y-30740213D01*
X66053708Y-30674780D01*
X65934266Y-30605819D01*
X65934250Y-30605811D01*
X65685924Y-30502952D01*
X65556108Y-30468168D01*
X65426291Y-30433384D01*
X65426285Y-30433383D01*
X65426280Y-30433382D01*
X65159798Y-30398300D01*
X65159797Y-30398300D01*
X64891003Y-30398300D01*
X64891002Y-30398300D01*
X64624519Y-30433382D01*
X64624512Y-30433383D01*
X64624509Y-30433384D01*
X64622677Y-30433875D01*
X64364875Y-30502952D01*
X64116549Y-30605811D01*
X64116533Y-30605819D01*
X63883754Y-30740216D01*
X63670511Y-30903842D01*
X63670504Y-30903848D01*
X63480448Y-31093904D01*
X63480442Y-31093911D01*
X63316816Y-31307154D01*
X63316813Y-31307158D01*
X63316813Y-31307159D01*
X63316650Y-31307442D01*
X63182419Y-31539933D01*
X63182411Y-31539949D01*
X63079552Y-31788275D01*
X63009985Y-32047906D01*
X63009982Y-32047919D01*
X62974900Y-32314402D01*
X57127300Y-32314402D01*
X57127300Y-32153036D01*
X57100266Y-31982352D01*
X57095401Y-31951636D01*
X57032387Y-31757701D01*
X56939811Y-31576010D01*
X56819952Y-31411038D01*
X56675762Y-31266848D01*
X56510790Y-31146989D01*
X56329099Y-31054413D01*
X56135164Y-30991399D01*
X56135162Y-30991398D01*
X56135160Y-30991398D01*
X55933763Y-30959500D01*
X55933758Y-30959500D01*
X55729842Y-30959500D01*
X55729837Y-30959500D01*
X55528439Y-30991398D01*
X55334498Y-31054414D01*
X55152809Y-31146989D01*
X54987835Y-31266850D01*
X54843650Y-31411035D01*
X54723789Y-31576009D01*
X54672004Y-31677643D01*
X54624029Y-31728439D01*
X54556208Y-31745234D01*
X54490073Y-31722696D01*
X54451034Y-31677643D01*
X54399386Y-31576279D01*
X54399378Y-31576266D01*
X54367695Y-31532658D01*
X54367694Y-31532657D01*
X53729855Y-32170497D01*
X53706474Y-32083236D01*
X53647889Y-31981764D01*
X53565036Y-31898911D01*
X53463564Y-31840326D01*
X53376302Y-31816944D01*
X54014141Y-31179105D01*
X54014140Y-31179104D01*
X53970528Y-31147417D01*
X53788907Y-31054877D01*
X53788904Y-31054875D01*
X53595048Y-30991888D01*
X53393718Y-30960000D01*
X53189882Y-30960000D01*
X52988552Y-30991888D01*
X52988549Y-30991888D01*
X52794695Y-31054875D01*
X52794692Y-31054876D01*
X52613073Y-31147416D01*
X52569458Y-31179104D01*
X53207298Y-31816944D01*
X53120036Y-31840326D01*
X53018564Y-31898911D01*
X52935711Y-31981764D01*
X52877126Y-32083236D01*
X52853744Y-32170498D01*
X52215904Y-31532658D01*
X52184215Y-31576276D01*
X52132564Y-31677644D01*
X52084589Y-31728440D01*
X52016768Y-31745234D01*
X51950633Y-31722696D01*
X51911595Y-31677642D01*
X51859812Y-31576011D01*
X51817884Y-31518302D01*
X51739952Y-31411038D01*
X51595762Y-31266848D01*
X51430790Y-31146989D01*
X51249099Y-31054413D01*
X51055164Y-30991399D01*
X51055162Y-30991398D01*
X51055160Y-30991398D01*
X50853763Y-30959500D01*
X50853758Y-30959500D01*
X50649842Y-30959500D01*
X50649837Y-30959500D01*
X50448439Y-30991398D01*
X50254498Y-31054414D01*
X50072809Y-31146989D01*
X49907835Y-31266850D01*
X49763650Y-31411035D01*
X49643789Y-31576009D01*
X49551214Y-31757698D01*
X49488198Y-31951639D01*
X49456300Y-32153036D01*
X30317055Y-32153036D01*
X26913290Y-28749271D01*
X26879805Y-28687948D01*
X26884789Y-28618256D01*
X26886382Y-28614205D01*
X26971247Y-28409326D01*
X27040816Y-28149691D01*
X27075900Y-27883197D01*
X27075900Y-27614403D01*
X27040816Y-27347909D01*
X27038692Y-27339983D01*
X34829500Y-27339983D01*
X34829500Y-29540001D01*
X34829501Y-29540018D01*
X34840000Y-29642796D01*
X34840001Y-29642799D01*
X34888885Y-29790319D01*
X34895186Y-29809334D01*
X34987288Y-29958656D01*
X35111344Y-30082712D01*
X35260666Y-30174814D01*
X35427203Y-30229999D01*
X35529991Y-30240500D01*
X37730008Y-30240499D01*
X37832797Y-30229999D01*
X37999334Y-30174814D01*
X38148656Y-30082712D01*
X38272712Y-29958656D01*
X38364814Y-29809334D01*
X38419999Y-29642797D01*
X38430500Y-29540009D01*
X38430499Y-28322014D01*
X39830000Y-28322014D01*
X39830000Y-28557985D01*
X39860799Y-28791914D01*
X39921870Y-29019837D01*
X40012160Y-29237819D01*
X40012165Y-29237828D01*
X40130144Y-29442171D01*
X40130145Y-29442172D01*
X40192721Y-29523723D01*
X41028958Y-28687487D01*
X41053978Y-28747890D01*
X41125112Y-28854351D01*
X41215649Y-28944888D01*
X41322110Y-29016022D01*
X41382511Y-29041041D01*
X40546275Y-29877277D01*
X40627827Y-29939854D01*
X40627828Y-29939855D01*
X40832171Y-30057834D01*
X40832180Y-30057839D01*
X41050163Y-30148129D01*
X41050161Y-30148129D01*
X41278085Y-30209200D01*
X41512014Y-30239999D01*
X41512029Y-30240000D01*
X41747971Y-30240000D01*
X41747985Y-30239999D01*
X41981914Y-30209200D01*
X42209837Y-30148129D01*
X42427819Y-30057839D01*
X42427828Y-30057834D01*
X42632181Y-29939850D01*
X42713723Y-29877279D01*
X42713723Y-29877276D01*
X41877487Y-29041041D01*
X41937890Y-29016022D01*
X42044351Y-28944888D01*
X42134888Y-28854351D01*
X42206022Y-28747890D01*
X42231041Y-28687487D01*
X43067276Y-29523723D01*
X43067279Y-29523723D01*
X43129850Y-29442181D01*
X43238252Y-29254426D01*
X43247834Y-29237828D01*
X43247839Y-29237819D01*
X43338129Y-29019837D01*
X43399200Y-28791914D01*
X43429999Y-28557985D01*
X43430000Y-28557971D01*
X43430000Y-28322028D01*
X43429999Y-28322014D01*
X43399200Y-28088085D01*
X43338129Y-27860162D01*
X43254321Y-27657829D01*
X43247839Y-27642181D01*
X43247834Y-27642171D01*
X43231824Y-27614442D01*
X62975400Y-27614442D01*
X62975400Y-27883157D01*
X62975401Y-27883173D01*
X63010475Y-28149591D01*
X63080027Y-28409163D01*
X63182863Y-28657430D01*
X63182867Y-28657440D01*
X63317226Y-28890158D01*
X63409819Y-29010826D01*
X64126777Y-28293867D01*
X64209811Y-28418136D01*
X64356064Y-28564389D01*
X64480330Y-28647421D01*
X63763372Y-29364379D01*
X63884042Y-29456973D01*
X64116759Y-29591332D01*
X64116769Y-29591336D01*
X64365036Y-29694172D01*
X64624608Y-29763724D01*
X64891026Y-29798798D01*
X64891043Y-29798800D01*
X65159757Y-29798800D01*
X65159773Y-29798798D01*
X65426191Y-29763724D01*
X65685763Y-29694172D01*
X65934030Y-29591336D01*
X65934040Y-29591332D01*
X66166756Y-29456973D01*
X66166773Y-29456962D01*
X66287426Y-29364380D01*
X66287426Y-29364378D01*
X65570468Y-28647421D01*
X65694736Y-28564389D01*
X65840989Y-28418136D01*
X65924021Y-28293868D01*
X66640978Y-29010826D01*
X66640980Y-29010826D01*
X66733562Y-28890173D01*
X66733573Y-28890156D01*
X66867932Y-28657440D01*
X66867936Y-28657430D01*
X66970772Y-28409163D01*
X67040324Y-28149591D01*
X67075398Y-27883173D01*
X67075400Y-27883157D01*
X67075400Y-27614442D01*
X67075398Y-27614425D01*
X67043617Y-27373019D01*
X67041900Y-27359983D01*
X73089500Y-27359983D01*
X73089500Y-28960001D01*
X73089501Y-28960018D01*
X73100000Y-29062796D01*
X73100001Y-29062799D01*
X73155185Y-29229331D01*
X73155187Y-29229336D01*
X73160425Y-29237828D01*
X73247288Y-29378656D01*
X73371344Y-29502712D01*
X73520666Y-29594814D01*
X73687203Y-29649999D01*
X73789991Y-29660500D01*
X75390008Y-29660499D01*
X75492797Y-29649999D01*
X75659334Y-29594814D01*
X75808656Y-29502712D01*
X75932712Y-29378656D01*
X76024814Y-29229334D01*
X76079999Y-29062797D01*
X76090500Y-28960009D01*
X76090499Y-27614442D01*
X82975400Y-27614442D01*
X82975400Y-27883157D01*
X82975401Y-27883173D01*
X83010475Y-28149591D01*
X83080027Y-28409163D01*
X83182863Y-28657430D01*
X83182867Y-28657440D01*
X83317226Y-28890158D01*
X83409819Y-29010826D01*
X84126777Y-28293867D01*
X84209811Y-28418136D01*
X84356064Y-28564389D01*
X84480330Y-28647421D01*
X83763372Y-29364379D01*
X83884042Y-29456973D01*
X84116759Y-29591332D01*
X84116769Y-29591336D01*
X84365036Y-29694172D01*
X84624608Y-29763724D01*
X84891026Y-29798798D01*
X84891043Y-29798800D01*
X85159757Y-29798800D01*
X85159773Y-29798798D01*
X85426191Y-29763724D01*
X85685763Y-29694172D01*
X85934030Y-29591336D01*
X85934040Y-29591332D01*
X86166756Y-29456973D01*
X86166773Y-29456962D01*
X86287426Y-29364380D01*
X86287426Y-29364378D01*
X85570468Y-28647421D01*
X85694736Y-28564389D01*
X85840989Y-28418136D01*
X85924021Y-28293868D01*
X86640978Y-29010826D01*
X86640980Y-29010826D01*
X86733562Y-28890173D01*
X86733573Y-28890156D01*
X86867932Y-28657440D01*
X86867936Y-28657430D01*
X86970772Y-28409163D01*
X87040324Y-28149591D01*
X87075398Y-27883173D01*
X87075400Y-27883157D01*
X87075400Y-27614442D01*
X102975400Y-27614442D01*
X102975400Y-27883157D01*
X102975401Y-27883173D01*
X103010475Y-28149591D01*
X103080027Y-28409163D01*
X103182863Y-28657430D01*
X103182867Y-28657440D01*
X103317226Y-28890158D01*
X103409819Y-29010826D01*
X104126777Y-28293867D01*
X104209811Y-28418136D01*
X104356064Y-28564389D01*
X104480330Y-28647421D01*
X103763372Y-29364379D01*
X103884042Y-29456973D01*
X104116759Y-29591332D01*
X104116769Y-29591336D01*
X104365036Y-29694172D01*
X104624608Y-29763724D01*
X104891026Y-29798798D01*
X104891043Y-29798800D01*
X105159757Y-29798800D01*
X105159773Y-29798798D01*
X105426191Y-29763724D01*
X105685763Y-29694172D01*
X105934030Y-29591336D01*
X105934040Y-29591332D01*
X106166756Y-29456973D01*
X106166773Y-29456962D01*
X106287426Y-29364380D01*
X106287426Y-29364378D01*
X105570468Y-28647421D01*
X105694736Y-28564389D01*
X105840989Y-28418136D01*
X105924021Y-28293869D01*
X106640978Y-29010826D01*
X106640980Y-29010826D01*
X106733562Y-28890173D01*
X106733573Y-28890156D01*
X106867932Y-28657440D01*
X106867936Y-28657430D01*
X106970772Y-28409163D01*
X107040324Y-28149591D01*
X107075398Y-27883173D01*
X107075400Y-27883157D01*
X107075400Y-27614442D01*
X122975400Y-27614442D01*
X122975400Y-27883157D01*
X122975401Y-27883173D01*
X123010475Y-28149591D01*
X123080027Y-28409163D01*
X123182863Y-28657430D01*
X123182867Y-28657440D01*
X123317226Y-28890158D01*
X123409819Y-29010826D01*
X124126777Y-28293867D01*
X124209811Y-28418136D01*
X124356064Y-28564389D01*
X124480330Y-28647421D01*
X123763372Y-29364379D01*
X123884042Y-29456973D01*
X124116759Y-29591332D01*
X124116769Y-29591336D01*
X124365036Y-29694172D01*
X124624608Y-29763724D01*
X124891026Y-29798798D01*
X124891043Y-29798800D01*
X125159757Y-29798800D01*
X125159773Y-29798798D01*
X125426191Y-29763724D01*
X125685763Y-29694172D01*
X125934030Y-29591336D01*
X125934040Y-29591332D01*
X126166756Y-29456973D01*
X126166773Y-29456962D01*
X126287426Y-29364380D01*
X126287426Y-29364378D01*
X125570468Y-28647421D01*
X125694736Y-28564389D01*
X125840989Y-28418136D01*
X125924021Y-28293869D01*
X126640978Y-29010826D01*
X126640980Y-29010826D01*
X126733562Y-28890173D01*
X126733573Y-28890156D01*
X126867932Y-28657440D01*
X126867936Y-28657430D01*
X126970772Y-28409163D01*
X127040324Y-28149591D01*
X127075398Y-27883173D01*
X127075400Y-27883157D01*
X127075400Y-27614442D01*
X127075398Y-27614426D01*
X127040324Y-27348008D01*
X126970772Y-27088436D01*
X126867936Y-26840169D01*
X126867932Y-26840159D01*
X126733573Y-26607442D01*
X126640979Y-26486772D01*
X125924021Y-27203730D01*
X125840989Y-27079464D01*
X125694736Y-26933211D01*
X125570467Y-26850177D01*
X126287426Y-26133219D01*
X126166758Y-26040626D01*
X125934040Y-25906267D01*
X125934030Y-25906263D01*
X125685763Y-25803427D01*
X125426191Y-25733875D01*
X125159773Y-25698801D01*
X125159757Y-25698800D01*
X124891043Y-25698800D01*
X124891026Y-25698801D01*
X124624608Y-25733875D01*
X124365036Y-25803427D01*
X124116769Y-25906263D01*
X124116759Y-25906267D01*
X123884037Y-26040629D01*
X123763372Y-26133218D01*
X123763372Y-26133219D01*
X124480331Y-26850178D01*
X124356064Y-26933211D01*
X124209811Y-27079464D01*
X124126778Y-27203731D01*
X123409819Y-26486772D01*
X123409818Y-26486772D01*
X123317229Y-26607437D01*
X123182867Y-26840159D01*
X123182863Y-26840169D01*
X123080027Y-27088436D01*
X123010475Y-27348008D01*
X122975401Y-27614426D01*
X122975400Y-27614442D01*
X107075400Y-27614442D01*
X107075398Y-27614426D01*
X107040324Y-27348008D01*
X106970772Y-27088436D01*
X106867936Y-26840169D01*
X106867932Y-26840159D01*
X106733573Y-26607442D01*
X106640979Y-26486772D01*
X105924021Y-27203730D01*
X105840989Y-27079464D01*
X105694736Y-26933211D01*
X105570467Y-26850177D01*
X106287426Y-26133219D01*
X106166758Y-26040626D01*
X105934040Y-25906267D01*
X105934030Y-25906263D01*
X105685763Y-25803427D01*
X105426191Y-25733875D01*
X105159773Y-25698801D01*
X105159757Y-25698800D01*
X104891043Y-25698800D01*
X104891026Y-25698801D01*
X104624608Y-25733875D01*
X104365036Y-25803427D01*
X104116769Y-25906263D01*
X104116759Y-25906267D01*
X103884037Y-26040629D01*
X103763372Y-26133218D01*
X103763372Y-26133219D01*
X104480331Y-26850178D01*
X104356064Y-26933211D01*
X104209811Y-27079464D01*
X104126778Y-27203731D01*
X103409819Y-26486772D01*
X103409818Y-26486772D01*
X103317229Y-26607437D01*
X103182867Y-26840159D01*
X103182863Y-26840169D01*
X103080027Y-27088436D01*
X103010475Y-27348008D01*
X102975401Y-27614426D01*
X102975400Y-27614442D01*
X87075400Y-27614442D01*
X87075398Y-27614426D01*
X87040324Y-27348008D01*
X86970772Y-27088436D01*
X86867936Y-26840169D01*
X86867932Y-26840159D01*
X86733573Y-26607442D01*
X86640979Y-26486772D01*
X85924021Y-27203730D01*
X85840989Y-27079464D01*
X85694736Y-26933211D01*
X85570467Y-26850177D01*
X86287426Y-26133219D01*
X86166758Y-26040626D01*
X85934040Y-25906267D01*
X85934030Y-25906263D01*
X85685763Y-25803427D01*
X85426191Y-25733875D01*
X85159773Y-25698801D01*
X85159757Y-25698800D01*
X84891043Y-25698800D01*
X84891026Y-25698801D01*
X84624608Y-25733875D01*
X84365036Y-25803427D01*
X84116769Y-25906263D01*
X84116759Y-25906267D01*
X83884037Y-26040629D01*
X83763372Y-26133218D01*
X83763372Y-26133219D01*
X84480331Y-26850178D01*
X84356064Y-26933211D01*
X84209811Y-27079464D01*
X84126778Y-27203731D01*
X83409819Y-26486772D01*
X83409818Y-26486772D01*
X83317229Y-26607437D01*
X83182867Y-26840159D01*
X83182863Y-26840169D01*
X83080027Y-27088436D01*
X83010475Y-27348008D01*
X82975401Y-27614426D01*
X82975400Y-27614442D01*
X76090499Y-27614442D01*
X76090499Y-27359992D01*
X76089264Y-27347906D01*
X76079999Y-27257203D01*
X76079998Y-27257200D01*
X76073371Y-27237200D01*
X76024814Y-27090666D01*
X75932712Y-26941344D01*
X75808656Y-26817288D01*
X75715888Y-26760069D01*
X75659336Y-26725187D01*
X75659331Y-26725185D01*
X75657862Y-26724698D01*
X75492797Y-26670001D01*
X75492795Y-26670000D01*
X75390010Y-26659500D01*
X73789998Y-26659500D01*
X73789981Y-26659501D01*
X73687203Y-26670000D01*
X73687200Y-26670001D01*
X73520668Y-26725185D01*
X73520663Y-26725187D01*
X73371342Y-26817289D01*
X73247289Y-26941342D01*
X73155187Y-27090663D01*
X73155186Y-27090666D01*
X73100001Y-27257203D01*
X73100001Y-27257204D01*
X73100000Y-27257204D01*
X73089500Y-27359983D01*
X67041900Y-27359983D01*
X67040323Y-27348008D01*
X66970772Y-27088436D01*
X66867936Y-26840169D01*
X66867932Y-26840159D01*
X66733573Y-26607442D01*
X66640979Y-26486772D01*
X65924021Y-27203730D01*
X65840989Y-27079464D01*
X65694736Y-26933211D01*
X65570467Y-26850177D01*
X66287426Y-26133219D01*
X66166758Y-26040626D01*
X65934040Y-25906267D01*
X65934030Y-25906263D01*
X65685763Y-25803427D01*
X65426191Y-25733875D01*
X65159773Y-25698801D01*
X65159757Y-25698800D01*
X64891043Y-25698800D01*
X64891026Y-25698801D01*
X64624608Y-25733875D01*
X64365036Y-25803427D01*
X64116769Y-25906263D01*
X64116759Y-25906267D01*
X63884037Y-26040629D01*
X63763372Y-26133218D01*
X63763372Y-26133219D01*
X64480331Y-26850178D01*
X64356064Y-26933211D01*
X64209811Y-27079464D01*
X64126778Y-27203731D01*
X63409819Y-26486772D01*
X63409818Y-26486772D01*
X63317229Y-26607437D01*
X63182867Y-26840159D01*
X63182863Y-26840169D01*
X63080027Y-27088436D01*
X63010475Y-27348008D01*
X62975401Y-27614426D01*
X62975400Y-27614442D01*
X43231824Y-27614442D01*
X43129855Y-27437828D01*
X43129854Y-27437827D01*
X43067277Y-27356275D01*
X42231041Y-28192511D01*
X42206022Y-28132110D01*
X42134888Y-28025649D01*
X42044351Y-27935112D01*
X41937890Y-27863978D01*
X41877488Y-27838958D01*
X42713723Y-27002721D01*
X42632172Y-26940145D01*
X42632171Y-26940144D01*
X42427828Y-26822165D01*
X42427819Y-26822160D01*
X42209836Y-26731870D01*
X42209838Y-26731870D01*
X41981914Y-26670799D01*
X41747985Y-26640000D01*
X41512014Y-26640000D01*
X41278085Y-26670799D01*
X41050162Y-26731870D01*
X40832180Y-26822160D01*
X40832171Y-26822165D01*
X40627828Y-26940144D01*
X40627818Y-26940150D01*
X40546275Y-27002720D01*
X40546275Y-27002721D01*
X41382512Y-27838958D01*
X41322110Y-27863978D01*
X41215649Y-27935112D01*
X41125112Y-28025649D01*
X41053978Y-28132110D01*
X41028958Y-28192511D01*
X40192721Y-27356275D01*
X40192720Y-27356275D01*
X40130150Y-27437818D01*
X40130144Y-27437828D01*
X40012165Y-27642171D01*
X40012160Y-27642180D01*
X39921870Y-27860162D01*
X39860799Y-28088085D01*
X39830000Y-28322014D01*
X38430499Y-28322014D01*
X38430499Y-27339992D01*
X38419999Y-27237203D01*
X38364814Y-27070666D01*
X38272712Y-26921344D01*
X38148656Y-26797288D01*
X38031761Y-26725187D01*
X37999336Y-26705187D01*
X37999331Y-26705185D01*
X37980062Y-26698800D01*
X37832797Y-26650001D01*
X37832795Y-26650000D01*
X37730010Y-26639500D01*
X35529998Y-26639500D01*
X35529981Y-26639501D01*
X35427203Y-26650000D01*
X35427200Y-26650001D01*
X35260668Y-26705185D01*
X35260663Y-26705187D01*
X35111342Y-26797289D01*
X34987289Y-26921342D01*
X34895187Y-27070663D01*
X34895185Y-27070668D01*
X34888558Y-27090668D01*
X34840001Y-27237203D01*
X34840001Y-27237204D01*
X34840000Y-27237204D01*
X34829500Y-27339983D01*
X27038692Y-27339983D01*
X26971247Y-27088274D01*
X26909890Y-26940145D01*
X26868388Y-26839949D01*
X26868380Y-26839933D01*
X26805989Y-26731870D01*
X26733987Y-26607159D01*
X26570356Y-26393910D01*
X26570351Y-26393904D01*
X26380295Y-26203848D01*
X26380288Y-26203842D01*
X26167045Y-26040216D01*
X26167044Y-26040215D01*
X26167041Y-26040213D01*
X26074232Y-25986630D01*
X25934266Y-25905819D01*
X25934250Y-25905811D01*
X25685924Y-25802952D01*
X25556108Y-25768168D01*
X25426291Y-25733384D01*
X25426285Y-25733383D01*
X25426280Y-25733382D01*
X25159798Y-25698300D01*
X25159797Y-25698300D01*
X24891003Y-25698300D01*
X24891002Y-25698300D01*
X24624519Y-25733382D01*
X24624512Y-25733383D01*
X24624509Y-25733384D01*
X24622677Y-25733875D01*
X24364875Y-25802952D01*
X24116549Y-25905811D01*
X24116533Y-25905819D01*
X23883754Y-26040216D01*
X23670511Y-26203842D01*
X23670504Y-26203848D01*
X23480448Y-26393904D01*
X23480442Y-26393911D01*
X23316816Y-26607154D01*
X23316813Y-26607158D01*
X23316813Y-26607159D01*
X23316650Y-26607442D01*
X23182419Y-26839933D01*
X23182411Y-26839949D01*
X23079552Y-27088275D01*
X23034288Y-27257204D01*
X23012106Y-27339992D01*
X23009985Y-27347906D01*
X23009982Y-27347919D01*
X22974900Y-27614402D01*
X20500500Y-27614402D01*
X20500500Y-23041947D01*
X73090000Y-23041947D01*
X73090000Y-23278052D01*
X73126934Y-23511247D01*
X73199897Y-23735802D01*
X73307087Y-23946174D01*
X73367338Y-24029104D01*
X73367340Y-24029105D01*
X74107037Y-23289408D01*
X74124075Y-23352993D01*
X74189901Y-23467007D01*
X74282993Y-23560099D01*
X74397007Y-23625925D01*
X74460590Y-23642962D01*
X73720893Y-24382658D01*
X73803828Y-24442914D01*
X74014197Y-24550102D01*
X74238752Y-24623065D01*
X74238751Y-24623065D01*
X74471948Y-24660000D01*
X74708052Y-24660000D01*
X74941247Y-24623065D01*
X75165802Y-24550102D01*
X75376163Y-24442918D01*
X75376169Y-24442914D01*
X75459104Y-24382658D01*
X75459105Y-24382658D01*
X74719408Y-23642962D01*
X74782993Y-23625925D01*
X74897007Y-23560099D01*
X74990099Y-23467007D01*
X75055925Y-23352993D01*
X75072962Y-23289409D01*
X75812658Y-24029105D01*
X75812658Y-24029104D01*
X75872914Y-23946169D01*
X75872918Y-23946163D01*
X75980102Y-23735802D01*
X76053065Y-23511247D01*
X76090000Y-23278052D01*
X76090000Y-23041947D01*
X76053065Y-22808752D01*
X75980102Y-22584197D01*
X75872914Y-22373828D01*
X75812658Y-22290894D01*
X75812658Y-22290893D01*
X75072962Y-23030590D01*
X75055925Y-22967007D01*
X74990099Y-22852993D01*
X74897007Y-22759901D01*
X74782993Y-22694075D01*
X74719409Y-22677037D01*
X75459105Y-21937340D01*
X75459104Y-21937338D01*
X75376174Y-21877087D01*
X75165802Y-21769897D01*
X74941247Y-21696934D01*
X74941248Y-21696934D01*
X74708052Y-21660000D01*
X74471948Y-21660000D01*
X74238752Y-21696934D01*
X74014197Y-21769897D01*
X73803830Y-21877084D01*
X73720894Y-21937340D01*
X74460591Y-22677037D01*
X74397007Y-22694075D01*
X74282993Y-22759901D01*
X74189901Y-22852993D01*
X74124075Y-22967007D01*
X74107037Y-23030591D01*
X73367340Y-22290894D01*
X73307084Y-22373830D01*
X73199897Y-22584197D01*
X73126934Y-22808752D01*
X73090000Y-23041947D01*
X20500500Y-23041947D01*
X20500500Y-22004427D01*
X20500816Y-21995582D01*
X20502234Y-21975754D01*
X20502234Y-21975753D01*
X20515130Y-21795436D01*
X20517646Y-21777938D01*
X20559356Y-21586199D01*
X20564333Y-21569248D01*
X20632909Y-21385389D01*
X20640257Y-21369302D01*
X20646915Y-21357107D01*
X20679298Y-21297802D01*
X20700441Y-21269558D01*
X21269558Y-20700441D01*
X21297802Y-20679298D01*
X21357107Y-20646915D01*
X21369302Y-20640257D01*
X21385389Y-20632909D01*
X21569248Y-20564333D01*
X21586199Y-20559356D01*
X21777938Y-20517646D01*
X21795436Y-20515130D01*
X21995582Y-20500816D01*
X22004428Y-20500500D01*
X22065892Y-20500500D01*
X92414321Y-20500500D01*
X92481360Y-20520185D01*
G37*
%TD.AperFunction*%
%TD*%
M02*
